<?xml version="1.0" encoding="UTF-8"?>
<!DOCTYPE svg PUBLIC "-//W3C//DTD SVG 1.1//EN" "http://www.w3.org/Graphics/SVG/1.1/DTD/svg11.dtd">
<!-- Creator: CorelDRAW 2018 (64-Bit) -->
<svg xmlns="http://www.w3.org/2000/svg" xml:space="preserve" version="1.1" style="shape-rendering:geometricPrecision; text-rendering:geometricPrecision; image-rendering:optimizeQuality; fill-rule:evenodd; clip-rule:evenodd"
viewBox="0 0 1.16 0.66"
 xmlns:xlink="http://www.w3.org/1999/xlink">
 <defs>
  <style type="text/css">
   <![CDATA[
    .fil0 {fill:#000}
   ]]>
  </style>
 </defs>
 <g id="Слой_x0020_1">
  <metadata id="CorelCorpID_0Corel-Layer"/>
  <g id="_1709000582032">
   <path class="fil0" d="M1.15 0.6c-0,-0 -0,-0.01 -0,-0.01 -0.02,-0.04 -0.06,-0.08 -0.12,-0.13l-0 -0 -0 -0 -0 -0 -0 0c-0.03,-0.02 -0.04,-0.04 -0.05,-0.05 -0.01,-0.02 -0.02,-0.03 -0.01,-0.05 0,-0.01 0.02,-0.04 0.05,-0.08 0.02,-0.02 0.03,-0.04 0.04,-0.05 0.07,-0.09 0.1,-0.15 0.09,-0.18l-0 -0.01c-0,-0 -0.01,-0.01 -0.02,-0.01 -0.01,-0 -0.02,-0 -0.04,-0l-0.17 0c-0,-0 -0.01,-0 -0.01,0 -0.01,0 -0.01,0 -0.01,0l-0 0 -0 0c-0,0 -0,0 -0.01,0.01 -0,0 -0,0.01 -0.01,0.01 -0.02,0.05 -0.04,0.09 -0.06,0.14 -0.01,0.02 -0.03,0.05 -0.04,0.06 -0.01,0.02 -0.02,0.03 -0.03,0.04 -0.01,0.01 -0.02,0.02 -0.02,0.02 -0.01,0.01 -0.01,0.01 -0.02,0.01 -0,-0 -0.01,-0 -0.01,-0 -0.01,-0 -0.01,-0.01 -0.01,-0.01 -0,-0.01 -0.01,-0.01 -0.01,-0.02 -0,-0.01 -0,-0.02 -0,-0.02 -0,-0.01 -0,-0.02 0,-0.03 0,-0.01 0,-0.02 0,-0.03 0,-0.02 0,-0.03 0,-0.05 0,-0.02 0,-0.03 0,-0.04 0,-0.01 0,-0.02 0,-0.03 0,-0.01 -0,-0.02 -0,-0.03 -0,-0.01 -0,-0.01 -0.01,-0.02 -0,-0.01 -0.01,-0.01 -0.01,-0.01 -0.01,-0 -0.01,-0.01 -0.02,-0.01 -0.02,-0 -0.05,-0.01 -0.08,-0.01 -0.07,-0 -0.12,0 -0.14,0.01 -0.01,0 -0.02,0.01 -0.02,0.02 -0.01,0.01 -0.01,0.01 -0,0.01 0.02,0 0.04,0.01 0.05,0.03l0 0.01c0,0.01 0.01,0.01 0.01,0.03 0,0.01 0,0.03 0.01,0.04 0,0.03 0,0.05 0,0.08 -0,0.02 -0,0.04 -0.01,0.05 -0,0.01 -0,0.02 -0.01,0.03 -0,0.01 -0.01,0.01 -0.01,0.01 -0,0 -0,0 -0,0 -0.01,0 -0.01,0 -0.02,0 -0.01,0 -0.01,-0 -0.02,-0.01 -0.01,-0.01 -0.02,-0.01 -0.03,-0.02 -0.01,-0.01 -0.02,-0.02 -0.03,-0.04 -0.01,-0.02 -0.02,-0.04 -0.03,-0.06l-0.01 -0.02c-0.01,-0.01 -0.01,-0.03 -0.02,-0.05 -0.01,-0.02 -0.02,-0.04 -0.03,-0.06 -0,-0.01 -0.01,-0.01 -0.01,-0.02l-0 -0c-0,-0 -0.01,-0 -0.01,-0.01 -0,-0 -0.01,-0 -0.01,-0l-0.17 0c-0.02,0 -0.03,0 -0.03,0.01l-0 0c-0,0 -0,0.01 -0,0.01 0,0 0,0.01 0,0.02 0.02,0.06 0.05,0.11 0.08,0.16 0.03,0.05 0.05,0.1 0.07,0.13 0.02,0.03 0.04,0.06 0.06,0.09 0.02,0.03 0.04,0.05 0.04,0.05 0.01,0.01 0.01,0.01 0.02,0.02l0.02 0.01c0.01,0.01 0.02,0.02 0.04,0.03 0.02,0.01 0.04,0.03 0.06,0.04 0.02,0.01 0.05,0.02 0.08,0.03 0.03,0.01 0.06,0.01 0.09,0.01l0.07 0c0.01,-0 0.02,-0.01 0.03,-0.01l0 -0c0,-0 0,-0.01 0,-0.01 0,-0.01 0,-0.01 0,-0.02 -0,-0.02 0,-0.03 0,-0.05 0,-0.01 0.01,-0.02 0.01,-0.03 0,-0.01 0.01,-0.01 0.01,-0.02 0,-0 0.01,-0.01 0.01,-0.01 0,-0 0,-0 0,-0 0.01,-0 0.02,-0 0.03,0.01 0.01,0.01 0.03,0.02 0.04,0.04 0.01,0.01 0.03,0.03 0.04,0.05 0.02,0.02 0.03,0.03 0.04,0.04l0.01 0.01c0.01,0 0.02,0.01 0.03,0.01 0.01,0 0.02,0.01 0.03,0l0.15 -0c0.02,0 0.03,-0 0.04,-0.01 0.01,-0.01 0.01,-0.01 0.02,-0.02 0,-0.01 0,-0.01 0,-0.02 -0,-0.01 -0,-0.01 -0,-0.02z"/>
  </g>
 </g>
</svg>
