<?xml version="1.0" encoding="UTF-8"?>
<!DOCTYPE svg PUBLIC "-//W3C//DTD SVG 1.1//EN" "http://www.w3.org/Graphics/SVG/1.1/DTD/svg11.dtd">
<!-- Creator: CorelDRAW 2018 (64-Bit) -->
<svg xmlns="http://www.w3.org/2000/svg" xml:space="preserve" version="1.1" style="shape-rendering:geometricPrecision; text-rendering:geometricPrecision; image-rendering:optimizeQuality; fill-rule:evenodd; clip-rule:evenodd"
viewBox="0 0 0.9 0.62"
 xmlns:xlink="http://www.w3.org/1999/xlink">
 <defs>
  <style type="text/css">
   <![CDATA[
    .fil0 {fill:#000}
   ]]>
  </style>
 </defs>
 <g id="Слой_x0020_1">
  <metadata id="CorelCorpID_0Corel-Layer"/>
  <g id="_1674467175136">
   <g>
    <g>
     <path class="fil0" d="M0.86 0.06c-0.02,-0.04 -0.05,-0.05 -0.1,-0.05 -0.05,-0 -0.19,-0.01 -0.31,-0.01 -0.12,0 -0.25,0 -0.31,0.01 -0.05,0 -0.08,0.01 -0.1,0.05 -0.03,0.04 -0.04,0.12 -0.04,0.25 0,0 0,0 0,0 0,0 0,0 0,0l0 0c0,0.13 0.01,0.21 0.04,0.25 0.02,0.04 0.05,0.05 0.1,0.05 0.05,0 0.19,0 0.31,0 0.12,0 0.25,-0 0.31,-0 0.05,-0 0.08,-0.01 0.1,-0.05 0.03,-0.04 0.04,-0.12 0.04,-0.25 0,0 0,-0 0,-0 0,0 0,-0 0,-0 0,-0.13 -0.01,-0.21 -0.04,-0.25zm-0.52 0.42l0 -0.34 0.28 0.17 -0.28 0.17z"/>
    </g>
   </g>
   <g>
   </g>
   <g>
   </g>
   <g>
   </g>
   <g>
   </g>
   <g>
   </g>
   <g>
   </g>
   <g>
   </g>
   <g>
   </g>
   <g>
   </g>
   <g>
   </g>
   <g>
   </g>
   <g>
   </g>
   <g>
   </g>
   <g>
   </g>
   <g>
   </g>
  </g>
 </g>
</svg>
