<?xml version="1.0" encoding="UTF-8"?>
<!DOCTYPE svg PUBLIC "-//W3C//DTD SVG 1.1//EN" "http://www.w3.org/Graphics/SVG/1.1/DTD/svg11.dtd">
<!-- Creator: CorelDRAW 2018 (64-Bit) -->
<svg xmlns="http://www.w3.org/2000/svg" xml:space="preserve" width="23.9858mm" height="23.9858mm" version="1.1" style="shape-rendering:geometricPrecision; text-rendering:geometricPrecision; image-rendering:optimizeQuality; fill-rule:evenodd; clip-rule:evenodd"
viewBox="0 0 106.02 106.02"
 xmlns:xlink="http://www.w3.org/1999/xlink">
 <defs>
  <style type="text/css">
   <![CDATA[
    .fil0 {fill:#FEFEFE;}
    .fil1 {fill:#3D1D21;fill-rule:nonzero}
   ]]>
  </style>
 </defs>
 <g id="Слой_x0020_1">
  <metadata id="CorelCorpID_0Corel-Layer"/>
  <path class="fil0" d="M53.01 0c29.28,0 53.01,23.73 53.01,53.01 0,29.28 -23.73,53.01 -53.01,53.01 -29.28,0 -53.01,-23.73 -53.01,-53.01 0,-29.28 23.73,-53.01 53.01,-53.01z"/>
  <path class="fil1" d="M66.34 75.32l-25.92 0 0 -6 11.9 -15.19c1.51,-2.09 2.62,-3.94 3.34,-5.53 0.71,-1.59 1.07,-3.1 1.07,-4.56 0,-1.97 -0.34,-3.51 -1.01,-4.61 -0.68,-1.11 -1.65,-1.67 -2.92,-1.67 -1.39,0 -2.5,0.65 -3.31,1.95 -0.82,1.3 -1.23,3.13 -1.23,5.48l-8.58 0c0,-2.7 0.57,-5.17 1.68,-7.41 1.11,-2.24 2.69,-3.98 4.71,-5.22 2.02,-1.24 4.32,-1.86 6.88,-1.86 3.92,0 6.97,1.08 9.14,3.25 2.17,2.17 3.25,5.25 3.25,9.23 0,2.49 -0.6,5 -1.8,7.55 -1.2,2.55 -3.36,5.69 -6.51,9.44l-5.65 8.1 14.96 0 0 7.06z"/>
 </g>
</svg>
