<?xml version="1.0" encoding="UTF-8"?>
<!DOCTYPE svg PUBLIC "-//W3C//DTD SVG 1.1//EN" "http://www.w3.org/Graphics/SVG/1.1/DTD/svg11.dtd">
<!-- Creator: CorelDRAW 2018 (64-Bit) -->
<svg xmlns="http://www.w3.org/2000/svg" xml:space="preserve" width="23.9858mm" height="23.9858mm" version="1.1" style="shape-rendering:geometricPrecision; text-rendering:geometricPrecision; image-rendering:optimizeQuality; fill-rule:evenodd; clip-rule:evenodd"
viewBox="0 0 120.67 120.67"
 xmlns:xlink="http://www.w3.org/1999/xlink">
 <defs>
  <style type="text/css">
   <![CDATA[
    .fil0 {fill:#FEFEFE;}
    .fil1 {fill:#3D1D21;fill-rule:nonzero}
   ]]>
  </style>
 </defs>
 <g id="Слой_x0020_1">
  <metadata id="CorelCorpID_0Corel-Layer"/>
  <path class="fil0" d="M60.34 0c33.32,0 60.34,27.01 60.34,60.34 0,33.32 -27.01,60.34 -60.34,60.34 -33.32,0 -60.34,-27.01 -60.34,-60.34 0,-33.32 27.01,-60.34 60.34,-60.34z"/>
  <path class="fil1" d="M55.04 55.86l4.71 0c1.8,0 3.11,-0.62 3.94,-1.88 0.83,-1.26 1.26,-2.92 1.26,-5.02 0,-2 -0.43,-3.56 -1.29,-4.67 -0.86,-1.12 -2.01,-1.67 -3.45,-1.67 -1.36,0 -2.47,0.53 -3.32,1.6 -0.86,1.07 -1.29,2.42 -1.29,4.04l-9.73 0c0,-2.62 0.6,-4.97 1.81,-7.04 1.2,-2.08 2.89,-3.7 5.05,-4.86 2.17,-1.17 4.58,-1.76 7.21,-1.76 4.61,0 8.22,1.27 10.84,3.82 2.62,2.54 3.92,6.02 3.92,10.44 0,2.28 -0.59,4.38 -1.77,6.3 -1.19,1.94 -2.74,3.43 -4.66,4.45 2.36,1.01 4.12,2.54 5.28,4.56 1.15,2.02 1.74,4.41 1.74,7.17 0,4.46 -1.42,8.03 -4.25,10.72 -2.83,2.69 -6.55,4.04 -11.16,4.04 -4.29,0 -7.76,-1.33 -10.44,-3.98 -2.66,-2.64 -4,-6.13 -4,-10.44l9.73 0c0,1.8 0.47,3.32 1.41,4.54 0.94,1.23 2.14,1.84 3.58,1.84 1.67,0 2.99,-0.62 3.97,-1.88 0.97,-1.24 1.47,-2.91 1.47,-4.99 0,-4.98 -1.93,-7.48 -5.75,-7.5l-4.78 0 0 -7.82z"/>
 </g>
</svg>
