<?xml version="1.0" encoding="UTF-8"?>
<!DOCTYPE svg PUBLIC "-//W3C//DTD SVG 1.1//EN" "http://www.w3.org/Graphics/SVG/1.1/DTD/svg11.dtd">
<!-- Creator: CorelDRAW 2018 (64-Bit) -->
<svg xmlns="http://www.w3.org/2000/svg" xml:space="preserve" width="23.9858mm" height="23.9858mm" version="1.1" style="shape-rendering:geometricPrecision; text-rendering:geometricPrecision; image-rendering:optimizeQuality; fill-rule:evenodd; clip-rule:evenodd"
viewBox="0 0 166.76 166.76"
 xmlns:xlink="http://www.w3.org/1999/xlink">
 <defs>
  <style type="text/css">
   <![CDATA[
    .fil0 {fill:#FEFEFE;}
    .fil1 {fill:#3D1D21;fill-rule:nonzero}
   ]]>
  </style>
 </defs>
 <g id="Слой_x0020_1">
  <metadata id="CorelCorpID_0Corel-Layer"/>
  <path class="fil0" d="M83.38 0c46.05,0 83.38,37.33 83.38,83.38 0,46.05 -37.33,83.38 -83.38,83.38 -46.05,0 -83.38,-37.33 -83.38,-83.38 0,-46.05 37.33,-83.38 83.38,-83.38z"/>
  <path class="fil1" d="M65.46 83.98l3.42 -35.21 33.5 0 0 11.49 -22.49 0 -1.23 14.88c2.6,-1.74 5.27,-2.61 8.03,-2.61 5.71,0 10.11,2.03 13.19,6.08 3.1,4.06 4.64,9.78 4.64,17.2 0,6.94 -1.83,12.54 -5.52,16.78 -3.67,4.25 -8.58,6.38 -14.73,6.38 -3.65,0 -7.02,-0.86 -10.12,-2.6 -3.11,-1.72 -5.56,-4.12 -7.35,-7.19 -1.78,-3.08 -2.69,-6.57 -2.73,-10.46l13.3 0c0.23,2.9 0.94,5.16 2.14,6.75 1.2,1.61 2.76,2.4 4.66,2.4 2.22,0 3.93,-1.07 5.13,-3.21 1.22,-2.14 1.82,-5.35 1.82,-9.6 0,-4.01 -0.73,-7.02 -2.17,-9.05 -1.43,-2.03 -3.46,-3.05 -6.05,-3.05 -2.53,0 -4.49,0.88 -5.89,2.61l-0.86 1.18 -10.69 -2.76z"/>
 </g>
</svg>
