<?xml version="1.0" encoding="UTF-8"?><!DOCTYPE svg PUBLIC "-//W3C//DTD SVG 1.1//EN" "http://www.w3.org/Graphics/SVG/1.1/DTD/svg11.dtd"><!-- Creator: CorelDRAW 2018 (64-Bit) --><svg xmlns="http://www.w3.org/2000/svg" xml:space="preserve" width="107.984mm" height="58.6033mm" version="1.1" style="shape-rendering:geometricPrecision; text-rendering:geometricPrecision; image-rendering:optimizeQuality; fill-rule:evenodd; clip-rule:evenodd" viewBox="0 0 340.13 184.59" xmlns:xlink="http://www.w3.org/1999/xlink"><defs><style type="text/css"><![CDATA[.fil0 {fill:#3D1D21}.fil1{fill:#3D1D21;fill-rule:nonzero}]]></style></defs><g id="Слой_x0020_1"><metadata id="CorelCorpID_0Corel-Layer"/><g id="_2039814645184"><g><path class="fil0" d="M206 33.68c-0.26,-0.25 6.13,4.07 16.69,19.61 6.71,9.86 15.99,6.67 18.37,4.69 -12.66,-15.9 -26.81,-28.47 -27.66,-28.95 -0.33,-0.19 10.91,4.63 26.18,20.06 6.53,6.6 12.12,5.49 17.15,1.73 -14.83,-14.55 -31.83,-25.5 -32.77,-25.85 -0.37,-0.14 11.71,2.16 29.69,16.29 9.41,7.4 14.79,5.58 25.34,2.25 -17.64,-14.86 -41.59,-25.18 -42.71,-25.37 -0.45,-0.08 21.55,2.71 45.19,19.06 9.55,6.6 12.01,2.81 23,1.4 -0.88,-0.69 -1.8,-1.4 -2.75,-2.12 -19.24,-14.7 -50.48,-22.35 -51.75,-22.35 -0.53,0 28.39,0.99 60.36,18.82 11.06,6.17 17.47,3.6 29.79,3.91 0.05,0.02 -53.33,-53.33 -117.55,-31.66 -11.95,4.03 -17.83,23.91 -47.24,28.67 -4.41,31.55 -0.88,35.38 6.78,42.26 2.49,-17.28 3.27,-31.8 3.19,-32.77 -0.03,-0.36 0.96,5.11 0.78,21.01 -0.12,10.1 5.62,15.48 11.07,17.22 -0.61,-23.58 -4.03,-37.79 -4.4,-38.93 -0.12,-0.38 2.68,5.5 6.68,25.55 1.56,7.81 8.94,9.24 12.95,8.54 -4.95,-20.48 -11.7,-38.37 -12.23,-39.28 -0.19,-0.33 4.79,7.3 11.3,24.1 3.36,8.68 12.22,7.6 14.67,5.15 -9.15,-17.75 -19.42,-32.34 -20.11,-33.02z"/><path class="fil0" d="M134.13 33.68c0.26,-0.25 -6.13,4.07 -16.69,19.61 -6.71,9.86 -15.98,6.67 -18.37,4.69 12.66,-15.9 26.81,-28.47 27.66,-28.95 0.33,-0.19 -10.91,4.63 -26.18,20.06 -6.53,6.6 -12.12,5.49 -17.15,1.73 14.83,-14.55 31.83,-25.5 32.77,-25.85 0.37,-0.14 -11.72,2.16 -29.69,16.29 -9.41,7.4 -14.79,5.58 -25.34,2.25 17.64,-14.86 41.59,-25.18 42.71,-25.37 0.45,-0.08 -21.55,2.71 -45.19,19.06 -9.55,6.6 -12.01,2.81 -23,1.4 0.88,-0.69 1.8,-1.4 2.75,-2.12 19.24,-14.7 50.48,-22.35 51.75,-22.35 0.53,0 -28.39,0.99 -60.36,18.82 -11.06,6.17 -17.47,3.6 -29.79,3.91 -0.05,0.02 53.33,-53.33 117.55,-31.66 11.95,4.03 17.83,23.91 47.24,28.67 4.41,31.55 0.88,35.38 -6.78,42.26 -2.49,-17.28 -3.27,-31.8 -3.19,-32.77 0.03,-0.36 -0.96,5.11 -0.78,21.01 0.12,10.1 -5.62,15.48 -11.07,17.22 0.61,-23.58 4.03,-37.79 4.4,-38.93 0.12,-0.38 -2.68,5.5 -6.68,25.55 -1.56,7.81 -8.94,9.24 -12.95,8.54 4.95,-20.48 11.7,-38.37 12.23,-39.28 0.19,-0.33 -4.79,7.3 -11.3,24.1 -3.36,8.68 -12.22,7.6 -14.67,5.15 9.15,-17.75 19.42,-32.34 20.11,-33.02z"/></g><g><path class="fil0" d="M20.45 98.75c0,1.46 0.38,2.68 0.84,4.08 0.41,1.23 2.7,8.79 3.05,9.35 1.95,3.17 3.67,-1.04 4.34,-2.74 0.88,-2.24 1.85,-5.4 3.76,-6.94l1.42 -1.15c1.81,-1.19 3.79,-1.33 6.05,-1.33 2.4,0 4.67,0.52 6.7,1.53 1.42,0.71 2.56,1.48 3.78,2.42 0.41,0.31 0.72,0.66 1.09,1.04l1.91 2.15c2.3,2.87 3.3,6.44 3.3,10.18 0,1.55 -1.24,2.25 -2.67,2.25l-14.76 -0c-1.37,0 -3.8,-0.24 -4.49,0.43 -0.37,0.36 -1.31,2.89 -1.51,3.4 -0.69,1.72 -1.53,3.55 -2,5.38 -0.65,2.6 0.85,1.61 3.75,1.19 3.46,-0.51 9.88,-0.2 13.76,-0.24 0.64,-0.01 2.94,-0.45 3.33,-0.73 1.38,-1 2.12,-2.79 2.74,-4.31 0.11,-0.26 0.18,-0.51 0.3,-0.77 0.24,-0.51 0.53,-0.79 0.99,-1.04 0.99,0.52 1.07,1.68 1.07,2.78 0,4.9 -1.83,9.29 -4.79,12.96 -1.37,1.7 -3.21,3.36 -4.98,4.64 -1.08,0.78 -2.18,1.43 -3.41,2.04 -2.76,1.38 -5.72,2.07 -8.95,2.07 -1.38,0 -2.96,-0.08 -4.32,-0.28 -1.43,-0.21 -2.59,-0.32 -3.97,-0.62 -0.6,-0.13 -1.18,-0.33 -1.74,-0.5 -1.03,-0.33 -4.57,-1.48 -5.46,-1.48 -1.66,0 -2.28,2.3 0.05,4.13l10.78 8.57c2.12,1.73 2.08,1.84 5.11,2.16l4.69 0.23c5.8,0 11.27,-2.12 15.53,-5.74l1.62 -1.38c0.81,-0.68 1.72,-1.51 2.37,-2.34 1.56,-2.03 2.61,-2.78 4.14,-5.59 1.04,-1.9 1.7,-3.19 2.53,-5.28 1.51,-3.77 2.24,-9.15 2.24,-13.26 0,-1.75 -0.15,-3.51 -0.34,-5.11 -0.62,-5.12 -2.47,-9.97 -5.09,-14.16 -0.87,-1.4 -1.94,-2.7 -2.95,-4 -0.25,-0.31 -0.42,-0.42 -0.66,-0.73 -1.38,-1.78 -4.05,-3.94 -5.92,-5.2 -0.55,-0.37 -1.06,-0.64 -1.66,-1.01 -2.98,-1.81 -7.1,-2.98 -10.52,-3.27 -0.82,-0.07 -1.78,-0.03 -2.67,-0.11 -1.42,-0.12 -3.5,0.02 -5.01,0.24 -0.79,0.11 -1.59,0.21 -2.42,0.36 -1.7,0.32 -2.99,0.6 -4.53,1.03 -1.31,0.37 -2.87,0.94 -3.96,1.6 -0.57,0.34 -1.16,0.7 -1.56,1.22 -0.35,0.45 -0.91,1.13 -0.91,1.87z"/><path class="fil0" d="M208.18 95.65c0,0.75 0.11,1.26 1.04,1.52 1.68,0.47 3.37,1 4.65,2.29 2.04,2.05 2.11,4.21 2.11,7.2l0 46.31c0,1.82 -0.2,2.89 0.54,4.06 0.45,0.72 1.8,1.71 2.99,1.71l33.78 0c1.71,0 2.62,-1.18 3,-2.67 0.19,-0.76 0.32,-1.57 0.49,-2.4l2.29 -12.15c0,-2.29 -1.85,-2.04 -3.59,0.26 -1.56,2.07 -3.73,6.07 -6.36,7.44 -0.86,0.44 -3.73,1.31 -4.6,1.5 -1.02,0.22 -2.95,0.41 -4.05,0.44 -0.52,0.02 -1.08,-0 -1.61,-0 -3.64,-0 -6.89,1.11 -9.46,-2.3 -1,-1.32 -1.34,-2.61 -1.34,-4.86l0 -10.8c0,-3.19 0.83,-3.85 4.06,-3.85l11.98 0c1.34,-0 2.31,-0.21 2.56,-1.4 0.28,-1.37 1.29,-5.62 1.29,-6.73 0,-0.7 -0.24,-1.32 -0.64,-1.61 -0.55,-0.38 -1.01,-0.28 -1.81,-0.2 -1.32,0.13 -2.83,0.33 -4.1,0.5 -1.34,0.17 -2.99,-0.02 -4.31,0.18 -1.41,0.21 -3.06,0.06 -4.54,0.06 -0.03,0.4 -0.48,1.37 -0.62,1.73 -0.39,0.99 -1.47,2.84 -2.15,3.73 -0.52,0.69 -1.96,0.61 -1.91,-0.53l0.09 -5.68c0,-2.62 0.11,-4.93 0.11,-7.49 0,-2.5 -0.04,-5.17 0.1,-7.49 0.18,-2.78 1.5,-3.31 4.39,-3.31 3.33,0 7.46,-0.27 10.51,0.93 0.85,0.33 1.42,0.53 2.11,0.99 2.26,1.51 3.13,2.78 4.48,5.03 0.4,0.66 0.76,1.29 1.18,1.92l1.28 1.93c0.8,-0.19 1.18,-0.87 1.18,-1.71l-0.35 -9.06c-0.41,-3.02 0.73,-6.87 -2.54,-6.87l-40.3 0c-0.95,0 -1.92,0.42 -1.92,1.39z"/><path class="fil0" d="M296.69 125.39c-0.26,0.5 -0.45,1.09 -0.69,1.67 -0.24,0.57 -0.5,1.03 -0.77,1.58 -0.27,0.54 -1.42,2.64 -2.17,2.64 -0.76,0 -1.18,-0.39 -1.18,-1.18l0 -24.6c0,-1.5 0.51,-2.48 1.86,-3.06 2.56,-1.11 7.27,-0.83 9.72,0.25 5.94,2.61 7.22,12.77 3.67,18.07 -1.32,1.97 -2.67,3.14 -4.98,4 -1.54,0.57 -3.31,0.64 -5.45,0.64zm-24.16 -29.63c0,1.37 0.87,1.47 1.47,1.63 1.21,0.32 2.78,0.92 3.63,1.71 1.5,1.4 2.59,3.11 2.8,5.76 0.06,0.81 0.08,3.39 -0.02,4.14 -0.17,1.25 -0.08,11.02 -0.08,12.76 0,2.81 -0.11,5.44 -0.11,8.34 0,2.85 -0,5.7 0,8.56 0,1.42 -0.11,2.57 -0.11,4.06l0 12.84c0,1.79 2.11,3.32 3.42,3.32l17.53 0c0.33,0 0.71,-0.21 0.89,-0.39 0.18,-0.18 0.39,-0.71 0.39,-1 0,-1.95 -3.71,-2.19 -5.85,-3.24 -1.63,-0.81 -2.68,-2.5 -3.07,-4.31 -0.88,-4.07 -0.92,-8.56 -0.92,-12.77 0,-4.01 5.98,-4.18 9.06,-4.63 4.59,-0.67 8.63,-2.23 12.41,-4.8 0.35,-0.24 0.63,-0.48 0.96,-0.75 0.36,-0.3 0.57,-0.51 0.91,-0.8 0.51,-0.43 0.43,-0.34 0.86,-0.86 1.2,-1.44 0.69,-0.42 2.3,-2.83 0.24,-0.37 0.47,-0.67 0.66,-1.05 0.19,-0.38 0.37,-0.73 0.57,-1.14 0.35,-0.74 0.72,-1.65 0.95,-2.47 1.52,-5.5 1.13,-13.92 -3.04,-18.07 -0.12,-0.12 -0.15,-0.15 -0.26,-0.27 -3.54,-3.92 -9.83,-5.1 -14.89,-5.1l-28.33 0c-1.07,0 -2.14,0.35 -2.14,1.39z"/><path class="fil0" d="M85.13 124.96c0,3.83 0.35,7.85 1.15,11.04 0.87,3.43 2.22,7.14 4.15,10.08 1.25,1.9 2.19,3.23 3.81,4.85 0.51,0.51 0.93,0.94 1.44,1.45l2.34 1.94c3.34,2.3 6.29,4.15 10.92,4.91 1.32,0.22 3.86,0.61 5.03,0.15 0.68,-0.27 1.34,-0.59 1.93,-0.95l10.43 -6.78c0.61,-0.41 1.17,-0.71 1.75,-1.14 0.58,-0.44 1.12,-0.77 1.72,-1.17 1.37,-0.91 1.41,-0.79 1.41,-2.12 0,-0.69 -0.66,-1.18 -1.39,-1.18 -1.06,0 -4.62,1.39 -8.55,1.39 -4.3,0 -7.76,-0.34 -11.56,-2.34l-1.87 -1.12c-0.7,-0.41 -1.13,-0.76 -1.72,-1.27l-3.03 -2.96c-2.2,-2.74 -3.15,-4.16 -4.49,-7.49 -2.11,-5.22 -2.26,-12.67 -0.9,-18.05 0.3,-1.21 0.57,-2.31 0.99,-3.39 0.74,-1.87 1.48,-3.4 2.66,-5.04 2.09,-2.91 5.32,-5.2 9.24,-5.2 2.64,0 3.52,0.17 5.65,1.83 2.98,2.33 4.01,8.95 5.63,11.37 0.96,1.44 2.04,0.3 2.36,-0.52l1.86 -6.38c0.18,-0.68 0.38,-1.38 0.6,-2.07 0.25,-0.75 0.4,-1.39 0.64,-2.14 0.59,-1.83 1.62,-4.71 0.38,-6.29 -0.19,-0.25 -0.38,-0.31 -0.64,-0.54 -0.87,-0.78 -1.19,-0.94 -2.2,-1.54 -0.54,-0.32 -1,-0.6 -1.61,-0.85 -3.79,-1.5 -7.58,-1.33 -11.93,-1.33 -2.39,0 -4.5,0.43 -6.46,0.92 -2.03,0.51 -3.63,1.21 -5.27,2.11 -3.09,1.7 -5.67,4.19 -7.75,7.01 -4.67,6.36 -6.72,14.74 -6.72,22.8z"/><path class="fil0" d="M183.59 94.8c-1.49,0 -5.48,-0.15 -6.9,-0.37 -1.39,-0.21 -4.74,-0.28 -6.48,-0.47 -1.03,-0.11 -2.25,-0.02 -3.25,-0.17l-10.1 -0.27c-0.68,-0 -0.89,-0.12 -1.6,-0.11l-3.4 -0.03c-2.69,-0.31 -4.12,5 -4.82,7.11 -0.54,1.61 -3.75,9.61 -1.4,9.61 0.54,0 6.61,-4.36 7.61,-5.01 0.54,-0.35 1.49,-0.76 2.13,-0.97 4.73,-1.57 8.85,-1.3 13.89,-1.3 0.91,0 1.26,1.27 0.32,1.82l-2.63 1.54c-0.84,0.5 -2.93,1.52 -2.93,2.63l0 46.42c0,2.13 2.16,3.53 3.42,3.53l17.64 0c0.97,0 2.56,-2.4 -1.84,-3.51 -1.27,-0.32 -2.49,-0.85 -3.57,-1.56 -2.01,-1.32 -2.46,-4.73 -2.83,-7.33 -0.27,-1.95 -0.42,-4.2 -0.42,-6.42l-0 -22.78c-0,-0.87 0.11,-1.4 0.11,-2.14 0,-1.5 0.11,-7.4 0.36,-8.52 0.65,-2.91 1.79,-2.4 5.09,-2.4 0.96,0 2.16,0.02 3.06,0.15 0.87,0.13 3.59,0.21 4.34,-0.24 1.49,-0.9 5.22,-11.27 5.22,-13.07 0,-1.11 -0.97,-1.64 -1.79,-1.05l-3.67 2.96c-1.3,0.97 -3.3,1.94 -5.54,1.94z"/></g><path class="fil1" d="M84.3 177.09c0,-0.37 -0.1,-0.67 -0.31,-0.9 -0.21,-0.22 -0.49,-0.34 -0.84,-0.34 -0.31,0 -0.57,0.11 -0.76,0.32 -0.2,0.22 -0.3,0.5 -0.3,0.86l-2.05 0c0,-0.56 0.14,-1.06 0.41,-1.5 0.27,-0.44 0.65,-0.78 1.13,-1.02 0.48,-0.24 1,-0.36 1.58,-0.36 1.01,0 1.8,0.25 2.36,0.76 0.56,0.5 0.85,1.22 0.85,2.13 0,0.47 -0.12,0.89 -0.35,1.27 -0.24,0.39 -0.56,0.69 -0.97,0.91 0.46,0.2 0.82,0.49 1.07,0.89 0.25,0.4 0.38,0.89 0.38,1.48 0,0.91 -0.3,1.64 -0.91,2.17 -0.61,0.53 -1.42,0.8 -2.43,0.8 -0.61,0 -1.17,-0.12 -1.66,-0.35 -0.5,-0.24 -0.88,-0.58 -1.16,-1.02 -0.28,-0.44 -0.41,-0.97 -0.41,-1.58l2.06 0c0,0.35 0.11,0.65 0.33,0.89 0.22,0.25 0.5,0.37 0.85,0.37 0.39,0 0.7,-0.12 0.93,-0.37 0.23,-0.25 0.35,-0.56 0.35,-0.95 0,-0.52 -0.1,-0.9 -0.3,-1.13 -0.2,-0.23 -0.49,-0.34 -0.87,-0.34l-1.04 0 0 -1.66 1.05 0c0.69,-0 1.03,-0.46 1.03,-1.36z"/><path id="1" class="fil1" d="M93.41 182.37l-2.8 0 -0.55 2.07 -2.17 0 3.17 -10.16 1.88 0 3.2 10.16 -2.19 0 -0.55 -2.07zm-2.35 -1.71l1.9 0 -0.95 -3.62 -0.95 3.62z"/><polygon id="2" class="fil1" points="100.64,180.3 99.75,180.3 99.75,184.45 97.7,184.45 97.7,174.29 99.75,174.29 99.75,178.34 100.44,178.34 102.2,174.29 104.7,174.29 102.22,179.02 104.98,184.45 102.54,184.45 "/><path id="3" class="fil1" d="M108.39 180.87l0 3.57 -2.05 0 0 -10.16 3.46 0c1,0 1.81,0.31 2.4,0.94 0.6,0.62 0.9,1.43 0.9,2.43 0,1 -0.3,1.78 -0.89,2.36 -0.59,0.58 -1.41,0.86 -2.46,0.86l-1.37 0zm0 -1.71l1.41 0c0.39,0 0.69,-0.13 0.91,-0.38 0.21,-0.25 0.32,-0.63 0.32,-1.11 0,-0.5 -0.11,-0.91 -0.33,-1.21 -0.22,-0.3 -0.51,-0.45 -0.88,-0.45l-1.43 0 0 3.16z"/><path id="4" class="fil1" d="M117.13 177.93l1.21 0c1.03,0 1.85,0.29 2.45,0.88 0.61,0.58 0.91,1.36 0.91,2.34 0,0.97 -0.3,1.76 -0.89,2.36 -0.6,0.61 -1.38,0.91 -2.36,0.93l-3.38 0 0 -10.16 2.06 0 0 3.64zm7.17 6.52l-2.05 0 0 -10.16 2.05 0 0 10.16zm-7.17 -4.81l0 3.11 1.24 0c0.4,0 0.71,-0.15 0.95,-0.45 0.23,-0.3 0.35,-0.69 0.35,-1.16 0,-0.44 -0.11,-0.81 -0.34,-1.08 -0.23,-0.28 -0.54,-0.42 -0.94,-0.42l-1.26 0z"/><polygon id="5" class="fil1" points="133.12,176 130.61,176 130.61,184.45 128.55,184.45 128.55,176 126.08,176 126.08,174.29 133.12,174.29 "/><path id="6" class="fil1" d="M136.97 177.93l1.21 0c1.03,0 1.85,0.29 2.45,0.88 0.61,0.58 0.91,1.36 0.91,2.34 0,0.97 -0.3,1.76 -0.89,2.36 -0.6,0.61 -1.38,0.91 -2.36,0.93l-3.38 0 0 -10.16 2.06 0 0 3.64zm7.17 6.52l-2.05 0 0 -10.16 2.05 0 0 10.16zm-7.17 -4.81l0 3.11 1.24 0c0.4,0 0.71,-0.15 0.95,-0.45 0.23,-0.3 0.35,-0.69 0.35,-1.16 0,-0.44 -0.11,-0.81 -0.34,-1.08 -0.23,-0.28 -0.54,-0.42 -0.94,-0.42l-1.26 0z"/><path id="7" class="fil1" d="M151.35 174.29l2.05 0 0 10.16 -2.05 0 0 -6.73 -2.99 6.73 -2.06 0 0 -10.16 2.06 0 0 6.73 2.99 -6.73zm0.93 -2.69c0,0.62 -0.22,1.12 -0.67,1.5 -0.45,0.38 -1.03,0.57 -1.76,0.57 -0.73,0 -1.32,-0.19 -1.76,-0.57 -0.44,-0.38 -0.66,-0.88 -0.66,-1.5l1.44 0c0,0.29 0.09,0.52 0.26,0.68 0.17,0.16 0.41,0.25 0.72,0.25 0.3,0 0.54,-0.08 0.71,-0.25 0.17,-0.16 0.26,-0.39 0.26,-0.68l1.45 0z"/><polygon id="8" class="fil1" points="165.91,180.33 164.94,180.33 164.94,184.45 162.89,184.45 162.89,180.33 161.89,180.33 160.29,184.45 157.74,184.45 160.3,178.88 157.85,174.29 160.4,174.29 162.05,178.37 162.89,178.37 162.89,174.29 164.94,174.29 164.94,178.37 165.75,178.37 167.35,174.29 169.9,174.29 167.5,178.86 170.01,184.45 167.45,184.45 "/><polygon id="9" class="fil1" points="176.78,180.06 173.59,180.06 173.59,182.75 177.37,182.75 177.37,184.45 171.54,184.45 171.54,174.29 177.35,174.29 177.35,176 173.59,176 173.59,178.4 176.78,178.4 "/><polygon id="10" class="fil1" points="186.26,184.45 184.22,184.45 184.22,180.1 181.19,180.1 181.19,184.45 179.14,184.45 179.14,174.29 181.19,174.29 181.19,178.4 184.22,178.4 184.22,174.29 186.26,174.29 "/><path id="11" class="fil1" d="M195.38 181.07c-0.05,1.16 -0.38,2.04 -0.98,2.63 -0.6,0.6 -1.45,0.89 -2.54,0.89 -1.15,0 -2.03,-0.38 -2.64,-1.13 -0.61,-0.76 -0.92,-1.84 -0.92,-3.24l0 -1.71c0,-1.4 0.32,-2.47 0.95,-3.23 0.63,-0.76 1.51,-1.13 2.64,-1.13 1.1,0 1.95,0.31 2.52,0.93 0.57,0.62 0.9,1.51 0.98,2.66l-2.06 0c-0.02,-0.72 -0.13,-1.21 -0.33,-1.48 -0.2,-0.27 -0.57,-0.41 -1.11,-0.41 -0.55,0 -0.94,0.19 -1.17,0.58 -0.23,0.39 -0.35,1.02 -0.36,1.9l0 1.92c0,1.01 0.11,1.7 0.34,2.08 0.23,0.38 0.61,0.57 1.16,0.57 0.54,0 0.91,-0.13 1.12,-0.4 0.2,-0.26 0.32,-0.74 0.35,-1.43l2.05 0z"/><polygon id="12" class="fil1" points="200.2,180.3 199.31,180.3 199.31,184.45 197.26,184.45 197.26,174.29 199.31,174.29 199.31,178.34 200,178.34 201.76,174.29 204.26,174.29 201.78,179.02 204.54,184.45 202.1,184.45 "/><polygon id="13" class="fil1" points="210.87,174.29 212.92,174.29 212.92,184.45 210.87,184.45 210.87,177.72 207.88,184.45 205.82,184.45 205.82,174.29 207.88,174.29 207.88,181.02 "/><path id="14" class="fil1" d="M220.12 174.29l2.05 0 0 10.16 -2.05 0 0 -6.73 -2.99 6.73 -2.06 0 0 -10.16 2.06 0 0 6.73 2.99 -6.73zm0.93 -2.69c0,0.62 -0.22,1.12 -0.67,1.5 -0.45,0.38 -1.03,0.57 -1.76,0.57 -0.73,0 -1.32,-0.19 -1.76,-0.57 -0.44,-0.38 -0.66,-0.88 -0.66,-1.5l1.44 0c0,0.29 0.09,0.52 0.26,0.68 0.17,0.16 0.41,0.25 0.72,0.25 0.3,0 0.54,-0.08 0.71,-0.25 0.17,-0.16 0.26,-0.39 0.26,-0.68l1.45 0z"/><polygon id="15" class="fil1" points="230.05,180.3 229.16,180.3 229.16,184.45 227.11,184.45 227.11,174.29 229.16,174.29 229.16,178.34 229.85,178.34 231.62,174.29 234.11,174.29 231.63,179.02 234.39,184.45 231.95,184.45 "/><path id="16" class="fil1" d="M242.87 174.29l0 10.16 -2.06 0 0 -8.44 -1.88 0 -0.14 3.6c-0.05,1.19 -0.19,2.13 -0.4,2.82 -0.21,0.7 -0.52,1.21 -0.93,1.53 -0.41,0.33 -0.95,0.49 -1.64,0.5l-0.5 0 0 -1.7 0.24 -0.02c0.43,-0.05 0.74,-0.33 0.92,-0.84 0.19,-0.51 0.31,-1.41 0.35,-2.71l0.13 -4.89 5.91 0z"/><path id="17" class="fil1" d="M248.33 178.8l1.37 -4.51 2.21 0 -2.78 8.16c-0.32,0.81 -0.66,1.36 -1.02,1.67 -0.36,0.3 -0.8,0.46 -1.31,0.47l-0.22 0 -0.49 -0.03 -0.04 -1.7c0.05,0.02 0.2,0.03 0.45,0.03 0.26,0 0.46,-0.06 0.59,-0.17 0.13,-0.12 0.25,-0.38 0.35,-0.78l0.1 -0.37 -2.9 -7.27 2.2 0 1.51 4.51z"/><path id="18" class="fil1" d="M259.27 176l-3.64 0 0 1.93 1.21 0c1.03,0 1.85,0.29 2.46,0.88 0.61,0.58 0.91,1.36 0.91,2.34 0,0.97 -0.3,1.76 -0.89,2.36 -0.6,0.61 -1.38,0.91 -2.36,0.93l-3.38 0 0 -10.16 5.7 0 0 1.71zm-3.64 3.63l0 3.11 1.24 0c0.4,0 0.71,-0.15 0.95,-0.45 0.23,-0.3 0.35,-0.69 0.35,-1.16 0,-0.44 -0.11,-0.81 -0.34,-1.08 -0.23,-0.28 -0.54,-0.42 -0.94,-0.42l-1.25 0z"/></g></g></svg>