<?xml version="1.0" encoding="UTF-8"?>
<!DOCTYPE svg PUBLIC "-//W3C//DTD SVG 1.1//EN" "http://www.w3.org/Graphics/SVG/1.1/DTD/svg11.dtd">
<!-- Creator: CorelDRAW 2018 (64-Bit) -->
<svg xmlns="http://www.w3.org/2000/svg" xml:space="preserve" width="23.9858mm" height="23.9858mm" version="1.1" style="shape-rendering:geometricPrecision; text-rendering:geometricPrecision; image-rendering:optimizeQuality; fill-rule:evenodd; clip-rule:evenodd"
viewBox="0 0 166.76 166.76"
 xmlns:xlink="http://www.w3.org/1999/xlink"
 enable-background="new 0 0 26 26">
 <defs>
  <style type="text/css">
   <![CDATA[
    .fil0 {fill:#3D1D21}
    .fil1 {fill:#FFF0F2}
   ]]>
  </style>
 </defs>
 <g id="Слой_x0020_1">
  <metadata id="CorelCorpID_0Corel-Layer"/>
  <path class="fil0" d="M83.38 0c46.05,0 83.38,37.33 83.38,83.38 0,46.05 -37.33,83.38 -83.38,83.38 -46.05,0 -83.38,-37.33 -83.38,-83.38 0,-46.05 37.33,-83.38 83.38,-83.38z"/>
  <g id="_2218764037760">
   <path class="fil1" d="M49.66 86.04c-0.53,-0.53 -0.8,-1.33 -0.8,-1.86 0,-0.53 0.27,-1.33 0.8,-1.86l3.72 -3.72c1.06,-1.06 2.66,-1.06 3.72,0l0.27 0.27 14.6 15.66c0.53,0.53 1.33,0.53 1.86,0l35.58 -36.9 0.27 0 0 0c1.06,-1.06 2.65,-1.06 3.72,0l3.72 3.72c1.06,1.06 1.06,2.66 0,3.72l0 0 -42.48 44.07c-0.53,0.53 -1.06,0.8 -1.86,0.8 -0.8,0 -1.33,-0.27 -1.86,-0.8l-20.71 -22.3 -0.53 -0.8 0 0z"/>
  </g>
 </g>
</svg>
