<?xml version="1.0" encoding="UTF-8"?>
<!DOCTYPE svg PUBLIC "-//W3C//DTD SVG 1.1//EN" "http://www.w3.org/Graphics/SVG/1.1/DTD/svg11.dtd">
<!-- Creator: CorelDRAW 2018 (64-Bit) -->
<svg xmlns="http://www.w3.org/2000/svg" xml:space="preserve" width="23.9858mm" height="23.9858mm" version="1.1" style="shape-rendering:geometricPrecision; text-rendering:geometricPrecision; image-rendering:optimizeQuality; fill-rule:evenodd; clip-rule:evenodd"
viewBox="0 0 108.03 108.03"
 xmlns:xlink="http://www.w3.org/1999/xlink">
 <defs>
  <style type="text/css">
   <![CDATA[
    .fil0 {fill:#FFF0F2}
    .fil1 {fill:#3D1D21}
   ]]>
  </style>
 </defs>
 <g id="Слой_x0020_1">
  <metadata id="CorelCorpID_0Corel-Layer"/>
  <path class="fil0" d="M54.01 0c29.83,0 54.01,24.18 54.01,54.01 0,29.83 -24.18,54.01 -54.01,54.01 -29.83,0 -54.01,-24.18 -54.01,-54.01 0,-29.83 24.18,-54.01 54.01,-54.01z"/>
  <g id="_2218762136448">
   <polygon class="fil1" points="52.68,32.94 68.05,32.94 63.14,37.85 68.16,42.87 55.33,42.87 55.33,46.37 62.31,56.46 58.89,59.88 56.36,57.34 53.99,59.71 51.56,57.28 49.09,59.76 45.7,56.37 52.65,46.41 "/>
   <polygon class="fil1" points="44.18,58.8 32.91,75.09 75.12,75.09 63.71,58.8 59.04,63.48 56.42,60.86 54.11,63.18 51.56,60.63 48.96,63.23 "/>
  </g>
 </g>
</svg>
