<?xml version="1.0" encoding="UTF-8"?>
<!DOCTYPE svg PUBLIC "-//W3C//DTD SVG 1.1//EN" "http://www.w3.org/Graphics/SVG/1.1/DTD/svg11.dtd">
<!-- Creator: CorelDRAW 2018 (64-Bit) -->
<svg xmlns="http://www.w3.org/2000/svg" xml:space="preserve" width="23.9858mm" height="23.9858mm" version="1.1" style="shape-rendering:geometricPrecision; text-rendering:geometricPrecision; image-rendering:optimizeQuality; fill-rule:evenodd; clip-rule:evenodd"
viewBox="0 0 122.4 122.4"
 xmlns:xlink="http://www.w3.org/1999/xlink">
 <defs>
  <style type="text/css">
   <![CDATA[
    .fil0 {fill:#FFF0F2}
    .fil1 {fill:#3D1D21;fill-rule:nonzero}
   ]]>
  </style>
 </defs>
 <g id="Слой_x0020_1">
  <metadata id="CorelCorpID_0Corel-Layer"/>
  <path class="fil0" d="M61.2 0c33.8,0 61.2,27.4 61.2,61.2 0,33.8 -27.4,61.2 -61.2,61.2 -33.8,0 -61.2,-27.4 -61.2,-61.2 0,-33.8 27.4,-61.2 61.2,-61.2z"/>
  <g id="_2218770468624">
   <g id="surface1">
    <path class="fil1" d="M55.97 79.1c1.75,3.31 4.16,5.49 4.29,5.62 0.27,0.24 0.6,0.36 0.93,0.36 0.33,0 0.67,-0.12 0.93,-0.36 0.14,-0.13 2.55,-2.31 4.29,-5.62 -2.05,-0.82 -3.83,-1.94 -5.23,-3 -1.4,1.06 -3.17,2.18 -5.23,3zm0 0z"/>
    <path class="fil1" d="M81.82 66.98c-0.26,0.29 -0.53,0.58 -0.8,0.86 -2.75,2.75 -6.4,4.72 -10.85,5.84 -2.36,0.6 -4.55,0.85 -6.2,0.96 2.19,1.46 5.15,2.87 8.47,2.87 6.76,0 12.06,-5.84 12.28,-6.09 0.48,-0.53 0.48,-1.34 0,-1.87 -0.07,-0.08 -1.15,-1.27 -2.9,-2.57zm0 0z"/>
    <path class="fil1" d="M52.23 73.69c-4.45,-1.13 -8.1,-3.09 -10.85,-5.84 -0.28,-0.28 -0.54,-0.56 -0.8,-0.86 -1.75,1.3 -2.83,2.49 -2.9,2.57 -0.48,0.53 -0.48,1.34 0,1.87 0.22,0.25 5.53,6.09 12.28,6.09 3.32,0 6.28,-1.41 8.47,-2.87 -1.65,-0.1 -3.84,-0.36 -6.2,-0.96zm0 0z"/>
    <path class="fil1" d="M60.27 71.53c0.27,0.24 0.6,0.36 0.93,0.36 0.33,0 0.67,-0.12 0.93,-0.36 0.34,-0.31 8.41,-7.64 8.41,-16.93 0,-9.29 -8.07,-16.62 -8.41,-16.93 -0.27,-0.24 -0.6,-0.36 -0.93,-0.36 -0.33,0 -0.67,0.12 -0.93,0.36 -0.34,0.31 -8.41,7.64 -8.41,16.93 0,9.29 8.07,16.62 8.41,16.93zm0 0z"/>
    <path class="fil1" d="M76.07 44.51c-0.68,-2.35 -1.41,-3.89 -1.46,-3.98 -0.31,-0.64 -1.05,-0.95 -1.72,-0.71 -0.1,0.04 -1.7,0.61 -3.84,1.79 0.93,1.41 1.71,2.84 2.34,4.28 1.6,-0.62 3.19,-1.06 4.68,-1.37zm0 0z"/>
    <path class="fil1" d="M53.35 41.6c-2.14,-1.18 -3.74,-1.75 -3.84,-1.79 -0.67,-0.24 -1.42,0.07 -1.72,0.71 -0.05,0.1 -0.78,1.63 -1.46,3.98 1.49,0.31 3.08,0.75 4.68,1.37 0.63,-1.44 1.42,-2.87 2.34,-4.28zm0 0z"/>
    <path class="fil1" d="M73.34 54.6c0,2.47 -0.49,5 -1.45,7.52 -0.75,1.98 -1.8,3.96 -3.11,5.89 -1,1.47 -2.01,2.7 -2.85,3.63 3.85,-0.5 9.23,-1.91 13.1,-5.78 6.57,-6.57 6.05,-17.46 6.02,-17.92 -0.04,-0.71 -0.61,-1.28 -1.32,-1.32 -0.06,-0 -0.37,-0.02 -0.87,-0.02 -1.81,0 -6.15,0.2 -10.49,1.89 0.64,2.05 0.96,4.1 0.96,6.1zm0 0z"/>
    <path class="fil1" d="M56.46 71.64c-0.83,-0.93 -1.85,-2.16 -2.84,-3.63 -1.31,-1.93 -2.36,-3.91 -3.11,-5.89 -0.96,-2.52 -1.45,-5.05 -1.45,-7.52 0,-2 0.32,-4.05 0.96,-6.1 -4.34,-1.69 -8.68,-1.89 -10.49,-1.89 -0.5,0 -0.81,0.02 -0.87,0.02 -0.71,0.04 -1.28,0.61 -1.32,1.32 -0.03,0.46 -0.55,11.35 6.02,17.92 3.88,3.87 9.25,5.28 13.1,5.78zm0 0z"/>
   </g>
  </g>
 </g>
</svg>
