<?xml version="1.0" encoding="UTF-8"?>
<!DOCTYPE svg PUBLIC "-//W3C//DTD SVG 1.1//EN" "http://www.w3.org/Graphics/SVG/1.1/DTD/svg11.dtd">
<!-- Creator: CorelDRAW 2018 (64-Bit) -->
<svg xmlns="http://www.w3.org/2000/svg" xml:space="preserve" width="23.9858mm" height="23.9858mm" version="1.1" style="shape-rendering:geometricPrecision; text-rendering:geometricPrecision; image-rendering:optimizeQuality; fill-rule:evenodd; clip-rule:evenodd"
viewBox="0 0 132.29 132.29"
 xmlns:xlink="http://www.w3.org/1999/xlink">
 <defs>
  <style type="text/css">
   <![CDATA[
    .fil1 {fill:#3D1D21}
    .fil0 {fill:#FFF0F2}
   ]]>
  </style>
 </defs>
 <g id="Слой_x0020_1">
  <metadata id="CorelCorpID_0Corel-Layer"/>
  <path class="fil0" d="M66.15 0c36.53,0 66.15,29.61 66.15,66.15 0,36.53 -29.61,66.15 -66.15,66.15 -36.53,0 -66.15,-29.61 -66.15,-66.15 0,-36.53 29.61,-66.15 66.15,-66.15z"/>
  <g id="_2218764086400">
   <path class="fil1" d="M58.2 68.82c1.26,0.18 4.48,-7.39 4.71,-7.55 0.23,-0.17 4.87,0.2 4.25,-2.27 -1.39,1.18 -2.05,-0.1 -1.98,-1.03 0.06,-0.93 1.24,-2.91 1.55,-2.77 0.31,0.14 0.84,1.24 1.96,0.22 -1.69,0.16 -1.29,-2.31 -0.77,-2.61 0.53,-0.29 2.56,-1.2 3.16,-1.77 0.59,-0.57 0.64,-2.38 1.84,-1.98 1.2,0.4 0.32,2.96 0.68,3.82 0.36,0.86 3.62,3.62 3.56,4.48 -0.05,0.87 -1.42,0.71 -1.39,1.93 0,0.49 0.85,0.86 0.88,1.43 0.02,0.57 -0.92,1 -0.92,1 0,0 0.81,0.22 0.65,1.08 -0.16,0.86 -1.2,0.6 -1.53,0.78 -0.16,0.09 1.6,2.01 0.29,3.46 -1.18,1.39 -7.07,-0.07 -8.21,0.37 -2.13,0.83 -3.9,3.71 -2.72,5.07 1.17,1.36 5.23,5.75 6.29,9.4 1.81,4.78 -2.62,13.13 -5.1,7.08 -3.51,2.36 3.82,11.03 14.11,-2.02 7.88,-10.61 4.03,-29.91 1.7,-34.25 -2.33,-4.34 -13.16,-19.31 -24.79,-12.68 -14.47,7.9 -7.59,27.02 1.8,28.82z"/>
  </g>
 </g>
</svg>
