<?xml version="1.0" encoding="UTF-8"?>
<!DOCTYPE svg PUBLIC "-//W3C//DTD SVG 1.1//EN" "http://www.w3.org/Graphics/SVG/1.1/DTD/svg11.dtd">
<!-- Creator: CorelDRAW 2018 (64-Bit) -->
<svg xmlns="http://www.w3.org/2000/svg" xml:space="preserve" width="23.9858mm" height="23.9858mm" version="1.1" style="shape-rendering:geometricPrecision; text-rendering:geometricPrecision; image-rendering:optimizeQuality; fill-rule:evenodd; clip-rule:evenodd"
viewBox="0 0 132.29 132.29"
 xmlns:xlink="http://www.w3.org/1999/xlink">
 <defs>
  <style type="text/css">
   <![CDATA[
    .fil1 {fill:#3D1D21}
    .fil0 {fill:#FFF0F2}
   ]]>
  </style>
 </defs>
 <g id="Слой_x0020_1">
  <metadata id="CorelCorpID_0Corel-Layer"/>
  <path class="fil0" d="M66.15 0c36.53,0 66.15,29.61 66.15,66.15 0,36.53 -29.61,66.15 -66.15,66.15 -36.53,0 -66.15,-29.61 -66.15,-66.15 0,-36.53 29.61,-66.15 66.15,-66.15z"/>
  <g id="_2218419833568">
   <g>
    <g>
     <path class="fil1" d="M81.55 42.19c-1.33,-1.25 -3.04,-1.86 -4.76,-1.86 -1.94,0 -3.89,0.76 -5.35,2.22l-0.62 0.62 -0.63 -0.63c-1.46,-1.46 -3.41,-2.22 -5.35,-2.22 -1.72,0 -3.42,0.6 -4.76,1.86 -2.93,2.76 -2.98,7.38 -0.16,10.2l10.89 10.89 10.89 -10.89c2.83,-2.83 2.77,-7.44 -0.16,-10.2z"/>
    </g>
   </g>
   <g>
    <g>
     <path class="fil1" d="M92.23 68.82c-1.67,-1.13 -3.64,-0.81 -5.39,0.2 -1.75,1.01 -11.77,9.58 -11.77,9.58l-9.87 0c-0.46,0 -0.96,-0.52 -0.96,-0.97 0,-0.54 0.47,-0.96 0.96,-0.96l6.04 0c2.11,0 4.48,-1.38 4.48,-3.82 0,-2.6 -2.37,-3.82 -4.48,-3.82 -3.67,0 -4.38,0.02 -4.38,0.02 -1.47,0 -2.96,-0.09 -4.11,-0.7 -1.53,-0.78 -3.29,-1.23 -5.17,-1.23 -3.16,0 -5.99,1.26 -7.93,3.25l-10.3 10.14 11.47 11.47 3.82 -3.82 19.36 0c1.93,0 3.79,-0.71 5.23,-1.99l13.11 -14.71c0.8,-0.71 0.76,-2.02 -0.13,-2.62z"/>
    </g>
   </g>
  </g>
 </g>
</svg>
