<?xml version="1.0" encoding="UTF-8"?>
<!DOCTYPE svg PUBLIC "-//W3C//DTD SVG 1.1//EN" "http://www.w3.org/Graphics/SVG/1.1/DTD/svg11.dtd">
<!-- Creator: CorelDRAW 2018 (64-Bit) -->
<svg xmlns="http://www.w3.org/2000/svg" xml:space="preserve" width="23.9858mm" height="23.9858mm" version="1.1" style="shape-rendering:geometricPrecision; text-rendering:geometricPrecision; image-rendering:optimizeQuality; fill-rule:evenodd; clip-rule:evenodd"
viewBox="0 0 141.18 141.18"
 xmlns:xlink="http://www.w3.org/1999/xlink">
 <defs>
  <style type="text/css">
   <![CDATA[
    .fil0 {fill:#FFF0F2}
    .fil1 {fill:#3D1D21;fill-rule:nonzero}
   ]]>
  </style>
 </defs>
 <g id="Слой_x0020_1">
  <metadata id="CorelCorpID_0Corel-Layer"/>
  <path class="fil0" d="M70.59 0c38.98,0 70.59,31.6 70.59,70.59 0,38.98 -31.6,70.59 -70.59,70.59 -38.98,0 -70.59,-31.6 -70.59,-70.59 0,-38.98 31.6,-70.59 70.59,-70.59z"/>
  <g id="_2218770923824">
   <g id="surface1">
    <path class="fil1" d="M91.24 60.88c-0.26,0.3 -0.53,0.58 -0.8,0.86 -2.38,2.38 -5.43,4.17 -9.09,5.34 0.3,0.44 0.56,1 0.56,1.67l-0.01 0.01c-0.01,0.92 -0.04,1.81 -0.08,2.66l0.02 0c6.76,0 12.08,-5.85 12.3,-6.1 0.48,-0.53 0.48,-1.34 0,-1.87 -0.07,-0.08 -1.15,-1.27 -2.91,-2.58z"/>
    <path class="fil1" d="M59.83 67.08c-3.66,-1.17 -6.71,-2.97 -9.09,-5.34 -0.28,-0.28 -0.54,-0.56 -0.8,-0.86 -1.76,1.31 -2.83,2.49 -2.91,2.58 -0.48,0.53 -0.48,1.34 0,1.87 0.22,0.25 5.54,6.09 12.3,6.09l0.02 0c-0.04,-0.84 -0.07,-1.73 -0.08,-2.65l-0.01 -0.01c0,-0.68 0.25,-1.23 0.56,-1.68z"/>
    <path class="fil1" d="M75.44 60.94c2.2,-3.08 4.5,-7.49 4.5,-12.46 0,-9.3 -8.08,-16.64 -8.42,-16.95 -0.27,-0.24 -0.6,-0.36 -0.93,-0.36 -0.33,0 -0.67,0.12 -0.93,0.36 -0.34,0.31 -8.42,7.65 -8.42,16.95 0,4.97 2.3,9.38 4.5,12.46 0.09,-0.09 0.19,-0.18 0.28,-0.27 0.35,-0.35 0.69,-0.7 0.99,-1.08 0.45,-0.56 0.88,-1.34 1.17,-2.19 0.24,-0.71 0.37,-1.43 0.31,-2.05 -0.03,-0.3 -0.01,-0.58 0.06,-0.83 0.08,-0.31 0.24,-0.6 0.45,-0.83l0 0c0.26,-0.29 0.6,-0.48 0.96,-0.56 0.2,-0.05 0.41,-0.06 0.62,-0.04 0.21,-0.02 0.41,-0.01 0.62,0.04 0.37,0.08 0.71,0.27 0.97,0.56 0.21,0.23 0.36,0.52 0.45,0.83 0.07,0.25 0.09,0.54 0.06,0.83 -0.06,0.62 0.07,1.35 0.31,2.05 0.29,0.85 0.72,1.64 1.17,2.19 0.3,0.37 0.64,0.73 0.99,1.08 0.1,0.09 0.19,0.18 0.28,0.27z"/>
    <path class="fil1" d="M85.48 38.38c-0.68,-2.35 -1.41,-3.89 -1.46,-3.99 -0.31,-0.64 -1.05,-0.95 -1.73,-0.72 -0.1,0.04 -1.71,0.61 -3.85,1.79 0.93,1.41 1.71,2.84 2.35,4.28 1.6,-0.62 3.19,-1.06 4.69,-1.37z"/>
    <path class="fil1" d="M62.73 35.47c-2.14,-1.18 -3.75,-1.75 -3.85,-1.79 -0.67,-0.24 -1.42,0.07 -1.73,0.72 -0.05,0.1 -0.78,1.64 -1.46,3.99 1.49,0.31 3.08,0.75 4.69,1.37 0.63,-1.44 1.42,-2.87 2.35,-4.28z"/>
    <path class="fil1" d="M82.75 48.48c0,2.47 -0.49,5 -1.45,7.53 -0.75,1.98 -1.8,3.96 -3.11,5.9 -0.22,0.33 -0.45,0.64 -0.67,0.95 0.26,0.25 0.52,0.53 0.79,0.82l0.01 0c0.22,0.24 0.39,0.43 0.53,0.59l0.46 0.5c3.11,-0.84 6.48,-2.34 9.15,-5.01 6.58,-6.58 6.06,-17.48 6.03,-17.94 -0.04,-0.71 -0.61,-1.28 -1.32,-1.32 -0.06,-0 -0.37,-0.02 -0.87,-0.02 -1.82,0 -6.15,0.2 -10.5,1.9 0.64,2.05 0.96,4.1 0.96,6.11zm-3.45 16.28l0 0c-0.07,-0.07 -0.11,-0.12 -0,0z"/>
    <path class="fil1" d="M63.67 62.86c-0.22,-0.3 -0.45,-0.62 -0.67,-0.95 -1.31,-1.93 -2.36,-3.92 -3.11,-5.9 -0.96,-2.53 -1.45,-5.06 -1.45,-7.53 0,-2.01 0.32,-4.06 0.96,-6.11 -4.35,-1.69 -8.69,-1.9 -10.5,-1.9 -0.5,0 -0.81,0.02 -0.87,0.02 -0.71,0.04 -1.28,0.61 -1.32,1.32 -0.03,0.46 -0.55,11.36 6.03,17.94 2.67,2.67 6.05,4.17 9.15,5.01l0.04 -0.04c0.12,-0.13 0.25,-0.27 0.95,-1.05l0.01 0c0.26,-0.28 0.52,-0.56 0.79,-0.82z"/>
   </g>
   <path class="fil1" d="M81.92 101.59c-0.5,-0.08 -0.88,-0.13 -1.19,-0.17 -0.95,-0.13 -1.2,-0.17 -2.31,-0.52 -0.44,-0.14 -2.14,-1.86 -2.14,-5.23 0,-4.34 1.03,-8.17 1.47,-9.62 0.01,-0.04 0.04,-0.15 0.08,-0.3 0.07,-0.27 0.61,-1.91 0.61,-1.91 0.29,-0.83 0.59,-1.7 0.79,-2.58l0.01 -0.05c0.3,-1.28 1.27,-5.98 1.33,-12.47 0,-0.65 -0.54,-1.22 -0.87,-1.56 -0.06,-0.06 -0.11,-0.12 -0.15,-0.16 -0.31,-0.36 -0.73,-0.81 -1.2,-1.33 -0.31,-0.34 -0.66,-0.72 -1.03,-1.13 -0.6,-0.66 -1.26,-1.26 -1.91,-1.85 -0.79,-0.72 -1.61,-1.46 -2.28,-2.3 -1.01,-1.25 -1.93,-3.44 -1.77,-5.2 0.03,-0.27 -0.04,-0.5 -0.17,-0.65 -0.15,-0.17 -0.39,-0.22 -0.61,-0.14 -0.21,-0.08 -0.45,-0.03 -0.61,0.14 -0.14,0.15 -0.2,0.38 -0.17,0.65 0.17,1.76 -0.76,3.95 -1.77,5.2 -0.67,0.84 -1.49,1.58 -2.28,2.3 -0.64,0.58 -1.31,1.19 -1.91,1.85 -0.37,0.41 -0.72,0.79 -1.03,1.13 -0.48,0.52 -0.89,0.97 -1.2,1.33 -0.04,0.05 -0.09,0.1 -0.15,0.16 -0.32,0.34 -0.87,0.91 -0.87,1.57 0.07,6.49 1.04,11.18 1.33,12.46l0.01 0.05c0.2,0.89 0.5,1.75 0.79,2.58 0,0 0.54,1.64 0.61,1.91 0.04,0.15 0.07,0.26 0.08,0.3 0.44,1.45 1.47,5.28 1.47,9.62 0,3.37 -1.71,5.09 -2.14,5.23 -1.11,0.34 -1.36,0.38 -2.31,0.52 -0.31,0.04 -0.69,0.1 -1.19,0.17 -5.44,0.58 -6.02,3.28 -6.02,4.41 0,0.3 0.16,1.29 0.87,2.2 0.65,0.82 1.93,1.79 4.39,1.79 0.37,0 0.76,-0.02 1.16,-0.07 1.64,-0.18 3.29,-0.44 4.88,-0.7 0.58,-0.09 1.16,-0.19 1.74,-0.27 0.77,-0.12 2.16,-0.2 4.13,-0.23 0.09,-0 0.16,-0 0.19,-0 0.03,0 0.1,0 0.19,0 1.97,0.04 3.36,0.11 4.13,0.23 0.58,0.09 1.16,0.18 1.74,0.27 1.59,0.26 3.24,0.52 4.88,0.7 0.4,0.04 0.79,0.07 1.16,0.07 2.46,0 3.74,-0.98 4.39,-1.79 0.72,-0.91 0.87,-1.9 0.87,-2.2 0,-1.13 -0.59,-3.83 -6.02,-4.41zm-8.46 -22.1c-0.08,0 -0.16,-0.02 -0.24,-0.05 -0.25,-0.1 -0.58,-0.58 -0.61,-0.77 1.26,-0.88 2.11,-2.54 2.11,-4.45 0,-2.82 -0.3,-5.11 -4.14,-5.11 -3.85,0 -4.14,2.29 -4.14,5.11 0,1.91 0.85,3.58 2.11,4.45 -0.03,0.19 -0.36,0.65 -0.61,0.77 -0.08,0.04 -0.15,0.05 -0.24,0.05 -0.81,0 -1.82,-1.77 -2.09,-2.48 -0.45,-1.2 -1.02,-3.26 -1.14,-6.27l-0 -0.12c-0.03,-0.63 0.92,-2.25 1.05,-2.53 0.17,-0.38 2.43,-3.82 3.1,-4.63 0.24,-0.29 1.44,-1.88 1.97,-2.59 0.53,0.7 1.73,2.3 1.97,2.59 0.67,0.81 2.92,4.25 3.1,4.63 0.13,0.28 1.08,1.9 1.05,2.53l-0 0.12c-0.12,3.01 -0.69,5.07 -1.14,6.27 -0.27,0.71 -1.28,2.48 -2.09,2.48z"/>
  </g>
 </g>
</svg>
