<?xml version="1.0" encoding="UTF-8"?>
<!DOCTYPE svg PUBLIC "-//W3C//DTD SVG 1.1//EN" "http://www.w3.org/Graphics/SVG/1.1/DTD/svg11.dtd">
<!-- Creator: CorelDRAW 2018 (64-Bit) -->
<svg xmlns="http://www.w3.org/2000/svg" xml:space="preserve" width="62.5239mm" height="14.5654mm" version="1.1" style="shape-rendering:geometricPrecision; text-rendering:geometricPrecision; image-rendering:optimizeQuality; fill-rule:evenodd; clip-rule:evenodd"
viewBox="0 0 1019.27 237.45"
 xmlns:xlink="http://www.w3.org/1999/xlink">
 <defs>
  <style type="text/css">
   <![CDATA[
    .fil0 {fill:#FEFEFE}
   ]]>
  </style>
 </defs>
 <g id="Слой_x0020_1">
  <metadata id="CorelCorpID_0Corel-Layer"/>
  <g id="extension">
   <path class="fil0" d="M419.18 113.07l16.96 0 0 -45.23c0,-12.44 10.18,-22.61 22.61,-22.61l45.23 0 0 -16.96c0,-15.83 12.44,-28.27 28.27,-28.27 15.83,0 28.27,12.44 28.27,28.27l0 16.96 45.23 0c12.44,0 22.61,10.18 22.61,22.61l0 42.97 -16.96 0c-16.96,0 -30.53,13.57 -30.53,30.53 0,16.96 13.57,30.53 30.53,30.53l16.96 0 0 42.97c0,12.44 -10.18,22.61 -22.61,22.61l-42.97 0 0 -16.96c0,-16.96 -13.57,-30.53 -30.53,-30.53 -16.96,0 -30.53,13.57 -30.53,30.53l0 16.96 -42.97 0c-12.44,0 -22.61,-10.18 -22.61,-22.61l0 -45.23 -16.96 0c-15.83,0 -28.27,-12.44 -28.27,-28.27 0,-15.83 12.44,-28.27 28.27,-28.27z"/>
  </g>
  <g id="_2218770973232">
   <rect class="fil0" x="694.46" y="115.05" width="324.81" height="7.36"/>
   <rect class="fil0" x="-0" y="115.05" width="324.81" height="7.36"/>
  </g>
 </g>
</svg>
