<?xml version="1.0" encoding="UTF-8"?>
<!DOCTYPE svg PUBLIC "-//W3C//DTD SVG 1.1//EN" "http://www.w3.org/Graphics/SVG/1.1/DTD/svg11.dtd">
<!-- Creator: CorelDRAW 2018 (64-Bit) -->
<svg xmlns="http://www.w3.org/2000/svg" xml:space="preserve" width="14.5678mm" height="14.5678mm" version="1.1" style="shape-rendering:geometricPrecision; text-rendering:geometricPrecision; image-rendering:optimizeQuality; fill-rule:evenodd; clip-rule:evenodd"
viewBox="0 0 42.39 42.39"
 xmlns:xlink="http://www.w3.org/1999/xlink">
 <defs>
  <style type="text/css">
   <![CDATA[
    .fil0 {fill:#3D1D21}
   ]]>
  </style>
 </defs>
 <g id="Слой_x0020_1">
  <metadata id="CorelCorpID_0Corel-Layer"/>
  <g id="_2218770903536">
   <g id="extension">
    <path class="fil0" d="M5.05 20.19l3.03 0 0 -8.07c0,-2.22 1.82,-4.04 4.04,-4.04l8.07 0 0 -3.03c0,-2.83 2.22,-5.05 5.05,-5.05 2.82,0 5.05,2.22 5.05,5.05l0 3.03 8.07 0c2.22,0 4.04,1.82 4.04,4.04l0 7.67 -3.03 0c-3.03,0 -5.45,2.42 -5.45,5.45 0,3.03 2.42,5.45 5.45,5.45l3.03 0 0 7.67c0,2.22 -1.82,4.04 -4.04,4.04l-7.67 0 0 -3.03c0,-3.03 -2.42,-5.45 -5.45,-5.45 -3.03,0 -5.45,2.42 -5.45,5.45l0 3.03 -7.67 0c-2.22,0 -4.04,-1.82 -4.04,-4.04l0 -8.07 -3.03 0c-2.83,0 -5.05,-2.22 -5.05,-5.05 0,-2.82 2.22,-5.05 5.05,-5.05z"/>
   </g>
  </g>
 </g>
</svg>
