<?xml version="1.0" encoding="UTF-8"?>
<!DOCTYPE svg PUBLIC "-//W3C//DTD SVG 1.1//EN" "http://www.w3.org/Graphics/SVG/1.1/DTD/svg11.dtd">
<!-- Creator: CorelDRAW 2018 (64-Bit) -->
<svg xmlns="http://www.w3.org/2000/svg" xml:space="preserve" width="23.9858mm" height="23.9858mm" version="1.1" style="shape-rendering:geometricPrecision; text-rendering:geometricPrecision; image-rendering:optimizeQuality; fill-rule:evenodd; clip-rule:evenodd"
viewBox="0 0 96.68 96.68"
 xmlns:xlink="http://www.w3.org/1999/xlink">
 <defs>
  <style type="text/css">
   <![CDATA[
    .fil0 {fill:#FFF0F2}
    .fil1 {fill:#3D1D21}
   ]]>
  </style>
 </defs>
 <g id="Слой_x0020_1">
  <metadata id="CorelCorpID_0Corel-Layer"/>
  <path class="fil0" d="M48.34 0c26.7,0 48.34,21.64 48.34,48.34 0,26.7 -21.64,48.34 -48.34,48.34 -26.7,0 -48.34,-21.64 -48.34,-48.34 0,-26.7 21.64,-48.34 48.34,-48.34z"/>
  <g id="_2218770974128">
   <path class="fil1" d="M67.23 42.84c0,13.09 -14.91,20.31 -25.19,12.76 7.44,2.77 19.83,0.71 19.83,-9.39 0,-9.44 -6.45,-9.61 -12.58,-9.61 -2.65,0 -4.79,-2.15 -4.79,-4.79 0,-9.19 22.74,-5.28 22.74,11.03z"/>
   <path class="fil1" d="M29.45 53.84c0,-13.09 14.91,-20.31 25.19,-12.76 -7.44,-2.77 -19.83,-0.71 -19.83,9.39 0,9.44 6.45,9.61 12.58,9.61 2.65,0 4.79,2.15 4.79,4.79 0,9.19 -22.74,5.28 -22.74,-11.03z"/>
  </g>
 </g>
</svg>
