<?xml version="1.0" encoding="UTF-8"?>
<!DOCTYPE svg PUBLIC "-//W3C//DTD SVG 1.1//EN" "http://www.w3.org/Graphics/SVG/1.1/DTD/svg11.dtd">
<!-- Creator: CorelDRAW 2018 (64-Bit) -->
<svg xmlns="http://www.w3.org/2000/svg" xml:space="preserve" width="778.372mm" height="121.261mm" version="1.1" style="shape-rendering:geometricPrecision; text-rendering:geometricPrecision; image-rendering:optimizeQuality; fill-rule:evenodd; clip-rule:evenodd"
viewBox="0 0 46466.13 7238.88"
 xmlns:xlink="http://www.w3.org/1999/xlink">
 <defs>
  <style type="text/css">
   <![CDATA[
    .fil0 {fill:white;fill-rule:nonzero}
   ]]>
  </style>
 </defs>
 <g id="Слой_x0020_1">
  <metadata id="CorelCorpID_0Corel-Layer"/>
  <g id="_1605128979344">
   <g>
    <g>
     <polygon class="fil0" points="21354.67,0 22757.01,0 20680.92,6055.93 19858.32,6055.93 19380.42,6055.93 18001.58,2256.28 16622.75,6055.93 16121.35,6055.93 15322.25,6055.93 13238.32,0 14648.5,0 15988.17,3893.65 17406.18,0 18597,0 20015,3893.65 "/>
     <polygon class="fil0" points="28084.28,1331.84 25545.96,1331.84 25545.96,2232.78 27998.11,2232.78 27998.11,3564.61 25545.96,3564.61 25545.96,4724.09 28084.28,4724.09 28084.28,6055.93 24214.13,6055.93 24214.13,0 28084.28,0 "/>
     <path class="fil0" d="M31445.18 4763.26l-564.07 1292.66 -1449.35 0 2624.5 -6055.93 1386.67 0 2632.33 6055.93 -1457.19 0 -556.23 -1292.66 -2616.66 0zm1300.49 -3008.38l-728.59 1676.54 1465.01 0 -736.42 -1676.54z"/>
     <path class="fil0" d="M42287.82 6055.93l-579.74 0 -1049.8 0 -1112.47 -1590.36 -689.42 0 0 1590.36 -1331.84 0 0 -6055.93 2232.78 0c344.71,0 659.39,43.09 944.03,129.27 284.64,86.18 536.65,212.83 756.01,379.96 120.13,99.23 228.5,207.61 325.13,325.13 96.62,117.51 176.27,244.17 238.95,379.96 135.8,287.26 203.69,598.02 203.69,932.29 0,318.59 -57.45,621.52 -172.36,908.78 -109.68,276.81 -274.2,522.29 -493.56,736.43 -172.36,172.36 -362.99,308.15 -571.9,407.38l1300.49 1856.74zm-3431.43 -2922.2l900.95 0 7.83 0c370.82,10.45 658.08,-86.18 861.77,-289.87 177.58,-177.58 266.37,-410 266.37,-697.26 0,-543.18 -378.66,-814.77 -1135.98,-814.77l-900.95 0 0 1801.89z"/>
    </g>
    <path class="fil0" d="M1331.85 6055.93l-1331.85 0 0 -6055.93 2232.79 0c334.22,0 643.71,41.78 928.33,125.33 284.76,83.56 536.68,208.89 756.04,376 255.98,193.24 449.22,428.39 579.72,705.19 135.81,287.27 203.72,600.54 203.72,940.07 0,329.05 -57.43,631.97 -172.28,908.77 -114.99,292.44 -279.45,537.94 -493.64,736.49 -219.37,219.37 -480.52,386.48 -783.43,501.33 -302.92,114.99 -629.32,172.42 -979.19,172.42l-54.91 0 -885.29 0 0 1590.35zm0 -2922.19l900.94 0 7.83 0c370.83,10.48 658.1,-86.21 861.81,-289.93 177.59,-172.28 266.32,-404.78 266.32,-697.23 0,-177.59 -28.64,-309.49 -86.07,-395.56 -57.57,-86.21 -114.99,-150.2 -172.42,-191.98 -99.2,-73.08 -224.54,-129.25 -376,-168.51 -151.46,-39.12 -318.71,-58.68 -501.47,-58.68l-900.94 0 0 1801.89z"/>
    <polygon class="fil0" points="9932.65,0 10708.26,0 11562.25,0 9217.68,3776.19 9217.68,6055.93 7885.83,6055.93 7885.83,3776.19 5549.22,0 7170.86,0 8551.75,2405.07 "/>
   </g>
   <path class="fil0" d="M45284.33 4872.97c198.47,0 392.13,50.84 581.55,153.03 188.85,101.65 336.49,247.73 441.88,437.12 105.4,189.96 158.37,387.91 158.37,593.34 0,203.87 -51.91,400.19 -156.21,587.99 -103.81,188.37 -249.32,334.41 -437.1,438.23 -187.78,104.3 -384.14,156.21 -588.49,156.21 -204.93,0 -401.28,-51.91 -589.06,-156.21 -187.79,-103.81 -333.83,-249.86 -438.17,-438.23 -104.3,-187.79 -156.74,-384.12 -156.74,-587.99 0,-205.43 52.97,-403.38 158.9,-593.34 106.46,-189.39 254.09,-335.47 442.98,-437.12 189.38,-102.18 383.04,-153.03 582.09,-153.03zm0 195.83c-166.4,0 -328.52,42.8 -485.79,127.89 -157.31,85.04 -280.37,207.05 -369.16,365.43 -88.79,158.37 -133.23,323.15 -133.23,494.34 0,170.69 43.87,333.88 131.11,490.09 87.2,156.25 209.17,278.22 365.94,365.43 156.73,87.2 320.44,131.08 491.14,131.08 170.12,0 333.82,-43.87 490.6,-131.08 156.73,-87.2 278.74,-209.18 365.41,-365.43 86.67,-156.21 130.01,-319.4 130.01,-490.09 0,-171.19 -44.43,-335.97 -132.7,-494.34 -88.26,-158.37 -211.33,-280.38 -369.16,-365.43 -157.83,-85.09 -319.38,-127.89 -484.15,-127.89zm-519.49 1640.4l0 -1271.23 437.64 0c149.8,0 257.85,11.75 324.73,35.3 67.41,23.54 120.38,64.19 160.49,123.07 39.62,58.31 59.41,120.38 59.41,186.16 0,92.59 -33.17,173.92 -100.05,242.39 -66.35,69.01 -154.61,107.53 -264.83,116.1 44.93,18.73 81.32,41.18 108.05,67.42 51.37,49.75 113.97,133.76 188.35,251.99l155.15 248.8 -249.32 0 -113.44 -200.11c-88.79,-157.8 -161.02,-256.8 -215.58,-296.39 -37.46,-28.89 -92.02,-43.33 -164.24,-42.8l-120.94 0 0 539.3 -205.42 0zm205.42 -715.87l249.32 0c119.32,0 200.64,-17.63 243.97,-52.97 43.33,-35.3 65.25,-82.39 65.25,-140.17 0,-37.46 -10.69,-71.17 -31.54,-100.59 -20.85,-29.96 -49.75,-51.91 -86.67,-66.35 -37.46,-14.45 -105.93,-21.91 -206.52,-21.91l-233.81 0 0 382z"/>
  </g>
 </g>
</svg>
