<?xml version="1.0" encoding="UTF-8"?>
<!DOCTYPE svg PUBLIC "-//W3C//DTD SVG 1.1//EN" "http://www.w3.org/Graphics/SVG/1.1/DTD/svg11.dtd">
<!-- Creator: CorelDRAW 2018 (64-Bit) -->
<svg xmlns="http://www.w3.org/2000/svg" xml:space="preserve" width="43.3824mm" height="6.7592mm" version="1.1" style="shape-rendering:geometricPrecision; text-rendering:geometricPrecision; image-rendering:optimizeQuality; fill-rule:evenodd; clip-rule:evenodd"
viewBox="0 0 32.38 5.05"
 xmlns:xlink="http://www.w3.org/1999/xlink">
 <defs>
  <style type="text/css">
   <![CDATA[
    .fil0 {fill:white;fill-rule:nonzero}
   ]]>
  </style>
 </defs>
 <g id="Слой_x0020_1">
  <metadata id="CorelCorpID_0Corel-Layer"/>
  <polygon class="fil0" points="14.88,0 15.86,0 14.41,4.22 13.84,4.22 13.51,4.22 12.54,1.58 11.59,4.22 11.24,4.22 10.68,4.22 9.23,0 10.21,0 11.14,2.71 12.13,0 12.96,0 13.95,2.71 "/>
  <polygon class="fil0" points="19.57,0.93 17.8,0.93 17.8,1.56 19.51,1.56 19.51,2.49 17.8,2.49 17.8,3.29 19.57,3.29 19.57,4.22 16.88,4.22 16.88,0 19.57,0 "/>
  <path class="fil0" d="M21.92 3.32l-0.39 0.9 -1.01 0 1.83 -4.22 0.97 0 1.83 4.22 -1.02 0 -0.39 -0.9 -1.82 0 0 0zm0.91 -2.1l-0.51 1.17 1.02 0 -0.51 -1.17 -0 0z"/>
  <path class="fil0" d="M29.47 4.22l-0.4 0 -0.73 0 -0.77 -1.11 -0.48 0 0 1.11 -0.93 0 0 -4.22 1.56 0c0.24,0 0.46,0.03 0.66,0.09 0.2,0.06 0.37,0.15 0.53,0.26 0.08,0.07 0.16,0.14 0.23,0.23 0.07,0.08 0.12,0.17 0.17,0.26 0.09,0.2 0.14,0.42 0.14,0.65 0,0.22 -0.04,0.43 -0.12,0.63 -0.08,0.19 -0.19,0.36 -0.34,0.51 -0.12,0.12 -0.25,0.21 -0.4,0.28l0.91 1.29 -0 0zm-2.39 -2.04l0.63 0 0.01 0c0.26,0.01 0.46,-0.06 0.6,-0.2 0.12,-0.12 0.19,-0.29 0.19,-0.48 0,-0.38 -0.26,-0.57 -0.79,-0.57l-0.63 0 0 1.26 0 -0z"/>
  <path class="fil0" d="M0.93 4.22l-0.93 0 0 -4.22 1.56 0c0.23,0 0.45,0.03 0.65,0.09 0.2,0.06 0.37,0.14 0.53,0.26 0.18,0.14 0.31,0.3 0.4,0.49 0.09,0.2 0.14,0.42 0.14,0.65 0,0.23 -0.04,0.44 -0.12,0.63 -0.08,0.2 -0.2,0.37 -0.34,0.51 -0.15,0.15 -0.33,0.27 -0.55,0.35 -0.21,0.08 -0.44,0.12 -0.68,0.12l-0.04 0 -0.62 0 0 1.11 -0 0.01zm0 -2.04l0.63 0 0.01 0c0.26,0.01 0.46,-0.06 0.6,-0.2 0.12,-0.12 0.19,-0.28 0.19,-0.48 0,-0.12 -0.02,-0.22 -0.06,-0.28 -0.04,-0.06 -0.08,-0.1 -0.12,-0.14 -0.07,-0.05 -0.16,-0.09 -0.26,-0.12 -0.11,-0.03 -0.22,-0.04 -0.35,-0.04l-0.63 0 0 1.26 -0 -0z"/>
  <polygon class="fil0" points="6.92,0 7.46,0 8.06,0 6.42,2.63 6.42,4.22 5.5,4.22 5.5,2.63 3.87,0 5,0 5.96,1.68 "/>
  <path class="fil0" d="M31.56 3.4c0.14,0 0.27,0.03 0.41,0.11 0.13,0.07 0.24,0.17 0.31,0.31 0.07,0.13 0.11,0.27 0.11,0.41 0,0.14 -0.04,0.28 -0.11,0.41 -0.07,0.13 -0.17,0.23 -0.31,0.31 -0.13,0.07 -0.27,0.11 -0.41,0.11 -0.14,0 -0.28,-0.04 -0.41,-0.11 -0.13,-0.07 -0.23,-0.17 -0.31,-0.31 -0.07,-0.13 -0.11,-0.27 -0.11,-0.41 0,-0.14 0.04,-0.28 0.11,-0.41 0.08,-0.13 0.18,-0.23 0.31,-0.31 0.13,-0.07 0.27,-0.11 0.41,-0.11l0 0zm0 0.14c-0.12,0 -0.23,0.03 -0.34,0.09 -0.11,0.06 -0.2,0.14 -0.26,0.25 -0.06,0.11 -0.09,0.23 -0.09,0.35 0,0.12 0.03,0.23 0.09,0.34 0.06,0.11 0.14,0.2 0.25,0.25 0.11,0.06 0.22,0.09 0.34,0.09 0.12,0 0.23,-0.03 0.34,-0.09 0.11,-0.06 0.2,-0.14 0.25,-0.25 0.06,-0.11 0.09,-0.22 0.09,-0.34 0,-0.12 -0.03,-0.23 -0.09,-0.35 -0.06,-0.11 -0.15,-0.2 -0.26,-0.25 -0.11,-0.06 -0.22,-0.09 -0.34,-0.09zm-0.36 1.14l0 -0.89 0.31 0c0.1,0 0.18,0.01 0.23,0.03 0.05,0.02 0.08,0.04 0.11,0.08 0.03,0.04 0.04,0.08 0.04,0.13 0,0.07 -0.02,0.12 -0.07,0.17 -0.05,0.05 -0.11,0.08 -0.19,0.08 0.03,0.01 0.06,0.03 0.08,0.05 0.03,0.03 0.08,0.09 0.13,0.18l0.11 0.17 -0.17 0 -0.08 -0.14c-0.06,-0.11 -0.11,-0.18 -0.15,-0.21 -0.03,-0.02 -0.06,-0.03 -0.11,-0.03l-0.08 0 0 0.38 -0.14 0 -0 -0zm0.14 -0.5l0.17 0c0.08,0 0.14,-0.01 0.17,-0.04 0.03,-0.03 0.04,-0.06 0.04,-0.1 0,-0.03 -0.01,-0.05 -0.02,-0.07 -0.02,-0.02 -0.03,-0.03 -0.06,-0.05 -0.03,-0.01 -0.07,-0.02 -0.14,-0.02l-0.16 0 0 0.27 0 0z"/>
 </g>
</svg>
