<?xml version="1.0" encoding="UTF-8"?>
<!DOCTYPE svg PUBLIC "-//W3C//DTD SVG 1.1//EN" "http://www.w3.org/Graphics/SVG/1.1/DTD/svg11.dtd">
<!-- Creator: CorelDRAW 2018 (64-Bit) -->
<svg xmlns="http://www.w3.org/2000/svg" xml:space="preserve" width="63.5mm" height="25.4mm" version="1.1" style="shape-rendering:geometricPrecision; text-rendering:geometricPrecision; image-rendering:optimizeQuality; fill-rule:evenodd; clip-rule:evenodd"
viewBox="0 0 150.69 60.27"
 xmlns:xlink="http://www.w3.org/1999/xlink">
 <defs>
  <style type="text/css">
   <![CDATA[
    .fil1 {fill:none}
    .fil0 {fill:white;fill-rule:nonzero}
   ]]>
  </style>
   <clipPath id="id0">
    <path d="M-0 0l150.69 0 0 60.27 -150.69 0 0 -60.27z"/>
   </clipPath>
 </defs>
 <g id="Слой_x0020_1">
  <metadata id="CorelCorpID_0Corel-Layer"/>
  <g>
  </g>
  <g style="clip-path:url(#id0)">
   <g>
    <g id="_628617744">
     <g>
      <g>
       <polygon class="fil0" points="71.18,22.12 74.29,22.12 69.69,35.54 67.87,35.54 66.81,35.54 63.75,27.12 60.7,35.54 59.59,35.54 57.82,35.54 53.2,22.12 56.32,22.12 59.29,30.74 62.43,22.12 65.07,22.12 68.21,30.74 "/>
       <polygon class="fil0" points="86.09,25.07 80.47,25.07 80.47,27.06 85.9,27.06 85.9,30.02 80.47,30.02 80.47,32.58 86.09,32.58 86.09,35.54 77.52,35.54 77.52,22.12 86.09,22.12 "/>
       <path class="fil0" d="M93.54 32.67l-1.25 2.86 -3.21 0 5.81 -13.42 3.07 0 5.83 13.42 -3.23 0 -1.23 -2.86 -5.8 0zm2.88 -6.67l-1.61 3.71 3.25 0 -1.63 -3.71z"/>
       <path class="fil0" d="M117.56 35.54l-1.28 0 -2.33 0 -2.46 -3.52 -1.53 0 0 3.52 -2.95 0 0 -13.42 4.95 0c0.76,0 1.46,0.1 2.09,0.29 0.63,0.19 1.19,0.47 1.68,0.84 0.27,0.22 0.51,0.46 0.72,0.72 0.21,0.26 0.39,0.54 0.53,0.84 0.3,0.64 0.45,1.32 0.45,2.07 0,0.71 -0.13,1.38 -0.38,2.01 -0.24,0.61 -0.61,1.16 -1.09,1.63 -0.38,0.38 -0.8,0.68 -1.27,0.9l2.88 4.11zm-7.6 -6.47l2 0 0.02 0c0.82,0.02 1.46,-0.19 1.91,-0.64 0.39,-0.39 0.59,-0.91 0.59,-1.54 0,-1.2 -0.84,-1.81 -2.52,-1.81l-2 0 0 3.99z"/>
      </g>
      <path class="fil0" d="M26.82 35.54l-2.95 0 0 -13.42 4.95 0c0.74,0 1.43,0.09 2.06,0.28 0.63,0.19 1.19,0.46 1.68,0.83 0.57,0.43 1,0.95 1.28,1.56 0.3,0.64 0.45,1.33 0.45,2.08 0,0.73 -0.13,1.4 -0.38,2.01 -0.25,0.65 -0.62,1.19 -1.09,1.63 -0.49,0.49 -1.06,0.86 -1.74,1.11 -0.67,0.25 -1.39,0.38 -2.17,0.38l-0.12 0 -1.96 0 0 3.52zm0 -6.47l2 0 0.02 0c0.82,0.02 1.46,-0.19 1.91,-0.64 0.39,-0.38 0.59,-0.9 0.59,-1.54 0,-0.39 -0.06,-0.69 -0.19,-0.88 -0.13,-0.19 -0.25,-0.33 -0.38,-0.43 -0.22,-0.16 -0.5,-0.29 -0.83,-0.37 -0.34,-0.09 -0.71,-0.13 -1.11,-0.13l-2 0 0 3.99z"/>
      <polygon class="fil0" points="45.87,22.12 47.59,22.12 49.49,22.12 44.29,30.48 44.29,35.54 41.34,35.54 41.34,30.48 36.16,22.12 39.76,22.12 42.82,27.45 "/>
     </g>
     <path class="fil0" d="M124.2 32.91c0.44,0 0.87,0.11 1.29,0.34 0.42,0.23 0.75,0.55 0.98,0.97 0.23,0.42 0.35,0.86 0.35,1.31 0,0.45 -0.12,0.89 -0.35,1.3 -0.23,0.42 -0.55,0.74 -0.97,0.97 -0.42,0.23 -0.85,0.35 -1.3,0.35 -0.45,0 -0.89,-0.12 -1.31,-0.35 -0.42,-0.23 -0.74,-0.55 -0.97,-0.97 -0.23,-0.42 -0.35,-0.85 -0.35,-1.3 0,-0.46 0.12,-0.89 0.35,-1.31 0.24,-0.42 0.56,-0.74 0.98,-0.97 0.42,-0.23 0.85,-0.34 1.29,-0.34zm0 0.43c-0.37,0 -0.73,0.09 -1.08,0.28 -0.35,0.19 -0.62,0.46 -0.82,0.81 -0.2,0.35 -0.3,0.72 -0.3,1.1 0,0.38 0.1,0.74 0.29,1.09 0.19,0.35 0.46,0.62 0.81,0.81 0.35,0.19 0.71,0.29 1.09,0.29 0.38,0 0.74,-0.1 1.09,-0.29 0.35,-0.19 0.62,-0.46 0.81,-0.81 0.19,-0.35 0.29,-0.71 0.29,-1.09 0,-0.38 -0.1,-0.74 -0.29,-1.1 -0.2,-0.35 -0.47,-0.62 -0.82,-0.81 -0.35,-0.19 -0.71,-0.28 -1.07,-0.28zm-1.15 3.63l0 -2.82 0.97 0c0.33,0 0.57,0.03 0.72,0.08 0.15,0.05 0.27,0.14 0.36,0.27 0.09,0.13 0.13,0.27 0.13,0.41 0,0.21 -0.07,0.39 -0.22,0.54 -0.15,0.15 -0.34,0.24 -0.59,0.26 0.1,0.04 0.18,0.09 0.24,0.15 0.11,0.11 0.25,0.3 0.42,0.56l0.34 0.55 -0.55 0 -0.25 -0.44c-0.2,-0.35 -0.36,-0.57 -0.48,-0.66 -0.08,-0.06 -0.2,-0.1 -0.36,-0.09l-0.27 0 0 1.2 -0.46 0zm0.46 -1.59l0.55 0c0.26,0 0.44,-0.04 0.54,-0.12 0.1,-0.08 0.14,-0.18 0.14,-0.31 0,-0.08 -0.02,-0.16 -0.07,-0.22 -0.05,-0.07 -0.11,-0.11 -0.19,-0.15 -0.08,-0.03 -0.23,-0.05 -0.46,-0.05l-0.52 0 0 0.85z"/>
    </g>
   </g>
  </g>
  <polygon class="fil1" points="-0,0 150.69,0 150.69,60.27 -0,60.27 "/>
 </g>
</svg>
