<?xml version="1.0" encoding="UTF-8"?>
<!DOCTYPE svg PUBLIC "-//W3C//DTD SVG 1.1//EN" "http://www.w3.org/Graphics/SVG/1.1/DTD/svg11.dtd">
<!-- Creator: CorelDRAW 2018 (64-Bit) -->
<svg xmlns="http://www.w3.org/2000/svg" xml:space="preserve" width="63.5mm" height="25.4mm" version="1.1" style="shape-rendering:geometricPrecision; text-rendering:geometricPrecision; image-rendering:optimizeQuality; fill-rule:evenodd; clip-rule:evenodd"
viewBox="0 0 150.69 60.27"
 xmlns:xlink="http://www.w3.org/1999/xlink">
 <defs>
  <style type="text/css">
   <![CDATA[
    .fil1 {fill:none}
    .fil0 {fill:white}
   ]]>
  </style>
   <clipPath id="id0">
    <path d="M-0 0l150.69 0 0 60.27 -150.69 0 0 -60.27z"/>
   </clipPath>
 </defs>
 <g id="Слой_x0020_1">
  <metadata id="CorelCorpID_0Corel-Layer"/>
  <g>
  </g>
  <g style="clip-path:url(#id0)">
   <g>
    <g id="_628610832">
     <path class="fil0" d="M57.84 26.49l-1.49 0 0 -7.27c0,-1.65 0.61,-1.49 2.01,-1.49 1.99,0 2.48,1.28 2.75,2.84 0.23,1.33 0.11,3.87 -0.59,4.84 -0.59,0.8 -1.64,1.09 -2.67,1.09zm-7.34 -9.54c0,1.02 -0.36,0.78 2.21,0.78l0 19.22 -2.21 0 0 0.91 8.25 0 0 -0.91 -2.4 0 0 -9.54c1.28,0 2.39,-0.12 3.07,0.96 0.5,0.8 0.47,1.47 0.5,2.68 0.01,0.4 0.1,1.04 0.13,1.43 0.07,0.96 0.06,1.91 0.27,2.85 0.26,1.17 0.88,2.28 2.08,2.66 0.82,0.26 1.91,0.22 2.64,-0.14 1.35,-0.68 1.97,-2.32 1.97,-4.33l-1.1 0c0,0.8 -0,1.56 -0.27,2.27 -0.37,0.99 -1.34,0.96 -1.68,-1.03 -0.11,-0.63 -0.07,-1.25 -0.13,-1.95 -0.18,-2.24 -0.33,-3.86 -2.1,-5.04 -0.21,-0.14 -0.51,-0.26 -0.62,-0.41 1.77,0 3.34,-2.2 3.82,-3.97 0.51,-1.87 0.08,-4.49 -1.7,-5.67 -1.08,-0.72 -2.5,-0.94 -4.26,-0.94l-8.25 0c-0.15,0 -0.19,0.05 -0.19,0.19z"/>
     <path class="fil0" d="M7.46 24.16l1.04 0c0.3,-1.27 0.19,-2.48 0.97,-4.22 0.45,-0.99 1.22,-2.6 2.6,-2.6 0.69,0 0.78,0.66 0.78,1.23l0 18.37 -2.4 0 0 0.91 8.44 0 0 -0.91 -2.4 0 0 -17.47c0,-0.98 -0.08,-2.14 0.84,-2.14 2.31,0 3.22,4.35 3.48,6.33 0.07,0.56 -0.15,0.49 0.94,0.49 0.3,0 0.13,-0.39 0.13,-0.78l-0.06 -2.02c0,-0.44 -0.06,-0.59 -0.07,-0.97l-0.13 -2.99c-0.02,-0.33 0.12,-0.84 -0.19,-0.84l-13.63 0c0,0.41 -0.04,0.6 -0.06,0.91 -0.03,0.31 0.01,0.66 -0,0.97l-0.13 1.89c-0.03,0.31 0.01,0.66 -0,0.97l-0.13 2.86z"/>
     <path class="fil0" d="M22.19 17.21l1.88 0 0 19.8c0,0.54 -1.82,-0.15 -1.82,0.39l0 0.45 6.43 0 0 -0.65 -1.49 0c0,-1.68 -0.16,-6.76 0.32,-8.06 0.14,-0.39 0.38,-0.84 0.64,-1.11 1.13,-1.17 2.94,-0.84 2.94,1.77l0 7.4 -1.49 0 0 0.65 6.3 0c0.32,0 0.18,-0.45 0.13,-0.65l-1.75 0 0 -7.73c0,-1.53 -0.58,-2.85 -1.86,-3.4 -1.17,-0.5 -2.72,-0.35 -3.75,0.32 -0.43,0.28 -0.82,0.67 -1.12,1.08 -0.12,0.17 -0.19,0.33 -0.34,0.44l0 -11.36 -5 0 0 0.65z"/>
     <path class="fil0" d="M83.1 30.2c0,-1.31 -0.07,-3.83 1.75,-3.83 1.88,0 1.9,3.91 1.37,5.53 -0.7,2.13 -3.13,1.61 -3.13,-1.7zm4.74 -5.91c0,0.82 1.04,0.57 0.33,1.62 -0.1,0.15 -0.28,0.34 -0.33,0.52 -0.26,-0.06 -0.41,-0.15 -0.67,-0.24 -1.45,-0.5 -3.24,-0.58 -4.67,0.02 -0.86,0.36 -1.07,0.56 -1.69,1.17 -1.41,1.4 -1.23,4.05 0.03,5.39l1.09 0.79c-0.52,0.04 -1.17,0.38 -1.48,0.66 -1.13,1.05 -1.13,3.47 0.76,4.15 2.28,0.82 4.54,-0.13 5.69,0.8 0.7,0.57 1.24,2.49 -0.18,3.45 -1.62,1.09 -4.92,0.48 -4.12,-2.05 0.07,-0.24 0.2,-0.43 0.25,-0.66 -0.43,-0.1 -0.93,-0.36 -1.31,-0.51 -0.41,-0.17 -0.92,-0.33 -1.29,-0.53 -1.2,1.79 -1.16,3.24 0.99,4.2 2.62,1.17 8.61,0.96 8.61,-3.1 0,-1.01 -0.26,-1.8 -0.69,-2.43 -1.79,-2.65 -7.04,-0.33 -7.04,-2.31l0 -0.32c0,-0.59 0.87,-1.17 1.49,-1.17l1.63 0.01c1.07,-0.12 1.76,-0.17 2.73,-0.78 0.96,-0.6 1.8,-1.7 1.8,-2.87 0,-0.99 -0.04,-1.85 -0.79,-2.65 -0.22,-0.23 -0.26,-0.27 -0.44,-0.53 0.51,-0.34 1.6,-1.86 1.14,-3.03 -0.43,-1.11 -1.86,-0.72 -1.86,0.37z"/>
     <path class="fil0" d="M134.19 28.18l0 -2.01 -4.67 0c-0.24,0 -0.19,0.14 -0.19,0.45 0,0.54 1.82,-0.15 1.82,0.39l0 10.19 -1.62 0c-0.29,0 -0.29,0.65 0,0.65l6.3 0 0 -0.65 -1.49 0 0 -5.91c0,-3.84 2.24,-4.46 3.23,-3.55 0.66,0.6 0.73,2.23 0.73,3.17l0 6.3 -1.56 0 0 0.65 6.49 0c0,-0.84 0.27,-0.65 -1.75,-0.65l0 -7.14c0,-2.23 -0.81,-3.96 -2.74,-4.2 -2.63,-0.34 -3.39,0.79 -4.41,2.18 -0.06,0.07 -0.07,0.09 -0.12,0.14z"/>
     <path class="fil0" d="M122.05 37.27c-1.22,0 -1.43,-1.43 -1.43,-2.47 0,-0.97 0.45,-1.66 0.99,-2.12 0.38,-0.32 1.61,-0.85 2.25,-0.86 0,1.41 0.25,5.45 -1.82,5.45zm-4.22 -8.64c0,0.59 0.01,0.87 0.4,1.28 1.06,1.13 3.62,0.13 2.64,-1.53 -0.72,-1.22 0.22,-2.03 1.64,-2.03 1.66,0 1.36,2.78 1.36,4.35 0,0.42 -1.56,0.72 -2.01,0.85 -2.21,0.65 -4.52,1.29 -4.67,3.96 -0.04,0.65 0.33,1.55 0.85,1.99 0.63,0.53 1.26,0.59 2.21,0.72 0.26,0.04 1.03,-0.04 1.31,-0.08 0.87,-0.14 1.31,-0.4 1.96,-0.9 0.39,-0.3 0.56,-0.63 0.74,-0.75 0.26,0.49 0.36,0.85 0.8,1.22 0.17,0.14 0.39,0.27 0.61,0.36 1.2,0.51 3.14,-0.29 3.14,-1.58 -0.34,0.09 -1.75,1.16 -1.76,-1.04 -0,-1.89 0.25,-6.44 -0.34,-7.71 -1.46,-3.15 -8.87,-2.3 -8.87,0.89z"/>
     <path class="fil0" d="M74.33 30.58l-3.18 0c0,-1.24 0.12,-3.03 1.06,-3.81 0.41,-0.34 0.76,-0.41 1.28,-0.41 1.71,0 1.97,3.69 1.57,4.04 -0.13,0.12 -0.49,0.18 -0.73,0.18zm-6.69 1.23c0,1.92 0.43,3.6 1.61,4.76 0.82,0.81 1.52,1.29 2.76,1.52 1.08,0.2 2.12,0.2 3.14,-0.14 1.16,-0.38 1.79,-0.93 2.47,-1.88 0.23,-0.32 0.64,-1.07 0.73,-1.48 -0.13,-0.06 -0.68,-0.26 -0.84,-0.26 -0.21,0 -0.14,0.07 -0.32,0.45l-0.9 1.44c-1.5,1.87 -5.14,1.38 -5.14,-3.19l0 -1.62 7.01 0c0.25,0 0.19,-0.15 0.19,-0.52 0,-1.4 -0.49,-3.15 -1.62,-4.03 -0.43,-0.33 -0.61,-0.5 -1.23,-0.72 -1.04,-0.38 -2.27,-0.49 -3.43,-0.24 -1.95,0.43 -3.17,1.6 -3.9,3.44 -0.26,0.65 -0.53,1.57 -0.53,2.46z"/>
     <path class="fil0" d="M43.1 30.58l-3.05 0c-0.31,0 -0.16,-0.35 -0.14,-0.53 0.1,-0.79 -0.03,-1 0.34,-2.13 0.14,-0.41 0.31,-0.73 0.59,-1.03 0.4,-0.42 0.83,-0.53 1.41,-0.53 1.52,0 1.69,2.38 1.69,3.7 0,0.44 -0.4,0.52 -0.84,0.52zm4.03 4.03c-0.2,-0.1 -0.68,-0.25 -0.97,-0.26l-0.5 1c-0.11,0.21 -0.17,0.3 -0.29,0.49 -0.26,0.38 -0.77,0.92 -1.2,1.13 -1.51,0.73 -2.99,0.13 -3.74,-1.42 -0.53,-1.09 -0.56,-2.65 -0.56,-4.11l7.08 0c0.38,0 0.14,-0.85 0.13,-1.1 -0.08,-1.81 -1.03,-3.45 -2.7,-4.12 -1.2,-0.48 -2.82,-0.56 -4.05,-0.16 -1.5,0.49 -2.52,1.45 -3.21,2.89 -1.42,2.97 -0.65,7.17 2.1,8.59 1.94,1 4.57,0.96 6.31,-0.45 0.84,-0.68 1.17,-1.55 1.61,-2.48z"/>
     <path class="fil0" d="M108.09 26.17l0 0.65 1.56 0 0 6.75c0,1.6 0.14,3.69 1.53,4.37 0.36,0.17 1.17,0.35 1.68,0.27 0.33,-0.05 0.56,-0.04 0.86,-0.11 0.28,-0.07 0.48,-0.12 0.73,-0.25 1.3,-0.67 1.82,-2.24 1.87,-3.64 0.01,-0.24 -0.05,-0.16 -0.05,-0.45l-1.04 0 -0.07 1.03c-0.23,2.27 -1.74,2.61 -2.11,1.48 -0.28,-0.87 -0.15,-8.03 -0.15,-9.46l2.73 0c0.26,0 0.13,-0.04 0.13,-0.39 0,-0.16 0.14,-0.26 -0.13,-0.26l-2.73 0 0 -4.93c0,-0.24 -0.06,-0.13 -0.97,-0.13 -0.32,0 -0.22,-0.25 -0.37,0.6 -0.17,0.93 -0.4,1.74 -0.84,2.54 -0.53,0.96 -1.45,1.83 -2.62,1.93z"/>
     <path class="fil0" d="M102.9 37.66c-1.97,0 -2.95,-1.65 -3.6,-3.28 -0.21,-0.53 -0.21,-0.48 -0.88,-0.48 -0.15,0 -0.19,0.05 -0.19,0.19l0 3.77 0.97 0 0 -1.04c0.35,0.19 0.63,0.41 1.02,0.61 1.34,0.68 2.45,1.04 4.02,0.6 0.48,-0.14 0.79,-0.29 1.17,-0.51 0.45,-0.26 0.57,-0.43 0.91,-0.77 1.22,-1.2 1.39,-3.72 0.13,-4.97 -0.96,-0.96 -2.92,-1.34 -4.26,-1.72 -0.38,-0.11 -0.72,-0.24 -1.04,-0.45 -0.67,-0.43 -0.59,-0.88 -0.59,-1.48 0,-1.75 4.06,-3.19 5.22,0.89 0.17,0.6 -0.01,0.54 0.82,0.54 0.15,0 0.19,-0.05 0.19,-0.19l0 -3.38 -0.91 0 0 0.91c-0.94,-0.63 -1.29,-0.9 -2.59,-1.05 -1.54,-0.17 -3,0.44 -3.99,1.42 -0.27,0.27 -0.62,0.76 -0.75,1.13 -0.76,2.01 0.26,3.84 2.16,4.64 1.37,0.57 3.39,0.61 3.99,1.53 0.27,0.41 0.37,0.91 0.27,1.49 -0.17,0.96 -1.07,1.62 -2.08,1.62z"/>
     <path class="fil0" d="M90.56 26.36c0,0.7 0.01,0.47 0.64,0.53 0.83,0.07 1.11,0.25 1.11,1.48l0 7.73c0,1.09 -0.93,1.04 -1.69,1.04 -0.04,0.18 -0.2,0.71 0.13,0.71l6.49 0 0 -0.71c-0.7,0 -1.69,0.09 -1.69,-0.97l0 -10 -4.8 0c-0.15,0 -0.19,0.05 -0.19,0.19z"/>
     <path class="fil0" d="M92.25 21.3c0,0.93 0.67,2.01 1.56,2.01 0.57,0 1.01,-0.12 1.39,-0.69 0.9,-1.32 0.27,-3.4 -1.33,-3.4 -0.96,0 -1.62,1.08 -1.62,2.08z"/>
    </g>
   </g>
  </g>
  <polygon class="fil1" points="-0,0 150.69,0 150.69,60.27 -0,60.27 "/>
 </g>
</svg>
