<svg xmlns="http://www.w3.org/2000/svg" xml:space="preserve" width="1410.56mm" height="177.343mm" version="1.1" style="shape-rendering:geometricPrecision; text-rendering:geometricPrecision; image-rendering:optimizeQuality; fill-rule:evenodd; clip-rule:evenodd"
viewBox="0 0 74462.28 9361.8"
xmlns:xlink="http://www.w3.org/1999/xlink">
<defs>
<style type="text/css">
<![CDATA[
.fil2 {fill:none}
.fil1 {fill:#FEFEFE}
.fil0 {fill:#FEFEFE;fill-rule:nonzero}
]]>
</style>
<clipPath id="id0">
<path d="M-0 0l74462.28 0 0 9361.8 -74462.28 0 0 -9361.8z"/>
</clipPath>
<clipPath id="id1">
<path d="M49641.52 0.16l24820.76 0 0 9361.63 -24820.76 0 0 -9361.63z"/>
</clipPath>
<clipPath id="id2">
<path d="M-0 0l74462.28 0 0 9361.8 -74462.28 0 0 -9361.8z"/>
</clipPath>
<clipPath id="id3">
<path d="M24820.76 0.16l24820.76 0 0 9361.63 -24820.76 0 0 -9361.63z"/>
</clipPath>
<clipPath id="id4">
<path d="M-0 0l74462.28 0 0 9361.8 -74462.28 0 0 -9361.8z"/>
</clipPath>
<clipPath id="id5">
<path d="M-0 0l24820.76 0 0 9361.8 -24820.76 0 0 -9361.8z"/>
</clipPath>
<clipPath id="id6">
<path d="M-0 0l74462.28 0 0 9361.8 -74462.28 0 0 -9361.8z"/>
</clipPath>
</defs>
<g id="Слой_x0020_1">
<metadata id="CorelCorpID_0Corel-Layer"/>
<g>
</g>
<g style="clip-path:url(#id0)">
<g>
<g id="_900525168">
<g>
</g>
</g>
<g style="clip-path:url(#id1)">
<g id="_900526480">
<g>
<polygon class="fil0" points="53716.79,157.31 53716.79,1368.26 52078.43,1368.26 52078.43,5663.6 50867.48,5663.6 50867.48,1368.26 49641.52,1368.26 49641.52,157.31 "/>
<polygon class="fil0" points="56402.34,5663.6 55191.38,5663.6 55191.38,157.31 56402.34,157.31 "/>
<path class="fil0" d="M60847.32 5813.19c-394.15,0 -771.68,-75.98 -1132.59,-227.94 -351.41,-151.96 -660.09,-358.54 -926.02,-619.72 -261.18,-265.94 -467.76,-574.61 -619.72,-926.02 -151.96,-360.91 -227.95,-738.44 -227.95,-1132.59 0,-384.66 75.98,-762.18 227.95,-1132.6 75.97,-170.95 165.02,-333.61 267.12,-487.94 102.1,-154.34 219.63,-298 352.59,-430.96 137.72,-137.72 283.75,-257.63 438.08,-359.72 154.34,-102.1 316.99,-191.14 487.94,-267.12 360.91,-151.96 738.45,-227.94 1132.59,-227.94 384.66,0 762.19,75.97 1132.6,227.94 170.96,75.98 333.61,165.02 487.94,267.12 154.35,102.1 298,222.01 430.96,359.72 137.72,132.97 257.63,276.62 359.72,430.96 102.1,154.33 191.14,316.99 267.12,487.94 151.96,370.42 227.93,747.94 227.93,1132.6 0,394.16 -75.97,771.68 -227.93,1132.59 -75.98,170.96 -165.02,333.61 -267.12,487.94 -102.1,154.34 -222.01,300.37 -359.72,438.08 -132.97,132.97 -276.62,250.5 -430.96,352.6 -154.33,102.1 -316.98,191.14 -487.94,267.12 -370.41,151.96 -747.94,227.94 -1132.6,227.94l0.01 0.01zm0 -4601.63c-232.69,0 -452.32,45.12 -658.9,135.35 -206.57,90.23 -385.85,211.32 -537.81,363.28 -151.96,151.96 -273.05,331.24 -363.29,537.81 -90.23,206.58 -135.34,426.21 -135.34,658.9 0,232.69 45.11,452.32 135.34,658.9 90.23,206.57 211.33,385.85 363.29,537.81 151.96,151.96 331.24,273.06 537.81,363.3 206.57,90.23 426.21,135.33 658.9,135.33 232.7,0 452.32,-45.11 658.9,-135.33 206.57,-90.23 385.85,-211.33 537.81,-363.3 151.96,-151.96 273.06,-331.23 363.29,-537.81 90.23,-206.57 135.34,-426.21 135.34,-658.9 0,-232.69 -45.11,-452.32 -135.34,-658.9 -90.23,-206.57 -211.33,-385.84 -363.29,-537.81 -151.96,-151.96 -331.23,-273.05 -537.81,-363.28 -206.58,-90.23 -426.21,-135.35 -658.9,-135.35z"/>
<polygon class="fil0" points="70071.97,157.31 70663.2,157.31 70663.2,5663.6 69537.74,5663.6 69359.66,5663.6 66531.72,1980.87 66531.72,5663.6 66139.93,5663.6 65320.76,5663.6 65320.76,157.31 66659.93,157.31 69452.24,3797.3 69452.24,157.31 "/>
<path class="fil0" d="M73387.74 4587.94c180.47,0 356.55,46.22 528.77,139.13 171.7,92.42 305.95,225.25 401.78,397.45 95.83,172.71 143.99,352.71 143.99,539.48 0,185.37 -47.19,363.88 -142.02,534.62 -94.39,171.26 -226.69,304.06 -397.43,398.45 -170.74,94.84 -349.27,142.02 -535.08,142.02 -186.32,0 -364.86,-47.19 -535.6,-142.02 -170.74,-94.39 -303.53,-227.19 -398.39,-398.45 -94.84,-170.75 -142.51,-349.26 -142.51,-534.62 0,-186.78 48.16,-366.77 144.47,-539.48 96.8,-172.2 231.03,-305.03 402.78,-397.45 172.19,-92.91 348.28,-139.13 529.25,-139.13l0.01 0 -0.01 0zm0 178.06c-151.3,0 -298.7,38.92 -441.69,116.28 -143.03,77.33 -254.92,188.26 -335.66,332.25 -80.74,143.99 -121.14,293.82 -121.14,449.47 0,155.21 39.88,303.58 119.2,445.61 79.29,142.07 190.18,252.97 332.73,332.25 142.51,79.29 291.36,119.18 446.55,119.18 154.68,0 303.53,-39.88 446.07,-119.18 142.51,-79.29 253.44,-190.19 332.24,-332.25 78.8,-142.03 118.21,-290.4 118.21,-445.61 0,-155.64 -40.4,-305.47 -120.64,-449.47 -80.26,-143.99 -192.15,-254.93 -335.66,-332.25 -143.51,-77.36 -290.39,-116.28 -440.21,-116.28l0.01 0zm-472.34 1491.52l0 -1155.85 397.91 0c136.2,0 234.45,10.68 295.26,32.09 61.29,21.41 109.45,58.37 145.92,111.91 36.02,53.02 54.02,109.45 54.02,169.26 0,84.19 -30.16,158.14 -90.97,220.39 -60.33,62.75 -140.58,97.77 -240.79,105.56 40.85,17.03 73.95,37.44 98.25,61.29 46.71,45.23 103.63,121.62 171.26,229.12l141.06 226.22 -226.69 0 -103.14 -181.95c-80.74,-143.48 -146.41,-233.49 -196.01,-269.48 -34.06,-26.27 -83.66,-39.41 -149.33,-38.92l-109.97 0 0 490.36 -186.77 0 0.01 -0.01 -0.02 -0.01zm186.77 -650.91l226.69 0c108.48,0 182.42,-16.03 221.83,-48.16 39.4,-32.1 59.32,-74.91 59.32,-127.45 0,-34.06 -9.72,-64.71 -28.68,-91.46 -18.96,-27.23 -45.23,-47.19 -78.8,-60.33 -34.06,-13.13 -96.32,-19.93 -187.77,-19.93l-212.59 0 0 347.32 0 0.01z"/>
<path class="fil1" d="M49641.52 9022.11l0 -1842.03 222.2 0 0 1842.03 -222.2 0zm2036.18 0l-284.45 0 -698.7 -828.5 -185.03 209.88 0 618.62 -229.22 0 0 -1842.03 229.22 0 0 952.78 814.69 -952.78 287.22 0 -767.75 875.45 834.03 966.58zm121.07 33.14l0 -204.36c79.17,0 143.61,-18.41 193.31,-55.23 49.71,-36.83 93.9,-110.01 132.56,-219.56 38.67,-109.54 70.89,-266.5 96.66,-470.86l113.23 -925.16 1126.76 0 0 1842.03 -229.22 0 0 -1637.67 -693.18 0 -91.14 737.37c-23.93,197 -55.69,359.02 -95.28,486.06 -39.58,127.03 -88.37,222.31 -146.37,285.83 -57.99,63.52 -117.83,106.32 -179.5,128.42 -61.68,22.09 -137.63,33.14 -227.84,33.14zm3656.01 -33.14l-262.36 0 -162.94 -408.73 -916.87 0 -162.93 408.73 -262.36 0 740.13 -1842.03 284.45 0 742.89 1842.03zm-494.34 -613.09l-389.39 -991.44 -392.16 991.44 781.55 0z"/>
</g>
</g>
</g>
<g style="clip-path:url(#id2)">
<polygon class="fil2" points="49641.52,0.16 74462.28,0.16 74462.28,9361.96 49641.52,9361.96 "/>
<g>
</g>
</g>
<g style="clip-path:url(#id3)">
<g>
<g id="_900522512">
<path class="fil0" d="M25736.38 5813.19c-315.89,0 -621.1,-48.81 -915.63,-146.42l0 -1336.83c80.3,51.63 165.87,97.29 256.72,136.98 206.57,90.23 426.21,135.33 658.9,135.33 232.7,0 452.32,-45.11 658.9,-135.33 206.57,-90.23 385.84,-211.33 537.81,-363.3 151.96,-151.96 273.05,-331.23 363.28,-537.81 90.23,-206.57 135.35,-426.21 135.35,-658.9 0,-232.69 -45.12,-452.32 -135.35,-658.9 -90.23,-206.57 -211.32,-385.84 -363.28,-537.81 -151.96,-151.96 -331.23,-273.05 -537.81,-363.28 -206.58,-90.23 -426.21,-135.35 -658.9,-135.35 -232.69,0 -452.32,45.12 -658.9,135.35 -90.86,39.69 -176.43,85.34 -256.72,136.97l0 -1336.83c294.53,-97.61 599.74,-146.42 915.62,-146.42 384.66,0 762.19,75.97 1132.6,227.94 170.96,75.98 333.61,165.02 487.94,267.12 154.34,102.1 298,222.01 430.96,359.72 137.72,132.97 257.63,276.62 359.72,430.96 102.1,154.33 191.14,316.99 267.12,487.94 151.96,370.42 227.94,747.94 227.94,1132.6 0,394.16 -75.97,771.68 -227.94,1132.59 -75.98,170.96 -165.02,333.61 -267.12,487.94 -102.1,154.34 -222.01,300.37 -359.72,438.08 -132.97,132.97 -276.62,250.5 -430.96,352.6 -154.33,102.1 -316.98,191.14 -487.94,267.12 -370.41,151.96 -747.94,227.94 -1132.6,227.94l0.01 0.01z"/>
<path class="fil0" d="M32261.32 5663.6l-2051.5 0 0 -5506.27 2051.5 0c389.4,0 756.25,67.67 1100.54,203.01 344.29,135.34 647.03,331.24 908.22,587.67 256.44,256.43 453.51,550.86 591.23,883.28 137.71,332.41 206.57,686.21 206.57,1061.36 0,375.16 -65.29,728.95 -195.89,1061.37 -130.6,332.41 -321.73,626.85 -573.42,883.28 -123.47,132.97 -261.19,249.31 -413.14,349.04 -151.96,99.73 -313.43,185.21 -484.37,256.44 -360.91,147.21 -740.83,220.82 -1139.72,220.82l-0.01 0.01 -0.01 -0.01zm-840.54 -1210.95l840.54 0c232.69,0 447.58,-37.99 644.66,-113.98 197.08,-75.97 365.66,-182.82 505.75,-320.54 140.09,-137.72 249.31,-302.73 327.67,-495.07 78.36,-192.33 117.52,-402.47 117.52,-630.41 0,-218.45 -39.17,-421.46 -117.52,-609.04 -78.36,-187.58 -188.77,-349.04 -331.23,-484.38 -142.47,-135.35 -311.05,-241.01 -505.75,-316.99 -194.71,-75.98 -408.4,-113.97 -641.09,-113.97l-840.54 0 0 3084.37 -0.01 0.01 0 0.01z"/>
<path class="fil0" d="M39135.37 5806.05c-579.36,0 -1073.23,-118.72 -1481.63,-356.16 -365.66,-213.7 -643.46,-503.38 -833.43,-869.04 -80.73,-151.96 -143.66,-305.11 -188.76,-459.45 -45.12,-154.33 -78.36,-299.17 -99.72,-434.52 -21.37,-135.34 -33.25,-257.63 -35.62,-366.84 -2.37,-109.23 -3.55,-194.71 -3.55,-256.44l0 -2906.29 1210.95 0 0 2906.29c0,541.36 112.78,931.95 338.36,1171.77 225.57,239.82 590.04,359.72 1093.42,359.72 503.38,0 867.85,-119.9 1093.42,-359.72 225.57,-239.82 338.36,-630.41 338.36,-1171.77l0 -2906.29 1210.95 0 0 2906.29c0,61.73 -1.18,147.21 -3.55,256.44 -2.38,109.22 -14.25,231.5 -35.62,366.84 -21.37,135.35 -54.61,280.19 -99.72,434.52 -45.11,154.34 -108.03,307.49 -188.77,459.45 -189.95,365.66 -467.76,655.33 -833.43,869.04 -408.4,237.44 -902.28,356.16 -1481.63,356.16l-0.02 0 0.01 0z"/>
<path class="fil0" d="M46080.54 5791.81c-389.4,0 -764.56,-75.97 -1125.48,-227.94 -170.96,-71.23 -332.42,-159.08 -484.39,-263.56 -151.96,-104.48 -296.78,-223.2 -434.51,-356.17 -265.94,-265.94 -470.14,-569.86 -612.6,-911.78 -151.96,-360.91 -227.94,-736.07 -227.94,-1125.48 0,-389.4 75.97,-764.56 227.94,-1125.48 142.46,-337.17 346.67,-643.46 612.6,-918.91 275.43,-265.93 581.73,-470.12 918.9,-612.6 360.91,-151.96 736.07,-227.94 1125.48,-227.94 384.65,0 757.44,75.97 1118.34,227.94 346.67,142.47 652.97,346.67 918.91,612.6l-854.79 861.92c-156.71,-161.46 -335.98,-283.75 -537.81,-366.85 -201.82,-83.11 -416.71,-124.65 -644.66,-124.65 -232.7,0 -449.96,43.93 -651.78,131.78 -201.83,87.85 -378.72,207.76 -530.68,359.72 -151.96,151.96 -271.88,328.86 -359.72,530.69 -87.86,201.82 -131.78,419.08 -131.78,651.77 0,227.94 43.93,444.02 131.78,648.21 87.85,204.19 207.76,382.28 359.72,534.24 151.96,151.96 328.86,271.88 530.68,359.73 201.82,87.85 419.08,131.78 651.78,131.78 227.94,0 442.83,-41.55 644.66,-124.66 201.83,-83.11 381.09,-205.39 537.81,-366.85l854.79 854.79c-265.94,270.68 -572.24,477.26 -918.91,619.72 -360.91,151.96 -733.7,227.94 -1118.34,227.94l0 0.03z"/>
<polygon class="fil0" points="49641.52,1368.26 49236.25,1368.26 49236.25,157.31 49641.52,157.31 "/>
<path class="fil1" d="M49641.52 7180.08l0 1842.03 -7.02 0 0 -1469.21 -1074.29 1469.21 -220.93 0 0 -1842.03 229.22 0 0 1438.83 1060.48 -1438.83 12.54 0zm-24820.76 1433.31l0 -204.36 324.91 0 -324.91 -827.25 0 -401.69 76.36 0 742.89 1842.03 -262.36 0 -162.94 -408.73 -393.95 0zm2580.75 408.73l-229.22 0 0 -845.07 -1077.05 0 0 845.07 -229.22 0 0 -1842.03 229.22 0 0 792.6 1077.05 0 0 -792.6 229.22 0 0 1842.03zm637.51 0l-220.93 0 0 -1842.03 229.22 0 0 1438.83 1060.48 -1438.83 234.74 0 0 1842.03 -229.22 0 0 -1469.21 -1074.29 1469.21zm1902.35 0l-267.88 0 497.1 -751.17c-134.4,-11.04 -248.09,-63.52 -341.07,-157.41 -92.98,-93.9 -139.46,-220.01 -139.46,-378.35 0,-167.54 53.85,-301.94 161.56,-403.2 107.71,-101.26 247.17,-151.89 418.39,-151.89l740.13 0 0 1842.03 -229.22 0 0 -731.84 -370.06 0 -469.48 731.84zm353.49 -933.45l486.05 0 0 -704.22 -486.05 0c-108.62,0 -197,32.68 -265.12,98.04 -68.12,65.36 -102.18,149.59 -102.18,252.69 0,103.1 34.52,187.79 103.56,254.07 69.04,66.28 156.95,99.42 263.74,99.42zm3391.33 933.45l-229.22 0 0 -1637.67 -1077.05 0 0 1637.67 -229.22 0 0 -1842.03 1535.49 0 0 1842.03zm1256.12 33.14c-270.64,0 -490.65,-90.22 -660.04,-270.65 -169.38,-180.43 -254.07,-407.81 -254.07,-682.13 0,-274.32 84.69,-501.7 254.07,-682.13 169.38,-180.43 389.4,-270.65 660.04,-270.65 268.8,0 488.36,90.22 658.66,270.65 170.3,180.43 255.45,407.81 255.45,682.13 0,274.32 -85.15,501.7 -255.45,682.13 -170.3,180.43 -389.86,270.65 -658.66,270.65zm0 -204.36c202.53,0 365.92,-70.43 490.2,-211.27 124.28,-140.85 186.41,-319.89 186.41,-537.15 0,-219.09 -62.14,-398.6 -186.41,-538.52 -124.27,-139.92 -287.67,-209.89 -490.2,-209.89 -204.36,0 -368.22,69.97 -491.57,209.89 -123.36,139.92 -185.03,319.43 -185.03,538.52 0,217.25 61.67,396.3 185.03,537.15 123.35,140.84 287.21,211.27 491.57,211.27zm1029.66 204.36l0 -204.36c79.17,0 143.61,-18.41 193.31,-55.23 49.71,-36.83 93.9,-110.01 132.56,-219.56 38.67,-109.54 70.89,-266.5 96.66,-470.86l113.23 -925.16 1126.76 0 0 1842.03 -229.22 0 0 -1637.67 -693.18 0 -91.14 737.37c-23.93,197 -55.69,359.02 -95.28,486.06 -39.58,127.03 -88.37,222.31 -146.37,285.83 -57.99,63.52 -117.83,106.32 -179.5,128.42 -61.68,22.09 -137.63,33.14 -227.84,33.14zm3614.58 -33.14l-229.22 0 0 -845.07 -1077.05 0 0 845.07 -229.22 0 0 -1842.03 229.22 0 0 792.6 1077.05 0 0 -792.6 229.22 0 0 1842.03zm1256.12 33.14c-270.64,0 -490.65,-90.22 -660.04,-270.65 -169.38,-180.43 -254.07,-407.81 -254.07,-682.13 0,-274.32 84.69,-501.7 254.07,-682.13 169.38,-180.43 389.4,-270.65 660.04,-270.65 268.8,0 488.36,90.22 658.66,270.65 170.3,180.43 255.45,407.81 255.45,682.13 0,274.32 -85.15,501.7 -255.45,682.13 -170.3,180.43 -389.86,270.65 -658.66,270.65zm0 -204.36c202.53,0 365.92,-70.43 490.2,-211.27 124.28,-140.85 186.41,-319.89 186.41,-537.15 0,-219.09 -62.14,-398.6 -186.41,-538.52 -124.27,-139.92 -287.67,-209.89 -490.2,-209.89 -204.36,0 -368.22,69.97 -491.57,209.89 -123.36,139.92 -185.03,319.43 -185.03,538.52 0,217.25 61.67,396.3 185.03,537.15 123.35,140.84 287.21,211.27 491.57,211.27zm1488.1 171.22l-229.22 0 0 -1842.03 1206.85 0 0 204.36 -977.63 0 0 1637.67zm2040.43 33.14c-270.64,0 -490.65,-90.22 -660.04,-270.65 -169.38,-180.43 -254.07,-407.81 -254.07,-682.13 0,-274.32 84.69,-501.7 254.07,-682.13 169.38,-180.43 389.4,-270.65 660.04,-270.65 268.8,0 488.36,90.22 658.66,270.65 170.3,180.43 255.45,407.81 255.45,682.13 0,274.32 -85.15,501.7 -255.45,682.13 -170.3,180.43 -389.86,270.65 -658.66,270.65zm0 -204.36c202.53,0 365.92,-70.43 490.2,-211.27 124.28,-140.85 186.41,-319.89 186.41,-537.15 0,-219.09 -62.14,-398.6 -186.41,-538.52 -124.27,-139.92 -287.67,-209.89 -490.2,-209.89 -204.36,0 -368.22,69.97 -491.57,209.89 -123.36,139.92 -185.03,319.43 -185.03,538.52 0,217.25 61.67,396.3 185.03,537.15 123.35,140.84 287.21,211.27 491.57,211.27zm3460.38 510.9l0 -339.68 -1474.73 0 0 -1842.03 229.22 0 0 1637.67 1077.05 0 0 -1637.67 229.22 0 0 1637.67 168.46 0 0 544.05 -229.22 0z"/>
</g>
</g>
</g>
<g style="clip-path:url(#id4)">
<polygon class="fil2" points="24820.76,0.16 49641.52,0.16 49641.52,9361.96 24820.76,9361.96 "/>
<g>
</g>
</g>
<g style="clip-path:url(#id5)">
<g>
<g>
<path class="fil0" d="M1211.96 5584.9l-1210.96 0 0 -5506.24 2044.36 0 13.97 0.08 0.22 0 13.72 0.13 0.44 0.01 13.47 0.18 0.67 0.01 13.21 0.23 0.88 0.02 12.97 0.28 1.1 0.03 12.72 0.32 1.31 0.04 12.47 0.37 1.53 0.05 12.22 0.41 1.75 0.06 11.97 0.45 1.96 0.08 11.73 0.49 2.17 0.1 3.77 0.17 9.54 0.44 3.06 0.15 10.8 0.54 2.94 0.16 10.25 0.55 1.15 0.06 10.76 0.63 0.99 0.06 8.12 0.5 5.7 0.36 9.31 0.62 3.75 0.25 8.9 0.62 5.42 0.39 6.5 0.48 7.4 0.56 5.83 0.46 7.29 0.58 8.85 0.73 3.69 0.31 7.84 0.68 7.42 0.65 4.36 0.4 8.53 0.79 7.01 0.67 5.73 0.55 6.98 0.7 6.58 0.67 7.6 0.8 5.25 0.55 8.91 0.97 3.56 0.4 9.88 1.11 3.62 0.42 8.88 1.04 4.57 0.54 8.25 1 5.23 0.64 7.8 0.98 5.79 0.74 6.75 0.88 6.32 0.84 7.26 0.98 5.21 0.71 7.42 1.03 7.4 1.05 5 0.72 6.35 0.93 8.83 1.31 2.65 0.4 10.53 1.62 2.42 0.37 9.93 1.57 3.46 0.55 8.91 1.45 4.85 0.8 7.8 1.3 5.48 0.93 7.25 1.25 4.31 0.75 9.54 1.68 2.78 0.5 8.87 1.6 6.04 1.11 6.04 1.12 6.44 1.21 7.34 1.4 3.71 0.72 8.93 1.74 4.4 0.87 7.78 1.56 5.34 1.09 7.11 1.46 6.35 1.33 6.12 1.28 1.55 0.33 9.48 2.03 0.96 0.21 9.78 2.13 2.43 0.53 7.33 1.64 6.7 1.51 0.54 0.12 9.99 2.29 2.35 0.54 3.58 0.84 8.6 2.02 0.13 0.03 10.33 2.47 1.94 0.47 10.5 2.57 0.13 0.03 9.16 2.28 3.12 0.78 1.55 0.39 10.83 2.75 1.35 0.35 2.5 0.65 9.66 2.51 11.15 2.95 0.96 0.26 11.32 3.05 0.77 0.21 11.48 3.16 0.58 0.16 11.64 3.26 0.38 0.11 11.8 3.37 0.19 0.05 11.96 3.48c258.92,75.97 487.97,189.93 687.43,341.87 232.74,175.7 408.44,389.52 527.1,641.18 123.48,261.2 185.23,546.03 185.23,854.74 0,299.19 -52.21,574.61 -156.64,826.29 -104.56,265.9 -254.09,489.11 -448.84,669.64 -199.45,199.46 -436.9,351.4 -712.32,455.82 -275.43,104.56 -572.2,156.77 -890.31,156.77l-49.93 0 -804.94 0 0 1445.99 0 0.01 0.01 -0.01 -0.01 0 -0.01 0zm0 -2656.96l819.17 0 7.11 0c337.17,9.53 598.37,-78.39 783.6,-263.61 161.47,-156.65 242.14,-368.05 242.14,-633.95 0,-161.47 -26.04,-281.4 -78.25,-359.65 -52.35,-78.39 -104.56,-136.57 -156.77,-174.56 -90.2,-66.44 -204.16,-117.51 -341.87,-153.2 -137.71,-35.57 -289.78,-53.36 -455.96,-53.36l-819.17 0 0 1638.33 0 0.01 0 -0.01zm0 0.01l-0.01 0 0.01 0z"/>
<polygon class="fil0" points="10513.8,78.66 8382.04,3512.08 8382.04,5584.9 7171.07,5584.9 7171.07,3512.08 5046.56,78.66 6521.01,78.66 7776.56,2265.41 9032.1,78.66 "/>
<path class="fil0" d="M13113.85 5584.94l-1210.95 0 0 -5506.27 2030.13 0c303.92,0 585.29,37.99 844.1,113.97 258.81,75.98 487.94,189.96 687.4,341.92 232.69,175.7 408.4,389.4 527.12,641.09 123.46,261.18 185.2,546.11 185.2,854.79 0,299.17 -52.23,574.61 -156.7,826.3 -104.48,265.94 -254.06,489.13 -448.77,669.59 -199.45,199.45 -436.89,351.41 -712.32,455.89 -275.43,104.48 -572.24,156.71 -890.4,156.71l-49.86 0 -804.93 0 0 1446.02 0.02 0 -0.02 0zm0 -2656.97l819.18 0 7.12 0c337.16,9.5 598.35,-78.36 783.56,-263.57 161.46,-156.71 242.19,-368.04 242.19,-633.97 0,-161.46 -26.12,-281.37 -78.36,-359.72 -52.23,-78.36 -104.48,-136.53 -156.71,-174.52 -90.23,-66.48 -204.19,-117.52 -341.91,-153.15 -137.72,-35.62 -289.68,-53.43 -455.89,-53.43l-819.18 0 0 1638.36 0 -0.01 -0.01 -0.01z"/>
<path class="fil0" d="M21896.88 5584.94l-527.11 0 -954.52 0 -1011.5 -1446.02 -626.85 0 0 1446.02 -1210.96 0 0 -5506.27 2030.13 0c313.43,0 599.55,39.17 858.35,117.52 258.81,78.36 487.94,193.51 687.4,345.47 109.22,90.23 207.76,188.77 295.61,295.62 87.86,106.85 160.27,222.01 217.26,345.48 123.47,261.18 185.2,543.74 185.2,847.67 0,289.68 -52.23,565.11 -156.7,826.3 -99.73,251.69 -249.31,474.89 -448.77,669.59 -156.7,156.7 -330.04,280.18 -519.99,370.41l1182.46 1688.21 -0.01 0 0.01 -0.01zm-3119.97 -2656.97l819.17 0 7.12 0c337.18,9.5 598.36,-78.36 783.56,-263.57 161.46,-161.46 242.19,-372.79 242.19,-633.97 0,-493.88 -344.3,-740.82 -1032.88,-740.82l-819.17 0 0 1638.36 0.01 0z"/>
<path class="fil0" d="M24820.76 5588.1l-3.42 -1.13 -3.42 -1.14 -0.38 -0.13 -9.74 -3.28 -0.13 -0.04 -3.42 -1.16 -3.42 -1.16 -3.41 -1.17 -3.42 -1.17 -3.41 -1.18 -3.41 -1.18 -3.41 -1.18 -1.48 -0.52 -5.33 -1.86 -3.41 -1.2 -3.4 -1.2 -3.4 -1.2 -3.4 -1.21 -0.18 -0.06 -3.22 -1.15 -3.4 -1.22 -6.8 -2.45 -3.4 -1.23 -3.4 -1.24 -3.39 -1.24 -6.79 -2.5 -3.39 -1.25 -0.24 -0.09 -5.88 -2.19 -7.45 -2.79 -3.39 -1.28 -4.72 -1.78 -12.21 -4.66 -2.77 -1.06 -0.61 -0.24 -13.52 -5.25 -2.89 -1.13 -0.49 -0.2 -3.38 -1.33 -12.29 -4.88 -0.84 -0.33 -0.36 -0.15 -0.43 -0.17 -15.6 -6.29 -0.58 -0.23 -0.24 -0.1 -0.23 -0.1c-5.25,-2.13 -10.5,-4.29 -15.74,-6.46l-0.74 -0.3 -0.12 -0.05 -0.68 -0.28 -16.13 -6.74c-351.41,-151.96 -660.09,-358.54 -926.02,-619.72 -261.19,-265.94 -467.76,-574.61 -619.72,-926.02 -151.96,-360.91 -227.95,-738.44 -227.95,-1132.59 0,-384.66 75.98,-762.18 227.95,-1132.6 75.97,-170.95 165.02,-333.61 267.11,-487.94 102.1,-154.34 219.63,-298 352.6,-430.96 137.72,-137.72 283.75,-257.63 438.08,-359.72 154.34,-102.1 316.99,-191.14 487.94,-267.12l14.46 -6.04 2.47 -1.02 0.43 -0.18c5.42,-2.24 10.83,-4.46 16.25,-6.67l0.27 -0.11 0.86 -0.35c5.37,-2.19 10.74,-4.34 16.12,-6.49l1.3 -0.52 14.53 -5.75 1.18 -0.46 1.73 -0.68 14.55 -5.66 0.74 -0.29c5.38,-2.07 10.76,-4.13 16.15,-6.17l0.59 -0.22 0.31 -0.12 0.88 -0.33c5.4,-2.04 10.79,-4.06 16.2,-6.07l0.12 -0.05c5.66,-2.1 11.31,-4.18 16.98,-6.24l0.56 -0.21 14.63 -5.28 1.94 -0.7 0.99 -0.35 14.65 -5.18 1.5 -0.53 1.44 -0.5 2.94 -1.02 8.81 -3.05 2.94 -1.01 30.46 0 0 1326.56 -4.79 3.09 -2.48 1.6 -2.3 1.5 -4.76 3.12 -3.68 2.43 -1.07 0.7 -4.74 3.15 -3.07 2.05 -3.21 2.15 -3.16 2.13 -4.7 3.19 -3.09 2.11 -1.59 1.09 -4.67 3.22 -4.39 3.05 -0.27 0.18 -4.65 3.25 -1.07 0.74 -1.13 0.8 -5.48 3.87 -1.57 1.11 -0.07 0.05 -4.54 3.24 -3.68 2.64 -0.91 0.66 -4.59 3.32 -0.37 0.27 -3.92 2.85 -0.29 0.21 -4.56 3.34 -1.68 1.24 -0.84 0.63 -6.56 4.86 -0.7 0.53 -7.51 5.64 -0.56 0.42 -0.26 0.2 -4.5 3.42 -1.26 0.96 -3.44 2.63 -6.17 4.76 -0.39 0.3 -2.18 1.69 -4.44 3.47 -0.12 0.1 -3.04 2.39 -1.28 1 -4.42 3.5 -0.36 0.29 -0.55 0.44 -7.31 5.84 -0.59 0.47 -6.64 5.37 -0.6 0.49 -1.52 1.24 -4.37 3.57 -1.9 1.56 -2.44 2.02 -4.33 3.6 -0.97 0.8 -3.36 2.81 -4.31 3.63 -0.03 0.03 -0.21 0.17 -6.55 5.56 -0.91 0.78 -0.89 0.76 -5.73 4.93 -1.01 0.87 -1.79 1.56 -5.43 4.74 -0.35 0.31 -2.7 2.37 -4.22 3.73 -0.62 0.55 -1.37 1.22 -4.94 4.4 -1.2 1.07 -0.28 0.25 -0.24 0.22c-4.11,3.7 -8.2,7.41 -12.28,11.14l-2.09 1.92 -2.05 1.9 -5.33 4.94 -7.04 6.59 -0.3 0.29 -6.8 6.44 -0.51 0.48 -0.58 0.55 -5.7 5.46 -0.99 0.95 -1.44 1.39 -5.25 5.1 -0.53 0.51 -2.3 2.25 -4.02 3.95 -0.86 0.85 -0.32 0.32 -6.82 6.78c-151.96,151.96 -273.05,331.24 -363.29,537.81 -90.23,206.58 -135.34,426.21 -135.34,658.9 0,232.69 45.11,452.32 135.34,658.9 90.23,206.57 211.33,385.85 363.29,537.81l6.82 6.78 0.32 0.32 0.86 0.85 4.02 3.95 2.3 2.25 0.53 0.51 5.25 5.1 1.44 1.39 0.99 0.95 5.7 5.46 0.58 0.55 0.51 0.48 6.8 6.44 0.3 0.29 7.04 6.59 5.33 4.94 2.05 1.9 2.09 1.92c4.08,3.73 8.17,7.44 12.28,11.14l0.24 0.22 0.28 0.25 1.2 1.07 4.94 4.4 1.37 1.22 0.62 0.55 4.22 3.73 2.7 2.37 0.35 0.31 5.43 4.74 1.79 1.56 1.01 0.87 5.73 4.93 0.89 0.76 0.91 0.78 6.55 5.56 0.21 0.17 0.03 0.03 4.31 3.63 3.36 2.81 0.97 0.8 4.33 3.6 2.44 2.02 1.9 1.56 4.37 3.57 1.52 1.24 0.6 0.49 6.64 5.37 0.59 0.47 7.31 5.84 0.55 0.44 0.36 0.29 4.42 3.5 1.28 1 3.04 2.39c4.41,3.46 8.85,6.89 13.3,10.31l3.44 2.63 1.26 0.96 4.5 3.42 0.26 0.2 0.56 0.42 7.51 5.64 0.7 0.53 6.56 4.86 0.84 0.63 1.68 1.24 5.79 4.24 1.64 1.19 6.3 4.56 0.91 0.66 3.68 2.64 4.54 3.24 0.07 0.05 1.57 1.11 6.58 4.64 0.04 0.03 1.07 0.75 6.03 4.2 1.2 0.84 2.08 1.44 4.67 3.21 1.59 1.09 0.86 0.59 6.93 4.71 0.59 0.4 4.12 2.77 4.3 2.88 0.42 0.28 7.26 4.81 0.78 0.52 1.45 0.95 6.98 4.56 0.16 0.1 7.18 4.65 0 1336.83z"/>
<path class="fil1" d="M1535.49 8943.45l-229.22 0 0 -1637.67 -1077.05 0 0 1637.67 -229.22 0 0 -1842.03 1535.49 0 0 1842.03zm23285.28 -1842.03l0 401.69 -64.49 -164.19 -392.16 991.44 456.64 0 0 204.36 -522.92 0 -162.93 408.73 -262.36 0 740.13 -1842.03 208.09 0zm-22639.49 1842.03l-229.22 0 0 -1842.03 740.13 0c178.59,0 319.43,53.39 422.54,160.18 103.1,106.78 154.65,238.42 154.65,394.92 0,156.49 -52.01,288.13 -156.03,394.92 -104.02,106.78 -244.41,160.17 -421.15,160.17l-510.91 0 0 731.84zm483.29 -936.21c108.63,0 197,-32.68 265.12,-98.04 68.12,-65.36 102.18,-149.59 102.18,-252.69 0,-103.1 -34.06,-187.33 -102.18,-252.69 -68.12,-65.36 -156.49,-98.04 -265.12,-98.04l-483.29 0 0 701.46 483.29 0zm1733.89 969.35c-270.64,0 -490.65,-90.22 -660.04,-270.65 -169.38,-180.43 -254.07,-407.81 -254.07,-682.13 0,-274.32 84.69,-501.7 254.07,-682.13 169.38,-180.43 389.4,-270.65 660.04,-270.65 268.8,0 488.36,90.22 658.66,270.65 170.3,180.43 255.45,407.81 255.45,682.13 0,274.32 -85.15,501.7 -255.45,682.13 -170.3,180.43 -389.86,270.65 -658.66,270.65zm0 -204.36c202.53,0 365.92,-70.43 490.2,-211.27 124.28,-140.85 186.41,-319.89 186.41,-537.15 0,-219.09 -62.14,-398.6 -186.41,-538.52 -124.27,-139.92 -287.67,-209.89 -490.2,-209.89 -204.36,0 -368.22,69.97 -491.57,209.89 -123.36,139.92 -185.03,319.43 -185.03,538.52 0,217.25 61.67,396.3 185.03,537.15 123.35,140.84 287.21,211.27 491.57,211.27zm1029.66 510.9l0 -524.71c81.01,-5.52 145.44,-24.85 193.31,-57.99 47.87,-33.14 91.59,-103.1 131.18,-209.89 39.58,-106.78 72.26,-261.43 98.04,-463.96l113.23 -925.16 1126.76 0 0 1637.67 168.46 0 0 544.05 -229.22 0 0 -339.68 -1372.55 0 0 339.68 -229.22 0zm648.99 -1239.99c-42.35,355.33 -136.24,587.32 -281.69,695.94l1066 0 0 -1433.31 -693.18 0 -91.14 737.37zm3037.39 900.3l-262.36 0 -162.94 -408.73 -916.87 0 -162.93 408.73 -262.36 0 740.13 -1842.03 284.45 0 742.89 1842.03zm-494.34 -613.09l-389.39 -991.44 -392.16 991.44 781.55 0zm2117.77 613.09l-284.45 0 -698.7 -828.5 -185.03 209.88 0 618.62 -229.22 0 0 -1842.03 229.22 0 0 952.78 814.69 -952.78 287.22 0 -767.75 875.45 834.03 966.58zm2233.75 -1842.03l229.22 0 0 1842.03 -2214.86 0 0 -1842.03 229.22 0 0 1637.67 764.98 0 0 -1637.67 229.22 0 0 1637.67 762.22 0 0 -1637.67zm2181.28 1842.03l-229.22 0 0 -845.07 -1077.05 0 0 845.07 -229.22 0 0 -1842.03 229.22 0 0 792.6 1077.05 0 0 -792.6 229.22 0 0 1842.03zm2540.74 0l-284.45 0 -698.7 -828.5 -185.03 209.88 0 618.62 -229.22 0 0 -1842.03 229.22 0 0 952.78 814.69 -952.78 287.22 0 -767.75 875.45 834.03 966.58zm938.52 33.14c-270.64,0 -490.65,-90.22 -660.04,-270.65 -169.38,-180.43 -254.07,-407.81 -254.07,-682.13 0,-274.32 84.69,-501.7 254.07,-682.13 169.38,-180.43 389.4,-270.65 660.04,-270.65 268.8,0 488.36,90.22 658.66,270.65 170.3,180.43 255.45,407.81 255.45,682.13 0,274.32 -85.15,501.7 -255.45,682.13 -170.3,180.43 -389.86,270.65 -658.66,270.65zm0 -204.36c202.53,0 365.92,-70.43 490.2,-211.27 124.28,-140.85 186.41,-319.89 186.41,-537.15 0,-219.09 -62.14,-398.6 -186.41,-538.52 -124.27,-139.92 -287.67,-209.89 -490.2,-209.89 -204.36,0 -368.22,69.97 -491.57,209.89 -123.36,139.92 -185.03,319.43 -185.03,538.52 0,217.25 61.67,396.3 185.03,537.15 123.35,140.84 287.21,211.27 491.57,211.27zm3062.25 171.22l-229.22 0 0 -1516.15 -626.9 1516.15 -93.9 0 -624.14 -1516.15 0 1516.15 -229.22 0 0 -1842.03 328.64 0 571.66 1386.36 574.43 -1386.36 328.64 0 0 1842.03zm1952.06 0l-229.22 0 0 -1637.67 -1077.05 0 0 1637.67 -229.22 0 0 -1842.03 1535.49 0 0 1842.03z"/>
</g>
</g>
</g>
<g style="clip-path:url(#id6)">
<polygon class="fil2" points="-0,0 24820.76,0 24820.76,9361.8 -0,9361.8 "/>
</g>
</g>
</g>
<polygon class="fil2" points="-0,0 74462.28,0 74462.28,9361.8 -0,9361.8 "/>
</g>
</svg>
