<svg width="728" height="93" viewBox="0 0 728 93" fill="none" xmlns="http://www.w3.org/2000/svg">
<path d="M11.8395 55.4092H0V1.5332H19.8484C22.8194 1.5332 25.5706 1.9049 28.1007 2.64818C30.6321 3.39157 32.8716 4.50655 34.8216 5.99317C37.0971 7.71228 38.8149 9.80437 39.975 12.2668C41.1823 14.8225 41.7859 17.6094 41.7859 20.63C41.7859 23.5574 41.2754 26.2523 40.2545 28.7148C39.2322 31.3165 37.7703 33.5005 35.8663 35.2669C33.9162 37.2185 31.5948 38.7051 28.902 39.7269C26.2092 40.7499 23.3077 41.2608 20.1975 41.2608H19.7093H11.8395V55.4092L11.8396 55.4091L11.8395 55.4092ZM11.8395 29.4121H19.8484H19.9179C23.2144 29.5054 25.7681 28.6452 27.5791 26.8328C29.1578 25.3001 29.9465 23.2317 29.9465 20.63C29.9465 19.05 29.6919 17.8766 29.1814 17.1109C28.6696 16.3439 28.1591 15.7747 27.6486 15.403C26.7667 14.7529 25.6526 14.2531 24.3062 13.9039C22.9598 13.5559 21.473 13.3818 19.8484 13.3818H11.8395V29.4121H11.8394H11.8395Z" fill="#FEFEFE"/>
<path d="M88.2986 1.5332H95.1934H102.785L81.9429 35.1277V55.4092H70.1033V35.1277L49.332 1.5332H63.7477L76.0231 22.9297L88.2986 1.5332Z" fill="#FEFEFE"/>
<path d="M128.203 55.4093H116.363V1.5332H136.212C139.183 1.5332 141.934 1.9049 144.464 2.64829C146.995 3.39174 149.235 4.50694 151.185 5.99378C153.46 7.71295 155.178 9.80387 156.339 12.2665C157.546 14.8221 158.149 17.61 158.149 20.6302C158.149 23.5575 157.638 26.2525 156.617 28.7151C155.596 31.3172 154.133 33.5011 152.229 35.2668C150.279 37.2183 147.958 38.7052 145.265 39.7274C142.572 40.7496 139.67 41.2607 136.56 41.2607H136.072H128.203V55.4093H128.203H128.203ZM128.203 29.4122H136.212H136.281C139.578 29.5051 142.131 28.6455 143.942 26.8334C145.521 25.3 146.31 23.2323 146.31 20.6303C146.31 19.0505 146.054 17.8772 145.544 17.1106C145.033 16.344 144.522 15.7748 144.012 15.4031C143.13 14.7526 142.015 14.2531 140.669 13.9046C139.322 13.5561 137.837 13.3819 136.212 13.3819H128.203V29.4123V29.4122V29.4122Z" fill="#FEFEFE"/>
<path d="M214.074 55.4093H208.92H199.588L189.698 41.2607H183.57V55.4093H171.73V1.5332H191.579C194.643 1.5332 197.441 1.9165 199.971 2.68315C202.501 3.44979 204.741 4.57659 206.691 6.06343C207.759 6.94625 208.723 7.91048 209.582 8.95591C210.441 10.0013 211.149 11.1281 211.706 12.3363C212.913 14.8918 213.516 17.6565 213.516 20.6303C213.516 23.4646 213.006 26.1596 211.984 28.7152C211.009 31.1779 209.547 33.3618 207.597 35.2668C206.065 36.8001 204.37 38.0082 202.513 38.8911L214.074 55.4093H214.074V55.4093ZM183.57 29.4122H191.579H191.648C194.945 29.5051 197.499 28.6455 199.309 26.8333C200.888 25.2536 201.677 23.1858 201.677 20.6303C201.677 15.7979 198.311 13.3817 191.579 13.3817H183.57V29.4122H183.57Z" fill="#FEFEFE"/>
<path d="M251.614 56.8729C247.76 56.8729 244.069 56.1294 240.54 54.6426C237.105 53.1557 234.087 51.1345 231.487 48.5789C228.933 45.9769 226.914 42.9567 225.428 39.5182C223.942 35.9869 223.199 32.2929 223.199 28.4364C223.199 24.6727 223.942 20.9788 225.428 17.3545C226.171 15.6818 227.041 14.0903 228.039 12.5803C229.038 11.0701 230.187 9.66454 231.487 8.36358C232.833 7.0161 234.261 5.84285 235.77 4.84393C237.279 3.84495 238.869 2.97374 240.54 2.23029C244.069 0.743392 247.76 0 251.614 0C255.374 0 259.065 0.743392 262.687 2.23029C264.358 2.97374 265.949 3.84495 267.457 4.84393C268.966 5.8429 270.371 7.01616 271.671 8.36358C273.017 9.6646 274.19 11.0702 275.188 12.5803C276.186 14.0904 277.057 15.6818 277.799 17.3545C279.285 20.9788 280.028 24.6727 280.028 28.4364C280.028 32.293 279.285 35.9869 277.799 39.5182C277.057 41.1909 276.186 42.7824 275.188 44.2925C274.19 45.8027 273.017 47.2314 271.671 48.5789C270.371 49.8799 268.966 51.0299 267.457 52.0289C265.949 53.0279 264.358 53.8992 262.687 54.6425C259.065 56.1294 255.374 56.8728 251.614 56.8728L251.614 56.8729ZM251.614 11.8484C249.339 11.8484 247.191 12.2898 245.172 13.1726C243.152 14.0555 241.399 15.2403 239.914 16.7272C238.428 18.2141 237.244 19.9682 236.362 21.9893C235.48 24.0106 235.039 26.1596 235.039 28.4364C235.039 30.7132 235.48 32.8622 236.362 34.8834C237.244 36.9046 238.428 38.6587 239.914 40.1456C241.399 41.6325 243.152 42.8173 245.172 43.7002C247.191 44.5831 249.339 45.0244 251.614 45.0244C253.889 45.0244 256.036 44.5831 258.056 43.7002C260.075 42.8174 261.828 41.6325 263.314 40.1456C264.8 38.6587 265.983 36.9046 266.866 34.8834C267.748 32.8622 268.189 30.7132 268.189 28.4364C268.189 26.1596 267.748 24.0106 266.866 21.9893C265.983 19.9682 264.8 18.2141 263.314 16.7272C261.828 15.2403 260.075 14.0555 258.056 13.1726C256.036 12.2898 253.889 11.8484 251.614 11.8484V11.8484Z" fill="#FEFEFE"/>
<path d="M315.409 55.4093H295.352V1.5332H315.409C319.216 1.5332 322.803 2.19534 326.169 3.51956C329.535 4.84378 332.495 6.76054 335.048 9.26961C337.555 11.7787 339.482 14.6595 340.829 17.912C342.175 21.1646 342.848 24.6262 342.848 28.2969C342.848 31.9677 342.21 35.4293 340.933 38.6819C339.656 41.9344 337.787 44.8152 335.327 47.3243C334.12 48.6253 332.773 49.7637 331.287 50.7395C329.802 51.7153 328.223 52.5516 326.552 53.2486C323.023 54.689 319.309 55.4093 315.409 55.4093L315.409 55.4093V55.4093ZM307.191 43.5607H315.409C317.684 43.5607 319.785 43.189 321.712 42.4455C323.638 41.7021 325.286 40.6567 326.656 39.3092C328.026 37.9617 329.094 36.3471 329.86 34.4652C330.626 32.5833 331.009 30.5272 331.009 28.2969C331.009 26.1596 330.626 24.1732 329.86 22.3378C329.094 20.5024 328.014 18.9226 326.621 17.5984C325.228 16.2741 323.58 15.2402 321.677 14.4968C319.773 13.7534 317.684 13.3817 315.409 13.3817H307.191V43.5607L307.191 43.5607V43.5607Z" fill="#FEFEFE"/>
<path d="M382.611 56.8031C376.947 56.8031 372.118 55.6415 368.125 53.3183C364.55 51.2274 361.834 48.393 359.977 44.8152C359.188 43.3283 358.572 41.8299 358.131 40.3197C357.69 38.8097 357.365 37.3925 357.156 36.0682C356.947 34.744 356.831 33.5475 356.808 32.4789C356.785 31.4101 356.773 30.5738 356.773 29.9698V1.5332H368.613V29.9698C368.613 35.2667 369.715 39.0884 371.921 41.4349C374.126 43.7814 377.69 44.9545 382.611 44.9545C387.533 44.9545 391.096 43.7814 393.301 41.4349C395.507 39.0884 396.609 35.2667 396.609 29.9698V1.5332H408.449V29.9698C408.449 30.5737 408.437 31.4101 408.414 32.4789C408.391 33.5475 408.275 34.744 408.066 36.0682C407.857 37.3925 407.532 38.8097 407.091 40.3197C406.65 41.8299 406.035 43.3283 405.245 44.8152C403.388 48.3931 400.672 51.2273 397.097 53.3183C393.104 55.6415 388.275 56.8031 382.611 56.8031H382.611V56.8031Z" fill="#FEFEFE"/>
<path d="M450.518 56.6638C446.711 56.6638 443.043 55.9204 439.514 54.4335C437.843 53.7365 436.264 52.877 434.779 51.8548C433.293 50.8326 431.877 49.6709 430.53 48.3699C427.93 45.7679 425.934 42.7941 424.541 39.4486C423.055 35.9173 422.312 32.2466 422.312 28.4365C422.312 24.6263 423.055 20.9556 424.541 17.4243C425.934 14.1252 427.93 11.1284 430.53 8.43325C433.223 5.83127 436.218 3.83331 439.514 2.43927C443.043 0.952377 446.711 0.208984 450.518 0.208984C454.279 0.208984 457.923 0.952377 461.452 2.43927C464.841 3.83331 467.836 5.83127 470.436 8.43325L462.079 16.8667C460.547 15.2868 458.794 14.0903 456.821 13.2772C454.847 12.464 452.747 12.0576 450.518 12.0576C448.243 12.0576 446.119 12.4874 444.146 13.3469C442.172 14.2065 440.443 15.3798 438.957 16.8666C437.471 18.3535 436.299 20.0843 435.44 22.0591C434.581 24.0339 434.152 26.1596 434.152 28.4364C434.152 30.6667 434.581 32.7809 435.44 34.7788C436.299 36.7768 437.471 38.5192 438.957 40.006C440.443 41.4929 442.172 42.6662 444.146 43.5258C446.119 44.3854 448.243 44.8152 450.518 44.8152C452.746 44.8152 454.847 44.4086 456.821 43.5955C458.794 42.7823 460.547 41.5859 462.079 40.006L470.436 48.3697C467.836 51.0182 464.841 53.0395 461.452 54.4334C457.923 55.9203 454.279 56.6637 450.518 56.6637V56.6638Z" fill="#FEFEFE"/>
<path d="M525.173 1.5332V13.3817H509.155V55.4093H497.316V13.3817H481.367V1.5332H525.173Z" fill="#FEFEFE"/>
<path d="M551.433 55.4093H539.594V1.5332H551.433V55.4093Z" fill="#FEFEFE"/>
<path d="M594.887 56.8729C591.033 56.8729 587.342 56.1294 583.814 54.6426C580.378 53.1557 577.36 51.1345 574.76 48.5789C572.207 45.9769 570.187 42.9567 568.701 39.5182C567.216 35.9869 566.473 32.2929 566.473 28.4364C566.473 24.6727 567.216 20.9788 568.701 17.3545C569.444 15.6818 570.315 14.0903 571.313 12.5803C572.311 11.0701 573.46 9.66454 574.76 8.36358C576.107 7.0161 577.534 5.84285 579.043 4.84393C580.552 3.84495 582.142 2.97374 583.814 2.23029C587.342 0.743392 591.033 0 594.887 0C598.648 0 602.339 0.743392 605.96 2.23029C607.632 2.97374 609.222 3.84495 610.731 4.84393C612.24 5.8429 613.644 7.01616 614.944 8.36358C616.29 9.6646 617.463 11.0702 618.461 12.5803C619.459 14.0904 620.33 15.6818 621.073 17.3545C622.558 20.9788 623.301 24.6727 623.301 28.4364C623.301 32.293 622.558 35.9869 621.073 39.5182C620.33 41.1909 619.459 42.7824 618.461 44.2925C617.463 45.8027 616.29 47.2314 614.944 48.5789C613.644 49.8799 612.24 51.0299 610.731 52.0289C609.222 53.0279 607.632 53.8992 605.96 54.6425C602.339 56.1294 598.648 56.8728 594.887 56.8728L594.887 56.8729ZM594.887 11.8484C592.612 11.8484 590.465 12.2898 588.445 13.1726C586.425 14.0555 584.673 15.2403 583.187 16.7272C581.701 18.2141 580.517 19.9682 579.635 21.9893C578.753 24.0106 578.312 26.1596 578.312 28.4364C578.312 30.7132 578.753 32.8622 579.635 34.8834C580.517 36.9046 581.701 38.6587 583.187 40.1456C584.673 41.6325 586.425 42.8173 588.445 43.7002C590.465 44.5831 592.612 45.0244 594.887 45.0244C597.162 45.0244 599.309 44.5831 601.329 43.7002C603.349 42.8174 605.101 41.6325 606.587 40.1456C608.073 38.6587 609.257 36.9046 610.139 34.8834C611.021 32.8622 611.462 30.7132 611.462 28.4364C611.462 26.1596 611.021 24.0106 610.139 21.9893C609.257 19.9682 608.073 18.2141 606.587 16.7272C605.101 15.2403 603.349 14.0555 601.329 13.1726C599.309 12.2898 597.162 11.8484 594.887 11.8484V11.8484Z" fill="#FEFEFE"/>
<path d="M685.077 1.5332H690.857V55.4093H679.854H678.113L650.464 19.3757V55.4093H646.634H638.625V1.5332H651.718L679.018 37.1486V1.5332H685.077Z" fill="#FEFEFE"/>
<path d="M717.494 44.8848C719.258 44.8848 720.979 45.3371 722.663 46.2461C724.342 47.1504 725.654 48.4501 726.591 50.135C727.528 51.8248 727.999 53.586 727.999 55.4135C727.999 57.2272 727.538 58.9738 726.611 60.6445C725.688 62.3202 724.394 63.6195 722.725 64.5431C721.056 65.471 719.31 65.9327 717.494 65.9327C715.672 65.9327 713.926 65.4709 712.257 64.5431C710.588 63.6195 709.29 62.3202 708.362 60.6445C707.435 58.9737 706.969 57.2271 706.969 55.4135C706.969 53.586 707.44 51.8248 708.381 50.135C709.328 48.4501 710.64 47.1505 712.319 46.2461C714.003 45.3371 715.724 44.8848 717.494 44.8848H717.494H717.494ZM717.494 46.627C716.014 46.627 714.573 47.0078 713.175 47.7647C711.777 48.5213 710.683 49.6068 709.893 51.0156C709.104 52.4245 708.709 53.8905 708.709 55.4134C708.709 56.932 709.099 58.3838 709.875 59.7735C710.65 61.1635 711.734 62.2486 713.128 63.0244C714.521 63.8002 715.976 64.1905 717.493 64.1905C719.006 64.1905 720.461 63.8002 721.855 63.0244C723.248 62.2486 724.333 61.1635 725.103 59.7735C725.873 58.3838 726.259 56.932 726.259 55.4134C726.259 53.8905 725.864 52.4245 725.079 51.0156C724.295 49.6067 723.2 48.5212 721.797 47.7647C720.394 47.0078 718.958 46.627 717.494 46.627V46.627ZM712.876 61.2207V49.9113H716.766C718.097 49.9113 719.058 50.0159 719.653 50.2253C720.252 50.4348 720.723 50.7964 721.079 51.3203C721.431 51.839 721.607 52.3912 721.607 52.9764C721.607 53.8002 721.312 54.5237 720.718 55.1329C720.128 55.7468 719.343 56.0895 718.364 56.1658C718.763 56.3324 719.087 56.5321 719.324 56.7655C719.781 57.2081 720.337 57.9555 720.999 59.0073L722.378 61.2207H720.161L719.153 59.4404C718.364 58.0365 717.722 57.1558 717.237 56.8037C716.904 56.5466 716.419 56.4181 715.777 56.4229H714.702V61.2208H712.876L712.876 61.2207L712.876 61.2207ZM714.702 54.8519H716.918C717.978 54.8519 718.701 54.695 719.087 54.3807C719.472 54.0667 719.667 53.6477 719.667 53.1337C719.667 52.8004 719.572 52.5005 719.386 52.2388C719.201 51.9723 718.944 51.777 718.616 51.6485C718.283 51.52 717.674 51.4535 716.78 51.4535H714.702V54.8519H714.702Z" fill="#FEFEFE"/>
<path d="M0.230469 68.4885H15.2734V87.6684H12.7306V70.7386H2.77331V87.6684H0.230469V68.4885V68.4885ZM19.4445 87.6684V68.4885H26.6804C27.9519 68.4885 28.9244 68.551 29.598 68.6715C30.5393 68.8277 31.3289 69.1268 31.9669 69.5644C32.6048 70.0064 33.1179 70.6226 33.506 71.4127C33.8941 72.203 34.0859 73.0736 34.0859 74.0245C34.0859 75.6496 33.5684 77.0292 32.529 78.1543C31.494 79.2838 29.6159 79.8464 26.9035 79.8464H21.9873V87.6684H19.4444H19.4445ZM21.9873 77.5963H26.9392C28.5809 77.5963 29.7408 77.2927 30.4323 76.681C31.1194 76.0693 31.4629 75.2121 31.4629 74.1004C31.4629 73.3012 31.2621 72.6137 30.8562 72.0422C30.4502 71.4708 29.9149 71.0913 29.2546 70.9082C28.8264 70.7966 28.0367 70.7386 26.8902 70.7386H21.9874V77.5962L21.9873 77.5963ZM35.9329 78.3329C35.9329 75.1542 36.7894 72.6629 38.498 70.8637C40.2066 69.0644 42.4104 68.167 45.1139 68.167C46.8849 68.167 48.4776 68.5911 49.9007 69.435C51.3193 70.2788 52.4034 71.4574 53.1484 72.971C53.8934 74.48 54.2681 76.1943 54.2681 78.1097C54.2681 80.0518 53.8756 81.793 53.0904 83.3244C52.3052 84.8602 51.1944 86.021 49.758 86.8068C48.317 87.597 46.7645 87.9899 45.1005 87.9899C43.2938 87.9899 41.6833 87.5524 40.2602 86.6817C38.8416 85.8111 37.7619 84.6236 37.0303 83.1145C36.2987 81.61 35.9329 80.0161 35.9329 78.3329H35.9329ZM38.556 78.3776C38.556 80.6858 39.1761 82.5028 40.4163 83.8288C41.6565 85.1548 43.2134 85.82 45.087 85.82C46.9964 85.82 48.5623 85.1503 49.798 83.811C51.0292 82.4716 51.6449 80.5697 51.6449 78.1053C51.6449 76.5471 51.3817 75.1854 50.8552 74.0246C50.3289 72.8638 49.557 71.9619 48.5444 71.3236C47.5272 70.6851 46.3896 70.3636 45.1271 70.3636C43.3337 70.3636 41.7902 70.9797 40.4964 72.212C39.2027 73.4442 38.5559 75.4978 38.5559 78.3776H38.556ZM58.6801 68.4885H70.3505V85.4182H72.0635V92.1419H69.8151V87.6684H57.1277V92.1419H54.8792V85.4182H56.3514C57.9039 83.0877 58.6801 78.3776 58.6801 71.2922V68.4885ZM67.8076 70.7387H61.1159V71.7209C61.1159 73.3549 60.9687 75.5917 60.6743 78.4267C60.3843 81.2618 59.8044 83.5923 58.9479 85.4183H67.8077V70.7387H67.8076ZM72.9647 87.6684L80.3166 68.4885H83.1048L90.9073 87.6684H88.021L85.8038 81.8555H77.7336L75.6547 87.6684H72.9646H72.9647ZM78.4786 79.7929H85.0097L83.0112 74.4755C82.4089 72.8593 81.9538 71.5244 81.6371 70.4708C81.3739 71.7208 81.0215 72.9486 80.5798 74.163L78.4786 79.7929H78.4786ZM92.9729 68.4885H95.5157V76.8998C96.6712 76.8998 97.4876 76.6721 97.956 76.2212C98.4289 75.7703 99.0267 74.6898 99.7583 72.9755C100.289 71.712 100.726 70.8235 101.074 70.3056C101.418 69.7833 101.909 69.3457 102.546 68.993C103.18 68.6404 103.885 68.4618 104.652 68.4618C105.629 68.4618 106.142 68.4707 106.196 68.4886V70.6852C106.106 70.6852 105.937 70.6807 105.687 70.6718C105.406 70.6629 105.237 70.6584 105.174 70.6584C104.367 70.6584 103.764 70.8548 103.372 71.2477C102.97 71.6406 102.515 72.4799 101.998 73.7612C101.355 75.3863 100.811 76.4132 100.365 76.8373C99.9234 77.257 99.3881 77.5964 98.7725 77.8508C100.008 78.1901 101.231 79.3375 102.435 81.2841L106.383 87.6685H103.234L100.017 82.4717C99.1383 81.0297 98.4023 80.0385 97.8134 79.5027C97.22 78.9626 96.4572 78.6946 95.5159 78.6946V87.6685H92.973V68.4886L92.9729 68.4885ZM108.565 68.4885H111.107V85.4182H117.451V68.4885H119.994V85.4182H126.338V68.4885H128.881V87.6684H108.565V68.4885H108.565ZM133.15 87.6684V68.4885H135.693V76.3909H145.596V68.4885H148.139V87.6684H145.596V78.641H135.693V87.6684H133.15ZM159.863 68.4885H162.406V76.8998C163.561 76.8998 164.378 76.6721 164.846 76.2212C165.319 75.7703 165.917 74.6898 166.648 72.9755C167.179 71.712 167.617 70.8235 167.965 70.3056C168.308 69.7833 168.799 69.3457 169.437 68.993C170.07 68.6404 170.775 68.4618 171.542 68.4618C172.519 68.4618 173.032 68.4707 173.086 68.4886V70.6852C172.997 70.6852 172.827 70.6807 172.577 70.6718C172.296 70.6629 172.127 70.6584 172.064 70.6584C171.257 70.6584 170.655 70.8548 170.262 71.2477C169.861 71.6406 169.406 72.4799 168.888 73.7612C168.246 75.3863 167.701 76.4132 167.255 76.8373C166.814 77.257 166.278 77.5964 165.663 77.8508C166.898 78.1901 168.121 79.3375 169.325 81.2841L173.273 87.6685H170.124L166.907 82.4717C166.029 81.0297 165.292 80.0385 164.704 79.5027C164.11 78.9626 163.347 78.6946 162.406 78.6946V87.6685H159.863V68.4886L159.863 68.4885ZM174.326 78.3329C174.326 75.1542 175.183 72.6629 176.891 70.8637C178.6 69.0644 180.804 68.167 183.507 68.167C185.278 68.167 186.871 68.5911 188.294 69.435C189.713 70.2788 190.797 71.4574 191.542 72.971C192.287 74.48 192.661 76.1943 192.661 78.1097C192.661 80.0518 192.269 81.793 191.484 83.3244C190.698 84.8602 189.588 86.021 188.151 86.8068C186.71 87.597 185.158 87.9899 183.494 87.9899C181.687 87.9899 180.077 87.5524 178.653 86.6817C177.235 85.8111 176.155 84.6236 175.424 83.1145C174.692 81.61 174.326 80.0161 174.326 78.3329H174.326ZM176.949 78.3776C176.949 80.6858 177.569 82.5028 178.81 83.8288C180.05 85.1548 181.607 85.82 183.48 85.82C185.39 85.82 186.956 85.1503 188.191 83.811C189.423 82.4716 190.038 80.5697 190.038 78.1053C190.038 76.5471 189.775 75.1854 189.249 74.0246C188.722 72.8638 187.95 71.9619 186.938 71.3236C185.92 70.6851 184.783 70.3636 183.52 70.3636C181.727 70.3636 180.183 70.9797 178.89 72.212C177.596 73.4442 176.949 75.4978 176.949 78.3776H176.949ZM195.869 87.6684V68.4885H199.67L204.202 82.0653C204.622 83.3288 204.925 84.2754 205.117 84.9048C205.335 84.2083 205.679 83.1815 206.143 81.8287L210.756 68.4885H214.151V87.6684H211.715V71.6226L206.121 87.6684H203.837L198.305 71.328V87.6684H195.869V87.6684ZM218.246 68.4885H233.289V87.6684H230.746V70.7387H220.789V87.6684H218.246V68.4885V68.4885ZM235.359 87.6684L242.711 68.4885H245.499L253.301 87.6684H250.415L248.198 81.8555H240.128L238.049 87.6684H235.359H235.359ZM240.873 79.7929H247.404L245.405 74.4755C244.803 72.8593 244.348 71.5244 244.031 70.4708C243.768 71.7208 243.416 72.9486 242.974 74.163L240.873 79.7929H240.873ZM255.421 87.6684V68.4885H257.963V76.3909H267.867V68.4885H270.41V87.6684H267.867V78.641H257.963V87.6684H255.421ZM274.697 68.4885H276.999V83.677L287.202 68.4885H289.713V87.6684H287.411V72.5201L277.235 87.6684H274.697V68.4885H274.697ZM309.034 87.6684V68.4885H300.54C298.832 68.4885 297.538 68.6626 296.65 69.0064C295.763 69.3501 295.053 69.9574 294.522 70.8279C293.991 71.6985 293.724 72.6629 293.724 73.7165C293.724 75.0782 294.165 76.2256 295.044 77.1587C295.923 78.0918 297.279 78.6812 299.117 78.9356C298.444 79.257 297.935 79.5785 297.587 79.891C296.847 80.5697 296.146 81.4224 295.49 82.4448L292.176 87.6684H295.343L297.877 83.677C298.613 82.5207 299.224 81.6412 299.702 81.0295C300.183 80.4179 300.612 79.9938 300.991 79.7482C301.366 79.5071 301.754 79.3375 302.146 79.2393C302.432 79.1812 302.9 79.15 303.556 79.15H306.491V87.6684H309.034H309.034ZM306.492 76.9534H301.049C299.889 76.9534 298.988 76.8328 298.337 76.5917C297.685 76.3551 297.19 75.9712 296.856 75.4399C296.516 74.9131 296.347 74.3416 296.347 73.721C296.347 72.8147 296.673 72.0647 297.328 71.4798C297.984 70.895 299.019 70.6047 300.433 70.6047H306.492V76.9534H306.492ZM320.678 68.4885H335.721V87.6684H333.178V70.7387H323.221V87.6684H320.678V68.4885V68.4885ZM339.116 78.3329C339.116 75.1542 339.972 72.6629 341.681 70.8637C343.39 69.0644 345.593 68.167 348.297 68.167C350.068 68.167 351.661 68.5911 353.084 69.435C354.502 70.2788 355.586 71.4574 356.331 72.971C357.076 74.48 357.451 76.1943 357.451 78.1097C357.451 80.0518 357.058 81.793 356.273 83.3244C355.488 84.8602 354.377 86.021 352.941 86.8068C351.5 87.597 349.947 87.9899 348.283 87.9899C346.477 87.9899 344.866 87.5524 343.443 86.6817C342.024 85.8111 340.945 84.6236 340.213 83.1145C339.482 81.61 339.116 80.0161 339.116 78.3329H339.116ZM341.739 78.3776C341.739 80.6858 342.359 82.5028 343.599 83.8288C344.839 85.1548 346.396 85.82 348.27 85.82C350.179 85.82 351.745 85.1503 352.981 83.811C354.212 82.4716 354.828 80.5697 354.828 78.1053C354.828 76.5471 354.565 75.1854 354.038 74.0246C353.512 72.8638 352.74 71.9619 351.727 71.3236C350.71 70.6851 349.573 70.3636 348.31 70.3636C346.517 70.3636 344.973 70.9797 343.679 72.212C342.386 73.4442 341.739 75.4978 341.739 78.3776H341.739ZM361.832 68.4885H373.797V87.6684H371.254V70.7387H364.375V80.6188C364.375 82.6279 364.281 84.0967 364.094 85.0298C363.906 85.9674 363.509 86.6906 362.907 87.213C362.305 87.7309 361.537 87.9899 360.614 87.9899C360.052 87.9899 359.378 87.8738 358.593 87.6417L359.048 85.3915C359.463 85.6058 359.82 85.713 360.114 85.713C360.685 85.713 361.118 85.4987 361.404 85.0656C361.689 84.6326 361.832 83.6146 361.832 82.0074V68.4886V68.4885ZM378.088 87.6684V68.4885H380.631V76.3909H390.535V68.4885H393.078V87.6684H390.535V78.641H380.631V87.6684H378.088ZM396.535 78.3329C396.535 75.1542 397.392 72.6629 399.1 70.8637C400.809 69.0644 403.013 68.167 405.716 68.167C407.487 68.167 409.08 68.5911 410.503 69.435C411.922 70.2788 413.006 71.4574 413.751 72.971C414.496 74.48 414.87 76.1943 414.87 78.1097C414.87 80.0518 414.478 81.793 413.693 83.3244C412.907 84.8602 411.797 86.021 410.36 86.8068C408.919 87.597 407.367 87.9899 405.703 87.9899C403.896 87.9899 402.285 87.5524 400.862 86.6817C399.444 85.8111 398.364 84.6236 397.633 83.1145C396.901 81.61 396.535 80.0161 396.535 78.3329H396.535ZM399.158 78.3776C399.158 80.6858 399.778 82.5028 401.018 83.8288C402.259 85.1548 403.816 85.82 405.689 85.82C407.599 85.82 409.164 85.1503 410.4 83.811C411.631 82.4716 412.247 80.5697 412.247 78.1053C412.247 76.5471 411.984 75.1854 411.457 74.0246C410.931 72.8638 410.159 71.9619 409.147 71.3236C408.129 70.6851 406.992 70.3636 405.729 70.3636C403.936 70.3636 402.392 70.9797 401.099 72.212C399.805 73.4442 399.158 75.4978 399.158 78.3776H399.158ZM418.185 68.4885H430.578V70.7387H420.728V87.6684H418.185V68.4885V68.4885ZM430.346 78.3329C430.346 75.1542 431.202 72.6629 432.911 70.8637C434.62 69.0644 436.823 68.167 439.527 68.167C441.298 68.167 442.891 68.5911 444.314 69.435C445.732 70.2788 446.816 71.4574 447.561 72.971C448.306 74.48 448.681 76.1943 448.681 78.1097C448.681 80.0518 448.289 81.793 447.503 83.3244C446.718 84.8602 445.607 86.021 444.171 86.8068C442.73 87.597 441.178 87.9899 439.514 87.9899C437.707 87.9899 436.096 87.5524 434.673 86.6817C433.255 85.8111 432.175 84.6236 431.443 83.1145C430.712 81.61 430.346 80.0161 430.346 78.3329H430.346ZM432.969 78.3776C432.969 80.6858 433.589 82.5028 434.829 83.8288C436.07 85.1548 437.626 85.82 439.5 85.82C441.409 85.82 442.975 85.1503 444.211 83.811C445.442 82.4716 446.058 80.5697 446.058 78.1053C446.058 76.5471 445.795 75.1854 445.268 74.0246C444.742 72.8638 443.97 71.9619 442.957 71.3236C441.94 70.6851 440.803 70.3636 439.54 70.3636C437.747 70.3636 436.203 70.9797 434.909 72.212C433.616 73.4442 432.969 75.4978 432.969 78.3776H432.969ZM459.432 68.4885H461.975V85.4182H471.933V68.4885H474.475V85.4182H476.215V92.9991H473.967V87.6684H459.432V68.4885H459.432ZM479.231 68.4885H481.533V83.677L491.736 68.4885H494.247V87.6684H491.945V72.5201L481.769 87.6684H479.231V68.4885H479.231ZM498.472 68.4885H501.015V76.8998C502.17 76.8998 502.987 76.6721 503.455 76.2212C503.928 75.7703 504.526 74.6898 505.257 72.9755C505.788 71.712 506.225 70.8235 506.573 70.3056C506.917 69.7833 507.408 69.3457 508.045 68.993C508.679 68.6404 509.384 68.4618 510.151 68.4618C511.128 68.4618 511.641 68.4707 511.695 68.4886V70.6852C511.605 70.6852 511.436 70.6807 511.186 70.6718C510.905 70.6629 510.736 70.6584 510.673 70.6584C509.866 70.6584 509.263 70.8548 508.871 71.2477C508.469 71.6406 508.014 72.4799 507.497 73.7612C506.854 75.3863 506.31 76.4132 505.864 76.8373C505.422 77.257 504.887 77.5964 504.271 77.8508C505.507 78.1901 506.729 79.3375 507.934 81.2841L511.882 87.6685H508.733L505.516 82.4717C504.637 81.0297 503.901 80.0385 503.312 79.5027C502.719 78.9626 501.956 78.6946 501.015 78.6946V87.6685H498.472V68.4886L498.472 68.4885ZM515.429 68.4885H527.393V87.6684H524.85V70.7387H517.971V80.6188C517.971 82.6279 517.878 84.0967 517.69 85.0298C517.503 85.9674 517.106 86.6906 516.504 87.213C515.901 87.7309 515.134 87.9899 514.211 87.9899C513.649 87.9899 512.975 87.8738 512.19 87.6417L512.645 85.3915C513.06 85.6058 513.417 85.713 513.711 85.713C514.282 85.713 514.715 85.4987 515 85.0656C515.286 84.6326 515.429 83.6146 515.429 82.0074V68.4886V68.4885ZM529.477 87.6684L536.829 68.4885H539.617L547.419 87.6684H544.533L542.316 81.8555H534.246L532.167 87.6684H529.477H529.477ZM534.991 79.7929H541.522L539.523 74.4755C538.921 72.8593 538.466 71.5244 538.149 70.4708C537.886 71.7208 537.534 72.9486 537.092 74.163L534.991 79.7929H534.991Z" fill="#FEFEFE"/>
</svg>