<svg viewBox="0 0 1411 181" fill="none" xmlns="http://www.w3.org/2000/svg">
<path d="M22.9396 107.275H0V2.96832H38.4573C44.2139 2.96832 49.5445 3.68795 54.4467 5.12698C59.3513 6.56622 63.6904 8.72488 67.4687 11.603C71.8776 14.9313 75.2059 18.9817 77.4537 23.7492C79.7929 28.697 80.9626 34.0927 80.9626 39.9407C80.9626 45.6083 79.9734 50.8258 77.9953 55.5933C76.0146 60.6303 73.1821 64.8587 69.4929 68.2784C65.7146 72.0568 61.2166 74.9351 55.9992 76.9132C50.7817 78.894 45.1599 79.8831 39.1337 79.8831H38.1879H22.9397V107.275L22.9398 107.275L22.9396 107.275ZM22.9396 56.9434H38.4573H38.5921C44.9792 57.1239 49.9271 55.4584 53.4359 51.9496C56.4947 48.9823 58.023 44.9777 58.023 39.9406C58.023 36.8818 57.5296 34.61 56.5405 33.1276C55.5489 31.6427 54.5598 30.5405 53.5707 29.8209C51.8619 28.5623 49.7033 27.5947 47.0946 26.9186C44.4859 26.2448 41.6052 25.9078 38.4573 25.9078H22.9396V56.9434H22.9395H22.9396Z" fill="#FF00FE"/>
<path d="M171.079 2.96832H184.438H199.147L158.764 68.009V107.275H135.825V68.009L95.5792 2.96832H123.51L147.295 44.393L171.079 2.96832Z" fill="#FF00FE"/>
<path d="M248.4 107.276H225.461V2.96875H263.918C269.676 2.96875 275.006 3.68837 279.908 5.12762C284.811 6.56697 289.152 8.72605 292.93 11.6047C297.338 14.9331 300.666 18.9812 302.915 23.7491C305.254 28.6967 306.423 34.0942 306.423 39.9416C306.423 45.6088 305.434 50.8265 303.455 55.5944C301.476 60.6322 298.642 64.8602 294.954 68.2786C291.176 72.0568 286.678 74.9355 281.46 76.9146C276.242 78.8937 270.62 79.8833 264.593 79.8833H263.648H248.4V107.276H248.401H248.4ZM248.4 56.9439H263.918H264.053C270.44 57.1238 275.388 55.4595 278.896 51.9511C281.955 48.9825 283.484 44.9794 283.484 39.9417C283.484 36.8831 282.989 34.6116 282 33.1275C281.01 31.6432 280.021 30.5411 279.031 29.8215C277.322 28.5622 275.163 27.5952 272.554 26.9205C269.946 26.2458 267.067 25.9084 263.918 25.9084H248.4V56.9441V56.944V56.9439Z" fill="#FF00FE"/>
<path d="M414.779 107.276H404.794H386.712L367.551 79.8833H355.677V107.276H332.737V2.96875H371.195C377.132 2.96875 382.552 3.71083 387.455 5.1951C392.358 6.67937 396.698 8.86091 400.476 11.7395C402.545 13.4487 404.412 15.3155 406.076 17.3395C407.74 19.3635 409.112 21.5451 410.192 23.884C412.531 28.8317 413.7 34.1843 413.7 39.9417C413.7 45.4291 412.711 50.6467 410.732 55.5945C408.842 60.3623 406.009 64.5905 402.23 68.2787C399.262 71.2473 395.978 73.5862 392.38 75.2955L414.78 107.276H414.779V107.276ZM355.677 56.9439H371.195H371.33C377.717 57.1238 382.664 55.4595 386.173 51.9511C389.231 48.8927 390.761 44.8893 390.761 39.9417C390.761 30.586 384.239 25.9081 371.195 25.9081H355.677V56.9439H355.677Z" fill="#FF00FE"/>
<path d="M487.512 110.109C480.046 110.109 472.894 108.67 466.057 105.791C459.401 102.913 453.553 98.9994 448.515 94.0517C443.568 89.014 439.655 83.1668 436.776 76.5098C433.897 69.6729 432.458 62.5212 432.458 55.0547C432.458 47.768 433.897 40.6165 436.776 33.5996C438.215 30.3613 439.902 27.28 441.836 24.3565C443.77 21.4328 445.997 18.7115 448.515 16.1927C451.124 13.584 453.89 11.3125 456.814 9.37852C459.738 7.44445 462.819 5.75773 466.057 4.31838C472.894 1.43967 480.046 0.000427246 487.512 0.000427246C494.799 0.000427246 501.951 1.43967 508.967 4.31838C512.206 5.75773 515.287 7.44445 518.211 9.37852C521.134 11.3126 523.856 13.5841 526.374 16.1927C528.983 18.7116 531.255 21.4329 533.189 24.3565C535.123 27.2801 536.809 30.3613 538.249 33.5996C541.127 40.6165 542.567 47.768 542.567 55.0547C542.567 62.5213 541.127 69.6729 538.249 76.5098C536.809 79.7482 535.123 82.8294 533.189 85.753C531.255 88.6767 528.983 91.4429 526.374 94.0517C523.855 96.5705 521.134 98.797 518.211 100.731C515.287 102.665 512.206 104.352 508.967 105.791C501.951 108.67 494.799 110.109 487.512 110.109L487.512 110.109ZM487.512 22.9395C483.105 22.9395 478.944 23.7942 475.031 25.5034C471.118 27.2125 467.722 29.5065 464.843 32.3852C461.964 35.2639 459.67 38.6599 457.961 42.5729C456.252 46.4862 455.397 50.6468 455.397 55.0547C455.397 59.4627 456.252 63.6233 457.961 67.5366C459.67 71.4497 461.964 74.8457 464.843 77.7243C467.722 80.603 471.118 82.897 475.031 84.6063C478.944 86.3155 483.105 87.17 487.512 87.17C491.921 87.17 496.081 86.3155 499.994 84.6063C503.907 82.8971 507.303 80.603 510.182 77.7243C513.061 74.8457 515.355 71.4497 517.064 67.5366C518.773 63.6234 519.628 59.4627 519.628 55.0547C519.628 50.6467 518.773 46.4862 517.064 42.5729C515.355 38.6599 513.061 35.2639 510.182 32.3852C507.303 29.5065 503.907 27.2126 499.994 25.5034C496.081 23.7942 491.92 22.9395 487.512 22.9395V22.9395Z" fill="#FF00FE"/>
<path d="M611.116 107.276H572.254V2.96875H611.116C618.493 2.96875 625.442 4.25068 631.964 6.81444C638.486 9.3782 644.221 13.0891 649.169 17.9468C654.026 22.8045 657.76 28.382 660.369 34.679C662.977 40.9761 664.282 47.678 664.282 54.7847C664.282 61.8915 663.045 68.5934 660.571 74.8905C658.097 81.1876 654.476 86.765 649.708 91.6227C647.369 94.1415 644.761 96.3455 641.882 98.2347C639.003 100.124 635.945 101.743 632.706 103.092C625.869 105.881 618.673 107.276 611.116 107.276L611.116 107.276V107.276ZM595.193 84.3362H611.116C615.524 84.3362 619.595 83.6165 623.328 82.1771C627.061 80.7379 630.255 78.7139 632.909 76.105C635.562 73.4962 637.631 70.3702 639.116 66.7268C640.6 63.0834 641.342 59.1027 641.342 54.7847C641.342 50.6466 640.6 46.8009 639.116 43.2475C637.631 39.6941 635.54 36.6355 632.841 34.0718C630.142 31.5079 626.949 29.5063 623.261 28.067C619.572 26.6277 615.524 25.908 611.116 25.908H595.194V84.3361L595.193 84.3362V84.3362Z" fill="#FF00FE"/>
<path d="M741.333 109.974C730.358 109.974 721.003 107.725 713.266 103.227C706.339 99.1792 701.077 93.6917 697.478 86.765C695.949 83.8863 694.757 80.9852 693.903 78.0615C693.048 75.1379 692.418 72.3942 692.014 69.8303C691.609 67.2665 691.384 64.95 691.339 62.8812C691.294 60.812 691.271 59.1928 691.271 58.0234V2.96875H714.211V58.0234C714.211 68.2785 716.347 75.6776 720.62 80.2205C724.893 84.7634 731.798 87.0347 741.333 87.0347C750.869 87.0347 757.773 84.7634 762.046 80.2205C766.319 75.6776 768.456 68.2785 768.456 58.0234V2.96875H791.395V58.0234C791.395 59.1927 791.373 60.812 791.328 62.8812C791.283 64.9501 791.058 67.2666 790.653 69.8303C790.248 72.3941 789.619 75.138 788.764 78.0615C787.91 80.9852 786.718 83.8863 785.188 86.765C781.59 93.6918 776.327 99.1791 769.401 103.227C761.664 107.725 752.308 109.974 741.334 109.974H741.333V109.974Z" fill="#FF00FE"/>
<path d="M872.897 109.704C865.521 109.704 858.414 108.265 851.577 105.386C848.339 104.037 845.28 102.373 842.401 100.394C839.523 98.4148 836.779 96.1657 834.17 93.6469C829.133 88.6092 825.264 82.8518 822.566 76.3749C819.687 69.538 818.248 62.4313 818.248 55.0547C818.248 47.6781 819.687 40.5715 822.566 33.7346C825.264 27.3475 829.133 21.5454 834.17 16.3275C839.388 11.2899 845.19 7.42178 851.577 4.72284C858.414 1.84414 865.521 0.404892 872.897 0.404892C880.184 0.404892 887.246 1.84414 894.083 4.72284C900.649 7.42178 906.452 11.2899 911.49 16.3275L895.297 32.655C892.328 29.5964 888.932 27.2799 885.109 25.7056C881.286 24.1313 877.215 23.3444 872.897 23.3444C868.489 23.3444 864.374 24.1765 860.551 25.8407C856.727 27.5048 853.376 29.7764 850.498 32.6549C847.619 35.5336 845.347 38.8845 843.683 42.7079C842.019 46.5311 841.187 50.6466 841.187 55.0546C841.187 59.3726 842.019 63.4657 843.683 67.3339C845.347 71.202 847.619 74.5755 850.498 77.4541C853.376 80.3328 856.727 82.6043 860.551 84.2685C864.374 85.9327 868.489 86.7648 872.897 86.7648C877.215 86.7648 881.286 85.9777 885.109 84.4034C888.933 82.829 892.328 80.5127 895.297 77.454L911.49 93.6466C906.452 98.7742 900.649 102.687 894.083 105.386C887.246 108.265 880.184 109.704 872.897 109.704V109.704Z" fill="#FF00FE"/>
<path d="M1017.55 2.96864V25.908H986.517V107.276H963.578V25.908H932.677V2.96864H1017.55Z" fill="#FF00FE"/>
<path d="M1068.43 107.276H1045.49V2.96864H1068.43V107.276Z" fill="#FF00FE"/>
<path d="M1152.63 110.109C1145.16 110.109 1138.01 108.67 1131.17 105.791C1124.52 102.913 1118.67 98.9994 1113.63 94.0517C1108.68 89.014 1104.77 83.1668 1101.89 76.5098C1099.01 69.6729 1097.57 62.5212 1097.57 55.0547C1097.57 47.768 1099.01 40.6165 1101.89 33.5996C1103.33 30.3613 1105.02 27.28 1106.95 24.3565C1108.89 21.4328 1111.11 18.7115 1113.63 16.1927C1116.24 13.584 1119.01 11.3125 1121.93 9.37852C1124.85 7.44445 1127.93 5.75773 1131.17 4.31838C1138.01 1.43967 1145.16 0.000427246 1152.63 0.000427246C1159.92 0.000427246 1167.07 1.43967 1174.08 4.31838C1177.32 5.75773 1180.4 7.44445 1183.33 9.37852C1186.25 11.3126 1188.97 13.5841 1191.49 16.1927C1194.1 18.7116 1196.37 21.4329 1198.3 24.3565C1200.24 27.2801 1201.93 30.3613 1203.36 33.5996C1206.24 40.6165 1207.68 47.768 1207.68 55.0547C1207.68 62.5213 1206.24 69.6729 1203.36 76.5098C1201.93 79.7482 1200.24 82.8294 1198.3 85.753C1196.37 88.6767 1194.1 91.4429 1191.49 94.0517C1188.97 96.5705 1186.25 98.797 1183.33 100.731C1180.4 102.665 1177.32 104.352 1174.08 105.791C1167.07 108.67 1159.91 110.109 1152.63 110.109L1152.63 110.109ZM1152.63 22.9395C1148.22 22.9395 1144.06 23.7942 1140.15 25.5034C1136.23 27.2125 1132.84 29.5065 1129.96 32.3852C1127.08 35.2639 1124.79 38.6599 1123.08 42.5729C1121.37 46.4862 1120.51 50.6468 1120.51 55.0547C1120.51 59.4627 1121.37 63.6233 1123.08 67.5366C1124.79 71.4497 1127.08 74.8457 1129.96 77.7243C1132.84 80.603 1136.23 82.897 1140.15 84.6063C1144.06 86.3155 1148.22 87.17 1152.63 87.17C1157.04 87.17 1161.2 86.3155 1165.11 84.6063C1169.02 82.8971 1172.42 80.603 1175.3 77.7243C1178.18 74.8457 1180.47 71.4497 1182.18 67.5366C1183.89 63.6234 1184.74 59.4627 1184.74 55.0547C1184.74 50.6467 1183.89 46.4862 1182.18 42.5729C1180.47 38.6599 1178.18 35.2639 1175.3 32.3852C1172.42 29.5065 1169.02 27.2126 1165.11 25.5034C1161.2 23.7942 1157.04 22.9395 1152.63 22.9395V22.9395Z" fill="#FF00FE"/>
<path d="M1327.37 2.96864H1338.57V107.276H1317.25H1313.88L1260.31 37.5127V107.276H1252.89H1237.37V2.96864H1262.74L1315.63 71.9219V2.96864H1327.37Z" fill="#FF00FE"/>
<path d="M1390.18 86.8991C1393.6 86.8991 1396.94 87.7747 1400.2 89.5347C1403.45 91.2855 1406 93.8018 1407.81 97.0638C1409.63 100.335 1410.54 103.745 1410.54 107.283C1410.54 110.795 1409.65 114.176 1407.85 117.411C1406.06 120.655 1403.56 123.171 1400.32 124.959C1397.09 126.755 1393.7 127.649 1390.18 127.649C1386.66 127.649 1383.27 126.755 1380.04 124.959C1376.8 123.171 1374.29 120.655 1372.49 117.411C1370.7 114.176 1369.79 110.795 1369.79 107.283C1369.79 103.745 1370.7 100.335 1372.53 97.0638C1374.36 93.8018 1376.91 91.2856 1380.16 89.5347C1383.42 87.7747 1386.76 86.8991 1390.18 86.8991H1390.18H1390.18ZM1390.18 90.2721C1387.32 90.2721 1384.53 91.0093 1381.82 92.4748C1379.11 93.9396 1376.99 96.0411 1375.46 98.7687C1373.93 101.496 1373.16 104.335 1373.16 107.283C1373.16 110.223 1373.92 113.034 1375.42 115.724C1376.92 118.416 1379.03 120.516 1381.73 122.018C1384.43 123.52 1387.24 124.276 1390.18 124.276C1393.11 124.276 1395.93 123.52 1398.63 122.018C1401.33 120.516 1403.44 118.416 1404.93 115.724C1406.42 113.034 1407.17 110.223 1407.17 107.283C1407.17 104.335 1406.4 101.496 1404.88 98.7687C1403.36 96.041 1401.24 93.9394 1398.52 92.4748C1395.81 91.0095 1393.02 90.2721 1390.18 90.2721V90.2721ZM1381.24 118.526V96.6308H1388.77C1391.35 96.6308 1393.22 96.8333 1394.37 97.2387C1395.53 97.6442 1396.44 98.3444 1397.13 99.3585C1397.81 100.363 1398.16 101.432 1398.16 102.565C1398.16 104.16 1397.58 105.561 1396.43 106.74C1395.29 107.929 1393.77 108.592 1391.87 108.74C1392.64 109.062 1393.27 109.449 1393.73 109.901C1394.62 110.758 1395.7 112.205 1396.98 114.241L1399.65 118.526H1395.35L1393.4 115.08C1391.87 112.362 1390.63 110.657 1389.69 109.975C1389.04 109.477 1388.1 109.228 1386.86 109.237H1384.78V118.527H1381.24L1381.24 118.526L1381.24 118.526ZM1384.78 106.196H1389.07C1391.12 106.196 1392.53 105.892 1393.27 105.284C1394.02 104.676 1394.4 103.865 1394.4 102.869C1394.4 102.224 1394.21 101.644 1393.85 101.137C1393.49 100.621 1393 100.243 1392.36 99.994C1391.71 99.7453 1390.53 99.6166 1388.8 99.6166H1384.78V106.196H1384.78Z" fill="#FF00FE"/>
<path d="M0.448853 132.599H29.5953V169.732H24.6685V136.955H5.37575V169.732H0.448853V132.599V132.599ZM37.6771 169.732V132.599H51.6971C54.1606 132.599 56.0449 132.72 57.3501 132.953C59.1739 133.256 60.7039 133.835 61.9399 134.682C63.176 135.538 64.17 136.731 64.922 138.261C65.6739 139.791 66.0456 141.476 66.0456 143.317C66.0456 146.463 65.043 149.134 63.029 151.313C61.0236 153.5 57.3847 154.589 52.1293 154.589H42.6039V169.732H37.677H37.6771ZM42.604 150.232H52.1985C55.3794 150.232 57.6268 149.644 58.9666 148.46C60.2978 147.276 60.9634 145.616 60.9634 143.464C60.9634 141.917 60.5744 140.586 59.7878 139.479C59.0012 138.373 57.964 137.638 56.6847 137.284C55.855 137.068 54.325 136.955 52.1036 136.955H42.6041V150.232L42.604 150.232ZM69.6242 151.658C69.6242 145.504 71.2838 140.681 74.5943 137.198C77.9048 133.714 82.1749 131.977 87.413 131.977C90.8444 131.977 93.9303 132.798 96.6877 134.432C99.4364 136.065 101.537 138.347 102.98 141.277C104.424 144.199 105.15 147.518 105.15 151.226C105.15 154.986 104.389 158.357 102.868 161.322C101.346 164.296 99.1943 166.543 96.4111 168.064C93.6191 169.594 90.6111 170.355 87.3871 170.355C83.8864 170.355 80.7659 169.508 78.0086 167.822C75.26 166.137 73.1681 163.837 71.7506 160.916C70.3331 158.003 69.6243 154.917 69.6243 151.658H69.6242ZM74.7067 151.745C74.7067 156.214 75.9081 159.732 78.311 162.299C80.714 164.866 83.7306 166.154 87.361 166.154C91.0604 166.154 94.0945 164.857 96.4887 162.264C98.8743 159.671 100.067 155.989 100.067 151.218C100.067 148.201 99.5572 145.565 98.5371 143.317C97.5172 141.07 96.0218 139.324 94.0597 138.088C92.0889 136.852 89.8847 136.23 87.4385 136.23C83.9638 136.23 80.9731 137.422 78.4664 139.808C75.9597 142.194 74.7065 146.17 74.7065 151.745H74.7067ZM113.698 132.599H136.31V165.376H139.629V178.393H135.273V169.732H110.69V178.393H106.334V165.376H109.186C112.194 160.864 113.698 151.745 113.698 138.027V132.599ZM131.383 136.956H118.418V138.857C118.418 142.021 118.133 146.351 117.562 151.84C117 157.329 115.877 161.841 114.217 165.376H131.383V136.956H131.383ZM141.375 169.732L155.62 132.599H161.023L176.14 169.732H170.548L166.252 158.478H150.615L146.588 169.732H141.375H141.375ZM152.059 154.485H164.713L160.841 144.19C159.674 141.061 158.792 138.477 158.179 136.437C157.669 138.857 156.986 141.234 156.13 143.585L152.059 154.485H152.059ZM180.142 132.599H185.069V148.884C187.308 148.884 188.89 148.443 189.798 147.57C190.714 146.697 191.872 144.605 193.289 141.286C194.318 138.84 195.165 137.12 195.839 136.117C196.505 135.106 197.456 134.259 198.692 133.576C199.919 132.893 201.285 132.547 202.772 132.547C204.665 132.547 205.659 132.565 205.762 132.599V136.852C205.589 136.852 205.261 136.843 204.777 136.826C204.233 136.809 203.904 136.8 203.783 136.8C202.219 136.8 201.052 137.18 200.291 137.941C199.513 138.702 198.631 140.327 197.629 142.807C196.384 145.954 195.33 147.942 194.465 148.763C193.609 149.575 192.572 150.232 191.379 150.725C193.774 151.382 196.142 153.603 198.476 157.372L206.126 169.733H200.023L193.791 159.671C192.088 156.879 190.662 154.961 189.521 153.923C188.372 152.878 186.893 152.359 185.07 152.359V169.733H180.143V132.599L180.142 132.599ZM210.352 132.599H215.279V165.376H227.57V132.599H232.497V165.376H244.789V132.599H249.716V169.732H210.352V132.599H210.352ZM257.987 169.732V132.599H262.914V147.899H282.103V132.599H287.03V169.732H282.103V152.255H262.914V169.732H257.987ZM309.746 132.599H314.673V148.884C316.912 148.884 318.493 148.443 319.401 147.57C320.317 146.697 321.475 144.605 322.893 141.286C323.921 138.84 324.769 137.12 325.443 136.117C326.108 135.106 327.059 134.259 328.295 133.576C329.523 132.893 330.888 132.547 332.375 132.547C334.268 132.547 335.262 132.565 335.366 132.599V136.852C335.193 136.852 334.865 136.843 334.38 136.826C333.836 136.809 333.508 136.8 333.387 136.8C331.822 136.8 330.655 137.18 329.894 137.941C329.117 138.702 328.235 140.327 327.232 142.807C325.988 145.954 324.933 147.942 324.069 148.763C323.213 149.575 322.176 150.232 320.983 150.725C323.377 151.382 325.746 153.603 328.079 157.372L335.729 169.733H329.627L323.395 159.671C321.692 156.879 320.266 154.961 319.125 153.923C317.975 152.878 316.497 152.359 314.673 152.359V169.733H309.746V132.599L309.746 132.599ZM337.769 151.658C337.769 145.504 339.428 140.681 342.739 137.198C346.049 133.714 350.32 131.977 355.558 131.977C358.989 131.977 362.075 132.798 364.832 134.432C367.581 136.065 369.681 138.347 371.125 141.277C372.568 144.199 373.294 147.518 373.294 151.226C373.294 154.986 372.534 158.357 371.012 161.322C369.491 164.296 367.339 166.543 364.556 168.064C361.764 169.594 358.756 170.355 355.532 170.355C352.031 170.355 348.911 169.508 346.153 167.822C343.405 166.137 341.313 163.837 339.895 160.916C338.478 158.003 337.769 154.917 337.769 151.658H337.769ZM342.851 151.745C342.851 156.214 344.053 159.732 346.456 162.299C348.859 164.866 351.875 166.154 355.506 166.154C359.205 166.154 362.239 164.857 364.633 162.264C367.019 159.671 368.212 155.989 368.212 151.218C368.212 148.201 367.702 145.565 366.682 143.317C365.662 141.07 364.166 139.324 362.204 138.088C360.234 136.852 358.029 136.23 355.583 136.23C352.108 136.23 349.118 137.422 346.611 139.808C344.104 142.194 342.851 146.17 342.851 151.745H342.851ZM379.509 169.732V132.599H386.874L395.656 158.885C396.468 161.331 397.056 163.163 397.428 164.382C397.851 163.034 398.517 161.046 399.416 158.427L408.353 132.599H414.931V169.732H410.212V138.667L399.372 169.732H394.947L384.229 138.097V169.732H379.509V169.732ZM422.866 132.599H452.012V169.732H447.086V136.956H427.793V169.732H422.866V132.599V132.599ZM456.023 169.732L470.268 132.599H475.67L490.788 169.732H485.195L480.9 158.478H465.263L461.235 169.732H456.023H456.023ZM466.707 154.485H479.361L475.489 144.19C474.322 141.061 473.44 138.477 472.826 136.437C472.316 138.857 471.634 141.234 470.778 143.585L466.707 154.485H466.707ZM494.894 169.732V132.599H499.821V147.899H519.01V132.599H523.937V169.732H519.01V152.255H499.821V169.732H494.894ZM532.243 132.599H536.703V162.005L556.471 132.599H561.338V169.732H556.878V140.404L537.161 169.732H532.243V132.599H532.243ZM598.774 169.732V132.599H582.316C579.005 132.599 576.499 132.936 574.779 133.602C573.059 134.267 571.684 135.443 570.656 137.128C569.627 138.814 569.108 140.681 569.108 142.721C569.108 145.357 569.964 147.579 571.667 149.385C573.37 151.192 575.997 152.333 579.559 152.825C578.253 153.448 577.268 154.07 576.594 154.675C575.159 155.989 573.802 157.64 572.531 159.619L566.109 169.732H572.246L577.156 162.005C578.582 159.766 579.766 158.063 580.691 156.879C581.624 155.695 582.454 154.874 583.189 154.398C583.915 153.932 584.667 153.603 585.428 153.413C585.981 153.301 586.888 153.24 588.159 153.24H593.846V169.732H598.773H598.774ZM593.847 148.988H583.301C581.054 148.988 579.308 148.754 578.046 148.287C576.784 147.829 575.825 147.086 575.176 146.057C574.519 145.037 574.191 143.931 574.191 142.73C574.191 140.975 574.822 139.523 576.093 138.39C577.363 137.258 579.368 136.696 582.109 136.696H593.847V148.988H593.847ZM621.334 132.599H650.48V169.732H645.553V136.956H626.26V169.732H621.334V132.599V132.599ZM657.058 151.658C657.058 145.504 658.717 140.681 662.028 137.198C665.339 133.714 669.609 131.977 674.847 131.977C678.278 131.977 681.364 132.798 684.121 134.432C686.87 136.065 688.97 138.347 690.414 141.277C691.857 144.199 692.583 147.518 692.583 151.226C692.583 154.986 691.823 158.357 690.301 161.322C688.78 164.296 686.628 166.543 683.845 168.064C681.053 169.594 678.045 170.355 674.821 170.355C671.32 170.355 668.2 169.508 665.442 167.822C662.694 166.137 660.602 163.837 659.184 160.916C657.767 158.003 657.058 154.917 657.058 151.658H657.058ZM662.14 151.745C662.14 156.214 663.342 159.732 665.745 162.299C668.148 164.866 671.164 166.154 674.795 166.154C678.494 166.154 681.528 164.857 683.922 162.264C686.308 159.671 687.501 155.989 687.501 151.218C687.501 148.201 686.991 145.565 685.971 143.317C684.951 141.07 683.455 139.324 681.493 138.088C679.523 136.852 677.318 136.23 674.872 136.23C671.397 136.23 668.407 137.422 665.9 139.808C663.393 142.194 662.14 146.17 662.14 151.745H662.14ZM701.072 132.599H724.254V169.732H719.327V136.956H705.998V156.084C705.998 159.974 705.817 162.818 705.454 164.624C705.091 166.439 704.322 167.839 703.155 168.851C701.988 169.853 700.501 170.355 698.712 170.355C697.623 170.355 696.318 170.13 694.796 169.681L695.678 165.324C696.482 165.739 697.173 165.947 697.744 165.947C698.85 165.947 699.689 165.532 700.242 164.693C700.795 163.855 701.072 161.884 701.072 158.772V132.599V132.599ZM732.569 169.732V132.599H737.496V147.899H756.685V132.599H761.612V169.732H756.685V152.255H737.496V169.732H732.569ZM768.311 151.658C768.311 145.504 769.97 140.681 773.281 137.198C776.591 133.714 780.861 131.977 786.1 131.977C789.531 131.977 792.617 132.798 795.374 134.432C798.123 136.065 800.223 138.347 801.667 141.277C803.11 144.199 803.836 147.518 803.836 151.226C803.836 154.986 803.076 158.357 801.554 161.322C800.033 164.296 797.881 166.543 795.098 168.064C792.306 169.594 789.298 170.355 786.074 170.355C782.573 170.355 779.453 169.508 776.695 167.822C773.947 166.137 771.855 163.837 770.437 160.916C769.02 158.003 768.311 154.917 768.311 151.658H768.311ZM773.393 151.745C773.393 156.214 774.595 159.732 776.998 162.299C779.401 164.866 782.417 166.154 786.048 166.154C789.747 166.154 792.781 164.857 795.175 162.264C797.561 159.671 798.754 155.989 798.754 151.218C798.754 148.201 798.244 145.565 797.224 143.317C796.204 141.07 794.708 139.324 792.746 138.088C790.775 136.852 788.571 136.23 786.125 136.23C782.65 136.23 779.66 137.422 777.153 139.808C774.646 142.194 773.393 146.17 773.393 151.745H773.393ZM810.259 132.599H834.271V136.956H815.185V169.732H810.259V132.599V132.599ZM833.821 151.658C833.821 145.504 835.481 140.681 838.791 137.198C842.102 133.714 846.372 131.977 851.61 131.977C855.041 131.977 858.127 132.798 860.885 134.432C863.633 136.065 865.734 138.347 867.177 141.277C868.621 144.199 869.347 147.518 869.347 151.226C869.347 154.986 868.586 158.357 867.065 161.322C865.544 164.296 863.391 166.543 860.608 168.064C857.816 169.594 854.808 170.355 851.584 170.355C848.083 170.355 844.963 169.508 842.206 167.822C839.457 166.137 837.365 163.837 835.948 160.916C834.53 158.003 833.821 154.917 833.821 151.658H833.821ZM838.904 151.745C838.904 156.214 840.105 159.732 842.508 162.299C844.911 164.866 847.928 166.154 851.558 166.154C855.257 166.154 858.291 164.857 860.686 162.264C863.071 159.671 864.264 155.989 864.264 151.218C864.264 148.201 863.754 145.565 862.734 143.317C861.714 141.07 860.219 139.324 858.257 138.088C856.286 136.852 854.082 136.23 851.636 136.23C848.161 136.23 845.17 137.422 842.663 139.808C840.157 142.194 838.903 146.17 838.903 151.745H838.904ZM890.178 132.599H895.105V165.376H914.398V132.599H919.325V165.376H922.696V180.053H918.339V169.732H890.178V132.599H890.178ZM928.539 132.599H932.999V162.005L952.767 132.599H957.633V169.732H953.173V140.404L933.457 169.732H928.539V132.599H928.539ZM965.819 132.599H970.746V148.884C972.985 148.884 974.566 148.443 975.474 147.57C976.39 146.697 977.549 144.605 978.966 141.286C979.995 138.84 980.842 137.12 981.516 136.117C982.181 135.106 983.132 134.259 984.368 133.576C985.596 132.893 986.961 132.547 988.448 132.547C990.341 132.547 991.335 132.565 991.439 132.599V136.852C991.266 136.852 990.938 136.843 990.454 136.826C989.909 136.809 989.581 136.8 989.46 136.8C987.895 136.8 986.728 137.18 985.968 137.941C985.19 138.702 984.308 140.327 983.305 142.807C982.061 145.954 981.006 147.942 980.142 148.763C979.286 149.575 978.249 150.232 977.056 150.725C979.45 151.382 981.819 153.603 984.152 157.372L991.802 169.733H985.7L979.468 159.671C977.765 156.879 976.339 154.961 975.198 153.923C974.048 152.878 972.57 152.359 970.746 152.359V169.733H965.819V132.599L965.819 132.599ZM998.674 132.599H1021.86V169.732H1016.93V136.956H1003.6V156.084C1003.6 159.974 1003.42 162.818 1003.06 164.624C1002.69 166.439 1001.92 167.839 1000.76 168.851C999.59 169.853 998.103 170.355 996.314 170.355C995.225 170.355 993.92 170.13 992.398 169.681L993.28 165.324C994.084 165.739 994.775 165.947 995.346 165.947C996.452 165.947 997.291 165.532 997.844 164.693C998.397 163.855 998.674 161.884 998.674 158.772V132.599V132.599ZM1025.89 169.732L1040.14 132.599H1045.54L1060.66 169.732H1055.06L1050.77 158.478H1035.13L1031.1 169.732H1025.89H1025.89ZM1036.58 154.485H1049.23L1045.36 144.19C1044.19 141.061 1043.31 138.477 1042.7 136.437C1042.19 138.857 1041.5 141.234 1040.65 143.585L1036.58 154.485H1036.58Z" fill="#FF00FE"/>
</svg>
