<svg width="64" height="26" viewBox="0 0 64 26" fill="none" xmlns="http://www.w3.org/2000/svg">
<path fill-rule="evenodd" clip-rule="evenodd" d="M44.9383 16.1124C45.6785 16.1124 46.7455 15.9875 47.5914 15.6126L47.2069 13.9016C46.4667 14.238 45.89 14.3437 45.2748 14.3437C43.7079 14.3437 42.9005 13.3056 42.9005 11.9022C42.9005 10.1815 44.1405 8.48013 46.2745 8.48013C46.9666 8.48013 47.6106 8.6147 48.2739 8.9223L48.6776 7.13438C48.0816 6.88446 47.1588 6.72105 46.2841 6.72105C43.2177 6.72105 40.6319 8.71083 40.6319 12.1136C40.6319 14.1996 41.9104 16.1124 44.9383 16.1124ZM33.6917 15.9779H39.0939L39.4784 14.1899H36.2294L36.662 12.2578H39.5265L39.911 10.4699H38.5076H37.0465H34.8933L33.6821 15.9875L33.6917 15.9779ZM28.5587 15.9779H30.7119L31.4712 12.5078L34.1435 8.6147H35.3066H38.5076H39.8341H40.3436L41.026 6.82678H39.8437H35.7103H35.3835H33.9032H33.0092L30.7215 10.5372H30.6926L29.3853 6.82678H27.2225L29.3661 12.3732L28.5779 15.9875L28.5587 15.9779Z" fill="white"/>
<path fill-rule="evenodd" clip-rule="evenodd" d="M47.5145 17.8138V17.6024H46.7359V17.8138H47.005V18.6597H47.2549V17.8138H47.5241H47.5145ZM46.1591 17.8138H46.6686V17.612H45.9092V18.6694H46.6686V18.4675H46.1591V18.2368H46.5628V18.0349H46.1591V17.8235V17.8138ZM45.342 18.083H45.2075V17.8042H45.342C45.3901 17.8042 45.4382 17.8042 45.4766 17.8331C45.5151 17.8619 45.5247 17.9004 45.5247 17.9484C45.5247 17.9869 45.5151 18.0157 45.4862 18.0445C45.4382 18.0926 45.3901 18.0926 45.3324 18.0926L45.342 18.083ZM45.2075 18.6694V18.2752H45.3709C45.4862 18.2752 45.5824 18.2752 45.6689 18.1983C45.7458 18.1311 45.7842 18.0253 45.7842 17.9292C45.7842 17.8235 45.7362 17.7273 45.6496 17.66C45.5631 17.6024 45.467 17.6024 45.3613 17.6024H44.9575V18.6597H45.2075V18.6694ZM44.1886 18.0638V17.7946H44.3231C44.3712 17.7946 44.4385 17.785 44.4865 17.8138C44.525 17.8331 44.5442 17.8811 44.5442 17.9196C44.5442 17.9676 44.525 18.0157 44.4865 18.0445C44.4385 18.0734 44.3904 18.0638 44.3327 18.0638H44.1982H44.1886ZM44.1886 18.6694V18.2464H44.3712L44.5346 18.6694H44.8134L44.6211 18.1983C44.7365 18.1599 44.8037 18.0445 44.8037 17.9292C44.8037 17.8235 44.7557 17.7177 44.6692 17.66C44.5827 17.612 44.4865 17.6024 44.4 17.6024H43.9578V18.6597H44.2078L44.1886 18.6694ZM43.4292 18.256H43.2081L43.3234 17.8811L43.4388 18.256H43.4292ZM43.8233 18.6694L43.4868 17.612H43.1985L42.862 18.6694H43.0831L43.1504 18.4483H43.4965L43.5637 18.6694H43.8329H43.8233ZM42.5256 18.0157L42.7851 17.9965C42.7563 17.7369 42.6217 17.5831 42.3526 17.5831C42.0354 17.5831 41.8719 17.8331 41.8719 18.1311C41.8719 18.4194 42.0257 18.679 42.343 18.679C42.5833 18.679 42.7563 18.5348 42.7851 18.2945L42.5448 18.2752C42.5352 18.381 42.4775 18.4771 42.3622 18.4771C42.1795 18.4771 42.1603 18.2945 42.1603 18.1407C42.1603 18.0157 42.1795 17.785 42.3526 17.785C42.4871 17.785 42.5256 17.8907 42.5352 18.0157H42.5256ZM41.2567 18.6694V17.612H41.0645V18.2368L40.7088 17.612H40.4397V18.6694H40.6319V17.958H40.6415L41.0453 18.6694H41.2567ZM39.9302 18.256H39.7091L39.8245 17.8811L39.9398 18.256H39.9302ZM40.3243 18.6694L39.9879 17.612H39.6995L39.3631 18.6694H39.5842L39.6515 18.4483H39.9975L40.0648 18.6694H40.3339H40.3243ZM39.3439 18.4579H38.9209V17.612H38.671V18.6694H39.3439V18.4579ZM38.1039 18.083H37.9693V17.8042H38.1039C38.1519 17.8042 38.2 17.8042 38.2384 17.8331C38.2769 17.8619 38.2865 17.9004 38.2865 17.9484C38.2865 17.9869 38.2769 18.0157 38.248 18.0445C38.2 18.0926 38.1519 18.0926 38.0942 18.0926L38.1039 18.083ZM37.9693 18.6694V18.2752H38.1327C38.248 18.2752 38.3442 18.2752 38.4307 18.1983C38.5076 18.1311 38.546 18.0253 38.546 17.9292C38.546 17.8235 38.498 17.7273 38.4115 17.66C38.3249 17.6024 38.2288 17.6024 38.1231 17.6024H37.7194V18.6597H37.9693V18.6694ZM37.2195 18.256H36.9984L37.1138 17.8811L37.2291 18.256H37.2195ZM37.6136 18.6694L37.2772 17.612H36.9888L36.6524 18.6694H36.8735L36.9407 18.4483H37.2868L37.3541 18.6694H37.6232H37.6136ZM35.9987 18.1118V17.612H35.7584V18.6694H35.9987V18.429L36.1525 18.2176L36.364 18.679H36.6331L36.3159 17.9965L36.5755 17.6216H36.3352L35.9987 18.1214V18.1118ZM34.9798 18.0734V17.8042H35.1144C35.1624 17.8042 35.2297 17.7946 35.2778 17.8235C35.3162 17.8427 35.3355 17.8907 35.3355 17.9292C35.3355 17.9773 35.3162 18.0253 35.2778 18.0542C35.2297 18.083 35.1817 18.0734 35.124 18.0734H34.9894H34.9798ZM34.9798 18.679V18.256H35.1624L35.3258 18.679H35.6046L35.4124 18.208C35.5277 18.1695 35.595 18.0542 35.595 17.9388C35.595 17.8331 35.5469 17.7273 35.4604 17.6697C35.3739 17.6216 35.2874 17.612 35.1913 17.612H34.7395V18.6694H34.9894L34.9798 18.679ZM34.0762 17.8235H34.5857V17.6216H33.8263V18.679H34.5857V18.4771H34.0762V18.2464H34.48V18.0445H34.0762V17.8331V17.8235ZM32.644 18.679L32.9035 17.8138H32.9131V18.679H33.163V17.6216H32.7785L32.5863 18.256L32.4037 17.6216H32.0192V18.679H32.2306V17.8138L32.4902 18.679H32.6632H32.644ZM31.5001 18.2656H31.279L31.3943 17.8907L31.5097 18.2656H31.5001ZM31.8942 18.679L31.5578 17.6216H31.2694L30.9329 18.679H31.154L31.2213 18.4579H31.5674L31.6347 18.679H31.9038H31.8942ZM30.8176 18.679V17.6216H30.5677V18.0349H30.2409V17.6216H29.9909V18.679H30.2409V18.2368H30.5677V18.679H30.8176ZM29.6064 17.9196L29.8179 17.8523C29.7506 17.6697 29.5968 17.6024 29.4142 17.6024C29.3181 17.6024 29.2219 17.6216 29.145 17.6889C29.0681 17.7562 29.0297 17.8427 29.0297 17.9388C29.0297 18.1695 29.2123 18.2272 29.4046 18.2656C29.4719 18.2752 29.5872 18.2945 29.5872 18.381C29.5872 18.4675 29.4911 18.4963 29.4238 18.4963C29.3181 18.4963 29.2315 18.4579 29.2027 18.3425L28.972 18.3906C29.0201 18.6021 29.2027 18.6886 29.4046 18.6886C29.5103 18.6886 29.6257 18.6694 29.7122 18.6021C29.7987 18.5348 29.8467 18.4387 29.8467 18.3329C29.8467 18.2272 29.7987 18.1407 29.7122 18.083C29.6353 18.0349 29.5199 18.0061 29.4334 17.9965C29.3757 17.9869 29.2796 17.9676 29.2796 17.8907C29.2796 17.8042 29.3565 17.7946 29.4238 17.7946C29.5199 17.7946 29.5776 17.8331 29.6064 17.9196ZM28.5683 18.2656H28.3472L28.4625 17.8907L28.5779 18.2656H28.5683ZM28.9624 18.679L28.626 17.6216H28.3376L28.0011 18.679H28.2222L28.2895 18.4579H28.6356L28.7029 18.679H28.972H28.9624ZM27.8185 18.2368L28.1549 17.6216H27.9339L27.732 18.0253L27.5301 17.6216H27.2418L27.5782 18.2368V18.679H27.8281V18.2368H27.8185Z" fill="white"/>
<path fill-rule="evenodd" clip-rule="evenodd" d="M23.1468 9.17223L23.5409 7.23051C22.5989 8.66277 18.8789 8.384 16.0624 7.35547L14.8224 13.4113C15.2165 13.6516 15.6491 13.8247 16.1009 13.94L16.8603 10.2488L17.2928 10.4122C18.6097 10.8929 20.1958 11.2293 21.6281 11.2485L22.051 9.20106L22.3586 9.18184C22.5893 9.16261 22.8585 9.16261 23.1468 9.18184V9.17223Z" fill="white"/>
<path fill-rule="evenodd" clip-rule="evenodd" d="M23.1468 9.17223L23.5409 7.23051C22.5989 8.66277 18.8789 8.384 16.0624 7.35547L14.8224 13.4113C15.2165 13.6516 15.6491 13.8247 16.1009 13.94L16.8603 10.2488L17.2928 10.4122C18.6097 10.8929 20.1958 11.2293 21.6281 11.2485L22.051 9.20106L22.3586 9.18184C22.5893 9.16261 22.8585 9.16261 23.1468 9.18184V9.17223Z" fill="white"/>
<path fill-rule="evenodd" clip-rule="evenodd" d="M23.5409 7.23051C23.7044 6.43267 22.647 6.05778 21.282 6.15391L20.8591 8.22059C22.0991 8.19175 23.1084 7.89377 23.5409 7.24012V7.23051Z" fill="white"/>
<path fill-rule="evenodd" clip-rule="evenodd" d="M23.5409 7.23051C23.7044 6.43267 22.647 6.05778 21.282 6.15391L20.8591 8.22059C22.0991 8.19175 23.1084 7.89377 23.5409 7.24012V7.23051Z" fill="white"/>
<path fill-rule="evenodd" clip-rule="evenodd" d="M24.0792 13.3633L24.6368 10.6525C23.6947 12.0848 19.9747 11.806 17.1583 10.7775L15.9183 16.8334C16.6969 17.314 17.6197 17.5062 18.629 17.5351L19.4556 13.4978L19.8498 13.5844C21.0609 13.8535 22.7527 13.8631 24.0792 13.3729V13.3633Z" fill="white"/>
<path fill-rule="evenodd" clip-rule="evenodd" d="M24.5599 18.083L25.6172 12.9211C24.4349 13.9977 22.0126 14.4783 19.7632 13.9688L18.6866 19.2076C20.8014 19.4191 22.7816 19.1211 24.5599 18.083Z" fill="white"/>
<path fill-rule="evenodd" clip-rule="evenodd" d="M24.6368 10.6525C24.8002 9.85471 23.7428 9.47983 22.3778 9.57595L21.9549 11.6426C23.1949 11.6138 24.2042 11.3158 24.6368 10.6622V10.6525Z" fill="white"/>
<path fill-rule="evenodd" clip-rule="evenodd" d="M25.6172 12.9115C25.7807 12.0944 25.4058 11.6811 24.8579 11.5273L24.4253 13.6324C24.8963 13.4402 25.3 13.1902 25.6172 12.9019V12.9115Z" fill="white"/>
<path fill-rule="evenodd" clip-rule="evenodd" d="M24.0792 13.3633L24.6368 10.6525C23.6947 12.0848 19.9747 11.806 17.1583 10.7775L15.9183 16.8334C16.6969 17.314 17.6197 17.5062 18.629 17.5351L19.4556 13.4978L19.8498 13.5844C21.0609 13.8535 22.7527 13.8631 24.0792 13.3729V13.3633Z" fill="white"/>
<path fill-rule="evenodd" clip-rule="evenodd" d="M24.5599 18.083L25.6172 12.9211C24.4349 13.9977 22.0126 14.4783 19.7632 13.9688L18.6866 19.2076C20.8014 19.4191 22.7816 19.1211 24.5599 18.083Z" fill="white"/>
<path fill-rule="evenodd" clip-rule="evenodd" d="M24.6368 10.6525C24.8002 9.85471 23.7428 9.47983 22.3778 9.57595L21.9549 11.6426C23.1949 11.6138 24.2042 11.3158 24.6368 10.6622V10.6525Z" fill="white"/>
<path fill-rule="evenodd" clip-rule="evenodd" d="M25.6172 12.9115C25.7807 12.0944 25.4058 11.6811 24.8579 11.5273L24.4253 13.6324C24.8963 13.4402 25.3 13.1902 25.6172 12.9019V12.9115Z" fill="white"/>
</svg>
