<svg width="64" height="26" viewBox="0 0 64 26" fill="none" xmlns="http://www.w3.org/2000/svg">
<path fill-rule="evenodd" clip-rule="evenodd" d="M28.0269 13.7804C28.0269 11.948 26.7134 10.4545 24.9551 10.4545C23.1968 10.4545 21.7775 11.948 21.7775 13.7804C21.7775 15.6128 23.1968 17.1063 24.9551 17.1063C26.5863 17.1063 27.5184 16.2696 27.9315 14.9349H26.4804C26.1626 15.5811 25.5483 15.8671 24.9551 15.8671C24.1713 15.8671 23.504 15.2103 23.3133 14.3206H27.9845C28.0163 14.1511 28.0269 13.9711 28.0269 13.7804ZM23.3451 13.1237C23.5676 12.2975 24.2031 11.6937 24.9657 11.6937C25.7178 11.6937 26.3321 12.2975 26.4804 13.1237H23.3557H23.3451Z" fill="white"/>
<path fill-rule="evenodd" clip-rule="evenodd" d="M48.5121 14.9349C48.0778 14.9349 47.7389 15.2845 47.7389 15.7082C47.7389 16.1424 48.0884 16.4814 48.5121 16.4814C48.9464 16.4814 49.2853 16.1319 49.2853 15.7082C49.2853 15.2739 48.9358 14.9349 48.5121 14.9349ZM48.5121 16.4178C48.1096 16.4178 47.813 16.1001 47.813 15.7082C47.813 15.3057 48.1096 14.9985 48.5121 14.9985C48.9146 14.9985 49.2112 15.3057 49.2112 15.7082C49.2112 16.1001 48.9146 16.4178 48.5121 16.4178Z" fill="white"/>
<path fill-rule="evenodd" clip-rule="evenodd" d="M47.0504 13.7804C47.0504 11.948 45.7369 10.4545 43.9787 10.4545C42.2204 10.4545 40.801 11.948 40.801 13.7804C40.801 15.6128 42.2204 17.1063 43.9787 17.1063C45.6098 17.1063 46.6267 16.3861 46.955 14.9349H45.5039C45.1862 15.5811 44.5718 15.8671 43.9787 15.8671C43.1948 15.8671 42.5275 15.2103 42.3369 14.3206H47.008C47.0398 14.1511 47.0504 13.9711 47.0504 13.7804ZM42.3686 13.1237C42.5911 12.2975 43.2266 11.6937 43.9892 11.6937C44.7413 11.6937 45.3556 12.2975 45.5039 13.1237H42.3792H42.3686Z" fill="white"/>
<path fill-rule="evenodd" clip-rule="evenodd" d="M33.842 8.3784H19.4472V14.363H19.426L15.8353 8.3784H14.2147V16.9263H15.8565V11.3124H15.8776L19.3307 16.9263H21.089V9.60709H33.8525L33.842 8.3784Z" fill="white"/>
<path fill-rule="evenodd" clip-rule="evenodd" d="M30.0182 12.2339C30.0288 11.9585 30.3254 11.4607 31.2151 11.4607C32.2319 11.4607 32.4332 12.181 32.5073 12.414H33.8737C33.7466 10.8146 32.3379 10.3485 31.1198 10.3485C29.1708 10.3485 28.5882 11.609 28.5882 12.5199C28.5882 14.8608 32.5815 13.9075 32.5815 15.1998C32.5815 15.7505 32.2319 15.9836 31.2151 15.9836C30.1771 15.9836 29.8487 15.4646 29.8487 14.9349H28.5247C28.5671 16.6085 29.8487 17.1275 31.2681 17.1275C32.4967 17.1275 34.0856 16.7674 34.0856 14.9455C34.0856 12.5199 29.9758 13.4626 30.0076 12.2339H30.0182Z" fill="white"/>
<path fill-rule="evenodd" clip-rule="evenodd" d="M36.3311 8.35722H34.7635V10.751H34.2868V11.9268H34.7635V14.6066C34.7635 15.4222 35.399 16.8945 36.8183 16.8945C37.0937 16.8945 37.8034 16.8733 37.8034 16.8733V15.7611H37.4645C36.8713 15.7294 36.3311 15.4116 36.3311 14.3947V11.9268H37.814V10.751H36.3311V8.35722Z" fill="white"/>
<path fill-rule="evenodd" clip-rule="evenodd" d="M38.5131 16.9263H40.1655V8.3784H38.5131V16.9263Z" fill="white"/>
<path fill-rule="evenodd" clip-rule="evenodd" d="M46.6797 8.27248L41.1188 8.88682V9.5859H46.6797V8.27248Z" fill="white"/>
<path fill-rule="evenodd" clip-rule="evenodd" d="M48.6392 15.7505C48.7663 15.7294 48.8722 15.6552 48.8722 15.5069C48.8722 15.3374 48.7769 15.2527 48.5756 15.2527H48.2261V16.1742H48.3002V15.7505H48.5439L48.8193 16.1742H48.904L48.6286 15.7505H48.6392ZM48.5015 15.6764H48.3108V15.3163H48.5651C48.671 15.3163 48.7981 15.3586 48.7981 15.4963C48.7981 15.6552 48.6498 15.6658 48.5121 15.6658L48.5015 15.6764Z" fill="white"/>
</svg>
