<svg width="64" height="26" viewBox="0 0 64 26" fill="none" xmlns="http://www.w3.org/2000/svg">
<path fill-rule="evenodd" clip-rule="evenodd" d="M27.902 13.2102L29.7907 13.0691C29.8341 13.4273 29.9101 13.6986 30.0404 13.8832C30.2466 14.1871 30.5397 14.3391 30.9196 14.3391C31.2018 14.3391 31.4189 14.2631 31.5709 14.1111C31.7229 13.9591 31.7988 13.7746 31.7988 13.5792C31.7988 13.3838 31.7229 13.2102 31.5817 13.0582C31.4406 12.9062 31.0933 12.7651 30.5614 12.624C29.6822 12.3961 29.0635 12.0921 28.6944 11.7231C28.3145 11.3432 28.1299 10.8656 28.1299 10.2794C28.1299 9.89949 28.2276 9.54128 28.423 9.19393C28.6184 8.84658 28.9006 8.58607 29.2914 8.39069C29.6822 8.1953 30.2032 8.09761 30.8762 8.09761C31.7011 8.09761 32.3307 8.27128 32.7649 8.62949C33.1991 8.98769 33.4487 9.55214 33.5356 10.3228L31.6577 10.4531C31.6035 10.1166 31.5058 9.86692 31.3429 9.71496C31.1801 9.56299 30.963 9.48701 30.6808 9.48701C30.4529 9.48701 30.2792 9.54128 30.1598 9.66069C30.0404 9.76923 29.9861 9.91034 29.9861 10.0732C29.9861 10.1926 30.0295 10.3011 30.1272 10.388C30.214 10.4856 30.442 10.5725 30.7893 10.6593C31.6577 10.8764 32.2873 11.0935 32.6564 11.3215C33.0363 11.5385 33.3076 11.8208 33.4813 12.1464C33.655 12.4721 33.7418 12.8411 33.7418 13.2536C33.7418 13.7312 33.6224 14.1762 33.3945 14.5779C33.1665 14.9795 32.8517 15.2834 32.4393 15.5005C32.0268 15.7068 31.5166 15.8153 30.887 15.8153C29.7907 15.8153 29.0309 15.5656 28.6076 15.0772C28.1842 14.5887 27.9454 13.97 27.8911 13.221L27.902 13.2102ZM38.7241 14.4476H36.4664L36.1407 15.6742H34.1109L36.5423 8.20616H38.7241L41.1447 15.6742H39.0606L38.735 14.4476H38.7241ZM38.3008 12.8303L37.5952 10.1491L36.8897 12.8303H38.3008ZM44.8462 12.9714V11.4191H47.9289V14.5887C47.3428 15.0555 46.8217 15.3703 46.3658 15.5439C45.9099 15.7176 45.3781 15.7936 44.7485 15.7936C43.9778 15.7936 43.3591 15.6416 42.8815 15.3377C42.4039 15.0338 42.024 14.5887 41.7635 13.9917C41.5029 13.3947 41.3618 12.7109 41.3618 11.9402C41.3618 11.1261 41.5029 10.4205 41.796 9.81265C42.0891 9.21564 42.5124 8.75975 43.066 8.44496C43.5002 8.20616 44.0864 8.08675 44.8353 8.08675C45.5517 8.08675 46.0836 8.16274 46.431 8.3147C46.7892 8.46667 47.0823 8.69462 47.3102 9.0094C47.5382 9.32419 47.7227 9.72581 47.8312 10.2034L45.9099 10.605C45.834 10.3228 45.6929 10.1057 45.5083 9.95376C45.3238 9.8018 45.0741 9.72581 44.7811 9.72581C44.3469 9.72581 43.9995 9.89949 43.739 10.2577C43.4785 10.605 43.3482 11.1695 43.3482 11.9185C43.3482 12.7217 43.4785 13.297 43.739 13.6444C43.9995 13.9917 44.3686 14.1654 44.8353 14.1654C45.0524 14.1654 45.2695 14.1328 45.4758 14.0568C45.682 13.9809 45.9099 13.8506 46.1705 13.6769V12.9822H44.8353L44.8462 12.9714Z" fill="white"/>
<path fill-rule="evenodd" clip-rule="evenodd" d="M22.2684 9.69325L20.1409 11.951L22.2684 14.2197L24.4068 11.951L22.2684 9.69325Z" fill="white"/>
<path fill-rule="evenodd" clip-rule="evenodd" d="M27.0119 9.69325L24.8844 11.951L27.0119 14.2197V9.69325Z" fill="white"/>
<path fill-rule="evenodd" clip-rule="evenodd" d="M24.6347 12.1898L22.5072 14.4476L24.6347 16.7054L26.784 14.4476L24.6347 12.1898Z" fill="white"/>
<path fill-rule="evenodd" clip-rule="evenodd" d="M24.6347 7.19667L22.5072 9.45445L24.6347 11.7122L26.784 9.45445L24.6347 7.19667Z" fill="white"/>
<path fill-rule="evenodd" clip-rule="evenodd" d="M19.8912 12.1898L17.7529 14.4476L19.8912 16.7054L22.0296 14.4476L19.8912 12.1898Z" fill="white"/>
<path fill-rule="evenodd" clip-rule="evenodd" d="M19.8912 7.19667L17.7529 9.45445L19.8912 11.7122L22.0296 9.45445L19.8912 7.19667Z" fill="white"/>
<path fill-rule="evenodd" clip-rule="evenodd" d="M17.5032 9.69325L15.3757 11.951L17.5032 14.2197L19.6524 11.951L17.5032 9.69325Z" fill="white"/>
<path fill-rule="evenodd" clip-rule="evenodd" d="M28.7921 17.7583V17.5629H29.2914V18.0188C29.248 18.0622 29.172 18.1056 29.0743 18.1491C28.9766 18.1816 28.8898 18.2033 28.7921 18.2033C28.6727 18.2033 28.5641 18.1816 28.4773 18.1274C28.3905 18.0731 28.3253 18.008 28.2711 17.9103C28.2276 17.8126 28.2059 17.7149 28.2059 17.6063C28.2059 17.4869 28.2276 17.3784 28.2819 17.2807C28.3362 17.183 28.4013 17.1179 28.499 17.0636C28.575 17.0202 28.6618 17.0093 28.7704 17.0093C28.9115 17.0093 29.0309 17.0419 29.1069 17.0962C29.1829 17.1613 29.2371 17.2373 29.2588 17.3458L29.0309 17.3892C29.02 17.335 28.9875 17.2915 28.9441 17.259C28.9006 17.2264 28.8464 17.2047 28.7812 17.2047C28.6835 17.2047 28.5967 17.2373 28.5424 17.3024C28.4773 17.3675 28.4556 17.4652 28.4556 17.5846C28.4556 17.7257 28.4882 17.8234 28.5424 17.8886C28.6076 17.9537 28.6835 17.9862 28.7812 17.9862C28.8247 17.9862 28.8789 17.9754 28.9223 17.9537C28.9766 17.932 29.0092 17.9103 29.0526 17.8886V17.7474H28.7921V17.7583ZM30.8979 18.1816V17.031H31.1367V18.1816H30.8979ZM32.7541 18.1816V17.0419H32.9929V17.9862H33.5682V18.1816H32.7541ZM36.1624 18.1816H35.9128L35.8151 17.9211H35.3483L35.2506 18.1816H35.001L35.446 17.031H35.6957L36.1624 18.1816ZM35.7391 17.7257L35.5763 17.3024L35.4243 17.7257H35.7391ZM37.6821 18.1816V17.031H38.0294L38.2357 17.8126L38.4419 17.031H38.7893V18.1816H38.5722V17.2698L38.3442 18.1816H38.1163L37.8883 17.2698V18.1816H37.6712H37.6821ZM40.4283 18.1816V17.0419H40.6671V17.9862H41.2424V18.1816H40.4283ZM43.8367 18.1816H43.587L43.4894 17.9211H43.0226L42.9249 18.1816H42.6753L43.1203 17.031H43.37L43.8367 18.1816ZM43.4134 17.7257L43.2505 17.3024L43.0986 17.7257H43.4134ZM45.3564 18.1816V17.031H45.8448C45.9642 17.031 46.0619 17.0419 46.1162 17.0636C46.1705 17.0853 46.2139 17.1179 46.2464 17.1721C46.279 17.2264 46.3007 17.2807 46.3007 17.3567C46.3007 17.4435 46.279 17.5195 46.2247 17.5738C46.1705 17.628 46.0945 17.6606 45.9968 17.6823C46.0511 17.7149 46.0836 17.7474 46.1162 17.78C46.1488 17.8126 46.1922 17.8777 46.2464 17.9645L46.3876 18.1925H46.1053L45.9425 17.9428C45.8774 17.856 45.8448 17.8017 45.8231 17.7692C45.8014 17.7474 45.7797 17.7257 45.758 17.7257C45.7363 17.7149 45.6929 17.7149 45.6386 17.7149H45.5952V18.1925H45.3564V18.1816ZM45.5952 17.5195H45.7688C45.8774 17.5195 45.9534 17.5195 45.9751 17.5086C46.0076 17.4978 46.0294 17.4869 46.0402 17.4544C46.0511 17.4327 46.0619 17.4001 46.0619 17.3675C46.0619 17.3241 46.0511 17.3024 46.0294 17.2698C46.0076 17.2481 45.9751 17.2264 45.9425 17.2264C45.9208 17.2264 45.8665 17.2264 45.7688 17.2264H45.5843V17.5195H45.5952ZM47.9072 18.1816V17.031H48.146V18.1816H47.9072Z" fill="white"/>
</svg>
