<svg width="64" height="26" viewBox="0 0 64 26" fill="none" xmlns="http://www.w3.org/2000/svg">
<path fill-rule="evenodd" clip-rule="evenodd" d="M26.5018 11.0718V16.4666H28.1842V11.7556C28.2711 11.7448 28.3145 11.7122 28.4122 11.7014C28.6401 11.6579 28.7378 11.6688 28.9766 11.6688C29.3783 11.6688 29.7473 11.9402 29.7473 12.3852V16.4774H31.4298V11.9619C31.4298 11.8533 31.8097 11.6797 32.0377 11.6797C32.309 11.6797 32.537 11.6688 32.7649 11.8859C32.8843 12.0053 32.9712 12.1681 32.9712 12.3961V16.4883H34.6536V12.5263C34.6536 12.103 34.5234 11.582 34.252 11.2889C34.1326 11.1586 34.0349 11.0501 33.8721 10.9524C33.3294 10.6159 32.9386 10.6268 32.3416 10.6268C32.0377 10.6268 31.6252 10.7027 31.3972 10.7896C31.0065 10.9307 30.7025 11.1695 30.6591 11.1803C30.5723 11.1261 30.5614 11.0826 30.366 10.9524C30.2466 10.8764 30.1272 10.833 29.997 10.7787C29.4217 10.5833 29.1286 10.6159 28.5316 10.6159C27.9129 10.6159 27.2616 10.7353 26.6971 10.9524C26.6429 10.9741 26.5018 11.0175 26.5018 11.0826V11.0718Z" fill="white"/>
<path fill-rule="evenodd" clip-rule="evenodd" d="M38.0729 10.6485C38.0729 11.1044 38.6265 12.9388 38.7676 13.5032L38.8761 13.9157H37.1719C37.2479 13.5792 37.5301 12.6674 37.6387 12.2984C37.7472 11.9185 37.9752 11.1586 38.0295 10.757C38.0403 10.6593 38.0077 10.6919 38.0729 10.6485ZM34.9033 16.4774H36.4664C36.4664 16.3906 36.4989 16.3363 36.5207 16.2712L36.6943 15.6959C36.7377 15.5439 36.9114 15.012 36.9223 14.9144H39.1475C39.1583 15.0446 39.5708 16.3472 39.5817 16.4774H41.3727C41.3619 16.4014 41.2642 16.1084 41.2316 16.0215L39.0064 9.1288H37.3022C37.2479 9.2482 37.2045 9.44359 37.1611 9.57384C37.0525 9.91034 36.792 10.6376 36.716 10.9524C36.6726 11.1044 36.6183 11.2563 36.5641 11.4083L35.3701 15.088C35.3158 15.24 35.2615 15.4028 35.2181 15.5439C35.1747 15.7067 35.1204 15.8479 35.0661 15.9998C35.0336 16.0975 34.9359 16.3797 34.925 16.4666L34.9033 16.4774Z" fill="white"/>
<path fill-rule="evenodd" clip-rule="evenodd" d="M41.3727 14.3608C41.3727 15.3377 41.6549 16.0324 42.621 16.3363C43.3483 16.5643 44.5206 16.4991 45.237 16.3472C45.4215 16.3146 45.5952 16.2603 45.758 16.2061C45.834 16.1844 46.203 16.065 46.203 15.989V10.605H44.5206V15.2183C44.4663 15.2291 44.4446 15.2509 44.3903 15.2726C44.0647 15.392 43.5002 15.4028 43.2506 15.1423C43.1312 15.0229 43.0443 14.8601 43.0443 14.6213V10.605H41.3618V14.3499L41.3727 14.3608Z" fill="white"/>
<path fill-rule="evenodd" clip-rule="evenodd" d="M16.8953 11.1695C16.8953 11.6145 17.0256 11.9727 17.1993 12.255C17.5575 12.852 18.0568 13.0473 18.5778 13.3079C19.0337 13.5358 19.3919 13.7529 19.3919 14.3391C19.3919 14.5887 19.2617 14.8275 19.1206 14.9361C18.6647 15.2834 17.9374 15.1749 17.4706 14.9469C17.373 14.9035 17.3078 14.8601 17.221 14.8167C17.145 15.1314 16.8845 15.7827 16.8302 16.0324C16.9388 16.0867 17.0473 16.1626 17.1667 16.2169C17.2861 16.2712 17.4272 16.3146 17.5683 16.3472C18.0568 16.4774 18.4041 16.4666 18.9035 16.4666C19.5765 16.4666 20.2169 16.1409 20.5534 15.7936C20.7705 15.5765 20.8899 15.4137 21.031 15.1097C21.3241 14.4802 21.3024 13.5684 20.9333 13.0148C20.6185 12.5372 20.2277 12.2984 19.7284 12.0487C19.4571 11.9185 19.0337 11.7448 18.8383 11.506C18.6321 11.2563 18.6104 11.1478 18.6104 10.833C18.6104 10.5942 18.7081 10.4205 18.86 10.2685C19.1531 9.97547 19.7393 10.0406 20.0866 10.16C20.2386 10.2143 20.3363 10.2468 20.4665 10.312C20.5208 10.3445 20.5425 10.3662 20.5968 10.3771C20.6077 10.3011 20.7271 9.96461 20.7705 9.84521L20.955 9.31332C20.434 8.96597 19.837 8.87914 19.1097 8.87914C18.7624 8.87914 18.4476 8.97682 18.1979 9.07452C17.3947 9.40016 16.8845 10.2685 16.8845 11.1369L16.8953 11.1695Z" fill="white"/>
<path fill-rule="evenodd" clip-rule="evenodd" d="M51.4133 13.6552C51.4133 12.9388 51.3699 11.5385 52.3142 11.5385C52.6942 11.5385 52.9112 11.8099 53.0198 12.1247C53.226 12.7651 53.2477 14.122 53.0198 14.7624C52.9112 15.0663 52.705 15.3268 52.3034 15.3268C51.9018 15.3268 51.7064 15.0663 51.587 14.7732C51.4784 14.491 51.4242 14.0351 51.4242 13.6444L51.4133 13.6552ZM49.7417 13.3513C49.7417 14.1654 49.8502 14.9795 50.3712 15.6091C50.7946 16.1192 51.4133 16.4774 52.1406 16.4774C52.6942 16.4774 52.9872 16.4557 53.4757 16.2169C53.7688 16.0758 54.0076 15.8587 54.203 15.6199C54.3006 15.5005 54.3766 15.3594 54.4526 15.2291C54.8977 14.4802 54.9302 13.0691 54.648 12.255C54.3658 11.4191 53.8773 10.8656 53.0306 10.605C52.4553 10.4314 51.5761 10.4856 51.0659 10.7787L50.4364 11.278C50.4038 11.3215 50.393 11.3323 50.3495 11.3757C49.9371 11.9185 49.7308 12.6457 49.7308 13.3513H49.7417Z" fill="white"/>
<path fill-rule="evenodd" clip-rule="evenodd" d="M24.6565 13.3513V15.392C24.6565 15.5331 23.4624 15.7285 23.1368 15.1314C22.9957 14.8709 22.974 14.4585 23.0717 14.1437C23.2345 13.6552 23.6578 13.5141 24.1137 13.4056C24.244 13.373 24.5045 13.3296 24.6565 13.3296V13.3513ZM21.7908 10.9307L22.149 11.8859C22.2467 11.875 23.2996 11.3649 24.168 11.6037C24.6782 11.7448 24.6565 12.1356 24.6565 12.5697C23.4733 12.6674 21.4435 13.0148 21.4435 14.5779C21.4435 14.9903 21.4652 15.1857 21.6497 15.5548C21.9753 16.2061 22.9631 16.4774 23.7555 16.4774C24.5153 16.4774 25.3512 16.4557 26.035 16.1409C26.1001 16.1084 26.2304 16.0867 26.2304 16.0107V12.624C26.2304 11.9185 26.0459 11.4191 25.6877 11.0718C25.3186 10.7027 24.7107 10.5073 24.1463 10.5073C23.3865 10.5073 22.9523 10.5291 22.225 10.7787C22.073 10.833 21.9102 10.8764 21.78 10.9415L21.7908 10.9307Z" fill="white"/>
<path fill-rule="evenodd" clip-rule="evenodd" d="M47.1474 9.3676V10.605H46.5178V11.6797H47.1474V14.6538C47.1474 15.3811 47.3971 16.0215 48.0809 16.3038C48.4825 16.4666 48.9384 16.4883 49.3726 16.4014C49.4486 16.3906 49.7091 16.3363 49.7091 16.2495V15.2617C49.6331 15.2617 49.6114 15.2834 49.5571 15.2943C49.1555 15.392 48.8299 15.2183 48.8299 14.6864V11.6688H49.7091V10.5942H48.8299V8.92256C48.6888 8.95513 48.5585 8.99854 48.4174 9.03111L47.1474 9.35675V9.3676Z" fill="white"/>
<path fill-rule="evenodd" clip-rule="evenodd" d="M9.39475 15.5222C9.39475 14.8492 9.56843 14.1654 9.7421 13.6444C9.92663 13.1016 10.0895 12.7651 10.3283 12.2767C10.6322 11.6688 11.3269 10.605 11.8153 10.1166C11.9239 10.008 12.293 9.61726 12.4449 9.61726C12.7054 9.61726 13.3893 10.4965 13.5412 10.6919C13.6172 10.7896 13.6824 10.8981 13.7692 11.0067C14.5399 12.027 15.4734 13.97 15.4734 15.2834C15.4734 15.4897 15.4951 15.8804 15.1369 15.8804H9.7421C9.54672 15.8804 9.40561 15.7176 9.40561 15.5222H9.39475ZM8.65663 15.8261V15.6525C8.65663 15.088 8.78689 14.4693 8.96056 13.97C9.12338 13.4707 9.2862 13.0582 9.52501 12.5806L10.2306 11.3106C10.3608 11.0935 10.5019 10.909 10.6322 10.7027L10.9036 10.3337C10.947 10.2685 10.9904 10.2143 11.0447 10.1491C11.2726 9.86692 12.0324 8.91171 12.4232 8.91171C12.5535 8.91171 12.7706 9.07453 12.8574 9.13965C12.9877 9.2482 13.0745 9.33504 13.1939 9.45444C13.259 9.51957 13.3024 9.56299 13.3676 9.62812C13.411 9.67153 13.411 9.68239 13.4436 9.71495C13.4761 9.74752 13.4978 9.75837 13.5195 9.80179C14.3988 10.8438 15.2454 12.1681 15.7339 13.4707C16.027 14.2522 16.2006 14.8275 16.2006 15.8261C16.2006 16.662 15.2129 16.4666 14.6267 16.4666H10.7516C10.5562 16.4666 10.4259 16.4883 10.2306 16.4883C9.65526 16.4883 9.07996 16.6077 8.8086 16.2495C8.70005 16.0975 8.67834 15.989 8.67834 15.8479L8.65663 15.8261Z" fill="white"/>
<path fill-rule="evenodd" clip-rule="evenodd" d="M10.3174 13.9049C10.3174 14.3825 10.7842 14.2956 11.0555 14.2956H13.9103C14.2142 14.2956 14.2142 14.2631 14.2142 14.7841C14.2142 14.8926 14.1817 14.9686 14.0731 14.9686H10.9036C10.6322 14.9686 10.6865 14.8818 10.6865 14.4476H10.1654C10.1654 14.5236 10.1437 14.5236 10.1437 14.6104C10.1437 14.8709 10.0786 15.4137 10.5019 15.4137H14.3771C14.5616 15.4137 14.7353 15.2726 14.7353 15.088C14.7353 14.7515 14.757 14.1979 14.4965 13.9808C14.3662 13.8723 14.2359 13.8723 13.9971 13.8723H10.8927C10.8059 13.7529 10.8384 13.8289 10.8384 13.4924C10.8384 12.8303 11.3595 12.027 11.7502 11.5277C11.7936 11.4626 11.8262 11.4408 11.8696 11.3866C11.9565 11.278 12.3038 10.909 12.4666 10.909C12.5426 10.909 12.8465 11.2997 12.9008 11.3757C13.1071 11.6797 12.9442 11.6037 13.5847 11.6037C13.5087 11.4843 13.4327 11.3757 13.3459 11.2563L13.0962 10.9198C12.9985 10.8004 12.6403 10.3662 12.4666 10.3662C12.3255 10.3662 12.0542 10.6267 11.9456 10.7244C11.7611 10.8764 11.6634 10.9958 11.5114 11.1695L11.0555 11.7882C10.871 12.0596 10.6973 12.3852 10.5671 12.7108C10.4368 13.0473 10.3391 13.525 10.3391 13.9049H10.3174Z" fill="white"/>
</svg>
