<?xml version="1.0" encoding="UTF-8"?>
<!DOCTYPE svg PUBLIC "-//W3C//DTD SVG 1.1//EN" "http://www.w3.org/Graphics/SVG/1.1/DTD/svg11.dtd">
<!-- Creator: CorelDRAW 2018 (64-Bit) -->
<svg xmlns="http://www.w3.org/2000/svg" xml:space="preserve" width="5.4187mm" height="2.2012mm" version="1.1" style="shape-rendering:geometricPrecision; text-rendering:geometricPrecision; image-rendering:optimizeQuality; fill-rule:evenodd; clip-rule:evenodd"
viewBox="0 0 6.62 2.69"
 xmlns:xlink="http://www.w3.org/1999/xlink">
 <defs>
  <style type="text/css">
   <![CDATA[
    .fil3 {fill:none}
    .fil0 {fill:black}
    .fil1 {fill:white}
    .fil2 {fill:white;fill-rule:nonzero}
   ]]>
  </style>
   <clipPath id="id0">
    <path d="M6.62 0l0 2.69 -6.62 0 0 -2.69 6.62 0z"/>
   </clipPath>
 </defs>
 <g id="Слой_x0020_1">
  <metadata id="CorelCorpID_0Corel-Layer"/>
  <g>
  </g>
  <g style="clip-path:url(#id0)">
   <g>
    <g id="_2028819760">
     <g>
      <circle class="fil0" cx="3.31" cy="0.85" r="0.8"/>
      <path class="fil1" d="M2.71 0.31c0.39,-0.03 0.81,-0.03 1.2,0 -0.15,-0.17 -0.36,-0.27 -0.6,-0.27 -0.24,0 -0.45,0.1 -0.6,0.27z"/>
      <path class="fil1" d="M3.91 1.37c-0.38,0.03 -0.82,0.03 -1.21,0 0.15,0.17 0.36,0.28 0.61,0.28 0.24,0 0.46,-0.11 0.61,-0.28z"/>
      <path class="fil1" d="M2.53 0.64c0.52,-0.01 1.03,-0.01 1.55,0 0.02,0.06 0.03,0.13 0.03,0.2 0,0.06 -0.01,0.12 -0.02,0.18 -0.53,0.02 -1.05,0.01 -1.56,0 -0.01,-0.06 -0.02,-0.12 -0.02,-0.18 0,-0.07 0.01,-0.14 0.03,-0.2z"/>
     </g>
     <g>
      <path class="fil2" d="M3.69 1.88c0,0.04 0.03,0.06 0.06,0.06 0.04,0 0.06,-0.03 0.06,-0.06 0,-0.04 -0.03,-0.06 -0.06,-0.06 -0.04,0 -0.06,0.03 -0.06,0.06z"/>
      <path class="fil2" d="M4.03 2.09l-0 0 -0.01 -0.02c-0,-0.01 -0.01,-0.01 -0.02,-0.01l-0.04 0c-0.01,0 -0.02,0.01 -0.02,0.02l0 0.54c0,0.01 0.01,0.02 0.02,0.02l0.08 0c0.01,0 0.02,-0.01 0.02,-0.02l0 -0.43 0 -0c0.03,-0.02 0.06,-0.03 0.12,-0.03 0.07,0 0.09,0.03 0.09,0.07l0 0.39c0,0.01 0.01,0.02 0.02,0.02l0.07 0c0.01,0 0.02,-0.01 0.02,-0.02l0 -0.39c0,-0.12 -0.07,-0.18 -0.2,-0.18 -0.05,0 -0.1,0.02 -0.15,0.04z"/>
      <path class="fil2" d="M3.81 2.08c0,-0.01 -0.01,-0.02 -0.02,-0.02l-0.07 0c-0.01,0 -0.02,0.01 -0.02,0.02l0 0.54c0,0.01 0.01,0.02 0.02,0.02l0.07 0c0.01,0 0.02,-0.01 0.02,-0.02l0 -0.54z"/>
      <path class="fil2" d="M3.56 1.81c0,-0.01 -0.01,-0.02 -0.02,-0.02l-0.07 0c-0.01,0 -0.02,0.01 -0.02,0.02l0 0.8c0,0.01 0.01,0.02 0.02,0.02l0.07 0c0.01,0 0.02,-0.01 0.02,-0.02l0 -0.8z"/>
      <path class="fil2" d="M2.44 2.29c0.01,-0.07 0.02,-0.14 0.13,-0.14 0.09,0 0.11,0.05 0.11,0.14l0 0 -0.24 0 0 -0zm-0.12 0.05c0,0.07 0,0.3 0.24,0.3 0.07,0 0.12,-0 0.19,-0.02 0.01,-0 0.01,-0.01 0.01,-0.02l0 -0.06c0,-0.01 -0,-0.01 -0.01,-0.02 -0.01,-0 -0.01,-0 -0.02,-0 -0.05,0.01 -0.1,0.02 -0.17,0.02 -0.1,0 -0.12,-0.06 -0.13,-0.13l-0 -0 0.33 0c0.01,0 0.02,-0.01 0.02,-0.02l0 -0.03c0,-0.14 -0.02,-0.3 -0.22,-0.3 -0.24,0 -0.24,0.22 -0.24,0.3z"/>
      <path class="fil2" d="M2.99 2.29c0.01,-0.07 0.02,-0.14 0.13,-0.14 0.09,0 0.11,0.05 0.11,0.14l0 0 -0.24 0 0 -0zm-0.12 0.05c0,0.07 0,0.3 0.24,0.3 0.07,0 0.12,-0 0.19,-0.02 0.01,-0 0.01,-0.01 0.01,-0.02l0 -0.06c0,-0.01 -0,-0.01 -0.01,-0.02 -0.01,-0 -0.01,-0 -0.02,-0 -0.05,0.01 -0.1,0.02 -0.17,0.02 -0.1,0 -0.12,-0.06 -0.13,-0.13l-0 -0 0.33 0c0.01,0 0.02,-0.01 0.02,-0.02l0 -0.03c0,-0.14 -0.02,-0.3 -0.22,-0.3 -0.24,0 -0.24,0.22 -0.24,0.3z"/>
      <path class="fil2" d="M4.59 2.29c0.01,-0.07 0.02,-0.14 0.13,-0.14 0.09,0 0.11,0.05 0.11,0.14l0 0 -0.24 0 0 -0zm-0.12 0.05c0,0.07 0,0.3 0.25,0.3 0.07,0 0.12,-0 0.18,-0.02 0.01,-0 0.01,-0.01 0.01,-0.02l0 -0.06c0,-0.01 -0,-0.01 -0.01,-0.02 -0.01,-0 -0.01,-0 -0.02,-0 -0.05,0.01 -0.1,0.02 -0.17,0.02 -0.1,0 -0.12,-0.06 -0.13,-0.13l-0 -0 0.33 0c0.01,0 0.02,-0.01 0.02,-0.02l0 -0.03c0,-0.14 -0.02,-0.3 -0.22,-0.3 -0.25,0 -0.25,0.22 -0.25,0.3z"/>
      <path class="fil2" d="M1.96 2.25c0.12,0 0.16,0.04 0.16,0.13 0,0.07 -0.02,0.13 -0.16,0.13 0,0 -0.17,0 -0.17,0 0,-0 0,-0.27 0,-0.27 0,0 0.17,0 0.17,0zm-0.01 -0.35c0.12,0 0.14,0.06 0.14,0.12 0,0.08 -0.04,0.12 -0.13,0.12 0,0 -0.17,0 -0.17,0 0,-0 0,-0.24 0,-0.24 0,0 0.16,0 0.16,0zm-0.26 -0.11c-0.01,0 -0.02,0.01 -0.02,0.02l0 0.8c0,0.01 0.01,0.02 0.02,0.02l0.26 0c0.19,0 0.29,-0.09 0.29,-0.25 0,-0.09 -0.04,-0.16 -0.11,-0.2 0,0 -0,-0 -0,-0 0,-0 0,-0 0,-0 0.05,-0.04 0.09,-0.1 0.09,-0.16 0,-0.09 -0.04,-0.23 -0.27,-0.23l-0.25 0z"/>
     </g>
     <path class="fil2" d="M5.05 2.05c-0,0 -0,0 -0,0l0 0.02c0,0 0,0 0,0 0,0 0.03,0 0.03,0 0,0 0,0.11 0,0.11 0,0 0,0 0,0l0.02 0c0,0 0,-0 0,-0 0,0 0,-0.11 0,-0.11 0,0 0.03,0 0.03,0 0,0 0,-0 0,-0l0 -0.02c0,-0 -0,-0 -0,-0l-0.09 0z"/>
     <path class="fil2" d="M5.27 2.05c-0,0 -0,0 -0,0 0,0 -0.03,0.08 -0.04,0.09 -0,-0.01 -0.04,-0.09 -0.04,-0.09 -0,-0 -0,-0 -0,-0l-0.02 0c-0,0 -0,0 -0,0l0 0.13c0,0 0,0 0,0l0.02 0c0,0 0,-0 0,-0 0,-0 0,-0 0,-0 0,0 -0,-0.08 -0,-0.09 0.01,0.01 0.03,0.08 0.03,0.08 0,0 0,0 0,0l0.01 0c0,0 0,-0 0,-0 0,0 0.03,-0.06 0.03,-0.08 -0,0.02 -0,0.09 -0,0.09 0,0 0,0 0,0 0,0 0,0 0,0l0.02 0c0,0 0,-0 0,-0l0 -0.13c0,-0 -0,-0 -0,-0l-0.02 0z"/>
    </g>
   </g>
  </g>
  <polygon class="fil3" points="6.62,0 6.62,2.69 -0,2.69 -0,0 "/>
 </g>
</svg>
