<?xml version="1.0" encoding="UTF-8"?>
<!DOCTYPE svg PUBLIC "-//W3C//DTD SVG 1.1//EN" "http://www.w3.org/Graphics/SVG/1.1/DTD/svg11.dtd">
<!-- Creator: CorelDRAW 2018 (64-Bit) -->
<svg xmlns="http://www.w3.org/2000/svg" xml:space="preserve" width="5.4187mm" height="2.2012mm" version="1.1" style="shape-rendering:geometricPrecision; text-rendering:geometricPrecision; image-rendering:optimizeQuality; fill-rule:evenodd; clip-rule:evenodd"
viewBox="0 0 6.06 2.46"
 xmlns:xlink="http://www.w3.org/1999/xlink">
 <defs>
  <style type="text/css">
   <![CDATA[
    .fil1 {fill:none}
    .fil0 {fill:white}
   ]]>
  </style>
   <clipPath id="id0">
    <path d="M6.06 0l0 2.46 -6.06 0 0 -2.46 6.06 0z"/>
   </clipPath>
 </defs>
 <g id="Слой_x0020_1">
  <metadata id="CorelCorpID_0Corel-Layer"/>
  <g>
  </g>
  <g style="clip-path:url(#id0)">
   <g>
    <g id="_860456032">
     <path class="fil0" d="M1.5 0.97c0.01,-0.01 -0,-0 0.01,-0.01l0.5 0 -0 0.25 -0.42 -0c-0.06,0.01 -0.05,0.05 -0.09,0.08l0 -0.32zm-0.18 0.66c0.02,0.01 0.15,0.01 0.17,-0 0.02,-0.02 0.01,-0.1 0.01,-0.13 0,-0.05 0,-0.1 0,-0.14l0.4 0c0.02,0.07 0.05,0.14 0.08,0.21 0.03,0.07 0.01,0.08 0.19,0.07 0.06,-0 0.03,-0.03 -0.01,-0.15 -0.02,-0.05 -0.03,-0.09 -0.05,-0.14 0.04,-0.04 0.1,-0.01 0.1,-0.19 -0,-0.07 0.01,-0.22 -0.02,-0.28 -0.04,-0.08 -0.12,-0.07 -0.22,-0.07 -0.1,0 -0.2,0 -0.29,0 -0.07,0 -0.23,-0.01 -0.28,0.02 -0.08,0.05 -0.07,0.11 -0.07,0.22 0,0.09 -0.01,0.53 0.01,0.58z"/>
     <path class="fil0" d="M1.16 1.5c-0.11,-0.02 -0.54,0.01 -0.69,-0l0 -0.19c0.1,-0.01 0.21,-0 0.31,-0 0.06,0 0.09,0.01 0.12,-0.03 0.01,-0.02 0.06,-0.08 0.05,-0.11 -0.02,-0.01 -0.39,-0.01 -0.42,0 -0.02,0.01 -0.02,0.02 -0.04,0.04 -0.01,0.02 -0.02,0.03 -0.03,0.04l-0 -0.28c0.12,-0.01 0.27,-0 0.39,-0 0.17,0 0.17,0.02 0.22,-0.07 0.01,-0.02 0.03,-0.04 0.03,-0.07 -0.03,-0.01 -0.57,-0.01 -0.66,-0.01 -0.12,-0 -0.17,0.04 -0.17,0.16l0 0.59c-0,0.03 -0.01,0.06 0.02,0.06 0.03,0.01 0.59,0 0.67,0 0.06,0 0.11,0.01 0.13,-0.03 0.02,-0.03 0.06,-0.08 0.05,-0.11z"/>
     <path class="fil0" d="M3.79 1.5c-0.04,-0.02 -0.64,0.01 -0.69,-0.01l0 -0.19c0.07,-0.01 0.24,-0 0.32,-0 0.07,0 0.09,0.01 0.12,-0.04 0.02,-0.03 0.05,-0.08 0.05,-0.1 -0.03,-0.01 -0.4,-0.01 -0.43,0 -0.03,0.01 -0.04,0.06 -0.06,0.08l0 -0.28c0.09,-0.02 0.53,0.02 0.57,-0.02 0.02,-0.01 0.07,-0.1 0.07,-0.13 -0.04,-0.01 -0.58,-0 -0.66,-0 -0.12,-0 -0.17,0.05 -0.17,0.16l0 0.5c0,0.19 -0.06,0.15 0.35,0.15 0.11,0 0.22,0 0.34,0 0.06,0 0.11,0.01 0.14,-0.03 0.01,-0.01 0.02,-0.04 0.03,-0.05 0.01,-0.02 0.03,-0.03 0.02,-0.06z"/>
     <path class="fil0" d="M3.97 0.86c0,0.13 -0.01,0.69 0,0.77 0.04,0.01 0.61,0.01 0.71,0.01 0.05,0 0.06,-0.02 0.08,-0.05 0.01,-0.02 0.04,-0.06 0.04,-0.09 -0.08,-0.01 -0.53,-0 -0.64,-0 0,-0.12 0.01,-0.58 -0,-0.67 -0.03,-0.01 -0.11,-0.01 -0.15,-0.01 -0.03,0 -0.04,0.01 -0.04,0.04z"/>
     <path class="fil0" d="M5.78 1.52l0 -0.02c-0.04,-0.02 -0.55,-0 -0.65,-0.01l-0 -0.65c-0.01,-0.04 -0.05,-0.03 -0.08,-0.03 -0.04,0 -0.08,-0 -0.1,0.01 -0.01,0.05 -0.01,0.77 0,0.8 0.03,0.01 0.6,0.01 0.71,0.01 0.07,-0 0.09,-0.08 0.12,-0.12z"/>
     <path class="fil0" d="M2.46 1.63c0.02,0.01 0.15,0.01 0.17,-0 0.02,-0.02 0.01,-0.16 0.01,-0.19 0,-0.11 0.01,-0.57 -0,-0.61 -0.03,-0.01 -0.07,-0.01 -0.11,-0.01 -0.1,-0 -0.07,-0.01 -0.07,0.31 0,0.09 -0.01,0.45 0.01,0.5z"/>
    </g>
   </g>
  </g>
  <polygon class="fil1" points="6.06,0 6.06,2.46 -0,2.46 -0,0 "/>
 </g>
</svg>
