<?xml version="1.0" encoding="UTF-8"?>
<!DOCTYPE svg PUBLIC "-//W3C//DTD SVG 1.1//EN" "http://www.w3.org/Graphics/SVG/1.1/DTD/svg11.dtd">
<!-- Creator: CorelDRAW 2018 (64-Bit) -->
<svg xmlns="http://www.w3.org/2000/svg" xml:space="preserve" width="5.4187mm" height="2.2012mm" version="1.1" style="shape-rendering:geometricPrecision; text-rendering:geometricPrecision; image-rendering:optimizeQuality; fill-rule:evenodd; clip-rule:evenodd"
viewBox="0 0 6.06 2.46"
 xmlns:xlink="http://www.w3.org/1999/xlink">
 <defs>
  <style type="text/css">
   <![CDATA[
    .fil1 {fill:none}
    .fil0 {fill:white}
   ]]>
  </style>
   <clipPath id="id0">
    <path d="M6.06 0l0 2.46 -6.06 0 0 -2.46 6.06 0z"/>
   </clipPath>
 </defs>
 <g id="Слой_x0020_1">
  <metadata id="CorelCorpID_0Corel-Layer"/>
  <g>
  </g>
  <g style="clip-path:url(#id0)">
   <g>
    <g id="_929867056">
     <g>
      <path class="fil0" d="M3.86 0.91c0,-0.24 0.04,-0.3 -0.26,-0.3 -0.1,-0 -0.16,-0 -0.25,0.02 -0.04,0.01 -0.06,0.03 -0.08,0.05 -0.03,0.04 -0.02,0.2 -0.02,0.26 -0,0.14 0.12,0.16 0.25,0.16 0.09,-0 0.28,0.02 0.34,-0.06 0.03,-0.04 0.02,-0.06 0.02,-0.12l0 -0zm-0.39 0.11l0.2 -0c0.14,-0 0.11,-0.06 0.11,-0.26 0,-0.06 -0.06,-0.07 -0.12,-0.07 -0.08,0 -0.26,-0.01 -0.3,0.03 -0.02,0.03 -0.01,0.1 -0.01,0.13 0,0.13 -0.02,0.17 0.12,0.17l0 0z"/>
      <path class="fil0" d="M1.78 1.07c0.02,0.02 0.08,0.03 0.09,-0.01 0.01,-0.04 -0.01,-0.1 0,-0.14l0.36 0.15c0.03,0.01 0.04,0.02 0.06,0.02 0.04,0.01 0.04,0.01 0.08,-0.01l0 -0.04c-0.07,-0.03 -0.15,-0.06 -0.22,-0.09 -0.03,-0.01 -0.06,-0.02 -0.07,-0.04 0.01,-0.01 0,-0 0.01,-0.01 0.03,-0.01 0.19,0.02 0.27,-0.04 0.03,-0.03 0.05,-0.1 0.03,-0.16 -0.03,-0.1 -0.19,-0.1 -0.3,-0.1l-0.3 0c-0.03,0.01 -0.03,0.03 -0.03,0.07 0,0.07 -0,0.35 0,0.4l0 0zm0.09 -0.25c0.03,0.01 0.34,0.01 0.38,0 0.05,-0.01 0.06,-0.02 0.06,-0.07 0,-0.05 -0.01,-0.06 -0.06,-0.07 -0.05,-0.01 -0.33,-0.01 -0.38,-0l-0 0.15 0 -0z"/>
      <path class="fil0" d="M1.09 0.66l0 0.39c0,0.04 0.03,0.05 0.07,0.04 0.03,-0.01 0.02,-0.06 0.02,-0.1 0,-0.09 0,-0.17 -0,-0.26 0.03,0.01 0.16,0.12 0.2,0.15 0.07,0.05 0.13,0.1 0.19,0.15 0.02,0.02 0.06,0.07 0.11,0.05 0.05,-0.02 0.03,-0.1 0.03,-0.14 0,-0.07 0.01,-0.29 -0.01,-0.33 -0.11,-0.03 -0.08,0.04 -0.08,0.25 -0,0.17 0.05,0.13 -0.39,-0.2 -0.02,-0.01 -0.05,-0.04 -0.08,-0.05 -0.05,-0.02 -0.07,0.01 -0.07,0.05l0 0z"/>
      <path class="fil0" d="M0.47 0.79c0,0.21 -0.04,0.3 0.24,0.3l0.29 0c0.04,-0 0.05,-0.02 0.04,-0.06 -0.05,-0.02 -0.25,-0.01 -0.33,-0.01 -0.08,0 -0.08,0 -0.14,-0.03 -0.01,-0.07 -0.01,-0.1 0.02,-0.1l0.36 0c0.04,0 0.09,0.01 0.09,-0.04 0,-0.05 -0.05,-0.04 -0.09,-0.04l-0.39 0c-0.01,-0.13 -0.01,-0.13 0.2,-0.13 0.05,0 0.05,-0.07 -0.01,-0.07 -0.09,-0 -0.19,-0 -0.25,0.05 -0.04,0.03 -0.03,0.06 -0.03,0.12l0 0z"/>
      <path class="fil0" d="M2.61 0.73l0 0.21c0,0.16 0.2,0.14 0.32,0.14 0.06,-0 0.21,0.01 0.24,-0.01l0.01 -0.05c-0.07,-0.05 -0.4,0.02 -0.47,-0.04 -0.02,-0.03 -0.01,-0.09 -0.01,-0.13 0,-0.04 -0,-0.1 0,-0.15 0.03,-0.06 0.35,-0.02 0.46,-0.03 0.01,-0.03 0.02,-0.01 0.01,-0.06 -0.04,-0.02 -0.11,-0.01 -0.16,-0.01 -0.06,0 -0.12,-0 -0.18,0 -0.1,0 -0.23,0.02 -0.23,0.13l0 0z"/>
      <path class="fil0" d="M2.46 0.66c0,0.12 -0,0.32 0,0.42 0.02,0.01 0.04,0.02 0.07,0.01 0.03,-0.01 0.02,-0.08 0.02,-0.13l0 -0.27c0,-0.04 0.01,-0.08 -0.03,-0.08 -0.04,-0.01 -0.07,0 -0.07,0.05l0 0z"/>
     </g>
     <g>
      <path class="fil0" d="M2.19 1.85c0.03,-0.03 0.02,-0.1 0.02,-0.17 0.03,0 0.18,0.06 0.21,0.08l0.21 0.08c0.03,0.01 0.12,0 0.08,-0.05 -0.01,-0.01 -0.08,-0.04 -0.1,-0.05 -0.04,-0.01 -0.07,-0.03 -0.1,-0.04 -0.04,-0.02 -0.09,-0.03 -0.1,-0.05 0.12,0 0.33,0.02 0.33,-0.13 0,-0.03 0,-0.07 -0.01,-0.1 -0.05,-0.09 -0.22,-0.07 -0.34,-0.07 -0.07,0 -0.14,0 -0.21,-0 -0.08,-0 -0.06,0.01 -0.06,0.15 -0,0.07 0,0.14 0,0.21 -0,0.09 -0.02,0.14 0.08,0.13l0 0zm0.02 -0.41c-0,0.02 -0.01,0.13 -0,0.14 0.01,0.02 0.12,0.01 0.14,0.01 0.07,-0 0.24,0.01 0.28,-0.02 0.03,-0.02 0.02,-0.1 -0,-0.11 -0.04,-0.03 -0.36,-0.02 -0.42,-0.02z"/>
      <path class="fil0" d="M0.55 1.85c0.02,-0.04 0.01,-0.07 0.01,-0.15 0,-0.06 -0,-0.12 0,-0.18 0.03,0.01 0.14,0.15 0.16,0.17 0.03,0.03 0.05,0.06 0.08,0.09 0.03,0.03 0.05,0.07 0.1,0.07 0.05,-0 0.06,-0.03 0.1,-0.07l0.19 -0.22c0.02,-0.02 0.02,-0.04 0.04,-0.04l0 0.27c-0,0.04 -0.01,0.06 0.04,0.06 0.08,0 0.06,-0.03 0.06,-0.11 0,-0.04 0,-0.31 -0,-0.33 -0.01,-0.05 -0.08,-0.03 -0.11,-0.01 -0.03,0.04 -0.28,0.33 -0.31,0.36 -0.02,-0.01 -0.21,-0.23 -0.24,-0.27 -0.02,-0.03 -0.06,-0.07 -0.08,-0.09 -0.04,-0.04 -0.1,-0.03 -0.1,0.03l0 0.35c-0,0.08 -0.01,0.1 0.08,0.09l0 -0z"/>
      <path class="fil0" d="M1.52 1.72l0.38 -0c0.02,0.03 0.04,0.05 0.06,0.08 0.07,0.1 0.11,0.04 0.11,0.01 -0,-0.02 -0.2,-0.28 -0.21,-0.3 -0.07,-0.09 -0.13,-0.24 -0.23,-0.11l-0.06 0.08c-0.04,0.07 -0.08,0.11 -0.12,0.17 -0.02,0.03 -0.04,0.05 -0.06,0.08 -0.04,0.05 -0.06,0.07 -0.03,0.09 0.06,0.05 0.09,-0.07 0.15,-0.12l0 0zm0.06 -0.08l0.27 0c-0,-0.01 -0.11,-0.17 -0.13,-0.19 -0.02,0.01 -0.06,0.07 -0.07,0.09 -0.02,0.02 -0.06,0.08 -0.06,0.1l0 0z"/>
      <path class="fil0" d="M2.96 1.42c0,0.11 -0,0.32 0,0.42 0.03,0.02 0.09,0.03 0.09,-0.03l0 -0.32c0.02,0 0.05,0.03 0.07,0.05l0.23 0.19c0.03,0.03 0.14,0.13 0.18,0.13 0.07,0 0.05,-0.07 0.05,-0.15 0,-0.01 0.01,-0.31 -0.01,-0.33 -0,-0 -0.06,-0.01 -0.08,0.01 -0.01,0.02 -0.01,0.15 -0.01,0.18l0 0.16c-0.03,-0.01 -0.23,-0.18 -0.27,-0.21 -0.05,-0.04 -0.09,-0.07 -0.13,-0.11 -0.02,-0.02 -0.05,-0.04 -0.07,-0.05 -0.04,-0.01 -0.07,0.02 -0.07,0.06l0 -0z"/>
      <path class="fil0" d="M4.1 1.85c0.03,0 0.07,0.01 0.09,-0.01 0.02,-0.02 0.01,-0.04 0,-0.06 -0.03,-0.03 -0.43,0.03 -0.46,-0.04l-0 -0.07c0,-0.02 -0,0.01 0,-0.01 0,-0.01 -0,-0 0.01,-0.01 0.04,-0.02 0.38,0.01 0.46,-0.01 0.01,-0.02 0.02,-0.05 -0,-0.06 -0.03,-0.02 -0.35,-0 -0.43,-0.01l-0.03 -0.01c-0.01,-0.02 -0.01,-0.06 -0,-0.08 0.02,-0.06 0.2,-0.03 0.23,-0.05 0.02,-0.02 0.02,-0.04 0,-0.06 -0.02,-0.02 -0.19,-0 -0.23,0.01 -0.04,0.01 -0.08,0.05 -0.09,0.08 -0.01,0.03 -0,0.14 -0,0.17 0,0.14 -0.01,0.18 0.13,0.22 0.05,0.01 0.27,0 0.34,0l0 -0z"/>
      <path class="fil0" d="M4.81 1.79c-0.04,-0.03 -0.21,-0.02 -0.27,-0.02 -0.28,0 -0.2,0 -0.21,-0.36 -0,-0.04 -0.02,-0.05 -0.07,-0.05 -0.04,0.01 -0.03,0.05 -0.03,0.09 0,0.09 -0.01,0.29 0.02,0.33 0.07,0.09 0.27,0.07 0.39,0.07 0.15,0 0.18,0.02 0.17,-0.06l0 0z"/>
      <path class="fil0" d="M5.16 1.85c0.06,0 0.23,0.01 0.28,-0.01 0.01,-0.08 -0.04,-0.06 -0.15,-0.06 -0.06,0 -0.25,0.01 -0.3,-0.01 -0.05,-0.02 -0.03,-0.06 -0.03,-0.16 0,-0.04 -0,-0.09 0,-0.13 0,-0.06 0.02,-0.1 -0.05,-0.1l-0.04 0c-0.02,0.04 -0.01,0.13 -0.01,0.18 -0,0.17 -0.03,0.24 0.11,0.28 0.05,0.02 0.13,0.01 0.19,0.01l-0 0z"/>
      <path class="fil0" d="M5.5 1.41l0 0.39c0,0.04 0.01,0.05 0.05,0.05 0.06,0 0.04,-0.04 0.04,-0.14l0 -0.26c0,-0.04 0.01,-0.07 -0.03,-0.08 -0.04,-0.01 -0.06,0 -0.06,0.04l0 0z"/>
      <path class="fil0" d="M2.81 1.84l0 0 0.06 0c0.02,-0.02 0.02,-0.07 0.02,-0.11l0 -0.25c0,-0.04 0.01,-0.1 -0.02,-0.11 -0,-0 -0.01,-0.01 -0.03,-0 -0.04,0 -0.04,0.02 -0.04,0.06 0,0.08 -0.01,0.37 0.01,0.4l0 -0z"/>
     </g>
    </g>
   </g>
  </g>
  <polygon class="fil1" points="6.06,0 6.06,2.46 -0,2.46 -0,0 "/>
 </g>
</svg>
