<?xml version="1.0" encoding="UTF-8"?>
<!DOCTYPE svg PUBLIC "-//W3C//DTD SVG 1.1//EN" "http://www.w3.org/Graphics/SVG/1.1/DTD/svg11.dtd">
<!-- Creator: CorelDRAW 2018 (64-Bit) -->
<svg xmlns="http://www.w3.org/2000/svg" xml:space="preserve" width="5.4187mm" height="2.2012mm" version="1.1" style="shape-rendering:geometricPrecision; text-rendering:geometricPrecision; image-rendering:optimizeQuality; fill-rule:evenodd; clip-rule:evenodd"
viewBox="0 0 6.06 2.46"
 xmlns:xlink="http://www.w3.org/1999/xlink">
 <defs>
  <style type="text/css">
   <![CDATA[
    .fil1 {fill:none}
    .fil0 {fill:white}
   ]]>
  </style>
   <clipPath id="id0">
    <path d="M6.06 0l0 2.46 -6.06 0 0 -2.46 6.06 0z"/>
   </clipPath>
 </defs>
 <g id="Слой_x0020_1">
  <metadata id="CorelCorpID_0Corel-Layer"/>
  <g>
  </g>
  <g style="clip-path:url(#id0)">
   <g>
    <g id="_928257888">
     <path class="fil0" d="M3.56 1.51c-0.17,0 -0.31,-0.05 -0.43,-0.15 -0.01,-0.01 -0.01,-0.01 -0.02,-0.02 0,-0.01 0.01,-0.01 0.01,-0.02 0.03,-0.03 0.06,-0.08 0.07,-0.12 0.03,-0.05 0.04,-0.1 0.05,-0.16l0.92 0c-0,0.03 -0.02,0.08 -0.03,0.1 -0.02,0.04 -0.02,0.05 -0.05,0.09 -0.02,0.03 -0.04,0.05 -0.06,0.07 -0.07,0.07 -0.13,0.12 -0.24,0.16 -0.07,0.02 -0.14,0.04 -0.23,0.04zm-1.66 -0.46l0.92 0c0,0.06 0.06,0.18 0.09,0.23l0.05 0.06c-0.01,0.01 -0.01,0.01 -0.02,0.02 -0.01,0.01 -0.01,0.01 -0.02,0.02 -0.03,0.02 -0.06,0.04 -0.09,0.06 -0.2,0.1 -0.44,0.1 -0.64,-0.01 -0.01,-0.01 -0.03,-0.02 -0.04,-0.02 -0.01,-0.01 -0.01,-0.01 -0.02,-0.01 -0.05,-0.04 -0.05,-0.03 -0.09,-0.08 -0.02,-0.02 -0.04,-0.05 -0.06,-0.07 -0.03,-0.05 -0.07,-0.12 -0.08,-0.19zm-0.3 -0.09l0 0.09 0.19 0c0,0.04 0.02,0.09 0.04,0.12 0.02,0.04 0.03,0.07 0.05,0.11 0.21,0.31 0.61,0.41 0.95,0.27 0.06,-0.02 0.12,-0.06 0.17,-0.09 0.01,-0.01 0.04,-0.03 0.05,-0.04 0.01,0.01 0.01,0.01 0.02,0.02 0.01,0.01 0.02,0.01 0.02,0.02 0.02,0.01 0.03,0.02 0.05,0.03 0.22,0.14 0.52,0.15 0.76,0.04 0.06,-0.03 0.1,-0.05 0.15,-0.09 0.03,-0.02 0.06,-0.05 0.08,-0.08 0.05,-0.05 0.1,-0.13 0.12,-0.2 0.01,-0.02 0.03,-0.1 0.03,-0.13l0.19 0 0 -0.09c0,-0.01 -0,-0.01 -0.01,-0.01l-1.31 0c-0.02,0 -0.01,0.06 -0.02,0.09 -0.01,0.07 -0.05,0.16 -0.09,0.21 -0.01,0.01 -0.01,0.01 -0.01,0.02 -0.04,-0.03 -0.09,-0.16 -0.1,-0.22 -0,-0.01 -0.01,-0.03 -0.01,-0.05 -0,-0.02 0.01,-0.04 -0.01,-0.04l-1.31 0c-0.01,0 -0.01,0 -0.01,0.01z"/>
     <path class="fil0" d="M3.11 0.34c0.04,-0.02 0.05,-0.05 0.13,-0.09 0.05,-0.03 0.09,-0.04 0.15,-0.06 0.2,-0.05 0.42,-0.01 0.58,0.12 0.01,0.01 0.02,0.01 0.03,0.02 0.01,0.01 0.01,0.01 0.01,0.01 0.04,0.03 0.01,0.01 0.04,0.04 0.01,0.01 0.02,0.02 0.02,0.03 0.02,0.02 0.03,0.04 0.04,0.06 0.03,0.05 0.04,0.09 0.06,0.15l-0.85 0c-0.02,0 -0.07,0 -0.08,-0l-0.02 -0.07c-0.03,-0.1 -0.07,-0.14 -0.12,-0.22zm-0.29 0.29l-0.93 0c0,-0.03 0.03,-0.09 0.04,-0.12 0.02,-0.05 0.07,-0.12 0.11,-0.16 0.16,-0.16 0.41,-0.22 0.64,-0.16 0.07,0.02 0.13,0.04 0.19,0.08 0.01,0.01 0.02,0.01 0.03,0.02 0.01,0.01 0.02,0.01 0.03,0.02 0.01,0.01 0.02,0.02 0.03,0.02l-0.04 0.06c-0.03,0.04 -0.05,0.09 -0.07,0.14 -0.01,0.03 -0.01,0.06 -0.02,0.09zm-1.04 0l-0.18 0 0 0.1 1.33 0c0,-0.11 0.02,-0.17 0.06,-0.25 0.01,-0.01 0.01,-0.02 0.02,-0.03 0.01,-0.02 0.01,-0.03 0.03,-0.03 0,0.01 0.01,0.02 0.02,0.03 0.02,0.03 0.04,0.07 0.05,0.1 0.02,0.05 0.03,0.11 0.03,0.18l1.33 0 0 -0.1 -0.18 0c-0.02,-0.07 -0.04,-0.14 -0.08,-0.21 -0.06,-0.09 -0.13,-0.17 -0.22,-0.23 -0.05,-0.03 -0.1,-0.06 -0.16,-0.08 -0.08,-0.03 -0.12,-0.03 -0.2,-0.04 -0.01,-0 -0.03,0 -0.04,-0 -0.06,-0.01 -0.14,0 -0.2,0.01 -0.05,0.01 -0.1,0.02 -0.14,0.04 -0.07,0.03 -0.14,0.07 -0.2,0.11 -0.01,0.01 -0.01,0.02 -0.03,0.02 -0.02,-0.02 -0.04,-0.04 -0.1,-0.08 -0.28,-0.17 -0.63,-0.15 -0.9,0.05 -0.06,0.04 -0.12,0.11 -0.16,0.17 -0.02,0.03 -0.04,0.07 -0.06,0.1 -0.01,0.03 -0.03,0.09 -0.04,0.13z"/>
     <path class="fil0" d="M1.59 2.38l0.12 0 0 -0.39c0,0 0,0 0,0.01 0,0 0,0 0.01,0.01l0.13 0.18c0.01,0.01 0.01,0.02 0.02,0.03 0.01,-0.01 0.01,-0.02 0.02,-0.03l0.14 -0.19 0 0.35c-0,0.05 -0.02,0.04 0.12,0.04l0 -0.58c-0.12,0 -0.11,-0.01 -0.14,0.03l-0.15 0.21c-0.01,-0.01 -0.14,-0.19 -0.16,-0.22 -0.01,-0.01 -0.01,-0.01 -0.01,-0.02l-0.12 0 0 0.58z"/>
     <path class="fil0" d="M3.48 2.09c0,-0.1 0.07,-0.19 0.16,-0.19 0.05,0 0.11,0 0.15,0.05 0.11,0.13 0.03,0.32 -0.13,0.32 -0.11,0 -0.18,-0.09 -0.18,-0.18zm-0.12 -0.02c0,0.06 0,0.1 0.03,0.15 0.05,0.1 0.15,0.17 0.28,0.17 0.09,-0 0.15,-0.03 0.21,-0.09 0.03,-0.03 0.05,-0.05 0.06,-0.09 0.09,-0.23 -0.07,-0.43 -0.26,-0.43 -0.06,0 -0.09,0 -0.14,0.03 -0.03,0.01 -0.06,0.04 -0.08,0.06 -0.02,0.02 -0.04,0.05 -0.06,0.08 -0.01,0.03 -0.03,0.07 -0.03,0.11z"/>
     <path class="fil0" d="M3.09 2.04l-0.15 0 0 -0.14 0.15 0c0.04,0 0.08,0.02 0.08,0.06 0,0.05 -0.03,0.07 -0.08,0.07zm-0.27 0.34l0.12 0 0 -0.32c0.01,0.01 0.02,0.03 0.03,0.04l0.22 0.28 0.14 0c-0.03,-0.05 -0.17,-0.21 -0.2,-0.25 0.02,0 0.05,-0.01 0.06,-0.01 0.08,-0.04 0.14,-0.19 0.03,-0.28 -0.03,-0.03 -0.08,-0.04 -0.14,-0.04l-0.27 0 0 0.58z"/>
     <path class="fil0" d="M2.29 2.38l0.44 0 0 -0.11 -0.31 0 0 -0.15 0.25 0 0 -0.1c0,-0.01 -0,-0.01 -0.01,-0.01l-0.24 0 0 -0.11 0.3 0 0 -0.11 -0.43 0 0 0.58z"/>
     <path class="fil0" d="M4.02 1.95c0,0.21 0.32,0.15 0.32,0.26 0,0.07 -0.09,0.06 -0.13,0.06 -0.05,0 -0.11,-0.02 -0.15,-0.05 -0.01,-0.01 -0.03,-0.02 -0.04,-0.03l0 0.13c0.11,0.07 0.29,0.09 0.39,0.01 0.07,-0.06 0.08,-0.17 0.02,-0.24 -0.04,-0.04 -0.08,-0.06 -0.14,-0.07 -0.04,-0.01 -0.14,-0.03 -0.14,-0.07 0,-0.08 0.16,-0.05 0.21,-0.04 0.03,0.01 0.07,0.03 0.08,0.03l0 -0.12c-0.04,-0.01 -0.06,-0.04 -0.2,-0.04 -0.1,0 -0.21,0.05 -0.21,0.17z"/>
     <path class="fil0" d="M1.58 0.84c0,0.04 0.03,0.06 0.05,0.06 0.04,0 0.05,-0.03 0.06,-0.03l1.29 0c0.01,0 0.02,0.03 0.05,0.03 0.02,0 0.04,-0.02 0.05,-0.03l1.31 0c0.01,0.05 0.09,0.05 0.1,-0.01 0,-0.01 -0,-0.03 -0.01,-0.04 -0.03,-0.03 -0.08,-0.01 -0.08,0.01l-1.31 0c-0.02,-0.03 -0.03,-0.03 -0.05,-0.03 -0.02,0 -0.03,0.02 -0.04,0.03l-1.31 0c-0.01,-0.05 -0.1,-0.04 -0.1,0.01z"/>
    </g>
   </g>
  </g>
  <polygon class="fil1" points="6.06,0 6.06,2.46 -0,2.46 -0,0 "/>
 </g>
</svg>
