<svg width="64" height="26" viewBox="0 0 64 26" fill="none" xmlns="http://www.w3.org/2000/svg">
<path fill-rule="evenodd" clip-rule="evenodd" d="M49.4658 17.8619H49.5427V17.6696L49.6003 17.66C49.6484 17.66 49.6772 17.6696 49.6965 17.6793C49.7349 17.6985 49.7445 17.7273 49.7445 17.7754V17.8138L49.7541 17.8331V17.8427H49.831V17.8331C49.8214 17.8331 49.8214 17.8235 49.8214 17.8138C49.8118 17.8042 49.8214 17.785 49.8214 17.7754V17.7465C49.8214 17.7177 49.8118 17.6985 49.7926 17.6696C49.783 17.6504 49.7541 17.6312 49.7157 17.6216C49.7445 17.6216 49.7638 17.612 49.783 17.5927C49.8118 17.5831 49.831 17.5447 49.831 17.5062C49.8214 17.4486 49.8022 17.4005 49.7638 17.3909C49.7349 17.3717 49.6869 17.3717 49.6292 17.3717H49.4658V17.8523V17.8619ZM49.7061 17.6024C49.6869 17.612 49.6676 17.612 49.6196 17.612H49.5427V17.439H49.61C49.658 17.439 49.6965 17.4486 49.7157 17.4582C49.7349 17.4678 49.7445 17.4966 49.7445 17.5351C49.7445 17.5639 49.7349 17.5928 49.6965 17.6024H49.7061ZM49.9368 17.3236C49.8599 17.2371 49.7541 17.189 49.6292 17.189C49.5138 17.189 49.4081 17.2371 49.3312 17.314C49.2447 17.4005 49.1966 17.4966 49.1966 17.6216C49.1966 17.7369 49.2447 17.8523 49.3216 17.9292C49.4081 18.0157 49.5138 18.0542 49.6292 18.0638C49.7445 18.0638 49.8599 18.0157 49.9368 17.9292C50.0137 17.8523 50.0617 17.7369 50.0617 17.6216C50.0617 17.5062 50.0233 17.4005 49.9368 17.3236ZM49.8983 17.3621C49.9752 17.4293 50.0137 17.5159 50.0041 17.6216C50.0137 17.7177 49.9656 17.8138 49.8983 17.8811C49.8214 17.9484 49.7349 17.9869 49.6388 17.9869C49.5331 17.9869 49.4465 17.9484 49.3793 17.8811C49.312 17.8042 49.2735 17.7177 49.2639 17.612C49.2735 17.5062 49.3024 17.4197 49.3793 17.3524C49.4562 17.2852 49.5331 17.2371 49.6484 17.2371C49.7445 17.2371 49.8407 17.2755 49.9079 17.3524L49.8983 17.3621Z" fill="white"/>
<path fill-rule="evenodd" clip-rule="evenodd" d="M26.8669 17.7081C25.2712 16.7661 23.1468 16.5834 19.7056 17.5062C16.1201 18.3329 14.4668 18.852 13.1018 17.7369C13.0537 17.7177 13.121 17.7658 13.1018 17.7369C12.5443 17.2179 12.3616 16.4104 12.5154 15.2665C12.8903 13.296 13.9189 11.3927 15.7548 9.28757C16.7738 8.19175 17.7254 7.24973 18.9846 6.87484C19.9459 6.63453 19.8594 7.35546 19.744 7.4612C19.6287 7.4612 19.4172 7.48043 19.2538 7.58616C19.1192 7.68229 18.7732 7.98989 18.7539 8.41284C18.7347 9.05687 19.4172 8.91268 19.7248 8.55702C20.042 8.16291 20.513 7.40353 20.1381 6.70182C19.9747 6.45189 19.7152 6.25003 19.273 6.21158C18.3694 6.14429 17.1871 6.65375 16.1489 7.27856C13.9861 8.72044 12.2559 10.7198 11.285 12.9115C10.7179 14.2284 10.2181 16.1124 10.9871 17.6408C11.5926 18.7078 12.823 19.2653 14.2841 19.1404C15.3223 19.0346 16.5623 18.7078 17.3986 18.5155C18.2349 18.3233 22.522 16.9007 23.9447 19.3422C23.9447 19.3422 24.3676 18.4579 25.5884 18.4483C26.7996 18.4483 27.6647 18.7174 28.8182 19.3038C28.8182 19.3038 28.2703 18.5636 26.8572 17.7273L26.8669 17.7081Z" fill="white"/>
<path fill-rule="evenodd" clip-rule="evenodd" d="M19.8401 11.2966C19.7248 11.6042 19.571 11.8926 19.571 11.8926C19.571 11.8926 19.4941 11.8829 19.3018 11.8541C18.9173 11.7868 18.6674 11.5273 18.5809 11.2485C18.4655 10.7294 18.9462 10.2969 19.148 10.1527C19.4172 9.97967 19.7056 9.96044 19.8497 10.0854C19.9843 10.2008 20.0035 10.3738 20.0035 10.5468C20.0035 10.7871 19.9555 10.9986 19.8497 11.3062L19.8401 11.2966ZM18.6962 13.3248C17.9657 14.3341 17.1967 14.9205 16.8603 14.5552C16.62 14.2764 16.7353 13.9016 16.841 13.5843L16.8795 13.469C17.1679 12.7096 17.6293 12.0464 18.0714 11.4312L18.0907 11.4215C18.0907 11.4215 18.1003 11.4215 18.1003 11.4312C18.3886 11.9406 18.9173 12.1905 19.3114 12.2867C19.3211 12.2867 19.3211 12.2963 19.3211 12.2963C19.3114 12.3924 18.7059 13.3152 18.7059 13.3152L18.6962 13.3248ZM26.5592 11.7484C26.8188 11.4023 27.5686 10.4795 27.7608 10.3257C28.376 9.80665 28.674 10.0566 28.6355 10.1815C28.5875 10.3257 28.3279 10.7391 28.1165 11.0947C27.434 12.2194 26.5592 13.6324 26.5592 13.6324C26.2805 14.0457 25.8768 14.536 25.5211 14.6513C25.3769 14.6994 25.1366 14.6513 25.1558 14.3822C25.1943 14.065 25.5211 13.0845 26.5592 11.7484ZM20.0997 9.52788C19.2922 9.02804 17.6869 9.98928 16.4085 11.6426C15.2261 13.1229 14.7263 14.8436 15.2838 15.6414C16.1201 16.5738 17.6485 15.2089 18.3021 14.4783L18.379 14.4014C18.8212 13.9496 19.1576 13.3921 19.4941 12.8634C19.4941 12.8634 19.7921 12.3924 19.8113 12.3636C19.9939 12.3347 20.2246 12.2867 20.4842 12.2098C20.4842 12.2098 19.6287 13.5651 19.6094 14.5552C19.6094 14.7763 19.619 15.6606 20.5034 15.9202C21.6953 16.1413 22.6181 15.2281 23.4544 14.4495C23.4544 14.4495 23.5986 14.3149 23.6851 14.2476C23.6563 14.3245 23.6371 14.4206 23.6371 14.4206C23.3006 15.5741 23.762 15.8144 24.0504 15.901C24.9347 16.1413 25.9825 14.9109 25.9825 14.9109C25.9633 15.2954 25.9056 15.7279 26.3093 15.8625C26.713 16.0067 27.1168 15.7952 27.4244 15.6126C28.5394 14.8628 29.4238 13.6805 30.1351 12.6904H29.6737C29.6737 12.6904 28.5394 14.2476 27.8089 14.584C27.8089 14.584 27.6743 14.6513 27.5974 14.6033C27.5109 14.5264 27.5397 14.3533 27.607 14.238C27.607 14.2284 30.4235 9.51827 30.4235 9.51827H29.0777C29.0777 9.51827 28.9335 9.74897 28.9239 9.7682C28.9143 9.7682 28.8951 9.72975 28.8759 9.72013C28.0396 8.62431 26.1747 10.3161 24.7713 12.2674C24.2234 13.0268 23.5409 13.8727 22.82 14.4783C22.82 14.4783 21.7626 15.4203 21.3108 14.7475C21.1378 14.4687 21.1955 14.065 21.2916 13.7862C21.8107 12.3443 22.7239 11.037 23.7524 10.2488C24.0408 10.0277 24.3676 9.97967 24.5214 10.0662C24.6656 10.1527 24.6944 10.3642 24.6079 10.4987C24.358 10.4891 24.1657 10.566 24.0119 10.7294C23.714 11.037 23.6178 11.4215 23.714 11.6522C23.7909 11.806 24.0408 11.8829 24.3099 11.6715C24.704 11.3831 25.0982 10.6622 25.0789 10.1911C25.0693 9.91238 24.8963 9.64323 24.6752 9.50866C24.3195 9.31641 23.7812 9.36447 23.4448 9.52788C22.9738 9.6913 22.2432 10.2777 21.8203 10.7294C21.2916 11.2966 20.3688 11.9406 20.0804 11.8733C20.167 11.6234 20.9456 10.1142 20.1189 9.5375L20.0997 9.52788Z" fill="white"/>
<path fill-rule="evenodd" clip-rule="evenodd" d="M32.6055 9.48943L31.3655 9.49905L30.6446 10.6525H31.8942L32.6055 9.48943Z" fill="white"/>
<path fill-rule="evenodd" clip-rule="evenodd" d="M45.9861 17.3813C45.9861 17.3813 45.5535 17.91 45.2363 17.7273C45.0633 17.6408 44.996 17.3428 45.5343 16.2951C45.5343 16.2951 46.6397 14.2188 47.8989 13.3056C48.0624 13.1902 48.3123 13.0845 48.4468 13.1806C48.6487 13.3152 48.4853 13.4786 48.3027 13.815C48.0816 14.2092 47.8509 14.5648 47.7067 14.7955C47.1876 15.6799 46.6589 16.5738 45.9957 17.3813H45.9861ZM40.4397 15.1512C40.4012 15.1704 39.7476 14.9493 39.5745 14.3533C39.3919 13.6997 40.1897 12.9691 40.7569 13.0845C41.026 13.1326 40.978 13.7189 40.9011 14.0265C40.8338 14.363 40.6511 14.8051 40.4397 15.1608V15.1512ZM37.8058 17.6408C37.7386 17.5351 37.7193 17.4197 37.7193 17.314C37.7001 16.5834 38.5075 15.2954 39.0939 14.5648C39.3342 15.1031 39.8821 15.3915 40.2186 15.5357C39.8148 16.4104 38.4114 18.2848 37.8155 17.6408H37.8058ZM49.3696 7.98028C49.5427 7.94183 49.5715 7.92261 49.5715 7.92261C49.7926 7.52849 50.0233 7.11516 49.9272 6.58647C49.8983 6.42306 49.7638 6.28849 49.6003 6.25965C49.062 6.16352 48.3219 6.62492 47.9566 6.87485C45.813 8.36478 43.4003 11.4119 41.5932 15.0551C41.4586 15.1512 40.9491 15.2665 40.8626 15.2089C41.0452 14.8628 41.2663 14.3822 41.3817 13.8631C41.4009 13.7189 41.4201 13.5651 41.4201 13.4113C41.4105 13.1037 41.3528 12.7384 41.0356 12.5943C40.728 12.4405 40.2474 12.5077 39.9686 12.6327C38.6614 13.1614 37.6905 14.4399 36.9888 15.4972C36.6139 16.1605 36.239 16.8814 36.1333 17.6985C36.0564 18.3425 36.2102 18.7559 36.5947 18.9673C36.9888 19.15 37.479 18.9481 37.6713 18.852C38.9978 18.1791 39.9206 16.8526 40.6415 15.6222C40.6704 15.6222 41.0645 15.6126 41.3625 15.5357H41.3721C41.3625 15.5933 41.2087 16.0355 41.2087 16.0355C40.7473 17.3332 40.5358 18.2079 40.978 18.7366C41.6028 19.4672 42.6313 18.7078 43.4676 17.6985C43.2946 18.9097 43.9482 19.0923 44.4384 18.9962C45.0152 18.8424 45.6592 18.256 45.9476 17.958C45.8515 18.3041 45.8899 18.9385 46.409 18.9866C46.7647 19.0538 47.0242 18.8808 47.3318 18.7174C48.4372 18.131 49.7638 16.1989 50.1098 15.6702H49.6484C49.1678 16.3623 48.543 17.2948 47.7644 17.7369C47.6202 17.8234 47.4375 17.7465 47.5144 17.5447C47.6875 17.0256 48.3892 15.9682 48.3892 15.9682L50.3501 12.5943L48.9948 12.6039C48.9275 12.7192 48.7929 12.9403 48.7929 12.9403C48.7256 12.8442 48.6103 12.6615 48.4661 12.575C48.1296 12.3828 47.649 12.4693 47.3126 12.6615C45.8611 13.469 44.8037 15.0935 43.9674 16.3431C43.9674 16.3431 43.0927 17.7369 42.6025 17.8523C42.218 17.8811 42.266 17.3813 42.2756 17.2659C42.4198 16.4489 42.7659 15.651 43.1119 14.9397C43.804 14.4687 44.6115 13.8631 45.342 13.1902C46.8416 11.8156 48.1008 10.2777 48.4084 9.79704C48.543 9.60479 48.543 9.60479 48.591 9.52789C48.591 9.52789 48.3988 9.57595 48.2738 9.58556C48.1873 9.59518 48.1008 9.6144 48.1008 9.6144C48.0047 9.75859 47.9951 9.77781 47.9374 9.8451C46.707 11.4696 44.2846 13.7766 43.5445 14.1226C43.8713 13.3536 46.0149 9.68169 47.8509 7.92261L48.1393 7.65346C48.5814 7.23051 49.0717 6.78833 49.3889 6.74988C49.783 6.69221 49.3889 7.40353 49.1197 8.03796C49.1197 8.03796 49.2735 8.00912 49.3793 7.98028H49.3696Z" fill="white"/>
<path fill-rule="evenodd" clip-rule="evenodd" d="M40.2474 7.36507C40.0359 9.59517 38.2576 10.8832 37.8155 10.9794C37.5463 11.037 37.0753 10.9121 37.4886 9.98928C38.0846 8.73966 39.142 7.67267 40.2474 7.11515C40.2474 7.11515 40.257 7.20166 40.2378 7.36507H40.2474ZM46.3417 7.88415C46.3417 7.88415 44.7364 6.99019 44.102 6.66336C42.6409 5.91359 41.4682 6.18274 40.8626 6.3846C40.6223 6.47111 40.4108 6.5384 40.4108 6.5384C39.9591 6.077 39.2285 6.12506 38.6902 6.25003C36.7485 6.78832 34.9509 8.09562 33.0188 10.3449C31.6058 12.1136 30.7311 13.642 30.2697 15.1416C29.9044 16.1605 29.7987 17.6408 30.683 18.5252C31.4424 19.2653 32.4421 19.1115 33.1438 18.8328C34.6626 18.1118 36.0372 16.5546 36.71 14.7763C36.8734 14.2476 37.0465 13.5074 36.7677 12.9307C36.6235 12.6423 36.3159 12.4981 35.9699 12.5174C34.9125 12.6135 33.9128 13.4498 33.3649 14.6417C33.0861 15.2665 32.9323 15.7568 32.8266 16.5738C33.163 16.2085 33.8263 15.6222 34.5857 15.2761C34.5857 15.2761 34.6818 14.5168 35.2105 13.815C35.4124 13.5363 35.8161 13.0749 36.2582 13.1998C36.6524 13.3248 36.5178 14.363 36.0083 15.3626C35.6142 16.1028 35.0375 16.843 34.4415 17.3524C33.9128 17.785 33.1246 18.3041 32.4421 17.91C32.0095 17.6696 31.7884 17.1602 31.8269 16.5065C32.0288 14.6417 32.9131 13.046 34.182 11.2293C35.4796 9.53749 36.9311 7.81686 38.8728 6.89406C39.267 6.70181 39.6322 6.64414 39.959 6.75949C39.959 6.75949 38.1327 7.73035 37.2676 9.50865C37.0465 9.96044 36.7389 10.5756 37.0561 11.1043C37.2195 11.3927 37.5559 11.4119 37.729 11.3927C38.7671 11.2773 39.7283 9.90276 40.0552 9.32602C40.3724 8.73966 40.6608 7.9995 40.6608 7.25934C40.6608 7.17282 40.6608 7.05747 40.6511 6.97096C41.1606 6.71142 42.218 7.16321 42.218 7.16321C42.9581 7.39391 44.5826 8.56663 45.294 8.94152C45.7842 8.37438 46.2072 7.98027 46.3417 7.86492V7.88415Z" fill="white"/>
<path fill-rule="evenodd" clip-rule="evenodd" d="M50.9269 7.60539C50.0137 8.10524 49.1774 8.43206 48.0335 8.384C47.9759 8.39361 47.7932 8.36477 47.7932 8.36477C47.7932 8.36477 47.6394 8.54741 47.2934 8.95113C46.9377 9.35486 46.8608 9.47021 46.8608 9.47021C46.8608 9.47021 47.0242 9.51827 47.178 9.53749C48.8025 9.79703 50.3501 8.9223 51.3018 8.09562C52.3591 7.20166 52.9071 6.08662 52.9071 6.08662C52.9071 6.08662 52.1092 6.96135 50.9269 7.60539Z" fill="white"/>
</svg>
