<svg width="64" height="26" viewBox="0 0 64 26" fill="none" xmlns="http://www.w3.org/2000/svg">
<path d="M15.2487 6.73763H16.3731L15.7221 9.52894L15.5544 10.2095C15.5446 10.2687 15.5347 10.3476 15.515 10.4364C15.515 10.6238 15.6038 10.7816 15.7714 10.8999C15.9391 11.0183 16.1956 11.0775 16.5211 11.0775C16.817 11.0775 17.0635 11.0282 17.2509 10.9295C17.4482 10.8309 17.5962 10.6928 17.6948 10.5054C17.8033 10.318 17.9019 9.99252 18.0104 9.53881L18.6417 6.73763H19.7661L19.1151 9.6473C18.977 10.2194 18.8192 10.6435 18.6417 10.9493C18.4641 11.255 18.188 11.4917 17.8329 11.6791C17.4679 11.8665 17.0142 11.9652 16.4619 11.9652C15.801 11.9652 15.298 11.8172 14.9429 11.5213C14.5878 11.2254 14.4202 10.8506 14.4202 10.3871C14.43 10.2884 14.4399 10.1898 14.4596 10.0813C14.4695 10.0024 14.5188 9.79526 14.5977 9.44018L15.2388 6.73763H15.2487ZM19.4505 11.8665L19.628 11.0578L22.7941 7.59574H20.2297L20.4171 6.73763H24.3624L24.2046 7.53656L21.0089 11.0183C21.3442 11.0084 21.5415 11.0084 21.5908 11.0084C21.8275 11.0084 22.1629 11.0084 22.5771 10.9986H23.8692L23.6818 11.8567H19.4307L19.4505 11.8665ZM24.244 11.8665L25.3882 6.73763H27.2622C27.6666 6.73763 27.9526 6.74749 28.1203 6.76722C28.3866 6.80667 28.6135 6.87571 28.8009 6.97435C28.9883 7.08284 29.1264 7.22093 29.225 7.39847C29.3236 7.57601 29.3729 7.76341 29.3729 7.9804C29.3729 8.26644 29.2842 8.51302 29.1165 8.72015C28.9488 8.92728 28.6825 9.0851 28.3274 9.19359C28.6036 9.26263 28.8305 9.39087 28.9883 9.57827C29.1461 9.76567 29.225 9.9728 29.225 10.2095C29.225 10.5153 29.1362 10.8112 28.9488 11.0873C28.7614 11.3635 28.505 11.5608 28.1795 11.689C27.854 11.8074 27.4003 11.8665 26.8282 11.8665H24.244ZM26.049 8.80892H26.9071C27.2918 8.80892 27.5778 8.77933 27.7455 8.73002C27.9132 8.6807 28.0414 8.59193 28.1302 8.47357C28.2189 8.35521 28.2584 8.23685 28.2584 8.09876C28.2584 7.97054 28.2189 7.86204 28.14 7.77327C28.0611 7.69437 27.9428 7.63519 27.7948 7.6056C27.7159 7.59574 27.5088 7.58587 27.1932 7.58587H26.3153L26.049 8.79906V8.80892ZM25.546 11.0479H26.6309C27.0847 11.0479 27.3904 11.0183 27.5482 10.969C27.706 10.9098 27.8244 10.821 27.923 10.7027C28.0118 10.5745 28.0611 10.4462 28.0611 10.3081C28.0611 10.1405 27.9921 10.0024 27.854 9.88402C27.7159 9.77553 27.4989 9.71635 27.1833 9.71635H25.832L25.5361 11.0578L25.546 11.0479ZM29.7675 11.8764L30.9116 6.74749H34.9654L34.778 7.6056H31.8486L31.5823 8.76947H34.423L34.2356 9.62758H31.3851L31.0596 11.0183H34.2454L34.058 11.8764H29.7773H29.7675ZM34.8668 11.8764L36.011 6.74749H37.1354L36.6521 8.92729L39.1869 6.74749H40.696L38.2401 8.75961L40.0451 11.8764H38.7628L37.4115 9.43032L36.3364 10.3081L35.9912 11.8764H34.8668ZM40.3508 11.8764L41.495 6.74749H42.6194L41.4752 11.8764H40.3508ZM42.6884 10.2194L43.7635 10.1701C43.7832 10.4857 43.8424 10.7027 43.9411 10.8112C44.1087 10.9887 44.4046 11.0873 44.8485 11.0873C45.2134 11.0873 45.4896 11.0282 45.6474 10.8999C45.8151 10.7717 45.894 10.6238 45.894 10.4462C45.894 10.2983 45.825 10.1701 45.6967 10.0616C45.5981 9.98266 45.3417 9.85443 44.9175 9.68676C44.4934 9.50922 44.1876 9.37114 43.9904 9.25278C43.7931 9.13442 43.6452 8.98646 43.5268 8.79906C43.4183 8.61166 43.3591 8.39466 43.3591 8.14808C43.3591 7.7141 43.5268 7.35902 43.8622 7.07298C44.1975 6.78694 44.6808 6.64886 45.3121 6.64886C45.9532 6.64886 46.4562 6.78694 46.8014 7.07298C47.1565 7.35902 47.3439 7.73382 47.3834 8.1974L46.3083 8.24671C46.2787 8.00013 46.1899 7.81274 46.0222 7.68451C45.8644 7.55628 45.6178 7.48724 45.3022 7.48724C44.9866 7.48724 44.7696 7.53656 44.6414 7.64505C44.5033 7.74368 44.4441 7.88178 44.4441 8.02973C44.4441 8.17768 44.5033 8.29603 44.6216 8.39466C44.74 8.4933 45.0162 8.63138 45.4304 8.79906C46.0617 9.05551 46.4562 9.26264 46.6337 9.42045C46.8902 9.65717 47.0184 9.95307 47.0184 10.318C47.0184 10.7717 46.831 11.1564 46.4463 11.4819C46.0617 11.8074 45.5291 11.9652 44.8485 11.9652C44.375 11.9652 43.9707 11.8863 43.6254 11.7383C43.2802 11.5904 43.0336 11.3832 42.8956 11.1268C42.7575 10.8605 42.6884 10.5646 42.6983 10.2194H42.6884ZM50.007 11.8764H48.8826L49.8393 7.6056H48.2316L48.419 6.74749H52.7391L52.5517 7.6056H50.9736L50.0169 11.8764H50.007ZM55.3233 10.7421H53.1534L52.4926 11.8764H51.3287L54.4258 6.74749H55.6981L56.5858 11.8764H55.5206L55.3431 10.7421H55.3233ZM55.1852 9.88402L54.8597 7.82259L53.6466 9.88402H55.1852ZM61.626 11.8764H60.5805L59.101 8.43412L58.3316 11.8764H57.2861L58.4303 6.74749H59.4758L60.9651 10.1799L61.7345 6.74749H62.78L61.6358 11.8764H61.626Z" fill="white"/>
<path d="M43.6649 15.6639L42.8956 15.6047C42.9843 15.3582 43.1323 15.1708 43.3591 15.0327C43.5761 14.8946 43.8622 14.8255 44.2271 14.8255C44.6019 14.8255 44.8781 14.8946 45.0556 15.0425C45.2332 15.1806 45.3219 15.3582 45.3219 15.5653C45.3219 15.6442 45.3121 15.733 45.3022 15.8316C45.2825 15.9204 45.2332 16.167 45.1345 16.5615C45.0556 16.887 45.0162 17.1138 45.0162 17.2519C45.0162 17.3703 45.0359 17.4985 45.0852 17.6465H44.3159C44.2863 17.5478 44.2666 17.4393 44.2567 17.3407C44.1383 17.459 44.0101 17.5577 43.8622 17.6169C43.7142 17.6859 43.5663 17.7155 43.4084 17.7155C43.1717 17.7155 42.9646 17.6366 42.8166 17.4886C42.6588 17.3407 42.5799 17.1434 42.5799 16.9166C42.5799 16.6503 42.6687 16.4431 42.8364 16.2853C43.0139 16.1275 43.3197 16.0289 43.7635 15.9993C44.1383 15.9697 44.3849 15.9302 44.5131 15.8908C44.5427 15.7823 44.5625 15.7034 44.5625 15.6442C44.5625 15.5653 44.5329 15.4962 44.4638 15.4469C44.3948 15.3976 44.2961 15.368 44.1581 15.368C44.02 15.368 43.9115 15.3976 43.8227 15.4469C43.7438 15.4962 43.6846 15.5752 43.655 15.6738L43.6649 15.6639ZM44.4145 16.3544C44.3652 16.3642 44.306 16.3741 44.2271 16.3839C43.8326 16.4333 43.5761 16.4924 43.4578 16.5812C43.369 16.6404 43.3295 16.7292 43.3295 16.8377C43.3295 16.9264 43.3591 16.9955 43.4282 17.0547C43.4972 17.1138 43.5761 17.1434 43.6846 17.1434C43.803 17.1434 43.9115 17.1138 44.02 17.0645C44.1285 17.0053 44.2074 16.9363 44.2567 16.8574C44.306 16.7686 44.3553 16.6404 44.3948 16.453L44.4145 16.3544ZM46.5154 13.8589H47.2946L47.1466 14.5296H46.3576L46.5055 13.8589H46.5154ZM46.2885 14.8946H47.0776L46.4661 17.6366H45.677L46.2885 14.8946ZM47.7976 14.8946H48.5374L48.4289 15.4075C48.6952 15.0129 48.9911 14.8255 49.3067 14.8255C49.4152 14.8255 49.5434 14.8551 49.6716 14.9045L49.3659 15.5061C49.2968 15.4864 49.2179 15.4667 49.139 15.4667C49.0009 15.4667 48.8629 15.516 48.7248 15.6146C48.5867 15.7132 48.4782 15.8415 48.3993 15.9993C48.3204 16.1571 48.2415 16.4135 48.1626 16.7686L47.9752 17.6267H47.1861L47.7976 14.8847V14.8946ZM52.4432 17.6366H51.7134L51.5753 15.8908L50.6876 17.6366H49.9577L49.6026 14.8946H50.293L50.4903 16.7292L51.3977 14.8946H52.1079L52.1967 16.7292L53.0942 14.8946H53.8833L52.4334 17.6366H52.4432ZM54.8795 15.6639L54.1101 15.6047C54.1989 15.3582 54.3469 15.1708 54.5737 15.0327C54.7907 14.8946 55.0767 14.8255 55.4417 14.8255C55.8165 14.8255 56.0927 14.8946 56.2702 15.0425C56.4477 15.1806 56.5365 15.3582 56.5365 15.5653C56.5365 15.6442 56.5266 15.733 56.5168 15.8316C56.4971 15.9204 56.4477 16.167 56.3491 16.5615C56.2702 16.887 56.2307 17.1138 56.2307 17.2519C56.2307 17.3703 56.2505 17.4985 56.2998 17.6465H55.5305C55.5009 17.5478 55.4811 17.4393 55.4713 17.3407C55.3529 17.459 55.2247 17.5577 55.0767 17.6169C54.9288 17.6859 54.7808 17.7155 54.623 17.7155C54.3863 17.7155 54.1792 17.6366 54.0312 17.4886C53.8734 17.3407 53.7945 17.1434 53.7945 16.9166C53.7945 16.6503 53.8833 16.4431 54.051 16.2853C54.2186 16.1275 54.5343 16.0289 54.9781 15.9993C55.3529 15.9697 55.5995 15.9302 55.7277 15.8908C55.7573 15.7823 55.777 15.7034 55.777 15.6442C55.777 15.5653 55.7474 15.4962 55.6784 15.4469C55.6094 15.3976 55.5107 15.368 55.3726 15.368C55.2346 15.368 55.1261 15.3976 55.0373 15.4469C54.9584 15.4962 54.8992 15.5752 54.8696 15.6738L54.8795 15.6639ZM55.6291 16.3544C55.5798 16.3642 55.5206 16.3741 55.4417 16.3839C55.0472 16.4333 54.7907 16.4924 54.6723 16.5812C54.5836 16.6404 54.5441 16.7292 54.5441 16.8377C54.5441 16.9264 54.5737 16.9955 54.6428 17.0547C54.7118 17.1138 54.7907 17.1434 54.8992 17.1434C55.0176 17.1434 55.1261 17.1138 55.2346 17.0645C55.3431 17.0053 55.422 16.9363 55.4713 16.8574C55.5206 16.7686 55.5699 16.6404 55.6094 16.453L55.6291 16.3544ZM57.1283 14.8946H57.9075L58.1048 16.2656C58.1541 16.6108 58.1837 16.8574 58.1935 16.9955C58.2922 16.7193 58.4401 16.4234 58.6177 16.1176L59.3081 14.8946H60.1366L58.3415 17.9029C58.1936 18.1495 58.0752 18.327 57.9963 18.4257C57.9075 18.5243 57.8089 18.6032 57.6905 18.6624C57.5722 18.7216 57.4242 18.7511 57.2565 18.7511C57.0889 18.7511 56.9015 18.7216 56.6943 18.6722L56.7634 18.1199C56.862 18.1495 56.9508 18.1593 57.0395 18.1593C57.2763 18.1593 57.4735 17.9917 57.6313 17.6465L57.1184 14.9045L57.1283 14.8946ZM59.8999 16.8673L60.6594 16.7489C60.7284 16.8968 60.8073 17.0053 60.906 17.0744C61.0046 17.1336 61.1427 17.173 61.3104 17.173C61.4879 17.173 61.6358 17.1336 61.7345 17.0547C61.8134 17.0053 61.843 16.9363 61.843 16.8673C61.843 16.8179 61.8232 16.7686 61.7838 16.7292C61.7443 16.6897 61.6358 16.6404 61.4583 16.5911C60.9849 16.4431 60.689 16.3248 60.5805 16.236C60.4029 16.0979 60.3142 15.9302 60.3142 15.7132C60.3142 15.4962 60.4029 15.3088 60.5706 15.151C60.8073 14.934 61.1624 14.8255 61.6358 14.8255C62.0107 14.8255 62.2868 14.8946 62.4841 15.0228C62.6715 15.151 62.7997 15.3286 62.849 15.5456L62.129 15.6639C62.0896 15.5653 62.0304 15.4864 61.9416 15.4371C61.8232 15.368 61.6852 15.3384 61.5175 15.3384C61.3498 15.3384 61.2413 15.368 61.1624 15.4173C61.0934 15.4667 61.0539 15.5258 61.0539 15.5949C61.0539 15.6639 61.0934 15.7231 61.1624 15.7626C61.2117 15.7921 61.3498 15.8415 61.5964 15.9105C61.9811 16.019 62.2375 16.1176 62.3657 16.2163C62.5433 16.3642 62.6419 16.5319 62.6419 16.7292C62.6419 16.9856 62.5235 17.2125 62.2967 17.4097C62.0698 17.5971 61.7443 17.6958 61.3202 17.6958C60.8961 17.6958 60.5805 17.6267 60.3536 17.4788C60.1268 17.3308 59.9689 17.1336 59.89 16.8673H59.8999Z" fill="white"/>
<path fill-rule="evenodd" clip-rule="evenodd" d="M3.48175 10.0714C4.01437 9.2725 4.52726 8.36507 5.14865 7.64505C5.28674 7.48724 5.55305 7.36888 5.81936 7.34915C7.06213 7.23079 8.25559 7.54642 9.29124 7.08284C9.04466 7.6056 8.70931 8.07903 8.443 8.59193C8.12737 9.04564 8.06819 9.34154 7.51584 9.5388C7.22981 9.6473 6.52951 9.61771 6.03635 9.59798C5.14865 9.55853 4.78371 9.46976 4.20177 10.1898C4.15246 10.2786 3.90587 10.604 3.84669 10.6928C3.72833 10.4857 3.60011 10.2786 3.48175 10.0714Z" fill="white"/>
<path fill-rule="evenodd" clip-rule="evenodd" d="M3.51134 11.7285C3.28448 11.3339 3.04776 10.9493 2.80118 10.5646C2.56446 10.2391 2.4461 10.1306 2.06143 10.1207C1.86417 10.1602 1.84444 10.1799 1.68663 10.2983C1.2625 10.6731 0.996194 11.1761 0.779201 11.689C0.552345 12.3301 0.601662 12.8332 0.858108 13.4447C1.05537 13.8392 1.2625 14.0957 1.62745 14.3521C1.94307 14.5494 2.3376 14.6973 2.70255 14.7664C4.97111 14.8354 7.11145 14.7664 9.38001 14.7861C9.7055 14.2732 10.0507 13.7702 10.3762 13.2573C10.1888 13.3165 9.83372 13.3855 9.61673 13.425C7.9301 13.4841 6.43088 13.494 4.74425 13.4447C4.56671 13.4348 4.58644 13.3559 4.57658 13.1784C4.65548 12.9811 4.71466 13.0304 4.92179 13.0206C5.82922 13.0206 6.73664 13.0206 7.64407 13.0206C7.77229 13.0206 7.89065 13.0206 8.01887 13.0206C9.10384 12.991 9.90276 10.6632 10.4946 9.87416C10.248 9.95307 10.3762 9.96293 9.86331 10.1207C8.47258 10.2292 7.0424 9.96293 5.65168 10.1898C5.13878 10.3772 4.29054 12.1624 3.61983 13.0304C3.11681 13.5236 2.51514 13.5236 2.1502 12.9219C1.95294 12.557 1.98253 12.2512 2.18965 11.8863C2.30801 11.7087 2.43624 11.6002 2.64337 11.5608C3.00831 11.4917 3.18585 11.5904 3.51134 11.7285Z" fill="white"/>
</svg>
