<svg width="64" height="26" viewBox="0 0 64 26" fill="none" xmlns="http://www.w3.org/2000/svg">
<path fill-rule="evenodd" clip-rule="evenodd" d="M15.5347 12.3005L15.2684 14.0661H16.5013C16.3041 14.5198 15.7221 14.7171 15.298 14.7171C14.4103 14.7171 14.0158 13.9477 14.144 13.1192C14.2821 12.2118 14.9429 11.3833 15.9194 11.3833C16.3534 11.3833 16.7084 11.5805 16.8663 11.9553L19.5491 11.0183C19.1545 9.73608 17.4679 9.09496 16.166 9.09496C13.8185 9.09496 11.7965 10.5646 11.4217 13.0008C11.0568 15.3976 12.6941 16.8081 14.9725 16.8081C16.1364 16.8081 17.4285 16.3445 18.3458 15.4765C19.3715 14.5198 19.5294 13.5039 19.7365 12.2808H15.5347V12.3005Z" fill="white"/>
<path fill-rule="evenodd" clip-rule="evenodd" d="M19.4406 16.7094H22.005L22.804 11.4424H20.2395L19.4406 16.7094ZM21.9557 8.58208C21.1568 8.58208 20.4762 9.04566 20.3579 9.81499C20.2296 10.683 20.8412 11.0578 21.5809 11.0578C22.3108 11.0578 23.0506 10.683 23.1788 9.81499C23.2971 9.05552 22.7645 8.58208 21.9557 8.58208Z" fill="white"/>
<path fill-rule="evenodd" clip-rule="evenodd" d="M22.8632 16.7094H25.4178L26.6408 8.66098H24.0763L22.8632 16.7094Z" fill="white"/>
<path fill-rule="evenodd" clip-rule="evenodd" d="M26.1871 16.7094H28.7515L29.9647 8.66098H27.4101L26.1871 16.7094Z" fill="white"/>
<path fill-rule="evenodd" clip-rule="evenodd" d="M35.8729 14.5001C36.297 12.5274 35.0049 11.3142 33.1309 11.3142C31.4541 11.3142 29.9351 12.409 29.6787 14.1548C29.4025 15.9697 30.7933 16.8278 32.4503 16.8278C33.6635 16.8278 35.1726 16.2459 35.6953 14.9735H33.1999C33.1111 15.2201 32.8843 15.4075 32.618 15.4075C32.0853 15.4075 32.0853 14.934 32.1544 14.5099H35.8729V14.5001ZM32.3122 13.4052C32.3714 13.0403 32.6081 12.7247 32.9928 12.7247C33.3577 12.7247 33.5648 13.0502 33.5155 13.4052H32.3122Z" fill="white"/>
<path fill-rule="evenodd" clip-rule="evenodd" d="M39.9563 9.73608H37.3721L37.1058 11.5016L36.4844 11.4622L36.1786 13.4841L36.8099 13.4348L36.3167 16.7094H38.9009L39.3941 13.4348L40.2423 13.4841L40.5481 11.4622L39.6801 11.5016L39.9563 9.73608Z" fill="white"/>
<path fill-rule="evenodd" clip-rule="evenodd" d="M44.2665 9.73608H41.6922L41.416 11.5016L40.8045 11.4622L40.4987 13.4841L41.13 13.4348L40.627 16.7094H43.2112L43.7043 13.4348L44.5526 13.4841L44.8583 11.4622L44.0002 11.5016L44.2665 9.73608Z" fill="white"/>
<path fill-rule="evenodd" clip-rule="evenodd" d="M50.7369 14.5001C51.161 12.5274 49.8689 11.3142 47.9949 11.3142C46.3181 11.3142 44.7992 12.409 44.5427 14.1548C44.2665 15.9697 45.6573 16.8278 47.3143 16.8278C48.5275 16.8278 50.0366 16.2459 50.5593 14.9735H48.0738C47.985 15.2201 47.7582 15.4075 47.4918 15.4075C46.9592 15.4075 46.9592 14.934 47.0184 14.5099H50.7369V14.5001ZM47.1762 13.4052C47.2354 13.0403 47.4721 12.7247 47.8568 12.7247C48.2217 12.7247 48.4289 13.0502 48.3795 13.4052H47.1762Z" fill="white"/>
<path fill-rule="evenodd" clip-rule="evenodd" d="M51.3879 11.0972C51.8021 11.0972 52.1375 10.7619 52.1375 10.3476C52.1375 9.93334 51.8021 9.59799 51.3879 9.59799C50.9736 9.59799 50.6382 9.93334 50.6382 10.3476C50.6382 10.7619 50.9736 11.0972 51.3879 11.0972ZM51.3879 10.9197C51.0624 10.9197 50.8158 10.683 50.8158 10.3476C50.8158 10.0123 51.0624 9.77553 51.3879 9.77553C51.7133 9.77553 51.9599 10.0123 51.9599 10.3476C51.9599 10.683 51.7133 10.9197 51.3879 10.9197ZM51.5555 10.3969C51.6936 10.3871 51.7627 10.3279 51.7627 10.1898C51.7627 9.98266 51.6443 9.95307 51.4569 9.95307H51.0821V10.7323H51.2596V10.4068H51.378L51.5555 10.7323H51.7429L51.5555 10.4068V10.3969ZM51.2596 10.2786V10.0813H51.4273C51.5062 10.0813 51.6048 10.0813 51.6048 10.1602C51.6048 10.2588 51.5555 10.2786 51.4668 10.2786H51.2596Z" fill="white"/>
</svg>
