<svg width="64" height="26" viewBox="0 0 64 26" fill="none" xmlns="http://www.w3.org/2000/svg">
<path d="M54.096 18.2118H54.3085L54.4401 18.6775L54.5819 18.2118H54.7843V18.8394H54.6527V18.3029L54.4908 18.8394H54.3794L54.2174 18.3029V18.8394H54.096V18.2118ZM53.6911 18.3131H53.4684V18.2118H54.0453V18.3131H53.8226V18.8394H53.6911V18.3131Z" fill="white"/>
<path d="M55.9585 6.54031H16.0952C14.6982 6.54031 13.9896 6.55043 13.2203 6.65166C11.4691 6.85411 9.93041 7.60319 8.989 8.7167C8.04758 9.84032 7.54144 11.217 7.54144 12.6949C7.54144 14.3652 8.19942 15.9342 9.40403 17.0983C10.2948 17.9689 11.4488 18.5054 12.9166 18.718C13.8985 18.8698 14.8804 18.8597 15.751 18.8496H16.3584H52.6788L55.9687 6.54031H55.9585ZM52.4561 18.5763H16.3482C13.9491 18.5763 11.4589 18.7281 9.58624 16.906C8.48286 15.833 7.80463 14.3449 7.80463 12.6949C7.80463 11.2575 8.32089 9.91118 9.18133 8.89891C10.1632 7.73479 11.712 7.10718 13.2507 6.92497C14.0402 6.82374 14.7792 6.81362 16.0952 6.81362H55.6043L52.4662 18.5763H52.4561Z" fill="white"/>
<path d="M45.9573 11.1057C45.7649 11.1057 45.6333 11.1866 45.5017 11.3284C45.0361 11.7839 44.5097 13.1606 44.2465 14.2336C44.1251 14.7499 44.0643 15.0333 44.0643 15.337C44.0643 15.6204 44.1959 15.7824 44.4186 15.7824C44.5907 15.7824 44.783 15.6609 44.9146 15.5192C45.1576 15.2661 45.3195 14.9017 45.5119 14.4563C45.9573 13.3934 46.2812 12.0066 46.2812 11.5511C46.2812 11.3284 46.2103 11.1158 45.9573 11.1158V11.1057ZM15.9838 11.9863H15.7712C15.7206 11.9863 15.6801 11.9459 15.6801 11.8952C15.6801 11.8446 15.7206 11.8041 15.7712 11.8041H15.9838C16.0344 11.8041 16.0749 11.8446 16.0749 11.8952C16.0749 11.9459 16.0344 11.9863 15.9838 11.9863ZM15.7814 12.6544H15.5688C15.5182 12.6544 15.4777 12.614 15.4777 12.5633C15.4777 12.5127 15.5182 12.4722 15.5688 12.4722H15.7814C15.832 12.4722 15.8725 12.5127 15.8725 12.5633C15.8725 12.614 15.832 12.6544 15.7814 12.6544ZM15.5789 13.3327H15.3663C15.3157 13.3327 15.2752 13.2922 15.2752 13.2416C15.2752 13.191 15.3157 13.1505 15.3663 13.1505H15.5789C15.6295 13.1505 15.67 13.191 15.67 13.2416C15.67 13.2922 15.6295 13.3327 15.5789 13.3327ZM15.1436 12.9986H14.9311C14.8804 12.9986 14.8399 12.9581 14.8399 12.9075C14.8399 12.8569 14.8804 12.8164 14.9311 12.8164H15.1436C15.1942 12.8164 15.2347 12.8569 15.2347 12.9075C15.2347 12.9581 15.1942 12.9986 15.1436 12.9986ZM14.7083 12.6544H14.4958C14.4452 12.6544 14.4047 12.614 14.4047 12.5633C14.4047 12.5127 14.4452 12.4722 14.4958 12.4722H14.7083C14.759 12.4722 14.7995 12.5127 14.7995 12.5633C14.7995 12.614 14.759 12.6544 14.7083 12.6544ZM14.5059 13.3327H14.2933C14.2427 13.3327 14.1921 13.2922 14.1921 13.2416C14.1921 13.191 14.2326 13.1505 14.2933 13.1505H14.5059C14.5565 13.1505 14.6071 13.191 14.6071 13.2416C14.6071 13.2922 14.5666 13.3327 14.5059 13.3327ZM13.9795 12.0774H14.3338C14.4047 12.0774 14.4654 12.1382 14.4654 12.209C14.4654 12.2799 14.4047 12.3406 14.3338 12.3406H13.9795C13.9087 12.3406 13.8479 12.2799 13.8479 12.209C13.8479 12.1382 13.9087 12.0774 13.9795 12.0774ZM14.6982 11.7839H14.9108C14.9614 11.7839 15.0019 11.8244 15.0019 11.875C15.0019 11.9256 14.9614 11.9661 14.9108 11.9661H14.6982C14.6476 11.9661 14.6071 11.9256 14.6071 11.875C14.6071 11.8244 14.6476 11.7839 14.6982 11.7839ZM15.1335 12.1078H15.3461C15.3967 12.1078 15.4372 12.1483 15.4372 12.1989C15.4372 12.2495 15.3967 12.3001 15.3461 12.3001H15.1335C15.0829 12.3001 15.0424 12.2597 15.0424 12.1989C15.0424 12.1483 15.0829 12.1078 15.1335 12.1078ZM47.5972 14.0413C47.0303 15.6204 46.099 16.906 44.2668 16.906C42.9913 16.906 42.2726 16.2885 42.2726 14.9827C42.2726 14.4057 42.4143 13.7882 42.5965 13.2416C43.1128 11.7232 44.2364 9.94155 46.0383 9.94155C47.3846 9.94155 48.0324 10.6198 48.0324 11.9459C48.0324 12.5836 47.8199 13.4339 47.5972 14.0413ZM26.8658 15.0232C26.8658 15.4382 27.0581 15.7621 27.5035 15.7621C27.6756 15.7621 27.8274 15.7621 27.9995 15.7216L28.5968 13.5554C27.7768 13.6566 26.8658 14.0514 26.8658 15.0232ZM30.6517 12.533L29.5281 16.6124C28.7385 16.8149 27.9287 16.9364 27.1087 16.9364C26.0661 16.9364 25.0437 16.4302 25.0437 15.256C25.0437 13.2112 27.2403 12.6342 28.8903 12.4722C28.9713 12.209 29.0624 11.9256 29.0624 11.6523C29.0624 11.1968 28.6676 11.0854 28.2728 11.0854C27.7262 11.0854 26.9872 11.2373 26.471 11.3992L26.7645 10.2857C27.3213 10.0428 28.1615 9.94155 28.7688 9.94155C29.7609 9.94155 30.8238 10.2554 30.8238 11.4397C30.8238 11.8143 30.7529 12.1787 30.6517 12.5431V12.533ZM25.8434 9.82007C25.8434 8.62559 25.0336 8.20044 23.9403 8.20044C22.8369 8.20044 21.9056 8.70657 21.2072 9.53664C20.2252 10.7109 19.4154 13.191 19.4154 14.6992C19.4154 16.2784 20.0734 17.0477 21.6728 17.0477C23.9099 17.0477 24.4566 15.2357 24.9728 13.4339L23.0394 13.7983C22.8875 14.3045 22.4927 15.7723 21.8145 15.7723C21.3995 15.7723 21.3185 15.3876 21.3185 15.0535C21.3185 14.0413 21.9259 12.0977 22.2903 11.136C22.4826 10.6299 22.9786 9.45566 23.6569 9.45566C23.8087 9.45566 23.9201 9.53664 23.9707 9.61762C24.0314 9.70872 24.0516 9.82007 24.0516 9.95167C24.0516 10.0023 24.0415 10.1642 24.0112 10.2756C23.9605 10.5185 23.6164 11.794 23.6164 11.794L25.479 11.4701C25.6207 10.9741 25.8434 10.3465 25.8434 9.8302V9.82007ZM43.7809 10.1238C43.5076 9.97192 43.0419 9.94155 42.6674 9.94155C41.9082 9.94155 41.0073 10.0731 40.329 10.4274L38.5778 16.7542H40.3493L41.8576 11.2474C42.1208 11.1563 42.3839 11.1158 42.6573 11.1158C42.8901 11.1158 43.0116 11.1259 43.1128 11.136L43.791 10.1238H43.7809ZM13.7669 13.029C13.6961 13.029 13.6353 12.9682 13.6353 12.9075C13.6353 12.8367 13.6961 12.7759 13.7669 12.7759H14.1212C14.1921 12.7759 14.2528 12.8367 14.2528 12.9075C14.2528 12.9784 14.1921 13.029 14.1212 13.029H13.7669ZM11.0945 12.4824H10.9022C10.8617 12.4824 10.8212 12.5127 10.8212 12.5633C10.8212 12.6038 10.8516 12.6443 10.9022 12.6443H11.0945C11.135 12.6443 11.1755 12.614 11.1755 12.5633C11.1755 12.5228 11.135 12.4824 11.0945 12.4824ZM11.4589 12.8265H11.2666C11.2261 12.8265 11.1856 12.867 11.1856 12.9075C11.1856 12.948 11.216 12.9885 11.2666 12.9885H11.4589C11.4994 12.9885 11.5399 12.948 11.5399 12.9075C11.5399 12.867 11.5096 12.8265 11.4589 12.8265ZM10.8921 13.1808H10.6997C10.6593 13.1808 10.6188 13.2112 10.6188 13.2618C10.6188 13.3023 10.6593 13.3428 10.6997 13.3428H10.8921C10.9326 13.3428 10.9731 13.3023 10.9731 13.2618C10.9731 13.2213 10.9427 13.1808 10.8921 13.1808ZM11.1148 11.956H11.3071C11.3577 11.956 11.3881 11.9155 11.3881 11.875C11.3881 11.8345 11.3476 11.794 11.3071 11.794H11.1148C11.0743 11.794 11.0338 11.8244 11.0338 11.875C11.0338 11.9155 11.0642 11.956 11.1148 11.956ZM11.8537 13.1808H11.6614C11.6209 13.1808 11.5804 13.2112 11.5804 13.2618C11.5804 13.3023 11.6108 13.3428 11.6614 13.3428H11.8537C11.8942 13.3428 11.9347 13.3023 11.9347 13.2618C11.9347 13.2213 11.8942 13.1808 11.8537 13.1808ZM12.7749 12.5633C12.7749 12.6544 12.8559 12.7354 12.947 12.7354H13.1798L13.0786 13.0796H12.7344C12.6433 13.0796 12.5623 13.1505 12.5623 13.2517C12.5623 13.3428 12.6433 13.4238 12.7344 13.4238H12.9774L13.0786 13.0796H13.3215C13.4126 13.0796 13.4936 13.1505 13.4936 13.2517C13.4936 13.3327 13.4329 13.4035 13.3519 13.4238H18.555C18.5955 13.191 18.6056 12.9379 18.6056 12.6949C18.6056 12.3508 18.5651 12.0268 18.5044 11.7029H13.7771C13.8479 11.7232 13.9087 11.794 13.9087 11.875C13.9087 11.9661 13.8378 12.0471 13.7366 12.0471H13.3823L13.4835 11.7029H13.4633H13.1393C13.0482 11.7029 12.9672 11.7738 12.9672 11.875C12.9672 11.9661 13.0482 12.0471 13.1393 12.0471H13.3823L13.281 12.3913H12.947C12.8559 12.3913 12.7749 12.4722 12.7749 12.5633ZM13.1798 12.7354L13.281 12.3811H13.5341C13.6252 12.3811 13.7062 12.4621 13.7062 12.5633C13.7062 12.6544 13.6252 12.7354 13.5341 12.7354H13.1798ZM12.0764 11.9459H12.2688C12.3093 11.9459 12.3497 11.9054 12.3497 11.8649C12.3497 11.8244 12.3093 11.7839 12.2688 11.7839H12.0764C12.0359 11.7839 11.9955 11.8143 11.9955 11.8649C11.9955 11.9054 12.0359 11.9459 12.0764 11.9459ZM11.4893 12.29H11.6816C11.7221 12.29 11.7626 12.2597 11.7626 12.209C11.7626 12.1686 11.7221 12.1281 11.6816 12.1281H11.4893C11.4488 12.1281 11.4083 12.1584 11.4083 12.209C11.4083 12.2495 11.4488 12.29 11.4893 12.29ZM12.208 13.0189C12.1473 13.0189 12.0967 12.9682 12.0967 12.9075C12.0967 12.8468 12.1473 12.7962 12.208 12.7962H12.5218C12.5826 12.7962 12.6332 12.8468 12.6332 12.9075C12.6332 12.9682 12.5826 13.0189 12.5218 13.0189H12.208ZM11.874 12.6443C11.8335 12.6443 11.793 12.614 11.793 12.5633C11.793 12.5228 11.8234 12.4824 11.874 12.4824H12.0663C12.1068 12.4824 12.1473 12.5127 12.1473 12.5633C12.1473 12.6038 12.1169 12.6443 12.0663 12.6443H11.874ZM12.7243 12.0977C12.785 12.0977 12.8356 12.1483 12.8356 12.209C12.8356 12.2698 12.785 12.3204 12.7243 12.3204H12.4206C12.3599 12.3204 12.2991 12.2698 12.2991 12.209C12.2991 12.1483 12.3497 12.0977 12.4206 12.0977H12.7243ZM35.5713 10.1339C35.1259 10.0023 34.6299 9.94155 34.1643 9.94155C32.7977 9.94155 31.3501 10.6805 31.34 12.2192C31.3299 13.606 33.0204 14.0818 33.0103 14.8713C33.0002 15.5091 32.4333 15.752 31.8765 15.752C31.4311 15.752 30.9554 15.6913 30.5201 15.5698L30.2164 16.6327C30.7833 16.8149 31.4716 16.8959 32.0587 16.8959C33.4354 16.8959 34.7109 16.1063 34.7311 14.6081C34.7413 13.1302 33.152 12.8063 33.152 11.956C33.1621 11.298 33.81 11.1057 34.3566 11.1057C34.64 11.1057 34.9538 11.1259 35.2474 11.1968L35.5612 10.1339H35.5713ZM39.7419 10.1744H38.4462L38.9523 8.31179L37.0897 8.61547L36.6848 10.1744H36.037L35.7434 11.2069H36.3812C36.3812 11.2069 35.3891 14.8207 35.3183 15.1244C35.2677 15.3167 35.217 15.5597 35.217 15.752C35.217 16.2379 35.5308 16.5821 35.9459 16.6934C36.0977 16.744 36.371 16.7643 36.6747 16.7643H37.9603L38.2437 15.7216H37.5959C37.3023 15.7216 37.0391 15.6913 37.0391 15.3572C37.0391 15.2762 37.0594 15.175 37.0897 15.0535C37.1302 14.9118 38.1526 11.1968 38.1526 11.1968H39.4483L39.7419 10.1642V10.1744ZM49.9051 14.8511C49.8647 15.0232 49.8444 15.1649 49.8444 15.2864C49.8444 15.6508 50.1177 15.7216 50.4214 15.7216H51.0288L50.7858 16.7643H49.5812C49.2067 16.7643 48.903 16.7238 48.7208 16.6529C48.3159 16.4808 48.0426 16.1164 48.0426 15.5799C48.0426 15.337 48.0932 15.0839 48.1539 14.8308C48.2248 14.517 49.8545 8.66608 49.8545 8.66608L51.707 8.31179C51.707 8.31179 49.9659 14.5879 49.9051 14.8511Z" fill="white"/>
<path d="M18.3627 14.1627C18.0893 15.0333 17.5832 15.8026 16.905 16.3796C16.8847 16.3999 16.8544 16.4201 16.8341 16.4404L16.8139 16.4606C16.7936 16.4707 16.7835 16.491 16.7633 16.5011C16.7531 16.5112 16.7329 16.5213 16.7228 16.5315C16.7126 16.5416 16.7025 16.5416 16.6924 16.5517C15.8725 17.1793 14.8501 17.5539 13.7366 17.5539C11.054 17.5539 8.87764 15.3775 8.87764 12.6949C8.87764 11.136 9.6166 9.73911 10.7605 8.8483L10.7908 8.82806C10.801 8.81794 10.8111 8.80781 10.8212 8.79769L9.88991 12.0471C9.76844 12.4722 9.65709 12.8164 9.65709 13.1808C9.65709 13.6161 9.87979 13.8894 10.1734 14.021C10.3556 14.102 10.6188 14.1425 10.9326 14.1425H18.3728L18.3627 14.1627ZM12.0461 8.13971C12.5724 7.94738 13.1292 7.84615 13.7163 7.84615C15.7915 7.84615 17.563 9.15199 18.2614 10.9741H11.2464L12.0461 8.13971Z" fill="white"/>
<path d="M15.6498 10.9741C15.4271 10.8526 15.2044 10.721 14.9715 10.5692C13.6151 9.70873 12.7344 8.76731 13.0786 8.23081C13.2203 8.01823 13.5544 7.90688 13.9998 7.89676H14.0402C14.6982 7.89676 15.5688 8.1397 16.3584 8.64584C17.4617 9.35443 18.0286 10.3465 18.059 10.9741H15.6498Z" fill="white"/>
<path d="M15.7611 10.9741C15.5182 10.8425 15.2651 10.6906 15.012 10.5287C13.6961 9.68848 12.8255 8.77744 13.1596 8.25105C13.4936 7.72467 15.0525 7.8259 16.3482 8.65596C17.4617 9.36456 18.0084 10.3667 18.0084 10.9741H15.7611Z" fill="white"/>
<path d="M15.8725 10.9741C15.5991 10.8324 15.3157 10.6704 15.0323 10.4882C13.939 9.78971 13.1596 9.04063 13.1596 8.51424V8.50412C13.1596 8.42314 13.1798 8.34216 13.2304 8.2713C13.362 8.06884 13.6758 7.95749 14.101 7.95749H14.1516C14.7792 7.96762 15.5991 8.19032 16.3381 8.66609C17.4516 9.37468 17.9881 10.387 17.9476 10.9741H15.8623H15.8725Z" fill="white"/>
<path d="M15.9838 10.9741C15.6902 10.8324 15.3764 10.6501 15.0626 10.4477C13.9997 9.76946 13.2405 9.04062 13.2405 8.53448V8.52436C13.2405 8.44338 13.2608 8.36239 13.3114 8.30166C13.6252 7.80564 15.1031 7.89675 16.328 8.68632C17.4415 9.40504 17.9679 10.4173 17.897 10.9842H15.9838V10.9741Z" fill="white"/>
<path d="M16.1053 10.9741C15.7814 10.8222 15.4372 10.6299 15.093 10.4072C14.0504 9.73909 13.3114 9.0305 13.3215 8.53449C13.3215 8.45351 13.3418 8.38265 13.3823 8.31179C13.5037 8.11945 13.8074 8.01823 14.2123 8.01823H14.2326C14.8197 8.01823 15.6093 8.24093 16.3179 8.68633C17.4415 9.40504 17.9476 10.4376 17.8262 10.9741H16.0952H16.1053Z" fill="white"/>
<path d="M16.2369 10.9741C15.8927 10.8222 15.508 10.6097 15.1234 10.3667C13.9491 9.61762 13.1697 8.79768 13.4632 8.33203C13.5847 8.1397 13.8884 8.0486 14.2731 8.0486C14.8501 8.0486 15.6194 8.26117 16.3077 8.69645C17.2896 9.32406 17.7857 10.1946 17.7958 10.7412V10.7716C17.7958 10.8425 17.7857 10.9133 17.7654 10.9741H16.2268H16.2369Z" fill="white"/>
<path d="M16.3685 10.9741C15.9939 10.8222 15.5789 10.5894 15.1537 10.3262C14.1718 9.6986 13.4734 9.0305 13.4835 8.56486C13.4835 8.494 13.5037 8.42314 13.5442 8.35228C13.6556 8.17007 13.939 8.07896 14.3136 8.07896H14.354C14.9108 8.07896 15.6498 8.29154 16.3077 8.7167C17.2795 9.33418 17.7553 10.2047 17.7452 10.7311C17.7452 10.8324 17.7249 10.9133 17.6946 10.9842H16.3685V10.9741Z" fill="white"/>
<path d="M17.6338 10.9437C17.6237 10.9538 17.6136 10.9639 17.6136 10.9741H16.5203C16.1255 10.8222 15.6599 10.5793 15.1841 10.2857C14.2326 9.67836 13.5544 9.0305 13.5645 8.57498C13.5645 8.50412 13.5847 8.43326 13.6252 8.37252C13.7366 8.20044 13.9998 8.10933 14.354 8.10933H14.4148C14.9513 8.11946 15.67 8.31179 16.3077 8.72682C17.2289 9.31394 17.6946 10.1339 17.7047 10.6501V10.6906C17.7047 10.7919 17.6844 10.883 17.6338 10.9538V10.9437Z" fill="white"/>
<path d="M17.5832 10.883C17.563 10.9235 17.5326 10.9538 17.4921 10.9842H16.6823C16.2571 10.8526 15.7307 10.5894 15.2044 10.2452C14.1313 9.5569 13.4228 8.81794 13.6859 8.39278C13.9593 7.96763 15.2246 8.05873 16.2774 8.72683C17.1783 9.30383 17.6338 10.1136 17.6338 10.5995V10.6097C17.6338 10.7109 17.6136 10.802 17.5731 10.8728L17.5832 10.883Z" fill="white"/>
<path d="M17.5326 10.8222C17.482 10.9032 17.4111 10.9538 17.3099 10.9842H16.9455C16.5001 10.9133 15.8826 10.6097 15.2449 10.2047C14.2022 9.53664 13.5139 8.82805 13.7771 8.41302C14.0402 8.00811 15.2651 8.08909 16.2875 8.74707C17.3504 9.42529 17.7654 10.4274 17.5427 10.8222H17.5326Z" fill="white"/>
<path d="M17.482 10.7615C17.4111 10.8728 17.2896 10.9235 17.1277 10.9336H17.0872C16.6519 10.9235 15.9636 10.6097 15.2651 10.1643C14.2629 9.52652 13.5948 8.83817 13.8479 8.44339C13.9491 8.29154 14.1921 8.21056 14.5059 8.20044H14.5464C15.0323 8.20044 15.6801 8.38265 16.2672 8.75719C17.2896 9.41517 17.7047 10.387 17.482 10.7615Z" fill="white"/>
<path d="M17.4314 10.7008C17.3706 10.8121 17.2491 10.8627 17.0872 10.8627H17.0467C16.6317 10.8526 15.9636 10.5489 15.2955 10.1238C14.3237 9.50628 13.6859 8.83818 13.9188 8.46364C14.1617 8.0891 15.3056 8.15996 16.2571 8.77744C17.0568 9.2937 17.4719 10.0023 17.482 10.4477V10.4882C17.482 10.5793 17.4617 10.6501 17.4212 10.7109L17.4314 10.7008Z" fill="white"/>
<path d="M17.3807 10.64C17.32 10.7412 17.2087 10.7919 17.0467 10.7919H17.0163C16.6215 10.7817 15.9737 10.4983 15.3258 10.0731C14.3945 9.47591 13.7669 8.83817 13.9997 8.47375C14.0909 8.33204 14.3136 8.26118 14.6071 8.25105H14.6476C15.1031 8.25105 15.7105 8.42314 16.247 8.77744C17.0264 9.28357 17.4314 9.97192 17.4314 10.4072V10.4173C17.4314 10.5084 17.4111 10.5793 17.3807 10.64Z" fill="white"/>
<path d="M17.3301 10.5793C17.1176 10.9336 16.247 10.6097 15.3562 10.0428C14.5869 9.54675 14.0301 9.02037 14.0301 8.66607C14.0301 8.60534 14.0504 8.55472 14.0807 8.50411C14.1718 8.37251 14.3844 8.29153 14.6577 8.29153H14.7083C15.1436 8.30165 15.7206 8.46362 16.247 8.79767C16.9961 9.28356 17.3808 9.94154 17.3909 10.3566V10.3768C17.3909 10.4578 17.3706 10.5287 17.3403 10.5894L17.3301 10.5793Z" fill="white"/>
<path d="M17.2795 10.5084C17.2188 10.6097 17.1176 10.6501 16.9758 10.6501H16.9657C16.6013 10.6501 15.9939 10.3768 15.3866 9.98204C14.5261 9.42529 13.939 8.83817 14.1617 8.50412C14.2427 8.37253 14.4452 8.30167 14.7185 8.30167H14.7691C15.1841 8.31179 15.751 8.46363 16.247 8.78756C16.9556 9.24308 17.3301 9.87069 17.3403 10.2655V10.3161C17.3403 10.387 17.32 10.4477 17.2896 10.4983L17.2795 10.5084Z" fill="white"/>
<path d="M17.2289 10.4477C17.1783 10.5388 17.0771 10.5793 16.9354 10.5894H16.905C16.5507 10.5793 15.9838 10.3262 15.3967 9.95167C14.6881 9.49615 14.1718 9.02038 14.1718 8.68633C14.1718 8.63572 14.182 8.5851 14.2123 8.53449C14.4148 8.21056 15.3866 8.28142 16.2065 8.8078C16.8949 9.25321 17.2492 9.86057 17.2593 10.2351V10.2655C17.2593 10.3363 17.239 10.4072 17.2087 10.4578L17.2289 10.4477Z" fill="white"/>
<path d="M17.1783 10.387C17.1277 10.4781 17.0265 10.5185 16.905 10.5185H16.8847C16.5507 10.5185 16.0041 10.2655 15.4372 9.90106C14.759 9.46578 14.2731 9.01026 14.2629 8.69645V8.68633C14.2629 8.63572 14.2731 8.5851 14.3034 8.54461C14.3844 8.42314 14.5666 8.3624 14.8096 8.3624H14.8501C15.2347 8.37253 15.751 8.51424 16.2166 8.8078C16.8847 9.23296 17.2188 9.82008 17.2289 10.1845V10.2047C17.2289 10.2756 17.2087 10.3363 17.1884 10.387H17.1783Z" fill="white"/>
<path d="M17.1378 10.3262C17.0872 10.4072 16.9961 10.4477 16.8746 10.4477H16.8442C16.5203 10.4376 16.0041 10.2047 15.4675 9.86058C14.7083 9.37469 14.1921 8.85843 14.3844 8.56487C14.4553 8.45352 14.6274 8.39278 14.8501 8.39278H14.9209C15.2853 8.4029 15.7712 8.54462 16.2065 8.81793C16.8341 9.22284 17.158 9.7796 17.1783 10.1238V10.1642C17.1783 10.225 17.158 10.2857 17.1378 10.3262Z" fill="white"/>
<path d="M17.0872 10.2655C17.0366 10.3465 16.9556 10.3768 16.8341 10.387H16.8139C16.5102 10.3768 16.0142 10.1541 15.4979 9.82007C14.7691 9.35442 14.2832 8.86853 14.4654 8.58509C14.6476 8.31178 15.4878 8.37252 16.2065 8.82804C16.9455 9.30381 17.2492 9.99216 17.0872 10.2655Z" fill="white"/>
<path d="M17.0366 10.2047C16.9961 10.2756 16.905 10.3161 16.7936 10.3161H16.7835C16.49 10.3161 16.0142 10.0934 15.5283 9.77959C14.8399 9.33419 14.3743 8.86854 14.5363 8.60535C14.597 8.50412 14.7488 8.45351 14.9513 8.45351H15.012C15.3461 8.46363 15.7915 8.5851 16.1863 8.84829C16.8949 9.30382 17.1783 9.95167 17.0265 10.2149L17.0366 10.2047Z" fill="white"/>
<path d="M16.986 10.144C16.9455 10.2149 16.8746 10.2452 16.7734 10.2452H16.7329C16.4596 10.2351 16.0142 10.0327 15.5485 9.73909C14.8905 9.32406 14.4451 8.87867 14.6071 8.6256C14.6678 8.5345 14.8096 8.48387 15.012 8.47375H15.0525C15.3663 8.47375 15.7915 8.59523 16.1761 8.8483C16.7228 9.2026 17.0062 9.67836 17.0163 9.97192V9.99216C17.0163 10.0529 17.0062 10.0934 16.9758 10.1339L16.986 10.144Z" fill="white"/>
<path d="M16.9353 10.0833C16.8949 10.1541 16.824 10.1845 16.7228 10.1845H16.7126C16.4495 10.1845 16.0243 9.98204 15.5789 9.6986C15.0424 9.35443 14.6577 9.00013 14.6577 8.75719V8.74707C14.6577 8.70658 14.6679 8.67621 14.6881 8.64584C14.7488 8.55473 14.8804 8.51424 15.0525 8.50412H15.1031C15.3967 8.51424 15.8016 8.62559 16.166 8.85842C16.6823 9.19247 16.9556 9.63787 16.9657 9.92131V9.95167C16.9657 10.0023 16.9556 10.0428 16.9353 10.0833Z" fill="white"/>
<path d="M16.8847 10.0225C16.7531 10.2452 16.1964 10.0327 15.6093 9.6581C15.0221 9.28356 14.6172 8.88878 14.759 8.66608C14.8096 8.5851 14.9412 8.5446 15.1031 8.53448H15.1436C15.4271 8.53448 15.8117 8.64584 16.1559 8.86854C16.6418 9.18234 16.905 9.6075 16.905 9.87069V9.90106C16.905 9.95167 16.8949 9.99216 16.8746 10.0225H16.8847Z" fill="white"/>
<path d="M16.8341 9.96181C16.8037 10.0225 16.743 10.0428 16.662 10.0428H16.6418C16.409 10.0428 16.0344 9.86058 15.6498 9.60751C15.1031 9.25321 14.7185 8.88879 14.8501 8.67622C14.9817 8.47376 15.6194 8.52438 16.1559 8.87867C16.6215 9.17223 16.8645 9.58726 16.8645 9.83021C16.8645 9.88082 16.8544 9.92131 16.8341 9.96181Z" fill="white"/>
<path d="M16.7835 9.90106C16.7531 9.95167 16.7025 9.97192 16.6215 9.98204H16.6013C16.3887 9.97192 16.0344 9.80995 15.67 9.57713C15.2246 9.29369 14.9007 9.00013 14.9007 8.8078V8.79768C14.9007 8.76731 14.9108 8.74706 14.9209 8.7167C14.9614 8.64584 15.0728 8.60535 15.2145 8.60535H15.2651C15.508 8.61547 15.8421 8.70657 16.1559 8.89891C16.5912 9.18234 16.824 9.55688 16.824 9.77959V9.78971C16.824 9.8302 16.8139 9.87069 16.7936 9.90106H16.7835Z" fill="white"/>
<path d="M16.7329 9.84033C16.6215 10.0225 16.1761 9.84033 15.7004 9.53665C15.2853 9.27346 14.9816 9.00014 14.9715 8.81794V8.80781C14.9715 8.77744 14.9817 8.7572 14.9918 8.73695C15.0323 8.67622 15.1335 8.63573 15.2752 8.63573H15.2955C15.5283 8.63573 15.8421 8.72683 16.1356 8.91916C16.6215 9.23297 16.8341 9.67837 16.7329 9.85046V9.84033Z" fill="white"/>
<path d="M16.6823 9.77958C16.6519 9.82008 16.6114 9.84032 16.5507 9.84032H16.5304C16.3482 9.84032 16.0445 9.68848 15.7307 9.48603C15.2853 9.20259 14.9715 8.90903 15.0728 8.74706C15.1133 8.68633 15.2044 8.65596 15.3258 8.65596H15.3461C15.5587 8.65596 15.8522 8.74707 16.1255 8.91915C16.5811 9.21271 16.7835 9.62774 16.6823 9.77958Z" fill="white"/>
<path d="M16.6317 9.71884C16.6114 9.75933 16.5709 9.77958 16.5102 9.77958H16.49C16.328 9.76945 16.0446 9.63786 15.751 9.45565C15.3967 9.23295 15.1335 9.00012 15.1234 8.83816V8.82804C15.1234 8.80779 15.1335 8.78755 15.1436 8.7673C15.2347 8.61546 15.7105 8.66607 16.1154 8.92926C16.5304 9.19246 16.7228 9.57712 16.6317 9.71884Z" fill="white"/>
<path d="M16.5912 9.65811C16.5102 9.79983 16.166 9.64799 15.7915 9.40504C15.4675 9.19247 15.2246 8.99001 15.2145 8.84829V8.83817C15.2145 8.81792 15.2246 8.79768 15.2347 8.78756C15.3258 8.65596 15.7409 8.69645 16.1154 8.9394C16.5001 9.18234 16.6722 9.52652 16.5912 9.65811Z" fill="white"/>
<path d="M16.5406 9.59738C16.4697 9.71885 16.1559 9.58725 15.8219 9.36455C15.4777 9.14185 15.2347 8.92928 15.3157 8.8078C15.3461 8.76731 15.3967 8.74707 15.4777 8.74707H15.5182C15.6801 8.75719 15.9028 8.81793 16.1053 8.94952C16.4495 9.17222 16.6114 9.4759 16.5406 9.59738Z" fill="white"/>
<path d="M16.4899 9.53664C16.4798 9.55689 16.4495 9.57713 16.409 9.57713H16.3887C16.2672 9.56701 16.0648 9.46578 15.8421 9.32406C15.5789 9.15198 15.3764 8.99001 15.3663 8.87866V8.86854C15.3663 8.85842 15.3663 8.83816 15.3764 8.82804C15.3967 8.79767 15.4473 8.77744 15.5182 8.77744H15.5586C15.7004 8.78756 15.9028 8.84829 16.0952 8.96977C16.3583 9.14185 16.5001 9.35442 16.5102 9.48602V9.49615C16.5102 9.5164 16.5102 9.53663 16.5001 9.54675L16.4899 9.53664Z" fill="white"/>
<path d="M16.4393 9.4759C16.4292 9.49615 16.409 9.50627 16.3685 9.50627H16.3583C16.2571 9.50627 16.0749 9.40505 15.8725 9.28357C15.5991 9.11149 15.3967 8.9394 15.4574 8.84829C15.4777 8.81793 15.5182 8.8078 15.5789 8.79768H15.5991C15.7206 8.79768 15.9129 8.85842 16.085 8.96977C16.3583 9.14185 16.4899 9.3848 16.4393 9.4759Z" fill="white"/>
<path d="M16.3887 9.40504C16.3381 9.48603 16.1357 9.3848 15.9028 9.23296C15.7004 9.10136 15.5283 8.96977 15.5283 8.88878V8.87866C15.5283 8.86854 15.5283 8.85842 15.5384 8.85842C15.5485 8.83817 15.589 8.81792 15.6295 8.81792H15.6498C15.7611 8.81792 15.913 8.86854 16.0648 8.96977C16.3077 9.12161 16.4292 9.32406 16.3786 9.40504H16.3887Z" fill="white"/>
<path d="M16.3381 9.34432C16.328 9.35444 16.3179 9.36456 16.2976 9.36456H16.2875C16.2166 9.36456 16.085 9.28358 15.9332 9.19248C15.751 9.08113 15.6093 8.96978 15.6093 8.89892C15.6093 8.88879 15.6093 8.88879 15.6194 8.87867C15.6295 8.85843 15.6599 8.8483 15.7004 8.8483H15.7105C15.8016 8.8483 15.9433 8.89892 16.0749 8.9799C16.247 9.09125 16.3482 9.23297 16.3584 9.30383V9.31395C16.3584 9.32407 16.3584 9.3342 16.3482 9.3342L16.3381 9.34432Z" fill="white"/>
<path d="M16.2875 9.28357C16.2571 9.33419 16.1255 9.2532 15.9534 9.15198C15.7915 9.04063 15.6498 8.94952 15.6801 8.89891C15.6902 8.88878 15.7004 8.87866 15.7206 8.87866H15.751C15.8218 8.88878 15.9332 8.91915 16.0445 8.99001C16.2166 9.10136 16.3077 9.23296 16.2774 9.28357H16.2875Z" fill="white"/>
<path d="M16.2369 9.22284C16.2369 9.23296 16.2268 9.23296 16.2268 9.23296H16.2166C16.1761 9.23296 16.0952 9.17222 15.9939 9.11149C15.8623 9.0305 15.751 8.95964 15.7712 8.91915C15.7712 8.90903 15.7814 8.90903 15.8016 8.90903H15.8218C15.8725 8.90903 15.9636 8.94952 16.0648 9.01026C16.1964 9.09124 16.2774 9.19247 16.2571 9.23296L16.2369 9.22284Z" fill="white"/>
<path d="M16.1863 9.16209C16.1761 9.18234 16.1053 9.13172 16.0142 9.07099C15.9231 9.01025 15.8421 8.96976 15.832 8.94951C15.832 8.94951 15.8421 8.94951 15.8421 8.93939H15.8522C15.8826 8.93939 15.9534 8.96976 16.0344 9.02037C16.1255 9.08111 16.1863 9.14184 16.1863 9.16209C16.1863 9.16209 16.1863 9.16209 16.1863 9.17221V9.16209Z" fill="white"/>
<path d="M14.8096 8.47374C14.9412 8.28141 15.7307 8.31178 16.3584 8.74706C16.8645 9.09123 17.1277 9.59737 17.1378 9.8808V9.9213C17.1378 9.97191 17.1277 10.0124 17.1074 10.0428C17.0771 10.0833 17.0265 10.1136 16.9455 10.1136H16.9252C16.6722 10.1035 16.2268 9.89093 15.751 9.567C15.1133 9.13172 14.678 8.66607 14.8096 8.47374Z" fill="white"/>
<path d="M14.8399 8.48386C14.9715 8.29153 15.7307 8.33202 16.3482 8.75718C16.9657 9.18233 17.1985 9.83019 17.0669 10.0124C17.0366 10.0529 16.986 10.0731 16.9151 10.0833H16.8949C16.6519 10.0731 16.2166 9.87068 15.751 9.55687C15.2145 9.19246 14.8197 8.79767 14.8096 8.57497V8.56486C14.8096 8.53449 14.8197 8.51423 14.8298 8.48386H14.8399Z" fill="white"/>
<path d="M14.8703 8.50412C14.9108 8.44338 15.0424 8.40289 15.2044 8.40289H15.2449C15.5485 8.40289 15.9636 8.51424 16.3381 8.76731C16.8341 9.10136 17.0771 9.59738 17.0771 9.86057C17.0771 9.91118 17.0669 9.9618 17.0467 9.99216C17.0163 10.0327 16.9657 10.0529 16.8949 10.0529H16.8746C16.6418 10.0529 16.2166 9.84032 15.7611 9.53664C15.2347 9.18234 14.8501 8.79768 14.8501 8.5851V8.57498C14.8501 8.54461 14.8602 8.52437 14.8703 8.50412Z" fill="white"/>
<path d="M14.9108 8.52437C14.9513 8.46363 15.0728 8.42314 15.2347 8.42314H15.2752C15.5688 8.43326 15.9737 8.53449 16.328 8.77743C16.9151 9.17222 17.1277 9.78971 17.0062 9.97192C16.9758 10.0124 16.9252 10.0327 16.8544 10.0327C16.6317 10.0327 16.2065 9.84032 15.7611 9.53664C15.255 9.19247 14.8804 8.81793 14.8703 8.61547V8.60535C14.8703 8.5851 14.8804 8.55473 14.8905 8.53449L14.9108 8.52437Z" fill="white"/>
<path d="M14.9412 8.5345C15.0626 8.36241 15.7611 8.39278 16.328 8.77745C16.8949 9.16211 17.1074 9.75935 16.986 9.93144C16.9556 9.97193 16.905 9.99218 16.8442 9.99218H16.824C16.6013 9.99218 16.1964 9.79984 15.7813 9.50628C15.2145 9.12162 14.8197 8.70659 14.9412 8.5345Z" fill="white"/>
<path d="M14.9715 8.5446C15.012 8.48386 15.1234 8.4535 15.2752 8.44337H15.3157C15.589 8.44337 15.9737 8.5446 16.3179 8.77742C16.7633 9.08111 16.986 9.51638 16.986 9.75933V9.7897C16.986 9.84031 16.9758 9.87068 16.9556 9.90105C16.9252 9.94154 16.8847 9.96178 16.8139 9.96178H16.7936C16.5811 9.95166 16.1863 9.76945 15.7814 9.48602C15.3056 9.16209 14.9513 8.81791 14.9513 8.61546V8.59521C14.9513 8.57497 14.9614 8.55472 14.9715 8.53448V8.5446Z" fill="white"/>
<path d="M15.0019 8.56487C15.1133 8.4029 15.7712 8.43327 16.2976 8.79769C16.824 9.16211 17.0366 9.71886 16.9151 9.88082C16.8847 9.92131 16.8442 9.94156 16.7835 9.94156H16.7734C16.5608 9.94156 16.1863 9.75935 15.7814 9.48604C15.255 9.12162 14.8804 8.73695 14.9918 8.56487H15.0019Z" fill="white"/>
<path d="M15.0323 8.5851C15.0728 8.52437 15.174 8.494 15.3258 8.494H15.3461C15.5991 8.494 15.9737 8.59523 16.2875 8.8078C16.8038 9.1621 16.9961 9.69861 16.8949 9.86057C16.8746 9.90106 16.824 9.91118 16.7633 9.91118H16.743C16.5406 9.90106 16.1761 9.72897 15.7915 9.46578C15.2752 9.11149 14.9209 8.73695 15.0323 8.57498V8.5851Z" fill="white"/>
<path d="M15.0728 8.59522C15.1133 8.54461 15.2145 8.51424 15.3562 8.50412H15.3866C15.6396 8.50412 15.9939 8.59522 16.2976 8.8078C16.7936 9.15198 16.986 9.66824 16.8847 9.82008C16.8645 9.86057 16.8139 9.87069 16.7531 9.87069C16.5608 9.87069 16.1964 9.70873 15.8218 9.44554C15.3866 9.15198 15.0728 8.82805 15.0626 8.65596C15.0626 8.63572 15.0728 8.60535 15.0829 8.5851L15.0728 8.59522Z" fill="white"/>
<path d="M15.1031 8.61546C15.2044 8.46362 15.8016 8.49399 16.2774 8.82804C16.662 9.09123 16.8645 9.4759 16.8645 9.68848V9.70872C16.8645 9.74921 16.8544 9.77958 16.8341 9.80994C16.8139 9.84031 16.7734 9.86056 16.7126 9.86056H16.6924C16.5001 9.86056 16.166 9.68848 15.8016 9.44554C15.3258 9.12161 14.9918 8.7673 15.093 8.61546H15.1031Z" fill="white"/>
<path d="M15.1335 8.6256C15.1639 8.57499 15.255 8.54462 15.3866 8.54462H15.4271C15.6599 8.55474 15.9838 8.63572 16.2672 8.82806C16.6418 9.09125 16.8341 9.45567 16.8341 9.66824V9.67837C16.8341 9.71886 16.824 9.74923 16.8038 9.77959C16.7025 9.92131 16.2774 9.74923 15.8117 9.43542C15.3461 9.12162 15.0323 8.77744 15.1234 8.63572L15.1335 8.6256Z" fill="white"/>
<path d="M15.1639 8.64584C15.255 8.51424 15.8117 8.53449 16.2571 8.83817C16.6215 9.09124 16.8038 9.44554 16.8038 9.63787V9.64799C16.8038 9.68848 16.7936 9.71885 16.7835 9.7391C16.6924 9.87069 16.2774 9.70873 15.832 9.40505C15.3866 9.10136 15.0728 8.77744 15.174 8.63572L15.1639 8.64584Z" fill="white"/>
<path d="M15.1942 8.65595C15.2853 8.52436 15.8117 8.55472 16.2369 8.84828C16.662 9.14184 16.8341 9.58725 16.743 9.71884C16.7228 9.74921 16.6823 9.75933 16.6317 9.76945H16.6215C16.4495 9.76945 16.1458 9.61761 15.832 9.40504C15.4574 9.15197 15.1841 8.87865 15.1841 8.72681V8.71669C15.1841 8.69644 15.1942 8.68632 15.2044 8.66608L15.1942 8.65595Z" fill="white"/>
<path d="M15.2347 8.67621C15.3258 8.55473 15.832 8.57498 16.2369 8.85842C16.5709 9.09124 16.743 9.41517 16.743 9.59738V9.6075C16.743 9.64799 16.7329 9.66824 16.7228 9.6986C16.7025 9.72897 16.6722 9.7391 16.6215 9.7391H16.6013C16.4393 9.72897 16.1458 9.59738 15.8421 9.3848C15.4878 9.14185 15.2246 8.87866 15.2145 8.73694V8.72682C15.2145 8.70657 15.2246 8.69645 15.2246 8.67621H15.2347Z" fill="white"/>
<path d="M15.2651 8.68634C15.3461 8.56487 15.832 8.59524 16.2268 8.85843C16.5406 9.07101 16.7025 9.38481 16.7127 9.5569V9.58727C16.7127 9.61763 16.7025 9.648 16.6924 9.65812C16.6722 9.68849 16.6418 9.69862 16.5912 9.69862H16.5811C16.4292 9.69862 16.1458 9.5569 15.8522 9.36456C15.508 9.13174 15.255 8.87867 15.255 8.73695C15.255 8.71671 15.255 8.69646 15.2651 8.68634Z" fill="white"/>
<path d="M15.2955 8.70658C15.3258 8.66609 15.3967 8.64584 15.508 8.64584H15.5283C15.7206 8.64584 15.9838 8.7167 16.2166 8.87866C16.5912 9.13173 16.743 9.52652 16.662 9.64799C16.581 9.75934 16.2369 9.61762 15.8623 9.36455C15.5283 9.14185 15.2955 8.89891 15.2853 8.76731C15.2853 8.74707 15.2853 8.72682 15.2955 8.7167V8.70658Z" fill="white"/>
<path d="M15.3258 8.7167C15.3562 8.67621 15.4169 8.65596 15.5182 8.65596H15.5688C15.751 8.66608 15.9939 8.72682 16.2166 8.87866C16.5102 9.08112 16.6519 9.36455 16.662 9.51639V9.53664C16.662 9.56701 16.6519 9.58725 16.6418 9.6075C16.5709 9.71885 16.2369 9.58725 15.8725 9.33418C15.5587 9.12161 15.3258 8.88878 15.3258 8.76731V8.75719C15.3258 8.73694 15.3258 8.72682 15.336 8.7167H15.3258Z" fill="white"/>
<path d="M15.3663 8.73695C15.3866 8.69645 15.4574 8.67621 15.5384 8.67621H15.589C15.7611 8.68633 15.9939 8.74707 16.2065 8.88879C16.49 9.08112 16.6317 9.36456 16.6317 9.5164C16.6317 9.54676 16.6215 9.57713 16.6114 9.58726C16.5912 9.6075 16.5608 9.62775 16.5304 9.62775H16.5203C16.3887 9.62775 16.1458 9.50627 15.8826 9.33419C15.5384 9.10136 15.3056 8.8483 15.3764 8.74707L15.3663 8.73695Z" fill="white"/>
<path d="M15.3967 8.74707C15.4675 8.64584 15.8623 8.66608 16.1964 8.88878C16.4596 9.07099 16.5912 9.33418 16.6013 9.4759V9.48603C16.6013 9.51639 16.5912 9.53664 16.581 9.55689C16.5102 9.65811 16.2166 9.53664 15.8826 9.31394C15.5586 9.09124 15.3359 8.84829 15.3967 8.74707Z" fill="white"/>
<path d="M15.4271 8.76731C15.4878 8.67621 15.8725 8.69645 16.1761 8.90903C16.4798 9.12161 16.6013 9.44554 16.5406 9.53664C16.4798 9.62774 16.1863 9.51639 15.8826 9.30382C15.5789 9.09124 15.3562 8.86854 15.4271 8.76731Z" fill="white"/>
<path d="M15.4574 8.77744C15.4777 8.74707 15.5384 8.72682 15.6093 8.72682H15.6396C15.7814 8.72682 15.9838 8.78756 16.166 8.90903C16.4596 9.11149 16.5709 9.41517 16.5102 9.50627C16.5001 9.52652 16.4798 9.53664 16.4495 9.53664H16.4191C16.2976 9.52652 16.1053 9.43541 15.8826 9.28357C15.589 9.08112 15.3866 8.86854 15.4473 8.77744H15.4574Z" fill="white"/>
<path d="M15.4878 8.79768C15.508 8.76731 15.5586 8.75719 15.6295 8.74707H15.67C15.8016 8.74707 15.9939 8.8078 16.166 8.91915C16.3887 9.07099 16.5001 9.28357 16.5001 9.40504V9.42529C16.5001 9.44554 16.4899 9.46578 16.4899 9.4759C16.4292 9.55689 16.1761 9.45566 15.9028 9.27345C15.6295 9.08112 15.4372 8.87866 15.4979 8.79768H15.4878Z" fill="white"/>
<path d="M15.5283 8.80779C15.5789 8.72681 15.9028 8.74706 16.1559 8.91914C16.409 9.09123 16.5102 9.36454 16.4596 9.44553C16.409 9.52651 16.166 9.42528 15.9129 9.25319C15.6902 9.10135 15.5283 8.93939 15.5182 8.84828C15.5182 8.83816 15.5182 8.82804 15.5283 8.81792V8.80779Z" fill="white"/>
<path d="M15.5587 8.82805C15.6093 8.75719 15.9028 8.76731 16.1458 8.9394C16.3887 9.10136 16.4798 9.35443 16.4292 9.42529C16.4191 9.44554 16.3988 9.44553 16.3685 9.44553H16.3482C16.2571 9.44553 16.085 9.36455 15.9028 9.24308C15.6902 9.10136 15.5384 8.94952 15.5384 8.86854V8.85842C15.5384 8.84829 15.5384 8.83817 15.5485 8.82805H15.5587Z" fill="white"/>
<path d="M15.589 8.83817C15.6093 8.81793 15.6498 8.79768 15.7004 8.79768H15.7206C15.832 8.79768 15.9838 8.83817 16.1255 8.9394C16.3482 9.09124 16.4393 9.32406 16.3887 9.39492C16.3381 9.46578 16.1357 9.3848 15.913 9.22284C15.6902 9.07099 15.5384 8.90903 15.5789 8.83817H15.589Z" fill="white"/>
<path d="M15.6194 8.85842C15.6295 8.83817 15.67 8.82805 15.7206 8.82805H15.7409C15.8421 8.82805 15.9838 8.86854 16.1154 8.95964C16.3179 9.10136 16.3988 9.31394 16.3584 9.37468C16.3179 9.43541 16.1255 9.36455 15.9231 9.22284C15.7409 9.10136 15.6093 8.96977 15.6093 8.89891V8.88878C15.6093 8.87866 15.6093 8.86854 15.6194 8.86854V8.85842Z" fill="white"/>
<path d="M15.6599 8.86854C15.7004 8.8078 15.9332 8.82805 16.1154 8.94952C16.2673 9.05075 16.3482 9.20259 16.3482 9.28357V9.29369C16.3482 9.30382 16.3482 9.32406 16.3381 9.33418C16.328 9.34431 16.3179 9.35443 16.2976 9.35443H16.2774C16.2065 9.34431 16.0749 9.28357 15.9332 9.19247C15.7409 9.06087 15.6093 8.91915 15.6498 8.86854H15.6599Z" fill="white"/>
<path d="M15.6903 8.88878C15.7004 8.86853 15.7409 8.85841 15.7814 8.85841H15.7915C15.8725 8.85841 16.0041 8.88878 16.1053 8.96976C16.2774 9.09123 16.3482 9.26332 16.3077 9.31393C16.2976 9.32405 16.2875 9.33418 16.2672 9.33418H16.2571C16.1863 9.33418 16.0648 9.27344 15.9433 9.18234C15.7915 9.08111 15.6903 8.96976 15.6801 8.90902V8.8989C15.6801 8.88878 15.6801 8.88878 15.6903 8.87865V8.88878Z" fill="white"/>
<path d="M15.7206 8.89892C15.7307 8.87867 15.7611 8.87867 15.7915 8.86855H15.8218C15.9028 8.86855 16.0041 8.89892 16.0952 8.96977C16.2166 9.05076 16.2875 9.17223 16.2875 9.24309V9.25321C16.2875 9.26334 16.2875 9.27346 16.2774 9.28358C16.2672 9.2937 16.2571 9.30383 16.2369 9.30383H16.2268C16.166 9.30383 16.0547 9.25321 15.9433 9.17223C15.8117 9.08113 15.7105 8.9799 15.7105 8.92928V8.91916C15.7105 8.90904 15.7105 8.90904 15.7206 8.89892Z" fill="white"/>
<path d="M15.751 8.91915C15.7611 8.90903 15.7814 8.89891 15.8218 8.89891H15.832C15.9028 8.89891 15.9939 8.92928 16.085 8.99001C16.1964 9.07099 16.2571 9.17222 16.2571 9.23296C16.2571 9.24308 16.2571 9.2532 16.247 9.26333C16.2369 9.27345 16.2268 9.27345 16.2166 9.27345H16.2065C16.1559 9.27345 16.0547 9.22283 15.9534 9.15198C15.8117 9.06087 15.7206 8.95964 15.751 8.91915Z" fill="white"/>
<path d="M15.7814 8.92927C15.8117 8.88878 15.9534 8.90902 16.0749 8.99C16.166 9.05074 16.2268 9.14184 16.2268 9.20258V9.2127C16.2268 9.22283 16.2268 9.22283 16.2166 9.23295C16.1964 9.26332 16.085 9.22283 15.9636 9.14184C15.8421 9.06086 15.7611 8.96976 15.7814 8.93939V8.92927Z" fill="white"/>
<path d="M15.8218 8.94952C15.8421 8.91915 15.9636 8.92928 16.0648 9.00014C16.1458 9.06087 16.1964 9.14185 16.1964 9.18234C16.1964 9.19247 16.1964 9.19247 16.1863 9.20259C16.166 9.23296 16.0648 9.19247 15.9636 9.12161C15.8623 9.05075 15.7915 8.96977 15.8117 8.9394L15.8218 8.94952Z" fill="white"/>
<path d="M15.8522 8.95965C15.8623 8.94952 15.8725 8.94952 15.8927 8.94952H15.913C15.9534 8.94952 16.0142 8.96977 16.0648 9.00014C16.1357 9.05075 16.166 9.11149 16.1761 9.15198V9.1621V9.17222C16.1761 9.18235 16.166 9.18235 16.1559 9.18235C16.1255 9.18235 16.0648 9.15198 15.9939 9.11149C15.9231 9.06087 15.8725 9.01026 15.8623 8.97989V8.96977C15.8623 8.96977 15.8623 8.96977 15.8623 8.95965H15.8522Z" fill="white"/>
<path d="M15.8826 8.97989C15.8927 8.95964 15.9737 8.96976 16.0445 9.01026C16.1154 9.06087 16.1458 9.12161 16.1255 9.14185C16.1255 9.14185 16.1154 9.15197 16.1053 9.15197H16.0952C16.0648 9.15197 16.0243 9.13173 15.9737 9.09124C15.9129 9.05075 15.8725 9.01026 15.8725 8.97989C15.8725 8.97989 15.8725 8.97989 15.8725 8.96976L15.8826 8.97989Z" fill="white"/>
<path d="M15.913 8.99001C15.9231 8.96977 15.9838 8.97989 16.0344 9.02038C16.085 9.05075 16.1154 9.10136 16.0952 9.12161H16.085H16.0749C16.0547 9.12161 16.0142 9.10136 15.9838 9.08112C15.9433 9.05075 15.913 9.02038 15.9028 9.00013L15.913 8.99001Z" fill="white"/>
<path d="M15.9433 9.01025C15.9433 9.01025 15.9433 9.01025 15.9534 9.01025H15.9636C15.9838 9.01025 16.0041 9.02037 16.0243 9.03049C16.0547 9.05074 16.0749 9.08111 16.0648 9.09123C16.0648 9.09123 16.0648 9.09123 16.0547 9.09123C16.0445 9.09123 16.0142 9.08111 15.9939 9.06086C15.9636 9.04062 15.9433 9.02037 15.9433 9.01025Z" fill="white"/>
<path d="M15.9838 9.02039C15.9838 9.02039 16.0038 9.02039 16.0238 9.03039C16.0338 9.04039 16.0538 9.05039 16.0538 9.06039C16.0438 9.06039 16.0338 9.05039 16.0238 9.05039C16.0038 9.04039 15.9938 9.02039 15.9938 9.02039H15.9838Z" fill="white"/>
<path d="M14.3237 17.3919C14.2731 17.4628 14.0504 17.5134 13.7366 17.5235H13.6252C12.8964 17.5134 11.7525 17.2704 10.801 16.5416C9.55587 15.59 9.03961 14.102 9.01936 13.5452V13.5048C9.01936 13.4339 9.02949 13.3833 9.04973 13.3529C9.11047 13.2719 9.33317 13.2719 9.6571 13.3428C9.69759 13.6971 9.90004 13.9299 10.1632 14.0514C10.3454 14.1324 10.6086 14.1729 10.9224 14.1729H11.5804C11.8031 14.3146 12.0258 14.4664 12.2485 14.6385C13.5645 15.6407 14.3338 16.8959 14.3439 17.3008V17.321C14.3439 17.3615 14.3338 17.3919 14.3237 17.4121V17.3919Z" fill="white"/>
<path d="M14.2731 17.3818C14.101 17.6045 12.2384 17.6348 10.801 16.5315C9.36352 15.4281 8.908 13.6262 9.08009 13.4035C9.11046 13.363 9.18132 13.3428 9.28254 13.3428H9.31291C9.40402 13.3428 9.52549 13.363 9.66721 13.3934C9.71782 13.7173 9.92028 13.94 10.1733 14.0514C10.3556 14.1324 10.6187 14.1729 10.9326 14.1729H11.4792C11.7221 14.3247 11.9752 14.4867 12.2181 14.679C13.5139 15.671 14.2832 16.906 14.2933 17.3008C14.2933 17.3413 14.2832 17.3717 14.2731 17.3919V17.3818Z" fill="white"/>
<path d="M14.2123 17.3615C14.0402 17.5842 12.2181 17.5944 10.801 16.5213C9.3939 15.4382 8.92825 13.6667 9.10034 13.4541C9.13071 13.4137 9.19144 13.3934 9.29267 13.3934H9.32304C9.41414 13.3934 9.53562 13.4137 9.67734 13.444C9.74819 13.7376 9.9304 13.94 10.1733 14.0413C10.3556 14.1222 10.6188 14.1627 10.9326 14.1627H11.378C11.6513 14.3247 11.9246 14.5069 12.1979 14.7094C13.4734 15.6812 14.2326 16.8858 14.2427 17.2704V17.2907C14.2427 17.321 14.2326 17.3514 14.2224 17.3717L14.2123 17.3615Z" fill="white"/>
<path d="M14.1617 17.3514C14.1111 17.4121 13.9086 17.4628 13.6151 17.4628H13.5645C12.8862 17.4526 11.7626 17.2299 10.8212 16.5112C9.6166 15.59 9.11046 14.1526 9.11046 13.6566V13.6465C9.11046 13.5756 9.12058 13.525 9.14083 13.5048C9.17119 13.4744 9.23193 13.4541 9.32304 13.4541H9.3534C9.44451 13.4541 9.56598 13.4744 9.69758 13.5048C9.77856 13.7679 9.95065 13.9502 10.1733 14.0514C10.3556 14.1324 10.6187 14.1729 10.9326 14.1729H11.2666C11.5602 14.3449 11.8638 14.5373 12.1574 14.7701C13.5442 15.833 14.3237 17.1489 14.1617 17.3615V17.3514Z" fill="white"/>
<path d="M14.101 17.3413C13.939 17.5539 12.1777 17.5539 10.8212 16.5112C9.45464 15.4686 8.99912 13.768 9.16108 13.5554C9.19145 13.525 9.24206 13.5048 9.33317 13.5048H9.35341C9.44452 13.5048 9.56599 13.525 9.70771 13.5554C9.78869 13.7882 9.96078 13.9502 10.1632 14.0413C10.3454 14.1222 10.6086 14.1627 10.9224 14.1627H11.1451C11.4589 14.3449 11.7829 14.5575 12.1068 14.8005C13.4734 15.8431 14.2528 17.1287 14.0909 17.3413H14.101Z" fill="white"/>
<path d="M14.0504 17.321C13.8884 17.5235 12.1675 17.5235 10.8313 16.491C9.485 15.4585 9.0396 13.7983 9.19144 13.5959C9.24206 13.525 9.44451 13.525 9.73807 13.606C9.82918 13.8084 9.99114 13.9502 10.1734 14.0413C10.3556 14.1222 10.6188 14.1627 10.9326 14.1627H11.0439C11.378 14.3449 11.7323 14.5778 12.0865 14.841C13.4329 15.8735 14.2022 17.1186 14.0402 17.321H14.0504Z" fill="white"/>
<path d="M13.9896 17.3109C13.9491 17.3717 13.777 17.4121 13.524 17.4121H13.443C12.8053 17.402 11.7323 17.1793 10.8313 16.491C9.68746 15.6103 9.19144 14.2741 9.18132 13.8084V13.7882C9.18132 13.7275 9.19144 13.687 9.21169 13.6667C9.2623 13.5959 9.46476 13.606 9.75832 13.687C9.84942 13.8591 10.0013 13.9805 10.1632 14.0615C10.3454 14.1425 10.6086 14.183 10.9224 14.183C11.2767 14.3753 11.6614 14.6183 12.0461 14.9118C13.362 15.9241 14.1313 17.1388 13.9795 17.3413L13.9896 17.3109Z" fill="white"/>
<path d="M13.939 17.3008C13.8985 17.3514 13.7366 17.3919 13.4936 17.402H13.4126C12.785 17.3919 11.7323 17.1692 10.8415 16.491C9.70771 15.6204 9.22182 14.3045 9.22182 13.8489V13.8388C9.22182 13.7781 9.23194 13.7376 9.25219 13.7072C9.27243 13.6768 9.32304 13.6667 9.3939 13.6566H9.41415C9.51538 13.6566 9.64697 13.687 9.80894 13.7275C9.90004 13.8692 10.0316 13.9704 10.1835 14.0413C10.3454 14.1121 10.5681 14.1526 10.8313 14.1627C11.2059 14.3652 11.6209 14.6183 12.0359 14.9321C13.2304 15.8431 13.9694 16.9161 13.9694 17.2401C13.9694 17.2704 13.9593 17.2907 13.9491 17.3008H13.939Z" fill="white"/>
<path d="M13.8783 17.2907C13.8378 17.3413 13.6758 17.3818 13.443 17.3818H13.3924C12.785 17.3716 11.7323 17.1591 10.8415 16.4707C9.72796 15.6204 9.24207 14.3247 9.24207 13.8793C9.24207 13.8186 9.25219 13.768 9.27243 13.7477C9.32305 13.6768 9.53562 13.687 9.84943 13.7882C9.94053 13.8995 10.0519 13.9805 10.1734 14.0311C10.305 14.0919 10.4872 14.1324 10.6997 14.1425C11.1047 14.3449 11.5501 14.6284 11.9955 14.9624C13.2709 15.9342 14.0301 17.0781 13.8884 17.2704L13.8783 17.2907Z" fill="white"/>
<path d="M13.8175 17.2704C13.6758 17.4526 12.0967 17.4223 10.8414 16.4606C9.75831 15.6305 9.27242 14.3753 9.2623 13.94V13.8995C9.2623 13.8489 9.27242 13.8186 9.29267 13.7983C9.3534 13.7275 9.5761 13.7477 9.91015 13.8591C9.98101 13.9299 10.0721 13.9907 10.1632 14.0311C10.2645 14.0818 10.396 14.1121 10.5479 14.1324C10.973 14.3449 11.4589 14.6385 11.955 15.013C13.0988 15.8836 13.8277 16.8858 13.8378 17.1996V17.2097C13.8378 17.2299 13.8277 17.2502 13.8175 17.2704Z" fill="white"/>
<path d="M13.7669 17.2603C13.6252 17.4425 12.0866 17.3919 10.8516 16.4606C9.62672 15.5192 9.18132 14.0413 9.32304 13.8591C9.34329 13.8287 9.38378 13.8186 9.44451 13.8186H9.45464C9.57611 13.8186 9.77857 13.8692 10.0316 13.9704C10.0721 14.0008 10.1227 14.021 10.1734 14.0514C10.2341 14.0818 10.2948 14.102 10.3657 14.1222C10.8212 14.3348 11.3678 14.6588 11.9246 15.0738C13.0482 15.9342 13.7771 16.906 13.7872 17.2097V17.2198C13.7872 17.2401 13.7771 17.2603 13.7669 17.2704V17.2603Z" fill="white"/>
<path d="M13.7062 17.2502C13.5746 17.4223 12.0663 17.3716 10.8617 16.4505C9.65709 15.5293 9.21169 14.0818 9.35341 13.9097C9.48501 13.7275 10.6896 14.1931 11.8942 15.1143C13.0988 16.0354 13.858 17.0781 13.7163 17.2502H13.7062Z" fill="white"/>
<path d="M13.6556 17.2401C13.6252 17.2907 13.4936 17.3109 13.3013 17.321C12.7648 17.321 11.7424 17.1186 10.8718 16.4505C9.68746 15.5496 9.24206 14.1425 9.38378 13.9704C9.40402 13.9502 9.43439 13.94 9.48501 13.9299H9.50525C9.85955 13.94 10.8516 14.3854 11.8639 15.1649C12.9571 15.995 13.6758 16.9161 13.6758 17.1894C13.6758 17.2097 13.6758 17.2299 13.6657 17.2401H13.6556Z" fill="white"/>
<path d="M13.5948 17.2198C13.5645 17.2603 13.4329 17.2907 13.2507 17.2907H13.2405C12.7142 17.2907 11.7221 17.0781 10.8718 16.4302C9.8393 15.6407 9.38377 14.4765 9.38377 14.102C9.38377 14.0615 9.3939 14.021 9.40402 14.0109C9.53561 13.8388 10.6592 14.3146 11.8234 15.1953C12.9773 16.0861 13.7264 17.0578 13.605 17.2198H13.5948Z" fill="white"/>
<path d="M13.5442 17.2097C13.5139 17.2502 13.3924 17.2805 13.2102 17.2805H13.2C12.6939 17.2805 11.712 17.068 10.8819 16.4302C9.86966 15.6609 9.41414 14.517 9.41414 14.1627C9.41414 14.1222 9.42426 14.0919 9.43438 14.0716C9.44451 14.0514 9.47487 14.0413 9.51537 14.0413H9.53561C9.85954 14.0514 10.8111 14.5069 11.7829 15.256C12.9166 16.1265 13.6657 17.068 13.5341 17.2299L13.5442 17.2097Z" fill="white"/>
<path d="M13.4835 17.1996C13.4531 17.2401 13.3519 17.2603 13.2 17.2603H13.1494C12.6534 17.2502 11.7019 17.0376 10.8819 16.4201C9.76843 15.5698 9.33316 14.2741 9.45463 14.1121C9.5761 13.9502 10.639 14.4361 11.7525 15.2864C12.866 16.1367 13.605 17.0376 13.4835 17.1996Z" fill="white"/>
<path d="M13.4329 17.1894C13.3114 17.3413 11.9853 17.2502 10.8921 16.41C9.9304 15.6811 9.485 14.6183 9.46475 14.264V14.2235C9.46475 14.1931 9.47487 14.1729 9.485 14.1526C9.49512 14.1324 9.52549 14.1222 9.56598 14.1222H9.5761C9.86966 14.1324 10.7706 14.5879 11.7221 15.3167C12.8154 16.1569 13.5543 17.0174 13.4329 17.1692V17.1894Z" fill="white"/>
<path d="M13.3721 17.1692C13.2608 17.321 11.9651 17.2198 10.8921 16.3999C9.94052 15.671 9.49512 14.6284 9.485 14.3045V14.2842C9.485 14.2538 9.49512 14.2336 9.50525 14.2134C9.6166 14.0615 10.6086 14.5575 11.6816 15.3775C12.6635 16.1266 13.362 16.8959 13.3823 17.1287V17.1388C13.3823 17.1489 13.3823 17.1591 13.3721 17.1692Z" fill="white"/>
<path d="M13.3215 17.1591C13.2102 17.3008 11.955 17.1894 10.9123 16.3897C9.86967 15.59 9.43439 14.4057 9.54574 14.2538C9.55586 14.2336 9.57611 14.2336 9.60648 14.2336H9.6166C9.87979 14.2336 10.7402 14.7094 11.6614 15.4078C12.704 16.2075 13.443 17.0072 13.3316 17.1489L13.3215 17.1591Z" fill="white"/>
<path d="M13.2608 17.1489C13.2405 17.1793 13.1596 17.1996 13.0482 17.1996H13.0178C12.5927 17.1996 11.6918 16.987 10.9123 16.3897C9.88991 15.6103 9.45463 14.4563 9.56598 14.3146C9.67733 14.1729 10.5985 14.679 11.6209 15.4584C12.6433 16.2379 13.3721 17.0072 13.2608 17.1489Z" fill="white"/>
<path d="M13.2001 17.1388C13.0988 17.2704 11.9043 17.1489 10.9123 16.3796C10.0215 15.7014 9.58623 14.7397 9.57611 14.4462V14.4259C9.57611 14.3956 9.58623 14.3854 9.58623 14.3652C9.59636 14.3551 9.6166 14.3449 9.63685 14.3449H9.65709C9.91016 14.3551 10.6997 14.8308 11.5804 15.5091C12.5016 16.2177 13.1899 16.8858 13.2102 17.0983V17.1186C13.2102 17.1287 13.2102 17.1388 13.2001 17.1388Z" fill="white"/>
<path d="M13.1494 17.1186C13.1292 17.1489 13.0583 17.1591 12.9571 17.1591H12.9369C12.5421 17.1591 11.6816 16.9465 10.9224 16.3594C10.0418 15.6811 9.60648 14.7397 9.60648 14.4664C9.60648 14.4361 9.60648 14.4158 9.6166 14.4057C9.71783 14.2741 10.5783 14.7903 11.55 15.5394C12.5218 16.2885 13.2507 16.987 13.1494 17.1085V17.1186Z" fill="white"/>
<path d="M13.0887 17.1085C12.9976 17.2299 11.874 17.0882 10.9224 16.3594C10.0721 15.7014 9.63685 14.8005 9.62672 14.5272V14.5069C9.62672 14.4867 9.63685 14.4664 9.63685 14.4563C9.72795 14.3348 10.558 14.8511 11.5096 15.5799C12.4611 16.3088 13.1798 16.9667 13.0887 17.0983V17.1085Z" fill="white"/>
<path d="M13.0381 17.0983C12.947 17.2198 11.8638 17.068 10.9326 16.3594C10.0924 15.7115 9.65709 14.8308 9.65709 14.5778C9.65709 14.5575 9.65709 14.5373 9.66721 14.5272C9.67733 14.517 9.68746 14.5069 9.7077 14.5069C9.91016 14.5069 10.6289 15.0029 11.4691 15.6407C12.3396 16.3088 13.028 16.8959 13.028 17.068C13.028 17.0781 13.028 17.0882 13.0178 17.0983H13.0381Z" fill="white"/>
<path d="M12.9773 17.0882C12.8862 17.1996 11.8436 17.0477 10.9326 16.3493C10.0215 15.6508 9.60647 14.6891 9.68745 14.5676C9.69757 14.5575 9.7077 14.5474 9.72794 14.5474C9.92028 14.5474 10.6187 15.0434 11.4387 15.6811C12.3497 16.3796 13.0583 16.9667 12.9672 17.0781L12.9773 17.0882Z" fill="white"/>
<path d="M12.9267 17.068C12.9166 17.0882 12.866 17.0983 12.8053 17.0983H12.7749C12.4408 17.0882 11.6614 16.8756 10.9528 16.3391C10.0721 15.6609 9.64696 14.7296 9.72794 14.6183C9.73807 14.6081 9.7482 14.6081 9.75832 14.6081H9.76845C9.95066 14.6183 10.6187 15.1143 11.4184 15.7318C12.2991 16.41 13.0178 16.9667 12.9267 17.0781V17.068Z" fill="white"/>
<path d="M12.866 17.0578C12.8559 17.0781 12.8154 17.0882 12.7546 17.0882H12.7445C12.4408 17.0882 11.6614 16.8756 10.9528 16.329C10.1632 15.7216 9.74819 14.9219 9.73807 14.7094C9.73807 14.6891 9.73807 14.679 9.74819 14.6689C9.82917 14.5575 10.5175 15.1143 11.378 15.7723C12.1878 16.3897 12.866 16.8959 12.8761 17.0376V17.0477C12.8761 17.0578 12.8761 17.0578 12.866 17.068V17.0578Z" fill="white"/>
<path d="M12.8154 17.0477C12.8053 17.068 12.7749 17.068 12.7243 17.0781H12.6939C12.4004 17.068 11.6513 16.8554 10.9629 16.329C10.1227 15.6913 9.70771 14.8308 9.78869 14.7296C9.79881 14.7195 9.80893 14.7195 9.81906 14.7195C9.9709 14.7195 10.5884 15.2358 11.3577 15.8229C12.1473 16.4302 12.8154 16.8959 12.8255 17.0275V17.0376C12.8255 17.0477 12.8255 17.0477 12.8154 17.0477Z" fill="white"/>
<path d="M12.7546 17.0376C12.7445 17.0477 12.7142 17.0578 12.6737 17.0578H12.6332C12.3497 17.0477 11.6209 16.825 10.9528 16.3189C10.2138 15.752 9.7988 15.013 9.78868 14.8207V14.8005C9.78868 14.7903 9.78868 14.7802 9.7988 14.7701C9.86966 14.6689 10.4872 15.2357 11.3071 15.8532C12.0764 16.4404 12.7546 16.8858 12.7546 17.0072C12.7546 17.0174 12.7546 17.0174 12.7445 17.0174L12.7546 17.0376Z" fill="white"/>
<path d="M12.704 17.0174C12.6332 17.1085 11.7626 16.9161 10.973 16.3088C10.2442 15.752 9.8393 15.0434 9.82918 14.8612V14.8511C9.82918 14.841 9.82918 14.8308 9.8393 14.8308C9.8393 14.8207 9.84942 14.8207 9.85955 14.8207H9.86967C10.0114 14.8308 10.5681 15.3572 11.2869 15.914C12.0359 16.491 12.7142 16.8959 12.7142 17.0174C12.7142 17.0275 12.7142 17.0275 12.7142 17.0275L12.704 17.0174Z" fill="white"/>
<path d="M12.6433 17.0072C12.6332 17.0174 12.6129 17.0275 12.5724 17.0275C12.3396 17.0275 11.6411 16.8048 10.9832 16.2986C10.2746 15.752 9.86967 15.0738 9.85954 14.9017V14.8916C9.85954 14.8815 9.85954 14.8713 9.86967 14.8713C9.94053 14.7802 10.4872 15.3572 11.2565 15.9443C11.9853 16.5011 12.6534 16.8756 12.6635 16.987V16.9971L12.6433 17.0072Z" fill="white"/>
<path d="M12.5927 16.9971C12.5826 17.0072 12.5623 17.0174 12.5421 17.0174H12.5117C12.2789 17.0072 11.6209 16.7845 10.9832 16.2986C10.2341 15.7318 9.81906 15.013 9.88992 14.9321L9.90004 14.9219H9.91017C10.0316 14.9422 10.5277 15.4686 11.216 15.995C11.9246 16.5416 12.5826 16.8858 12.5927 16.987V16.9971Z" fill="white"/>
<path d="M12.5319 16.9769C12.5218 16.987 12.5016 16.987 12.4813 16.987C12.289 16.987 11.6209 16.7542 10.9933 16.2784C10.3252 15.7621 9.92028 15.1446 9.91016 14.9928V14.9827C9.91016 14.9726 9.91016 14.9726 9.92028 14.9624C9.98102 14.8815 10.4669 15.4686 11.1856 16.0253C11.9043 16.5821 12.5927 16.8959 12.5421 16.9667L12.5319 16.9769Z" fill="white"/>
<path d="M12.4712 16.9667C12.4105 17.0376 11.6918 16.8149 10.9933 16.2784C10.2948 15.7419 9.87979 15.1042 9.94053 15.0333C9.99114 14.9624 10.4467 15.5496 11.1451 16.0861C11.8436 16.6226 12.532 16.906 12.4712 16.9769V16.9667Z" fill="white"/>
<path d="M12.4206 16.9566C12.37 17.0275 11.6816 16.7845 11.0034 16.2683C10.3252 15.752 9.92028 15.1446 9.97089 15.0738C9.97089 15.0738 9.98102 15.0738 9.98102 15.0637H9.99114C10.0822 15.0738 10.4872 15.6305 11.1249 16.1164C11.8031 16.6327 12.4813 16.8858 12.4307 16.9465L12.4206 16.9566Z" fill="white"/>
<path d="M12.3599 16.9465C12.3599 16.9566 12.3497 16.9566 12.3295 16.9566H12.3194C12.1574 16.9465 11.5804 16.7035 11.0034 16.2683C10.3454 15.7621 9.94053 15.2054 9.99115 15.1345H10.0013C10.0721 15.1345 10.4568 15.7014 11.0743 16.1772C11.7019 16.6529 12.3497 16.8756 12.3599 16.9465Z" fill="white"/>
<path d="M12.3092 16.9262C12.2586 16.987 11.6411 16.7339 11.0135 16.248C10.3859 15.7621 9.98101 15.2357 10.0215 15.175C10.0215 15.175 10.0215 15.175 10.0316 15.175H10.0418C10.1126 15.1953 10.4568 15.752 11.054 16.2075C11.6614 16.6732 12.3092 16.8554 12.3194 16.9161L12.3092 16.9262Z" fill="white"/>
<path d="M12.532 16.9971C12.4813 17.0578 12.4004 17.0882 12.289 17.0882H12.2688C11.9145 17.0781 11.3273 16.7946 10.7402 16.329C9.96077 15.7014 9.50525 14.9827 9.71783 14.7195C9.75832 14.6689 9.81905 14.6385 9.90004 14.6385H9.92028C10.224 14.6486 10.7605 15.0029 11.3678 15.4888C12.0359 16.0253 12.5623 16.5517 12.5724 16.8554V16.8756C12.5724 16.9161 12.5522 16.9566 12.532 16.987V16.9971Z" fill="white"/>
<path d="M12.4915 16.9769C12.4409 17.0376 12.37 17.068 12.2688 17.068H12.2283C11.8841 17.0578 11.3172 16.7845 10.7504 16.329C10.1227 15.8229 9.71783 15.2661 9.69759 14.9422V14.9118C9.69759 14.8511 9.71783 14.8106 9.7482 14.7701C9.95065 14.517 10.5985 14.9118 11.3476 15.5192C11.9955 16.0456 12.5218 16.5618 12.5218 16.8554V16.8655C12.5218 16.9161 12.5117 16.9566 12.4813 16.987L12.4915 16.9769Z" fill="white"/>
<path d="M12.451 16.9566C12.4004 17.0174 12.3194 17.0477 12.208 17.0477C11.874 17.0477 11.3071 16.7744 10.7605 16.329C10.0215 15.7318 9.58623 15.0535 9.78869 14.8106C9.99114 14.5676 10.6188 14.9422 11.3476 15.5394C11.9853 16.0557 12.4915 16.5517 12.4915 16.8453C12.4915 16.8959 12.4813 16.9364 12.451 16.9667V16.9566Z" fill="white"/>
<path d="M12.4105 16.9364C12.3599 16.9971 12.2789 17.0275 12.1777 17.0275C11.8537 17.0275 11.3071 16.7643 10.7706 16.329C10.1835 15.8532 9.78869 15.3167 9.77856 15.013V14.9928C9.77856 14.9422 9.79881 14.8916 9.82918 14.8511C9.86967 14.8005 9.92029 14.7802 9.99115 14.7802H10.0114C10.2948 14.7903 10.7908 15.1143 11.3476 15.5597C11.9651 16.0557 12.451 16.5416 12.4611 16.825C12.4611 16.8655 12.451 16.906 12.4206 16.9364H12.4105Z" fill="white"/>
<path d="M12.3599 16.906C12.1675 17.1388 11.4589 16.8756 10.7605 16.3088C10.1835 15.8431 9.79881 15.3269 9.79881 15.0232V15.0029C9.79881 14.9523 9.81906 14.9017 9.8393 14.8713C10.0316 14.6385 10.6188 14.9928 11.3172 15.5597C12.0157 16.1266 12.5522 16.6732 12.3599 16.906Z" fill="white"/>
<path d="M12.3194 16.8858C12.1372 17.1085 11.4387 16.8554 10.7706 16.3088C10.2138 15.8532 9.8393 15.3572 9.82918 15.0637V15.0434C9.82918 14.9928 9.84942 14.9422 9.86967 14.9118C9.91016 14.8612 9.96077 14.841 10.0316 14.841H10.0519C10.3151 14.8511 10.7807 15.1548 11.3071 15.5799C11.8841 16.0456 12.3497 16.5112 12.3599 16.7744C12.3599 16.8149 12.3497 16.8554 12.3194 16.8858Z" fill="white"/>
<path d="M12.2789 16.8655C12.2384 16.9161 12.1675 16.9465 12.0663 16.9465H12.0562C11.7626 16.9465 11.2565 16.7035 10.7706 16.3088C10.2341 15.8735 9.86967 15.3876 9.85954 15.1042V15.0839C9.85954 15.0333 9.87979 14.9928 9.90003 14.9624C10.0822 14.7397 10.639 15.0839 11.2869 15.6103C11.8436 16.0557 12.289 16.5011 12.3092 16.7643V16.7947C12.3092 16.825 12.2991 16.8655 12.2789 16.8858V16.8655Z" fill="white"/>
<path d="M12.2384 16.8453C12.0663 17.0578 11.4083 16.8149 10.7807 16.2986C10.143 15.7824 9.76844 15.1953 9.94052 14.9827C9.97089 14.9422 10.0215 14.9219 10.0822 14.9219H10.1025C10.3556 14.9321 10.7908 15.2155 11.2868 15.6103C11.8335 16.0456 12.2688 16.4808 12.2789 16.7339V16.7542C12.2789 16.7845 12.2688 16.825 12.2485 16.8453H12.2384Z" fill="white"/>
<path d="M12.1979 16.825C12.1574 16.8756 12.0967 16.8959 12.0157 16.8959H11.9954C11.7221 16.8858 11.2464 16.6631 10.7908 16.2986C10.1734 15.8026 9.80893 15.2357 9.98102 15.0232C10.0114 14.9827 10.062 14.9624 10.1227 14.9624H10.143C10.3859 14.9726 10.8111 15.2459 11.2869 15.6305C11.9043 16.1265 12.37 16.6124 12.208 16.825H12.1979Z" fill="white"/>
<path d="M12.1574 16.8048C12.1169 16.8453 12.0562 16.8756 11.9853 16.8756H11.955C11.6816 16.8655 11.2362 16.6529 10.801 16.2986C10.3151 15.9038 9.98102 15.4584 9.9709 15.2054V15.1851C9.9709 15.1446 9.98102 15.1042 10.0114 15.0738C10.0418 15.0333 10.0924 15.013 10.143 15.013H10.1632C10.3961 15.0232 10.8111 15.2864 11.2666 15.6609C11.8639 16.1367 12.3194 16.6124 12.1574 16.8149V16.8048Z" fill="white"/>
<path d="M12.1169 16.7845C11.9651 16.9769 11.3678 16.7542 10.801 16.2885C10.224 15.8229 9.88993 15.2965 10.0418 15.1042C10.0721 15.0637 10.1126 15.0434 10.1734 15.0434H10.1936C10.4163 15.0535 10.8111 15.3066 11.2565 15.671C11.7525 16.0658 12.1473 16.4606 12.1473 16.6833C12.1473 16.7238 12.1372 16.7542 12.1169 16.7744V16.7845Z" fill="white"/>
<path d="M12.0764 16.7643C12.0461 16.8048 11.9853 16.825 11.9043 16.8351H11.8841C11.631 16.8351 11.2059 16.6327 10.801 16.2885C10.2442 15.8431 9.92029 15.3269 10.0721 15.1446C10.1025 15.1042 10.143 15.094 10.1936 15.0839H10.2138C10.4365 15.094 10.8111 15.337 11.2464 15.6913C11.7221 16.0759 12.1068 16.4505 12.1068 16.6732V16.6833C12.1068 16.7137 12.0967 16.744 12.0764 16.7744V16.7643Z" fill="white"/>
<path d="M12.0359 16.744C12.0056 16.7845 11.9448 16.8048 11.874 16.8048H11.8436C11.6007 16.7947 11.1957 16.6023 10.801 16.2784C10.2645 15.8431 9.95066 15.3572 10.0924 15.175C10.2341 14.9928 10.6896 15.2661 11.2261 15.7014C11.6816 16.0658 12.0461 16.4302 12.0562 16.6428V16.6631C12.0562 16.6934 12.0461 16.7137 12.0258 16.744H12.0359Z" fill="white"/>
<path d="M11.9853 16.7137C11.955 16.7542 11.9043 16.7744 11.8335 16.7744H11.8132C11.5804 16.7744 11.1856 16.5821 10.8111 16.2683C10.2948 15.8532 9.99113 15.3775 10.1329 15.2054C10.1632 15.175 10.2037 15.1548 10.2543 15.1548H10.2746C10.477 15.1649 10.8313 15.3876 11.2362 15.7115C11.6715 16.0658 12.0258 16.4201 12.0359 16.6124V16.6226C12.0359 16.6529 12.0258 16.6732 12.0056 16.7035L11.9853 16.7137Z" fill="white"/>
<path d="M11.9448 16.6934C11.9145 16.7339 11.8639 16.7542 11.793 16.7542H11.7829C11.5602 16.7542 11.1856 16.572 10.8111 16.2683C10.3961 15.9342 10.1227 15.5597 10.1227 15.3572V15.3471C10.1227 15.3066 10.1329 15.2762 10.1531 15.2459C10.1835 15.2155 10.2138 15.1953 10.2645 15.1953H10.2746C10.4669 15.2054 10.8111 15.4281 11.1958 15.7318C11.6209 16.0759 11.955 16.41 11.9651 16.6023V16.6124C11.9651 16.6428 11.955 16.6631 11.9347 16.6934H11.9448Z" fill="white"/>
<path d="M11.9043 16.6732C11.7829 16.8351 11.2868 16.6529 10.8212 16.2683C10.4365 15.9545 10.1733 15.6002 10.1632 15.3977V15.3775C10.1632 15.3471 10.1733 15.3167 10.1936 15.2864C10.224 15.256 10.2543 15.2357 10.3049 15.2357H10.3151C10.5074 15.2459 10.8313 15.4584 11.1957 15.752C11.6007 16.0759 11.9246 16.3999 11.9246 16.5922V16.6023C11.9246 16.6327 11.9145 16.6529 11.8942 16.6732H11.9043Z" fill="white"/>
<path d="M11.8639 16.6529C11.8335 16.6833 11.793 16.7035 11.7323 16.7035H11.7019C11.4994 16.6934 11.1553 16.5315 10.8212 16.2581C10.4467 15.9545 10.1936 15.6204 10.1936 15.4281V15.418C10.1936 15.3876 10.2037 15.3572 10.224 15.3269C10.3454 15.175 10.7301 15.4078 11.1856 15.7723C11.6412 16.1367 11.9853 16.5011 11.8639 16.6529Z" fill="white"/>
<path d="M11.8234 16.6327C11.712 16.7744 11.2666 16.6124 10.8313 16.2581C10.4669 15.9646 10.224 15.6305 10.2341 15.4483C10.2341 15.418 10.2442 15.3876 10.2645 15.3673C10.2948 15.337 10.3252 15.3269 10.3758 15.3269C10.5479 15.3269 10.8516 15.5293 11.1856 15.8026C11.5602 16.1063 11.8537 16.3999 11.8537 16.5618V16.572C11.8537 16.5922 11.8436 16.6226 11.8335 16.6428L11.8234 16.6327Z" fill="white"/>
<path d="M11.7829 16.6124C11.7525 16.6428 11.712 16.6631 11.6614 16.6631H11.6411C11.4589 16.6631 11.1451 16.5112 10.8313 16.2581C10.4872 15.9848 10.2645 15.671 10.2543 15.4989V15.4888C10.2543 15.4585 10.2645 15.4281 10.2847 15.4078C10.3961 15.2661 10.7503 15.4787 11.1654 15.8127C11.5804 16.1468 11.8942 16.4707 11.7829 16.6124Z" fill="white"/>
<path d="M11.7424 16.5922C11.6412 16.7238 11.2362 16.572 10.8415 16.2581C10.5175 15.995 10.305 15.7014 10.2948 15.5394V15.5293C10.2948 15.4989 10.305 15.4787 10.3151 15.4585C10.4163 15.3269 10.7605 15.5293 11.1553 15.8431C11.5501 16.1569 11.8436 16.4707 11.7424 16.6023V16.5922Z" fill="white"/>
<path d="M11.7019 16.572C11.6816 16.6023 11.631 16.6124 11.5804 16.6124C11.4184 16.6124 11.1249 16.4707 10.8516 16.248C10.5479 15.995 10.3353 15.7216 10.3353 15.5597V15.5496C10.3353 15.5192 10.3454 15.4989 10.3556 15.4787C10.4568 15.3572 10.7807 15.5496 11.1451 15.8431C11.4691 16.0962 11.7221 16.3594 11.7221 16.5011C11.7221 16.5213 11.712 16.5416 11.7019 16.5618V16.572Z" fill="white"/>
<path d="M11.6513 16.5416C11.5602 16.6631 11.1957 16.5213 10.8415 16.2379C10.5479 16.0051 10.3556 15.7419 10.3556 15.59V15.5799C10.3556 15.5496 10.3657 15.5293 10.3758 15.5192C10.3961 15.4888 10.4264 15.4787 10.4669 15.4787C10.6086 15.4787 10.8516 15.6407 11.1249 15.8634C11.4792 16.1468 11.7424 16.4302 11.6513 16.5416Z" fill="white"/>
<path d="M11.6108 16.5213C11.5197 16.6327 11.1856 16.5011 10.8516 16.2379C10.5175 15.9747 10.3252 15.6609 10.4062 15.5597C10.4264 15.5394 10.4467 15.5293 10.4872 15.5293H10.4973C10.6289 15.5293 10.8617 15.6811 11.1148 15.8937C11.3982 16.1164 11.6209 16.3391 11.631 16.4707V16.491C11.631 16.5112 11.6209 16.5213 11.6108 16.5416V16.5213Z" fill="white"/>
<path d="M11.5703 16.5011C11.55 16.5213 11.5197 16.5315 11.4893 16.5416H11.4589C11.3172 16.5315 11.0844 16.4201 10.8617 16.2379C10.5479 15.9848 10.3657 15.7014 10.4467 15.6002C10.5276 15.4989 10.801 15.6508 11.1148 15.9038C11.4286 16.1569 11.6614 16.41 11.5804 16.5112L11.5703 16.5011Z" fill="white"/>
<path d="M11.5298 16.4808C11.4488 16.5719 11.1553 16.4606 10.8617 16.2278C10.5681 15.995 10.396 15.7216 10.477 15.6305C10.558 15.5293 10.8111 15.6811 11.0945 15.914C11.3881 16.1468 11.6007 16.3796 11.5298 16.4808Z" fill="white"/>
<path d="M11.4893 16.4606C11.4691 16.4808 11.4488 16.491 11.4083 16.491H11.3881C11.2666 16.491 11.0642 16.3897 10.8617 16.2278C10.5884 16.0051 10.4264 15.7621 10.4973 15.671C10.5074 15.6508 10.5277 15.6407 10.558 15.6407H10.5681C10.6795 15.6407 10.8617 15.7621 11.0743 15.9342C11.3071 16.1164 11.4893 16.3088 11.4893 16.41V16.4201C11.4893 16.4302 11.4792 16.4505 11.4792 16.4606H11.4893Z" fill="white"/>
<path d="M11.4488 16.4404C11.4387 16.4606 11.4083 16.4707 11.378 16.4707H11.3577C11.2464 16.4707 11.054 16.3796 10.8718 16.2278C10.6188 16.0253 10.4669 15.7925 10.5378 15.7115C10.6086 15.6305 10.8212 15.752 11.0743 15.9545C11.2869 16.1265 11.4589 16.2986 11.4589 16.3999V16.41C11.4589 16.4201 11.4589 16.4404 11.4488 16.4505V16.4404Z" fill="white"/>
<path d="M11.4083 16.4201C11.3476 16.491 11.1148 16.41 10.8819 16.2177C10.6491 16.0354 10.5175 15.8229 10.5783 15.7419C10.5884 15.7318 10.6086 15.7216 10.6289 15.7216H10.6491C10.7402 15.7318 10.9022 15.833 11.0743 15.9747C11.2666 16.1266 11.4184 16.2885 11.4286 16.3796V16.3897C11.4286 16.3999 11.4286 16.41 11.4184 16.4201H11.4083Z" fill="white"/>
<path d="M11.3678 16.3999C11.3577 16.4201 11.3375 16.4201 11.3071 16.4201H11.297C11.2059 16.4201 11.0439 16.3391 10.8921 16.2177C10.6795 16.0456 10.558 15.8532 10.6086 15.7824C10.6188 15.7723 10.639 15.7621 10.6491 15.7621H10.6694C10.7504 15.7723 10.9022 15.8634 11.0642 15.9848C11.2767 16.1569 11.4286 16.329 11.378 16.3897L11.3678 16.3999Z" fill="white"/>
<path d="M11.3273 16.3796C11.3172 16.3897 11.297 16.3999 11.2666 16.3999C11.1856 16.3999 11.0338 16.329 10.8921 16.2177C10.6997 16.0658 10.5884 15.8937 10.639 15.8229C10.6896 15.7621 10.8617 15.8532 11.0439 16.0051C11.2362 16.1569 11.378 16.3088 11.3273 16.3695V16.3796Z" fill="white"/>
<path d="M11.2767 16.3493C11.2666 16.3594 11.2565 16.3695 11.2362 16.3695H11.216C11.135 16.3594 11.0135 16.2986 10.8921 16.2075C10.7503 16.0962 10.6592 15.9646 10.6592 15.8937V15.8836C10.6592 15.8735 10.6592 15.8634 10.6694 15.8532C10.6795 15.8431 10.6896 15.833 10.7099 15.833H10.72C10.7908 15.833 10.9123 15.914 11.0338 16.0152C11.2059 16.1569 11.3273 16.2885 11.2869 16.3493H11.2767Z" fill="white"/>
<path d="M11.2362 16.329C11.2261 16.3391 11.216 16.3493 11.1957 16.3493H11.1856C11.1148 16.3493 11.0034 16.2885 10.8921 16.1974C10.7706 16.0962 10.6896 15.9848 10.6795 15.9241V15.914C10.6795 15.9038 10.6795 15.8937 10.6896 15.8937C10.6997 15.8836 10.7099 15.8836 10.72 15.8735H10.7301C10.7908 15.8735 10.8921 15.9443 11.0135 16.0354C11.1451 16.1367 11.2362 16.2379 11.2362 16.2986C11.2362 16.3088 11.2362 16.3189 11.2261 16.3189L11.2362 16.329Z" fill="white"/>
<path d="M11.1957 16.3088C11.1856 16.3189 11.1755 16.3189 11.1654 16.3189H11.1553C11.0945 16.3189 11.0034 16.2683 10.9123 16.1873C10.7807 16.0861 10.7099 15.9646 10.7402 15.9241C10.7706 15.8836 10.8921 15.9443 11.0237 16.0456C11.1553 16.1468 11.2464 16.2581 11.216 16.2986L11.1957 16.3088Z" fill="white"/>
<path d="M11.1553 16.2885C11.1451 16.2986 11.1451 16.2986 11.1249 16.2986H11.1148C11.0641 16.2986 10.9832 16.2581 10.9123 16.1873C10.801 16.0962 10.7402 16.0051 10.7605 15.9646C10.7605 15.9545 10.7706 15.9545 10.7807 15.9545H10.7908C10.8313 15.9545 10.9123 16.0051 10.9933 16.0658C11.0844 16.1367 11.1553 16.2177 11.1553 16.2581C11.1553 16.2683 11.1553 16.2683 11.1451 16.2784L11.1553 16.2885Z" fill="white"/>
<path d="M11.1148 16.2683C11.0945 16.2986 11.0034 16.2581 10.9123 16.1873C10.8414 16.1265 10.7908 16.0658 10.7908 16.0253C10.7908 16.0152 10.7908 16.0152 10.801 16.0152C10.801 16.0051 10.8111 16.0051 10.8212 16.0051H10.8313C10.8718 16.0051 10.9326 16.0456 10.9933 16.0962C11.0641 16.1569 11.1148 16.2177 11.1249 16.248V16.2581V16.2683H11.1148Z" fill="white"/>
<path d="M11.0743 16.248C11.0743 16.248 11.0641 16.2581 11.054 16.2581H11.0439C11.0135 16.2581 10.9629 16.2278 10.9123 16.1873C10.8516 16.1367 10.8212 16.0962 10.8111 16.0658V16.0557V16.0456C10.8313 16.0253 10.8921 16.0557 10.9629 16.1063C11.0338 16.1569 11.0743 16.2177 11.054 16.2379L11.0743 16.248Z" fill="white"/>
<path d="M11.0338 16.2278C11.0237 16.2379 10.9731 16.2278 10.9224 16.1873C10.8819 16.1569 10.8516 16.1164 10.8516 16.0962C10.8516 16.0962 10.8516 16.0962 10.8516 16.0861C10.8516 16.0861 10.8516 16.0861 10.8617 16.0861H10.8718C10.8921 16.0861 10.9326 16.1063 10.9629 16.1367C11.0135 16.1772 11.0439 16.2177 11.0237 16.2278H11.0338Z" fill="white"/>
</svg>
