<?xml version="1.0" encoding="UTF-8"?>
<!DOCTYPE svg PUBLIC "-//W3C//DTD SVG 1.1//EN" "http://www.w3.org/Graphics/SVG/1.1/DTD/svg11.dtd">
<!-- Creator: CorelDRAW 2018 (64-Bit) -->
<svg xmlns="http://www.w3.org/2000/svg" xml:space="preserve" width="5.4187mm" height="2.2012mm" version="1.1" style="shape-rendering:geometricPrecision; text-rendering:geometricPrecision; image-rendering:optimizeQuality; fill-rule:evenodd; clip-rule:evenodd"
viewBox="0 0 6.62 2.69"
 xmlns:xlink="http://www.w3.org/1999/xlink">
 <defs>
  <style type="text/css">
   <![CDATA[
    .fil3 {fill:none}
    .fil1 {fill:#FEFEFE}
    .fil2 {fill:black}
    .fil0 {fill:white}
   ]]>
  </style>
   <clipPath id="id0">
    <path d="M6.62 0l0 2.69 -6.62 0 0 -2.69 6.62 0z"/>
   </clipPath>
 </defs>
 <g id="Слой_x0020_1">
  <metadata id="CorelCorpID_0Corel-Layer"/>
  <g>
  </g>
  <g style="clip-path:url(#id0)">
   <g>
    <g id="_4443447536">
     <path class="fil0" d="M4.11 1.5c-0.16,0.02 -0.25,0.1 -0.29,0.2 -0.01,-0.04 -0.02,-0.08 -0.03,-0.12 -0,-0 -0.07,-0.18 -0.05,-0.22 0,-0 0.01,-0.02 0.03,-0.02 0,0 0.01,0 0.01,0 0.01,0 0.01,0 0.01,0.01 0,0 0,0.01 0,0.01 -0,0 -0,0 -0.01,0 -0.01,0.01 -0.05,0.04 -0.04,0.09 0.02,0.06 0.06,0.09 0.12,0.08 0.06,-0.01 0.1,-0.04 0.13,-0.07l0.02 0.02c0.05,-0.03 0.12,-0.06 0.17,-0.06 0.02,0 0.03,0 0.03,0.01 0,0.02 -0.03,0.07 -0.12,0.08zm-0 0.3c-0.01,0 -0.02,-0 -0.02,-0 -0,-0 -0,-0.02 0.02,-0.06 0.01,-0.02 0.04,-0.04 0.07,-0.06 -0.01,0.05 -0.04,0.11 -0.07,0.13zm-0.44 -0.81c0.03,-0.01 0.05,-0.01 0.07,-0 0,0.02 -0.02,0.06 -0.03,0.08 -0.02,0.05 -0.02,0.06 -0,0.09 -0.06,0.02 -0.11,0.05 -0.16,0.09l0.12 -0.25zm-0.25 1.01c0.03,-0 0.06,-0.02 0.08,-0.03 -0.02,0.08 -0.06,0.08 -0.08,0.03zm-0.12 -0.21c0.02,-0.04 0.03,-0.08 0.04,-0.1l0.11 -0.23c-0.01,0.06 0,0.12 0.02,0.19 0.01,0.04 0.02,0.08 0.03,0.11 -0.03,-0.02 -0.06,-0.02 -0.1,-0.02 -0.04,0.01 -0.07,0.02 -0.1,0.04zm-0.1 0.54c-0.03,0.03 -0.05,0.05 -0.06,0.06 -0.01,-0.06 0.02,-0.18 0.06,-0.3 0.01,0.05 0.03,0.1 0.07,0.14 -0.02,0.03 -0.04,0.07 -0.06,0.11zm-0.29 -0.48c-0.04,0.01 -0.04,0.01 -0.06,0.02 0.04,-0.11 0.22,-0.49 0.23,-0.52l-0.34 0.08c-0.04,0.12 -0.15,0.44 -0.25,0.51 0.05,-0.2 0.18,-0.46 0.2,-0.5l-0.07 0.02c0.14,-0.09 0.25,-0.2 0.33,-0.32 0.07,-0.11 0.09,-0.22 0.08,-0.31 0.05,0.04 0.12,0.05 0.18,-0.03 0,-0 0,-0.01 0.01,-0.01 0.01,0.04 0.03,0.06 0.08,0.11 -0.03,0.02 -0.05,0.01 -0.09,0.02l-0.08 0.01c0.04,0.02 0.05,0.11 0.13,0.14 0,0 0.01,0 0.01,0l-0.04 0.01c-0.09,0.18 -0.22,0.48 -0.32,0.78zm-0.54 -0.57l0.04 -0.08 0.14 -0.15c-0.02,0.1 -0.09,0.18 -0.18,0.23zm-0.4 -0.13l0.06 0.1 -0 0 -0.04 -0c-0,0 -0.12,-0.01 -0.15,-0.12 -0.05,-0.25 0.58,-0.54 0.7,-0.19 0.01,0.02 0.01,0.04 0.01,0.07l-0.58 0.14zm1.18 -0.47c0,-0 0.01,-0.01 0.02,-0.01 -0.01,0.01 -0.02,0.02 -0.02,0.03 -0,-0.01 0,-0.02 0,-0.02zm0.18 0.14c0.01,-0 0.03,-0 0.03,-0 -0.02,0.02 -0.03,0.04 -0.04,0.05 0,-0 0.01,-0.05 0.01,-0.05zm0.55 0.28c0,0 -0,0.02 -0.02,0.04 -0.01,-0 -0.02,-0 -0.02,-0 0.02,-0.01 0.03,-0.02 0.05,-0.04zm0.93 0.07c-0.01,-0.02 -0.02,-0.02 -0.04,-0.04l-0.29 0.07c0.09,0.04 0.09,0.13 -0.02,0.49 -0.01,0.02 -0.01,0.03 -0.02,0.05l-0.02 0.01c0.02,-0.08 0.08,-0.25 0.09,-0.32 0.01,-0.06 -0,-0.12 -0.04,-0.17 -0.03,-0.04 -0.08,-0.06 -0.14,-0.07 -0.12,-0.01 -0.22,0.01 -0.31,0.05 -0.01,-0.02 -0.02,-0.03 -0.03,-0.04 -0.03,-0.03 -0.07,-0.05 -0.12,-0.05l0.09 -0.04c0.09,-0.04 0.15,-0.13 0.17,-0.22l0.02 0.05 0.02 -0.15c0.02,-0.17 -0.07,-0.31 -0.18,-0.37l0.06 0.02c-0.04,-0.06 -0.11,-0.19 -0.29,-0.18 -0.01,-0.1 0.06,-0.11 0.04,-0.15 -0.01,-0.01 -0.05,-0.04 -0.1,0.02 -0.03,0.04 -0.05,-0.1 -0.14,-0.06 -0.02,0.01 -0.03,0.02 -0.04,0.04 -0.01,0.01 -0.01,0.03 -0.03,0.02 -0.01,-0.01 -0.03,-0.02 -0.04,-0.03 -0.05,-0.02 -0.11,-0.01 -0.05,0.06 0.01,0.02 0.01,0.04 0.02,0.16 -0.02,0.01 -0.03,0.02 -0.04,0.04 -0.04,0.01 -0.13,0.02 -0.2,0.08 -0.02,0.01 -0.03,0.04 -0.03,0.05 -0,0.01 0,0.01 -0,0.04 -0,0.01 -0.01,0.05 -0.01,0.05 -0.07,-0.01 -0.14,0.05 -0.16,0.1 -0,0.01 -0,0.01 -0.01,0.02 -0.04,-0.08 -0.1,-0.14 -0.19,-0.19 -0.09,-0.05 -0.2,-0.07 -0.33,-0.07 -0.45,0 -1.02,0.31 -0.97,0.73 0.01,0.12 0.09,0.2 0.21,0.23l-0.03 0.01c0.03,0.04 0.1,0.14 0.19,0.2l-0.22 0.5 -0.23 0.22c0.76,-0.06 0.63,-0.05 0.75,-0.06l-0.06 -0.07c-0,-0 -0.04,-0.05 -0.03,-0.12 0.01,-0.07 0.11,-0.36 0.14,-0.45 0.04,-0.01 0.08,-0.02 0.11,-0.03 -0.07,0.16 -0.17,0.45 -0.11,0.56 0.05,0.12 0.22,0.14 0.4,-0 0.02,0.05 0.07,0.07 0.13,0.07 0.03,0 0.05,-0 0.07,-0.01 -0.04,0.25 -0.01,0.44 0.18,0.45 0.04,-0 0.1,-0.02 0.17,-0.05 0.08,-0.04 0.19,-0.13 0.27,-0.31l0 -0.01c0,0 0.01,0 0.01,0 0.16,0 0.35,-0.12 0.39,-0.36 0.03,0.06 0.09,0.11 0.17,0.11 0.06,0 0.12,-0.02 0.18,-0.07 0.03,0.03 0.07,0.04 0.11,0.04 0.05,0 0.1,-0.02 0.15,-0.05 0,0 0,0 0,0 0.02,0.02 0.04,0.03 0.06,0.03l0.33 -0.02 -0.08 -0.08c-0.01,-0 -0.01,-0 -0.01,-0.01 0.01,-0.03 0.03,-0.14 0.06,-0.25 0.07,-0.25 0.11,-0.28 0.11,-0.28 0.01,-0.01 0.02,-0.01 0.02,-0.01 0,0 0.01,0 0.01,0.01 0,0.01 0,0.03 -0.01,0.04 -0.02,0 -0.04,0.01 -0.05,0.02 -0.06,0.05 -0.04,0.18 0.09,0.16 0.09,-0.02 0.15,-0.06 0.19,-0.12 0.16,-0.21 -0.09,-0.54 -0.34,-0.29z"/>
     <path class="fil1" d="M3.78 1.27c0.04,0.02 0.04,0.06 0.03,0.08 -0.01,0.02 -0.05,0.03 -0.04,0.06 0.01,0.02 0.03,0.06 0.07,0.05 0.1,-0.02 0.13,-0.09 0.13,-0.16 0,-0.19 -0.21,-0.16 -0.3,-0.12 -0.13,0.05 -0.26,0.17 -0.19,0.44 0.15,0.54 -0.18,0.51 -0.13,0.3 0,0 0,0.02 0.04,0.02 0.1,-0.01 0.12,-0.19 -0.01,-0.17 -0.15,0.02 -0.21,0.24 -0.13,0.37 0.12,0.2 0.67,0.05 0.48,-0.56 0,0 -0.07,-0.19 -0.04,-0.25 0,0 0.03,-0.07 0.1,-0.04z"/>
     <path class="fil2" d="M3.26 2.12c-0.08,-0.13 0,-0.34 0.14,-0.34 0.08,0 0.06,0.13 -0.01,0.13 -0.01,0 -0.02,-0 -0.02,-0 0,0 0,-0.01 0,-0.01l-0.04 0.01c-0.02,0.1 0.03,0.16 0.09,0.16 0,-0 0,0 0,0 0.08,-0 0.17,-0.12 0.08,-0.46 -0.08,-0.28 0.08,-0.38 0.18,-0.42 0.07,-0.03 0.19,-0.04 0.25,0.01 0.02,0.02 0.03,0.05 0.03,0.09 -0,0.08 -0.04,0.13 -0.12,0.15 -0.03,0.01 -0.04,-0.01 -0.05,-0.04 -0,-0.01 -0,-0.01 0.01,-0.02 0.01,-0.01 0.02,-0.01 0.03,-0.03 0.01,-0.03 0.01,-0.08 -0.04,-0.1 -0.06,-0.02 -0.1,0.02 -0.12,0.05 -0.03,0.07 0.03,0.24 0.04,0.26 0.18,0.6 -0.34,0.73 -0.45,0.55z"/>
     <path class="fil1" d="M3.1 2.4c0,0 -0.14,0.03 0.17,-0.76l0.31 -0.66 -0.35 0.09c0,0 -0.72,1.48 -0.27,1.51 0,0 0.25,-0.02 0.39,-0.34 -0.03,-0.01 -0.05,-0.02 -0.08,-0.04 -0.03,0.06 -0.11,0.2 -0.18,0.19z"/>
     <path class="fil2" d="M2.97 2.56c-0.36,-0.03 0.12,-1.15 0.28,-1.48l0.3 -0.08c-0,0 -0.3,0.63 -0.3,0.63 -0.05,0.13 -0.26,0.66 -0.19,0.76 0.01,0.01 0.02,0.02 0.04,0.02 0.08,0.01 0.15,-0.12 0.19,-0.18 0.01,0.01 0.03,0.02 0.05,0.02 -0.13,0.28 -0.35,0.31 -0.37,0.31z"/>
     <path class="fil1" d="M4.74 1.14c0,0 0.04,0.03 0.04,0.07 0.29,-0.38 0.56,0.19 0.15,0.28 -0.08,0.02 -0.07,-0.06 -0.05,-0.08 0.02,-0.02 0.04,-0.01 0.04,-0.01 0.07,-0.04 0.05,-0.18 -0.06,-0.13 -0.09,0.04 -0.2,0.58 -0.2,0.58 0,0 -0,0.04 0.05,0.05l-0.24 0.02c0,0 -0.06,0.01 -0.02,-0.15 0.04,-0.16 0.19,-0.55 0.08,-0.59l0.2 -0.05z"/>
     <path class="fil2" d="M4.46 1.9c-0.05,-0.07 0.19,-0.57 0.11,-0.7l0.16 -0.04c0.01,0.01 0.02,0.03 0.02,0.05l-0.01 0.06 0.04 -0.05c0.16,-0.22 0.31,-0.11 0.32,0.02 0.01,0.09 -0.04,0.19 -0.19,0.23 -0.01,0 -0.03,0 -0.04,-0.01 -0,-0.01 0,-0.03 0.01,-0.04 0.02,-0.02 0.02,-0 0.04,-0.01 0.09,-0.05 0.05,-0.22 -0.08,-0.16 -0.1,0.05 -0.21,0.58 -0.21,0.59 -0,0.01 0,0.02 0.01,0.04 -0.2,0.02 -0.19,0.02 -0.19,0.01z"/>
     <path class="fil1" d="M1.52 1.11c0.02,0.14 0.13,0.22 0.31,0.2 0,0 0.09,-0.02 0.13,-0.05 0,0 -0.16,-0.01 -0.19,-0.15 -0.07,-0.31 0.65,-0.62 0.78,-0.21 0.05,0.15 -0.07,0.37 -0.31,0.44l0.1 -0.2 0.09 -0.1 -0.41 0.1 0.04 0.07 -0.06 0.13c-0.02,-0.01 -0.03,-0.01 -0.04,-0.02l-0.22 0.05c0,0 0.08,0.11 0.18,0.15l-0.24 0.55 -0.15 0.14 0.53 -0.04c0,0 -0.05,-0.06 -0.04,-0.16 0.01,-0.1 0.15,-0.48 0.15,-0.48 0.55,-0.1 0.87,-0.54 0.78,-0.83 -0.19,-0.58 -1.49,-0.18 -1.42,0.39z"/>
     <path class="fil2" d="M1.68 2.09l0.25 -0.57 -0.02 -0.01c-0.06,-0.03 -0.12,-0.09 -0.15,-0.13l0.19 -0.05c0.01,0.01 0.02,0.01 0.05,0.02l0.08 -0.16 -0.03 -0.05 0.33 -0.08 -0.05 0.06 -0.12 0.24 0.04 -0.01c0.25,-0.07 0.38,-0.3 0.32,-0.46 -0.11,-0.33 -0.58,-0.22 -0.75,0 -0.13,0.16 -0.06,0.33 0.09,0.37 -0.03,0.01 -0.07,0.02 -0.08,0.02 -0.02,0 -0.04,0 -0.05,0 -0.14,0 -0.22,-0.07 -0.23,-0.18 -0.03,-0.26 0.23,-0.47 0.47,-0.57 0.22,-0.09 0.53,-0.13 0.73,-0.03 0.43,0.23 0.1,0.88 -0.6,1.01 -0.01,0.02 -0.14,0.4 -0.16,0.5 -0.01,0.06 0.01,0.11 0.02,0.14l-0.45 0.04 0.12 -0.11z"/>
     <path class="fil1" d="M4.1 1.81c-0.03,0.01 -0.13,0 -0.05,-0.13 0.04,-0.07 0.17,-0.11 0.17,-0.11 0,0 -0.02,0.2 -0.12,0.24zm0.2 -0.62c-0.14,-0.01 -0.24,0.03 -0.3,0.06 0.01,0.04 0.01,0.11 -0.03,0.16 0,0 0.01,-0.01 0.02,-0.01 0.3,-0.17 0.32,0.09 0.09,0.12 -0.44,0.06 -0.28,0.65 0.06,0.36l0.02 0.02c0.07,0.07 0.13,0.05 0.23,-0.01 -0.01,-0.04 0.01,-0.1 0.02,-0.14 -0.02,0.01 -0.07,0.03 -0.07,-0.01 -0,-0.02 0.08,-0.27 0.1,-0.36 0.01,-0.11 -0.04,-0.18 -0.14,-0.19z"/>
     <path class="fil2" d="M4.21 1.55c-0.01,0 -0.13,0.04 -0.18,0.12 -0.07,0.11 -0.01,0.16 0.05,0.16 0.01,0 0.02,-0 0.03,-0.01 0.1,-0.05 0.12,-0.25 0.13,-0.26l0 -0.03 -0.03 0.01zm-0.12 -0.01c0.26,-0.03 0.23,-0.32 -0.07,-0.17 0.01,-0.04 0.01,-0.08 0,-0.11 0.08,-0.04 0.18,-0.06 0.28,-0.05 0.05,0 0.08,0.02 0.1,0.05 0.02,0.03 0.03,0.07 0.03,0.12 -0.02,0.1 -0.1,0.34 -0.1,0.37 0,0.03 0.03,0.05 0.06,0.04 -0.01,0.03 -0.01,0.07 -0.01,0.1 -0.06,0.03 -0.09,0.04 -0.12,0.04 -0.05,0 -0.07,-0.03 -0.11,-0.07l-0.01 0.01c-0.32,0.27 -0.46,-0.27 -0.05,-0.33z"/>
     <path class="fil1" d="M2.77 1.84c0.01,-0.04 0.2,-0.46 0.2,-0.46l-0.22 0.05c0,0 -0.12,0.35 -0.21,0.47 -0.08,0.1 -0.13,0.07 -0.12,0.02 0.01,-0.07 0.08,-0.27 0.17,-0.45l-0.22 0.05c0,0 -0.19,0.44 -0.13,0.57 0.05,0.12 0.24,0.09 0.39,-0.08 0,0 -0.04,0.14 0.12,0.12 0,0 0.01,-0 0.02,-0 0.02,-0.08 0.05,-0.18 0.08,-0.27 -0.03,0.01 -0.1,0.06 -0.09,-0.03z"/>
     <path class="fil2" d="M2.25 2.09c-0.04,-0.1 0.07,-0.42 0.13,-0.55l0.17 -0.04c-0.08,0.17 -0.14,0.35 -0.15,0.42 -0.01,0.06 0.06,0.11 0.15,-0.01 0.09,-0.11 0.19,-0.41 0.21,-0.46l0.18 -0.04c-0.05,0.1 -0.18,0.39 -0.19,0.43 -0.01,0.05 0.01,0.07 0.03,0.07 0.01,0 0.03,-0 0.04,-0.01 -0.02,0.07 -0.05,0.14 -0.07,0.22 -0.03,0.01 -0.09,0.01 -0.11,-0.02 -0.02,-0.03 -0.01,-0.07 -0.01,-0.07l0.01 -0.03 -0.04 0.01c-0.14,0.15 -0.32,0.19 -0.37,0.08z"/>
     <path class="fil0" d="M2 2.58l-0.03 0 -0 -0.01c-0.02,0.01 -0.04,0.01 -0.07,0.01 -0.05,0 -0.07,-0.03 -0.07,-0.08l0 -0.07c0,-0.09 0.06,-0.08 0.1,-0.08 0.02,0 0.03,0 0.04,0.01l0 -0.01 0.03 0 0 0.08 -0.05 0c0,-0.02 -0.01,-0.03 -0.03,-0.03 -0.02,0 -0.03,0.01 -0.03,0.03l0 0.07c0,0.02 0.01,0.03 0.03,0.03 0.03,0 0.03,-0.03 0.03,-0.04l-0.03 0 0 -0.04 0.08 0 0 0.13z"/>
     <path class="fil0" d="M2.1 2.4l0.03 0c0.01,0 0.01,0.01 0.01,0.02 0,0.02 -0,0.03 -0.01,0.03l-0.03 0 0 -0.05zm0.06 0.1c0.03,-0.01 0.04,-0.03 0.04,-0.07 0,-0.05 -0.02,-0.07 -0.07,-0.07l-0.11 0 0 0.05 0.03 0 0 0.13 -0.03 0 0 0.05 0.08 0 0 -0.08 0 0c0,0 0.05,-0 0.05,-0z"/>
     <path class="fil0" d="M2.1 2.5c0,-0.02 -0,-0.02 -0,-0.03 0,0 0.03,-0.02 0.03,-0 0.09,0.02 0.08,0.1 0.08,0.12l-0.06 0c0,-0.01 0.01,-0.09 -0.04,-0.08z"/>
     <path class="fil0" d="M2.29 2.53c0.02,0 0.03,-0.01 0.03,-0.03l0 -0.07c0,-0.02 -0.01,-0.03 -0.03,-0.03 -0.02,0 -0.03,0.01 -0.03,0.03l0 0.07c0,0.02 0.01,0.03 0.03,0.03zm0.08 -0.1l0 0.07c0,0.06 -0.02,0.08 -0.07,0.08 -0.04,0 -0.1,0.01 -0.1,-0.08l0 -0.07c0,-0.06 0.02,-0.08 0.07,-0.08 0.04,0 0.1,-0.01 0.1,0.08z"/>
     <path class="fil0" d="M2.49 2.4l-0.01 0 0 -0.05 0.08 0 0 0.05 -0.01 0 0 0.1c0,0.06 -0.02,0.08 -0.07,0.08l-0.01 0c-0.05,0 -0.07,-0.03 -0.07,-0.08l0 -0.1 -0.02 -0 0 -0.05 0.09 0 0 0.05 -0.01 0 0 0.1c0,0.02 0.01,0.03 0.02,0.03 0.01,0 0.02,-0.01 0.02,-0.03l0 -0.1z"/>
     <path class="fil0" d="M2.69 2.35c0.05,0 0.07,0.02 0.07,0.07 0,0.05 -0.02,0.08 -0.07,0.08l0 -0.05c0.01,0 0.01,-0.01 0.01,-0.03 0,-0.02 -0,-0.02 -0.01,-0.02l0 -0.05zm0 0.23l-0.11 0 0 -0.05 0.03 0 0 -0.13 -0.03 0 0 -0.05 0.11 0 0 0.05 -0.03 0 0 0.05 0.03 0 0 0.05 -0.03 0 0 0.03 0.03 0 0 0.05z"/>
     <path class="fil0" d="M3.68 2.4l0.03 0c0.01,0 0.01,0.01 0.01,0.02 0,0.02 -0,0.03 -0.01,0.03l-0.03 0 0 -0.05zm0.06 0.1c0.03,-0.01 0.04,-0.03 0.04,-0.07 0,-0.05 -0.02,-0.07 -0.07,-0.07l-0.11 0 0 0.05 0.03 0 0 0.13 -0.03 0 0 0.05 0.08 0 0 -0.08 0 0c0,0 0.05,-0 0.05,-0z"/>
     <path class="fil0" d="M3.69 2.5c0,-0.02 -0,-0.02 -0,-0.03 0,0 0.03,-0.02 0.03,-0 0.09,0.02 0.08,0.1 0.08,0.12l-0.06 0c0,-0.01 0.01,-0.09 -0.04,-0.08z"/>
     <path class="fil0" d="M4.57 2.4l0.03 0c0.01,0 0.01,0.01 0.01,0.02 0,0.02 -0,0.03 -0.01,0.03l-0.03 0 0 -0.05zm0.06 0.1c0.03,-0.01 0.04,-0.03 0.04,-0.07 0,-0.05 -0.02,-0.07 -0.07,-0.07l-0.11 0 0 0.05 0.03 0 0 0.13 -0.03 0 0 0.05 0.08 0 0 -0.08 0 0c0,0 0.05,-0 0.05,-0z"/>
     <path class="fil0" d="M4.57 2.5c0,-0.02 -0,-0.02 -0,-0.03 0,0 0.03,-0.02 0.03,-0 0.09,0.02 0.08,0.1 0.08,0.12l-0.06 0c0,-0.01 0.01,-0.09 -0.04,-0.08z"/>
     <path class="fil0" d="M3.52 2.48l-0.03 0 0 0.05 0.03 0c0.01,0 0.01,-0.01 0.01,-0.02 0,-0.02 -0,-0.03 -0.01,-0.03zm0 -0.03c0.01,0 0.01,-0.01 0.01,-0.03 0,-0.02 -0,-0.02 -0.01,-0.02l-0.03 0 0 0.05 0.03 0zm0 -0.1c0.05,0 0.07,0.02 0.07,0.07 0,0.02 -0.01,0.03 -0.02,0.04 0.01,0.01 0.02,0.02 0.02,0.04 0,0.05 -0.02,0.07 -0.07,0.07l-0.11 0 0 -0.05 0.03 0 0 -0.13 -0.03 -0 0 -0.05 0.11 0z"/>
     <polygon class="fil0" points="3.98,2.35 3.98,2.43 3.92,2.43 3.92,2.4 3.88,2.4 3.88,2.45 3.92,2.45 3.92,2.48 3.88,2.48 3.88,2.53 3.92,2.53 3.92,2.5 3.98,2.5 3.98,2.58 3.8,2.58 3.8,2.53 3.83,2.53 3.83,2.4 3.8,2.4 3.8,2.35 "/>
     <polygon class="fil0" points="4.47,2.35 4.47,2.43 4.42,2.43 4.42,2.4 4.37,2.4 4.37,2.45 4.42,2.45 4.42,2.48 4.37,2.48 4.37,2.53 4.42,2.53 4.42,2.5 4.47,2.5 4.47,2.58 4.29,2.58 4.29,2.53 4.32,2.53 4.32,2.4 4.29,2.4 4.29,2.35 "/>
     <path class="fil0" d="M4.14 2.49l-0.03 0.09 -0.04 0 -0.05 -0.18c-0.02,0 -0.03,-0.02 -0.03,-0.05l0.1 0 0 0.05 -0.01 0 0.02 0.07 0.02 -0.07 -0.01 0 0 -0.05 0.08 0 0 0.05 -0.01 0 0.02 0.07 0.02 -0.07 -0.01 0 0 -0.05 0.08 0 0 0.05 -0.01 0 -0.05 0.18 -0.04 0 -0.03 -0.09z"/>
     <path class="fil0" d="M4.8 2.53l0.02 0 0 0.05 -0.1 0 0 -0.05 0.02 0 0 -0.07 -0.05 -0.07 -0.03 -0c0,0 0,-0.03 0,-0.05l0.1 0 0 0.05 -0.01 0 0.02 0.03 0.02 -0.03 -0.01 0 0 -0.05 0.1 0 0 0.05 -0.03 0 -0.05 0.07 0 0.07z"/>
     <path class="fil1" d="M3.34 0.41c-0,-0 -0.02,-0 -0.02,-0.01 0.04,-0.02 0.09,-0.01 0.12,-0.01 -0.03,0.03 -0.07,0.03 -0.1,0.02zm0.52 0.11c0.19,0.05 0.25,0.21 0.25,0.22 0.04,-0.3 -0.22,-0.38 -0.4,-0.39 0.09,-0.01 0.25,0.03 0.27,0.04 -0.02,-0.03 -0.06,-0.09 -0.14,-0.11 -0.07,-0.02 -0.4,0.02 -0.42,0.05 -0.02,0.03 -0.02,0.03 -0.04,0.04 -0.03,0.01 -0.09,0.02 -0.16,0.05 -0,0 -0.03,0.02 -0.03,0.02 -0.01,0 -0.02,0.03 -0.02,0.05 0.01,-0.01 0.03,-0.02 0.05,-0.03 -0.02,0.01 -0.03,0.03 -0.04,0.06 -0.03,0.07 -0.02,0.11 0.06,0.06 0.06,-0.03 0.12,0.02 0.1,0.09 -0.01,-0.03 -0.01,-0.06 -0.06,-0.07 -0.06,-0.01 -0.08,0.05 -0.14,0.11 -0.06,0.06 -0.09,-0.03 -0.06,-0.08 0.01,-0.02 0.04,-0.03 0.08,-0.03 -0.05,-0.04 -0.13,0.01 -0.15,0.06 -0.04,0.09 0.06,0.18 0.14,0.08 0.06,-0.08 0.12,-0.14 0.18,-0.06 -0.03,0 -0.05,-0.01 -0.08,-0.02 -0.02,0.06 -0.02,0.09 0.01,0.12 0.01,-0.07 0.13,-0.02 0.17,-0.04 0.01,-0.04 0.01,-0.08 0,-0.12 -0.01,-0.03 -0.04,-0.06 -0.06,-0.08 0.09,0.05 0.1,0.1 0.09,0.16 -0,0.01 -0,0.05 -0.01,0.06 -0.1,0.06 -0.1,0.08 -0.13,0.12 -0.05,0.05 -0.09,0.03 -0.12,0.04 0.02,0.01 0,0.04 0.06,0.06 0.08,0.03 0.28,-0.04 0.35,-0.05 0.27,-0.06 0.1,0.15 0.11,0.17 0,0 0.21,-0.04 0.22,-0.21 0.01,-0.06 -0.02,-0.09 -0,-0.06 0.04,0.06 0.03,0.15 -0,0.21 0.13,-0.06 0.2,-0.2 0.12,-0.36 -0.05,-0.09 -0.18,-0.15 -0.18,-0.15z"/>
     <path class="fil1" d="M3.73 0.17c0.01,-0.05 0.03,-0.06 0.03,-0.07 0,-0.02 -0.01,-0.01 -0.02,-0.01 -0.01,0 -0.02,0.03 -0.04,0.03 -0.02,0 -0.03,0.02 -0.01,0.03 0.01,0.01 0.02,0.02 0.01,0.03 -0.01,0 -0.01,-0 -0.02,-0 -0.01,-0 -0.02,0.01 -0.03,0 -0,-0 0,-0.01 0,-0.02 0,-0.01 0.01,-0.01 0.01,-0.01 0.01,-0.02 -0.01,-0.03 -0.03,-0.04 -0.02,-0.01 -0.01,-0.02 -0.02,-0.04 -0.02,-0.02 -0.04,-0.02 -0.06,0 -0.02,0.02 -0.01,0.03 -0.02,0.04 -0.02,0.01 -0.04,0.02 -0.03,0.04 0,0.01 0.01,0.01 0.01,0.01 0,0 0.01,0.01 0,0.02 -0,0.01 -0.02,-0 -0.03,-0 -0.01,0 -0.01,0.01 -0.02,0 -0.01,-0.01 0,-0.02 0.01,-0.03 0.01,-0.01 0.01,-0.03 -0.01,-0.03 -0.02,0 -0.03,-0.03 -0.04,-0.03 -0.01,-0 -0.02,-0.01 -0.02,0.01 0,0.02 0.03,0.02 0.03,0.07 0,0.03 0.01,0.07 0.01,0.1 0.05,-0.02 0.18,-0.03 0.28,-0.04 0,-0.02 0,-0.05 0.01,-0.07z"/>
     <path class="fil2" d="M3.72 0.17c-0,-0.01 -0.01,-0.03 -0.02,-0.03 0,-0 0.02,-0.01 0.04,-0.02 -0.01,0.02 -0.02,0.04 -0.02,0.05zm-0.26 0c-0,-0.01 -0.01,-0.03 -0.02,-0.05 0.01,0.01 0.03,0.02 0.03,0.02 -0,0 -0.02,0.01 -0.02,0.03zm0.01 0.08c-0,-0.02 -0,-0.05 -0,-0.06 0.01,0.01 0.01,0.01 0.02,0.01 0.01,0 0.01,-0 0.02,-0 0.01,0 0.03,0.01 0.04,-0 0.01,-0.01 0.01,-0.03 -0.01,-0.05 -0,-0.01 0.01,-0.01 0.02,-0.02 0.02,-0.02 0.01,-0.03 0.03,-0.04 0.01,-0.01 0.02,-0.01 0.03,0 0.01,0.02 0.01,0.03 0.03,0.04 0.01,0.01 0.03,0.01 0.02,0.02 -0.03,0.03 -0.02,0.07 0.03,0.05 0.01,0 0.03,0.01 0.04,-0.01 -0,0.01 -0,0.03 -0,0.03 -0.08,0 -0.19,0.02 -0.25,0.03z"/>
     <path class="fil2" d="M3.33 0.65c-0.03,-0.04 -0.06,-0.04 -0.12,-0.01 0.01,-0.01 0.03,-0.04 0.07,-0.03 0.03,0 0.04,0.03 0.05,0.05zm-0.26 -0.04c-0.03,0.05 -0.01,0.14 0.05,0.13 -0.07,0.06 -0.15,-0.06 -0.05,-0.13zm0.67 0.45c0.02,-0.04 0.05,-0.1 0.02,-0.14 -0.04,-0.06 -0.15,-0.02 -0.22,-0.01 -0.1,0.03 -0.29,0.08 -0.32,0.02 0.06,0 0.09,-0.02 0.13,-0.07 0.02,-0.02 0.03,-0.05 0.1,-0.09 0.02,-0.01 0.02,-0.05 0.02,-0.07 0.01,-0.1 -0.03,-0.14 -0.1,-0.17l-0.04 0.01c0.02,0.02 0.07,0.06 0.08,0.09 0.01,0.04 0.01,0.07 0,0.1 -0.04,0 -0.12,-0.03 -0.16,0.02 -0.01,-0.01 -0,-0.03 0,-0.06 0.05,0.02 0.07,0.01 0.1,0.01l0 -0.02c0.02,-0.09 -0.05,-0.15 -0.13,-0.11 -0,0 -0.03,0.02 -0.05,0.02 -0,0 -0,-0 -0,-0 0,0 -0.01,-0.01 0.01,-0.06 0.01,-0.03 0.03,-0.05 0.04,-0.05l-0.02 -0.03c-0,0 -0,0 -0,0 0.01,-0 0.01,-0.01 0.01,-0.01 0.02,-0.01 0.04,-0.02 0.05,-0.02 0.02,0.02 0.02,0.02 0.04,0.02l0 0c0.08,0.03 0.11,-0 0.16,-0.04 -0.05,-0.01 -0.06,-0.01 -0.08,-0.01 0.02,-0.01 0.02,-0.02 0.03,-0.04 0.03,-0.02 0.33,-0.05 0.4,-0.04 0.04,0.01 0.07,0.03 0.09,0.05 -0.06,-0.01 -0.16,-0.03 -0.22,-0.02l-0.04 0.04 0.04 0c0.21,0.02 0.39,0.1 0.39,0.31 -0.04,-0.06 -0.11,-0.14 -0.23,-0.17l-0.04 0.02 0.03 0.01c0.24,0.1 0.28,0.34 0.11,0.45 0.02,-0.06 0.02,-0.14 -0.03,-0.2l-0.04 -0.01c0,0 0.01,0.02 0.01,0.03 0,0.01 0.01,0.03 0.01,0.06 -0.01,0.1 -0.08,0.16 -0.17,0.19z"/>
     <path class="fil1" d="M3.79 0.59c0.07,-0 0.13,0.04 0.16,0.12 -0.05,-0.05 -0.11,-0.05 -0.17,-0.04 0.04,0.04 0.04,0.09 0.03,0.14 -0.03,-0.05 -0.08,-0.07 -0.12,-0.07 -0.01,0.06 -0.06,0.1 -0.12,0.11 0.04,-0.03 0.05,-0.09 0.03,-0.13 0,0 0.03,0.05 0.01,0.1 0.07,-0.03 0.07,-0.09 0.07,-0.1 0.04,0 0.11,0.02 0.12,0.06 -0,-0.08 -0.04,-0.1 -0.06,-0.11 0.04,-0.02 0.11,-0.03 0.17,0 -0.05,-0.08 -0.12,-0.08 -0.12,-0.08z"/>
     <path class="fil0" d="M3.84 0.6c0.1,0.02 0.13,0.09 0.13,0.19 -0.01,-0.04 -0.1,-0.09 -0.15,-0.08 0.02,0.04 0.01,0.11 -0.01,0.14 -0.01,-0.04 -0.06,-0.06 -0.1,-0.08 -0.01,0.06 -0.08,0.1 -0.17,0.09 0.05,-0.03 0.08,-0.09 0.06,-0.15 0.02,0.03 0.01,0.1 -0.03,0.13 0.07,-0.01 0.11,-0.05 0.12,-0.11 0.04,-0 0.09,0.03 0.12,0.07 0.01,-0.05 0,-0.1 -0.03,-0.14 0.06,-0.02 0.12,-0.02 0.17,0.04 -0.02,-0.06 -0.06,-0.1 -0.11,-0.11z"/>
    </g>
   </g>
  </g>
  <polygon class="fil3" points="6.62,0 6.62,2.69 -0,2.69 -0,0 "/>
 </g>
</svg>
