<svg width="64" height="26" viewBox="0 0 64 26" fill="none" xmlns="http://www.w3.org/2000/svg">
<path fill-rule="evenodd" clip-rule="evenodd" d="M34.6378 13.114C34.6378 12.9898 34.7309 11.8202 36.0247 11.8202C36.8838 11.8202 37.1943 12.3067 37.3496 13.114H34.6378ZM36.0765 10.5678C34.1513 10.5678 32.9714 12.0272 32.9714 13.7764C32.9714 15.2876 33.8408 16.9644 36.0765 16.9644C38.1052 16.9644 38.6848 15.6602 38.9229 14.9357H37.8671C37.6291 14.9357 37.4427 15.0289 37.2771 15.2359C37.2047 15.3187 36.8528 15.7223 36.1386 15.7223C34.6895 15.7223 34.6688 14.5734 34.6481 14.1801H39.0264C39.1506 12.4205 38.219 10.5678 36.0765 10.5678Z" fill="white"/>
<path fill-rule="evenodd" clip-rule="evenodd" d="M40.0511 8.44597V15.2773C40.0614 16.4262 40.2788 16.8298 41.7071 16.8298V9.79153C41.6968 8.65298 41.4794 8.44597 40.0511 8.44597Z" fill="white"/>
<path fill-rule="evenodd" clip-rule="evenodd" d="M43.2701 8.44597V15.2773C43.2804 16.4262 43.4978 16.8298 44.9261 16.8298V9.79153C44.9158 8.65298 44.6984 8.44597 43.2701 8.44597Z" fill="white"/>
<path fill-rule="evenodd" clip-rule="evenodd" d="M31.1393 14.4803C31.1393 14.4803 30.7564 14.4699 30.6115 14.8632C30.4044 15.4325 30.0215 15.712 29.3798 15.712C28.3758 15.712 27.9928 14.7597 27.9928 13.7764C27.9928 12.8449 28.3861 11.8306 29.4108 11.8306C30.0525 11.8306 30.3941 12.1204 30.539 12.493C30.6218 12.7 30.7357 12.876 31.1083 12.876H32.2779C32.1847 11.3027 30.8392 10.5678 29.4212 10.5678C27.3304 10.5678 26.3264 12.079 26.3264 13.8489C26.3264 15.8258 27.6926 16.9644 29.3901 16.9644C30.8702 16.9644 32.0812 16.2192 32.3193 14.4906H31.1393V14.4803Z" fill="white"/>
<path fill-rule="evenodd" clip-rule="evenodd" d="M25.312 13.7764C25.312 15.9086 24.0493 16.954 21.9378 16.954C19.8159 16.954 18.5739 15.9293 18.5739 13.7764V8.44597C20.0643 8.44597 20.3024 8.83929 20.3128 9.96748V13.7764C20.3128 14.6355 20.5301 15.4946 21.9378 15.4946C23.1798 15.4946 23.5731 14.9564 23.5731 13.7764V8.44597C25.0636 8.44597 25.3017 8.83929 25.312 9.96748V13.7764Z" fill="white"/>
</svg>
