<svg width="64" height="26" viewBox="0 0 64 26" fill="none" xmlns="http://www.w3.org/2000/svg">
<path fill-rule="evenodd" clip-rule="evenodd" d="M28.0963 9.30505C28.148 8.32175 28.3343 7.44196 28.531 6.81059C29.0899 7.17285 29.8041 7.73178 30.4665 8.44596C30.8495 7.54547 31.3256 6.76919 31.7293 6.25166C32.1226 6.77954 32.6091 7.54547 32.992 8.44596C33.6648 7.73178 34.379 7.17285 34.9276 6.81059C35.1242 7.44196 35.3105 8.3321 35.3623 9.30505C36.2317 8.85998 37.1012 8.58051 37.7429 8.43561C37.7119 9.09804 37.5876 9.98818 37.2978 10.9301C38.2708 10.8059 39.1816 10.8473 39.8337 10.9197C39.5749 11.5304 39.1506 12.3274 38.5606 13.114C39.5128 13.3314 40.3616 13.6729 40.9412 13.9731C40.4961 14.4596 39.813 15.0599 38.9953 15.5981C39.8233 16.1363 40.4961 16.7367 40.9412 17.2231C40.3512 17.5233 39.5128 17.8649 38.5606 18.0822C39.1506 18.8689 39.5749 19.6658 39.8337 20.2765C39.1816 20.3593 38.2708 20.3904 37.2978 20.2662C37.5876 21.2081 37.7119 22.0982 37.7429 22.7606C37.1012 22.6157 36.2317 22.3363 35.3623 21.8912C35.3105 22.8745 35.1242 23.7543 34.9276 24.3856C34.3687 24.0234 33.6545 23.4645 32.992 22.7503C32.6091 23.6508 32.133 24.4271 31.7293 24.9446C31.336 24.4167 30.8495 23.6508 30.4665 22.7503C29.7938 23.4645 29.0796 24.0234 28.531 24.3856C28.3343 23.7543 28.148 22.8641 28.0963 21.8912C27.2268 22.3363 26.3574 22.6157 25.7157 22.7606C25.7467 22.0982 25.8709 21.2081 26.1608 20.2662C25.1878 20.3904 24.277 20.3593 23.6249 20.2765C23.8837 19.6658 24.308 18.8689 24.898 18.0822C23.9458 17.8649 23.097 17.5233 22.5174 17.2231C22.9625 16.7367 23.6456 16.1363 24.4633 15.5981C23.6352 15.0599 22.9625 14.4596 22.5174 13.9731C23.1074 13.6729 23.9458 13.3314 24.898 13.114C24.308 12.3274 23.8837 11.5304 23.6249 10.9197C24.277 10.8369 25.1878 10.8059 26.1608 10.9301C25.8709 9.98818 25.7467 9.09804 25.7157 8.43561C26.3574 8.58051 27.2268 8.85998 28.0963 9.30505Z" fill="white"/>
<path fill-rule="evenodd" clip-rule="evenodd" d="M26.3781 16.54C25.6846 16.302 25.0326 15.9707 24.4633 15.5981C25.0429 15.2255 25.6846 14.8839 26.3781 14.6562C25.8088 14.2008 25.312 13.6626 24.898 13.114C25.5708 12.9588 26.2953 12.8656 27.0198 12.8863C26.6369 12.2653 26.3574 11.5821 26.1608 10.9301C26.8439 11.0129 27.5581 11.1681 28.2412 11.4372C28.0963 10.7231 28.0652 9.98818 28.0963 9.30505C28.707 9.61556 29.3176 10.0089 29.8766 10.4954C29.9904 9.77082 30.2078 9.07734 30.4769 8.44596C30.9427 8.94278 31.3877 9.52241 31.7396 10.1745C32.0916 9.53276 32.5366 8.95313 33.0024 8.44596C33.2715 9.07734 33.4889 9.77082 33.6027 10.4954C34.1513 10.0089 34.7723 9.61556 35.383 9.30505C35.4141 9.98818 35.383 10.7231 35.2381 11.4372C35.9212 11.1681 36.6354 11.0129 37.3185 10.9301C37.1219 11.5821 36.8424 12.2549 36.4595 12.8863C37.1943 12.8656 37.9189 12.9588 38.5813 13.114C38.1673 13.6626 37.6705 14.2008 37.1012 14.6562C37.7947 14.8943 38.4467 15.2255 39.016 15.5981C38.4364 15.9707 37.7947 16.3123 37.1012 16.54C37.6705 16.9954 38.1673 17.5337 38.5813 18.0822C37.9085 18.2375 37.184 18.3306 36.4595 18.3099C36.8424 18.931 37.1219 19.6141 37.3185 20.2662C36.6354 20.1834 35.9212 20.0281 35.2381 19.759C35.383 20.4732 35.4141 21.2081 35.383 21.8912C34.7723 21.5807 34.1616 21.1874 33.6027 20.7009C33.4889 21.4254 33.2715 22.1189 33.0024 22.7503C32.5366 22.2535 32.0916 21.6738 31.7396 21.0218C31.3877 21.6635 30.9427 22.2431 30.4769 22.7503C30.2078 22.1189 29.9904 21.4254 29.8766 20.7009C29.328 21.1874 28.707 21.5807 28.0963 21.8912C28.0652 21.2081 28.0963 20.4732 28.2412 19.759C27.5581 20.0281 26.8439 20.1834 26.1608 20.2662C26.3574 19.6141 26.6369 18.9413 27.0198 18.3099C26.285 18.3306 25.5604 18.2375 24.898 18.0822C25.312 17.5337 25.8088 16.9954 26.3781 16.54Z" fill="white"/>
<path fill-rule="evenodd" clip-rule="evenodd" d="M31.0876 11.9341C31.2014 11.3027 31.4395 10.7127 31.7293 10.1641C32.0295 10.7127 32.2572 11.3027 32.371 11.9341C32.7022 11.3855 33.1163 10.899 33.582 10.4954C33.6752 11.106 33.6855 11.7478 33.582 12.3791C34.0788 11.9755 34.6378 11.665 35.2174 11.4372C35.0932 12.0479 34.8862 12.6482 34.5757 13.2072C35.1863 12.9898 35.8074 12.8967 36.4284 12.8863C36.1075 13.4142 35.7039 13.911 35.2174 14.325C35.8591 14.3354 36.4802 14.4596 37.0701 14.6562C36.5837 15.0392 36.0454 15.3704 35.4451 15.5981C36.0454 15.8258 36.594 16.157 37.0805 16.54C36.4905 16.7367 35.8695 16.8609 35.2277 16.8712C35.7142 17.2852 36.1179 17.7821 36.4387 18.3099C35.8177 18.2892 35.1863 18.1961 34.586 17.9891C34.8965 18.548 35.1035 19.1483 35.2277 19.759C34.6481 19.5313 34.0892 19.2208 33.5924 18.8171C33.6959 19.4485 33.6855 20.0902 33.5924 20.7009C33.1266 20.2869 32.7126 19.8108 32.3814 19.2622C32.2572 19.8936 32.0295 20.4835 31.7396 21.0321C31.4395 20.4835 31.2118 19.8936 31.0979 19.2622C30.7667 19.8108 30.3527 20.2972 29.8869 20.7009C29.7938 20.0902 29.7834 19.4485 29.8869 18.8171C29.3901 19.2208 28.8312 19.5313 28.2515 19.759C28.3757 19.1483 28.5828 18.548 28.8933 17.9891C28.2826 18.2064 27.6616 18.2996 27.0405 18.3099C27.3614 17.7821 27.7651 17.2852 28.2515 16.8712C27.6098 16.8609 26.9888 16.7367 26.3988 16.54C26.8853 16.157 27.4235 15.8258 28.0238 15.5981C27.4235 15.3704 26.8749 15.0392 26.3885 14.6562C26.9784 14.4596 27.5995 14.3354 28.2412 14.325C27.7547 13.911 27.3511 13.4142 27.0302 12.8863C27.6512 12.907 28.2826 13.0002 28.8829 13.2072C28.5724 12.6482 28.3654 12.0479 28.2412 11.4372C28.8208 11.665 29.3797 11.9755 29.8766 12.3791C29.7731 11.7478 29.7834 11.106 29.8766 10.4954C30.3423 10.9094 30.7564 11.3855 31.0876 11.9341Z" fill="white"/>
<path fill-rule="evenodd" clip-rule="evenodd" d="M31.0772 13.7971C30.9634 13.1451 30.9737 12.524 31.0876 11.9341C31.3981 12.4516 31.6258 13.0312 31.7293 13.6833C31.8431 13.0312 32.0709 12.4516 32.371 11.9341C32.4849 12.524 32.4952 13.1451 32.3814 13.7971C32.7126 13.2175 33.1266 12.7517 33.582 12.3688C33.4889 12.9588 33.2819 13.5487 32.9506 14.1284C33.4578 13.704 34.0064 13.4038 34.5757 13.1968C34.2859 13.7247 33.8925 14.2112 33.3854 14.6355C34.0064 14.4078 34.6274 14.3147 35.2277 14.3147C34.7723 14.708 34.2341 15.0288 33.6131 15.2566C34.2755 15.2566 34.8862 15.3808 35.4451 15.5878C34.8862 15.8051 34.2652 15.919 33.6131 15.919C34.2341 16.1467 34.7723 16.4676 35.2277 16.8609C34.6274 16.8712 34.0064 16.7781 33.3854 16.54C33.8925 16.9644 34.2859 17.4508 34.5757 17.9787C34.0064 17.7821 33.4578 17.4819 32.9506 17.0575C33.2819 17.6268 33.4889 18.2168 33.582 18.8171C33.1163 18.4341 32.7022 17.9684 32.3814 17.3887C32.4952 18.0408 32.4849 18.6619 32.371 19.2518C32.0605 18.7343 31.8328 18.1547 31.7293 17.5026C31.6154 18.1547 31.3877 18.7343 31.0876 19.2518C30.9737 18.6619 30.9634 18.0408 31.0772 17.3887C30.746 17.9684 30.332 18.4341 29.8766 18.8171C29.9697 18.2271 30.1767 17.6372 30.5079 17.0575C30.0008 17.4819 29.4522 17.7821 28.8829 17.9891C29.1727 17.4612 29.566 16.9747 30.0732 16.5504C29.4522 16.7781 28.8312 16.8712 28.2308 16.8712C28.6863 16.4779 29.2245 16.157 29.8455 15.9293C29.1831 15.9293 28.5724 15.8051 28.0135 15.5981C28.5724 15.3808 29.1934 15.2669 29.8455 15.2669C29.2245 15.0392 28.6863 14.7183 28.2308 14.325C28.8312 14.3147 29.4522 14.4078 30.0732 14.6459C29.566 14.2215 29.1727 13.735 28.8829 13.2072C29.4522 13.4038 30.0008 13.704 30.5079 14.1284C30.1767 13.5591 29.9697 12.9691 29.8766 12.3688C30.3423 12.7517 30.7564 13.2175 31.0772 13.7971Z" fill="white"/>
<path fill-rule="evenodd" clip-rule="evenodd" d="M34.2134 0.445066V5.00961H34.8965V4.57489C35.176 4.94751 35.4865 5.12347 35.9419 5.12347C36.7803 5.12347 37.3806 4.44034 37.3806 3.35354C37.3806 2.23569 36.77 1.55256 35.9523 1.55256C35.4969 1.55256 35.1553 1.73887 34.9069 2.10114V0.434715H34.2238L34.2134 0.445066ZM35.7763 2.18394C36.3145 2.18394 36.6561 2.60831 36.6561 3.36389C36.6561 4.08842 36.3145 4.50244 35.7763 4.50244C35.207 4.50244 34.8862 4.09877 34.8862 3.34319C34.8862 2.57726 35.1863 2.18394 35.7763 2.18394Z" fill="white"/>
<path fill-rule="evenodd" clip-rule="evenodd" d="M39.3886 2.18394C39.9268 2.18394 40.2684 2.60831 40.2684 3.32249C40.2684 4.08843 39.9268 4.50244 39.3886 4.50244C38.809 4.50244 38.4985 4.11948 38.4985 3.36389C38.4985 2.58761 38.8193 2.18394 39.3886 2.18394ZM38.5088 4.60595C38.7469 4.94751 39.0988 5.12347 39.5542 5.12347C40.3719 5.12347 40.9826 4.44034 40.9826 3.32249C40.9826 2.2357 40.3823 1.55257 39.5439 1.55257C39.0885 1.55257 38.7779 1.72852 38.4985 2.13219V1.66642H37.8154V6.34482H38.4985V4.5956L38.5088 4.60595Z" fill="white"/>
</svg>
