<svg width="64" height="26" viewBox="0 0 64 26" fill="none" xmlns="http://www.w3.org/2000/svg">
<path d="M3.82378 5.1372H19.246V20.2522H3.82378V5.1372ZM9.67065 10.5286H10.5816V9.81893C10.5392 8.77031 9.78717 8.52669 9.00335 8.52669C8.17716 8.52669 7.4463 8.86564 7.4463 10.4651V12.0221C7.45689 13.6957 7.27682 14.6807 8.78091 14.6807C9.02453 14.6596 9.49059 14.5219 9.68124 14.2465V14.6066H10.5604V11.1959H9.04571V12.0433H9.68124V13.1131C9.68124 13.6745 9.37407 13.7698 9.02453 13.7698C8.39959 13.7698 8.39959 13.2296 8.41018 12.4776V10.8782C8.41018 10.4333 8.31486 9.40584 9.02453 9.40584C9.51177 9.42702 9.66006 9.55413 9.69184 10.0837V10.5498L9.67065 10.5286ZM13.6003 12.5941L12.8271 8.66439H11.5878V14.5854H12.4776V10.6557L13.2296 14.5854H13.9499L14.7443 10.6451V14.5854H15.634V8.66439H14.3947L13.6109 12.5941H13.6003ZM7.42511 15.4434H15.6128V16.725H7.42511V15.4434Z" fill="white"/>
<path d="M26.7004 9.06694H27.3696V11.9888C27.3696 12.4971 27.3121 12.9007 27.1971 13.1997C27.0821 13.4986 26.874 13.7424 26.5727 13.931C26.2737 14.1173 25.8805 14.2104 25.3929 14.2104C24.9192 14.2104 24.5316 14.1288 24.2304 13.9655C23.9291 13.8022 23.7141 13.5665 23.5853 13.2583C23.4565 12.9478 23.3921 12.5247 23.3921 11.9888V9.06694H24.0613V11.9854C24.0613 12.4246 24.1016 12.7489 24.1821 12.9582C24.2649 13.1652 24.4052 13.325 24.6029 13.4377C24.803 13.5504 25.0468 13.6067 25.3343 13.6067C25.8264 13.6067 26.1771 13.4952 26.3864 13.2721C26.5957 13.049 26.7004 12.6201 26.7004 11.9854V9.06694ZM28.0802 14.1242V13.6205L30.4122 10.9436C30.1477 10.9574 29.9143 10.9643 29.7119 10.9643H28.2182V10.4606H31.2126V10.8711L29.229 13.1962L28.8461 13.6205C29.1243 13.5998 29.3854 13.5895 29.6291 13.5895H31.3229V14.1242H28.0802ZM32.5131 14.1242H31.937V9.06694H32.5579V10.8711C32.8201 10.5423 33.1547 10.3778 33.5618 10.3778C33.7872 10.3778 33.9999 10.4238 34.2 10.5158C34.4024 10.6055 34.568 10.7331 34.6967 10.8987C34.8278 11.062 34.9302 11.2598 35.0038 11.4921C35.0774 11.7244 35.1142 11.9727 35.1142 12.2372C35.1142 12.8651 34.9589 13.3503 34.6484 13.693C34.338 14.0356 33.9654 14.207 33.5307 14.207C33.0984 14.207 32.7592 14.0264 32.5131 13.6654V14.1242ZM32.5062 12.2648C32.5062 12.7041 32.566 13.0214 32.6856 13.2169C32.8811 13.5366 33.1455 13.6964 33.479 13.6964C33.7504 13.6964 33.985 13.5791 34.1827 13.3446C34.3805 13.1077 34.4794 12.7558 34.4794 12.289C34.4794 11.8106 34.384 11.4576 34.1931 11.2299C34.0045 11.0022 33.7757 10.8884 33.5066 10.8884C33.2352 10.8884 33.0006 11.0068 32.8029 11.2437C32.6051 11.4783 32.5062 11.8186 32.5062 12.2648ZM38.381 12.9444L39.0227 13.0237C38.9215 13.3986 38.734 13.6895 38.4604 13.8965C38.1867 14.1035 37.8371 14.207 37.4116 14.207C36.8758 14.207 36.4503 14.0425 36.1353 13.7137C35.8225 13.3825 35.6661 12.9191 35.6661 12.3235C35.6661 11.7071 35.8248 11.2287 36.1422 10.8884C36.4595 10.548 36.8712 10.3778 37.3772 10.3778C37.867 10.3778 38.2672 10.5446 38.5776 10.878C38.8881 11.2115 39.0434 11.6807 39.0434 12.2855C39.0434 12.3223 39.0422 12.3775 39.0399 12.4511H36.3077C36.3307 12.8536 36.4446 13.1617 36.6493 13.3756C36.8539 13.5895 37.1092 13.6964 37.4151 13.6964C37.6428 13.6964 37.8371 13.6366 37.9981 13.517C38.1591 13.3975 38.2867 13.2066 38.381 12.9444ZM36.3422 11.9405H38.3879C38.3603 11.6324 38.2821 11.4012 38.1533 11.2471C37.9556 11.008 37.6991 10.8884 37.3841 10.8884C37.0989 10.8884 36.8585 10.9838 36.6631 11.1747C36.4699 11.3656 36.3629 11.6209 36.3422 11.9405ZM39.8092 14.1242V9.06694H40.4301V11.9509L41.8997 10.4606H42.7035L41.3029 11.8198L42.8449 14.1242H42.0791L40.8682 12.251L40.4301 12.6719V14.1242H39.8092ZM43.3417 9.78103V9.06694H43.9626V9.78103H43.3417ZM43.3417 14.1242V10.4606H43.9626V14.1242H43.3417ZM44.6629 13.0306L45.2769 12.934C45.3114 13.1801 45.4069 13.3687 45.5633 13.4998C45.722 13.6309 45.9427 13.6964 46.2256 13.6964C46.5108 13.6964 46.7224 13.6389 46.8604 13.5239C46.9983 13.4067 47.0673 13.2698 47.0673 13.1134C47.0673 12.9731 47.0064 12.8628 46.8845 12.7823C46.7994 12.7271 46.5878 12.6569 46.2498 12.5718C45.7944 12.4568 45.4782 12.3579 45.3011 12.2752C45.1263 12.1901 44.9929 12.0739 44.9009 11.9267C44.8112 11.7773 44.7664 11.6128 44.7664 11.4334C44.7664 11.2701 44.8032 11.1195 44.8768 10.9815C44.9527 10.8412 45.055 10.7251 45.1838 10.6331C45.2804 10.5618 45.4115 10.502 45.5771 10.4537C45.745 10.4031 45.9243 10.3778 46.1152 10.3778C46.4027 10.3778 46.6545 10.4192 46.8707 10.502C47.0892 10.5848 47.2502 10.6975 47.3537 10.8401C47.4572 10.9804 47.5284 11.169 47.5675 11.4058L46.9604 11.4886C46.9328 11.3 46.8523 11.1529 46.7189 11.0471C46.5878 10.9413 46.4015 10.8884 46.1601 10.8884C45.8749 10.8884 45.6714 10.9355 45.5495 11.0298C45.4276 11.1241 45.3666 11.2345 45.3666 11.361C45.3666 11.4415 45.3919 11.5139 45.4425 11.5783C45.4931 11.645 45.5725 11.7002 45.6806 11.7439C45.7427 11.7669 45.9255 11.8198 46.2291 11.9026C46.6683 12.0199 46.9742 12.1165 47.1467 12.1924C47.3215 12.266 47.4583 12.374 47.5572 12.5166C47.6561 12.6592 47.7055 12.8363 47.7055 13.0479C47.7055 13.2549 47.6446 13.4504 47.5227 13.6343C47.4031 13.816 47.2295 13.9575 47.0018 14.0586C46.7741 14.1575 46.5165 14.207 46.2291 14.207C45.753 14.207 45.3896 14.1081 45.139 13.9103C44.8906 13.7125 44.7319 13.4193 44.6629 13.0306ZM49.7995 13.5688L49.8892 14.1173C49.7144 14.1541 49.558 14.1725 49.42 14.1725C49.1946 14.1725 49.0199 14.1368 48.8957 14.0655C48.7715 13.9943 48.6841 13.9011 48.6335 13.7861C48.5829 13.6688 48.5576 13.4239 48.5576 13.0513V10.9436H48.1022V10.4606H48.5576V9.55335L49.1751 9.18078V10.4606H49.7995V10.9436H49.1751V13.0858C49.1751 13.2629 49.1855 13.3768 49.2061 13.4274C49.2291 13.4779 49.2648 13.5182 49.3131 13.5481C49.3637 13.578 49.435 13.5929 49.527 13.5929C49.596 13.5929 49.6868 13.5849 49.7995 13.5688ZM52.8007 13.6723C52.5707 13.8678 52.3488 14.0058 52.1349 14.0862C51.9234 14.1667 51.6957 14.207 51.4519 14.207C51.0494 14.207 50.7401 14.1092 50.5239 13.9138C50.3078 13.716 50.1997 13.4642 50.1997 13.1583C50.1997 12.9789 50.2399 12.8156 50.3204 12.6684C50.4032 12.5189 50.5101 12.3993 50.6412 12.3097C50.7746 12.22 50.9241 12.1521 51.0897 12.1061C51.2116 12.0739 51.3956 12.0429 51.6416 12.013C52.143 11.9532 52.5121 11.8819 52.749 11.7991C52.7513 11.714 52.7524 11.66 52.7524 11.637C52.7524 11.384 52.6938 11.2058 52.5765 11.1023C52.4178 10.962 52.1821 10.8918 51.8693 10.8918C51.5772 10.8918 51.3611 10.9436 51.2208 11.0471C51.0828 11.1483 50.9804 11.3288 50.9137 11.5887L50.3066 11.5059C50.3618 11.246 50.4526 11.0367 50.5791 10.878C50.7056 10.717 50.8884 10.594 51.1276 10.5089C51.3668 10.4215 51.6439 10.3778 51.959 10.3778C52.2718 10.3778 52.5259 10.4146 52.7214 10.4882C52.9169 10.5618 53.0606 10.655 53.1526 10.7676C53.2446 10.878 53.309 11.0183 53.3458 11.1885C53.3665 11.2943 53.3768 11.4852 53.3768 11.7612V12.5891C53.3768 13.1663 53.3895 13.532 53.4148 13.6861C53.4424 13.8379 53.4953 13.9839 53.5735 14.1242H52.9249C52.8605 13.9954 52.8191 13.8448 52.8007 13.6723ZM52.749 12.2855C52.5236 12.3775 52.1855 12.4557 51.7348 12.5201C51.4795 12.5569 51.299 12.5983 51.1932 12.6443C51.0874 12.6903 51.0057 12.7581 50.9482 12.8478C50.8907 12.9352 50.862 13.0329 50.862 13.141C50.862 13.3066 50.9241 13.4446 51.0483 13.555C51.1748 13.6654 51.3588 13.7206 51.6002 13.7206C51.8394 13.7206 52.0521 13.6688 52.2384 13.5653C52.4247 13.4596 52.5616 13.3158 52.6489 13.1341C52.7156 12.9938 52.749 12.7869 52.749 12.5132V12.2855ZM54.3427 14.1242V10.4606H54.9016V10.9815C55.1707 10.5791 55.5593 10.3778 56.0676 10.3778C56.2884 10.3778 56.4908 10.4181 56.6747 10.4986C56.861 10.5768 57.0002 10.6802 57.0921 10.809C57.1841 10.9378 57.2485 11.0908 57.2853 11.2678C57.3083 11.3828 57.3198 11.5841 57.3198 11.8715V14.1242H56.6989V11.8957C56.6989 11.6427 56.6747 11.4541 56.6264 11.3299C56.5781 11.2035 56.4919 11.1034 56.3677 11.0298C56.2458 10.9539 56.1021 10.916 55.9365 10.916C55.672 10.916 55.4432 10.9999 55.25 11.1678C55.0591 11.3357 54.9637 11.6542 54.9637 12.1234V14.1242H54.3427Z" fill="white"/>
<path fill-rule="evenodd" clip-rule="evenodd" d="M20.2416 6.15405H24.0654L20.2416 9.97782V6.15405Z" fill="white"/>
</svg>
