<?xml version="1.0" encoding="UTF-8"?>
<!DOCTYPE svg PUBLIC "-//W3C//DTD SVG 1.1//EN" "http://www.w3.org/Graphics/SVG/1.1/DTD/svg11.dtd">
<!-- Creator: CorelDRAW 2018 (64-Bit) -->
<svg xmlns="http://www.w3.org/2000/svg" xml:space="preserve" width="36.6995mm" height="38.7852mm" version="1.1" style="shape-rendering:geometricPrecision; text-rendering:geometricPrecision; image-rendering:optimizeQuality; fill-rule:evenodd; clip-rule:evenodd"
viewBox="0 0 31.82 33.62"
 xmlns:xlink="http://www.w3.org/1999/xlink">
 <defs>
  <style type="text/css">
   <![CDATA[
    .fil3 {fill:none}
    .fil1 {fill:#2B2A29}
    .fil5 {fill:#2B2A29;fill-rule:nonzero}
    .fil0 {fill:#AE4A84;fill-rule:nonzero}
    .fil2 {fill:#D19915;fill-rule:nonzero}
    .fil4 {fill:#F7B519;fill-rule:nonzero}
   ]]>
  </style>
 </defs>
 <g id="Слой_x0020_1">
  <metadata id="CorelCorpID_0Corel-Layer"/>
  <g id="_2321669605904">
   <path class="fil0" d="M8.54 0c-1.49,0 -2.65,1.18 -2.65,2.88 0,1.61 1.1,3.52 2.41,3.74l-0.09 0.65 0.26 0.02c-0.96,6.38 -1.28,10.48 -1.28,13.1 0,2.08 0.2,3.24 0.42,3.89 0.24,0.68 0.52,0.82 0.66,0.84 0.02,0 0.03,0 0.04,0l0 -0.16c-0.01,0 -0.01,-0 -0.02,-0 -0.1,-0.02 -0.32,-0.13 -0.53,-0.74 -0.22,-0.63 -0.41,-1.78 -0.41,-3.84 0,-2.62 0.31,-6.72 1.28,-13.1l0.23 0 -0.06 -0.67c1.31,-0.23 2.39,-2.13 2.39,-3.73 0,-1.71 -1.16,-2.88 -2.65,-2.88z"/>
   <polygon class="fil1" points="10.56,16.4 11.59,16.38 11.97,11.11 13.62,11.11 13.66,15.83 14.72,15.83 14.72,10.12 10.99,9.88 "/>
   <path class="fil1" d="M15.54 17.44l0.97 -0.03 0 -1.07c0,0 1.17,0.09 1.76,-0.79 0.82,-1.22 0.57,-3.85 -0.48,-4.42 -0.34,-0.18 -0.79,-0.19 -1.27,-0.18l0 -0.21 -1.01 0 0.02 6.7zm0.97 -5.42l0.02 3.19c0,0 1.08,0.2 1.19,-1.29 0.12,-1.48 -0.41,-2.18 -1.22,-1.9z"/>
   <path class="fil1" d="M20.78 16.38c0.68,0.06 1.34,-0.19 1.65,-1.09 0.19,-0.56 0.3,-1.54 0.15,-2.45 0.22,-0.08 0.46,-0.19 0.7,-0.33l-0.47 -0.82c-0.17,0.1 -0.33,0.17 -0.48,0.24 -0.11,-0.27 -0.26,-0.51 -0.45,-0.7 -0.35,-0.36 -0.69,-0.41 -1.01,-0.41 -0.93,0.01 -1.55,1.16 -1.53,2.61 0.01,1.41 0.15,2.83 1.45,2.96zm-0.13 -4.29c0.17,0.05 0.41,0.09 0.71,0.07 -0.1,-0.22 -0.23,-0.34 -0.37,-0.34 -0.12,0 -0.24,0.1 -0.33,0.27zm0.94 0.99c-0.49,0.05 -0.9,-0.01 -1.2,-0.09 -0.08,0.58 -0.11,1.31 0.03,1.85 0.12,0.43 0.36,0.64 0.56,0.64 0.35,0 0.64,-0.82 0.64,-1.83 0,-0.2 -0.01,-0.39 -0.03,-0.56z"/>
   <g>
    <path class="fil1" d="M17.56 24.5c0.68,0.06 1.34,-0.19 1.65,-1.09 0.19,-0.56 0.3,-1.54 0.15,-2.45 0.22,-0.08 0.46,-0.19 0.7,-0.33l-0.47 -0.82c-0.17,0.1 -0.33,0.17 -0.48,0.24 -0.11,-0.27 -0.26,-0.51 -0.45,-0.7 -0.35,-0.36 -0.69,-0.41 -1.01,-0.41 -0.93,0.01 -1.55,1.16 -1.53,2.61 0.01,1.41 0.15,2.83 1.45,2.96zm-0.13 -4.29c0.17,0.05 0.41,0.09 0.71,0.07 -0.1,-0.22 -0.23,-0.34 -0.37,-0.34 -0.12,0 -0.24,0.1 -0.33,0.27zm0.94 0.99c-0.49,0.05 -0.9,-0.01 -1.2,-0.09 -0.08,0.58 -0.11,1.31 0.03,1.85 0.12,0.43 0.36,0.64 0.56,0.64 0.35,0 0.64,-0.82 0.64,-1.83 0,-0.2 -0.01,-0.39 -0.03,-0.56z"/>
    <path class="fil1" d="M29.32 24.5c0.68,0.06 1.34,-0.19 1.65,-1.09 0.19,-0.56 0.3,-1.54 0.15,-2.45 0.22,-0.08 0.46,-0.19 0.7,-0.33l-0.47 -0.82c-0.17,0.1 -0.33,0.17 -0.48,0.24 -0.11,-0.27 -0.26,-0.51 -0.45,-0.7 -0.35,-0.36 -0.69,-0.41 -1.01,-0.41 -0.93,0.01 -1.55,1.16 -1.53,2.61 0.01,1.41 0.15,2.83 1.45,2.96zm-0.13 -4.29c0.17,0.05 0.41,0.09 0.71,0.07 -0.1,-0.22 -0.23,-0.34 -0.37,-0.34 -0.12,0 -0.24,0.1 -0.33,0.27zm0.94 0.99c-0.49,0.05 -0.9,-0.01 -1.2,-0.09 -0.08,0.58 -0.11,1.31 0.03,1.85 0.12,0.43 0.36,0.64 0.56,0.64 0.35,0 0.64,-0.82 0.64,-1.83 0,-0.2 -0.01,-0.39 -0.03,-0.56z"/>
    <path class="fil1" d="M24.1 25.58l0.97 -0.03 0 -1.07c0,0 1.17,0.09 1.76,-0.79 0.82,-1.22 0.57,-3.85 -0.48,-4.42 -0.34,-0.18 -0.79,-0.19 -1.27,-0.18l0 -0.21 -1.01 0 0.02 6.7zm0.97 -5.42l0.02 3.19c0,0 1.08,0.2 1.19,-1.29 0.12,-1.48 -0.41,-2.18 -1.22,-1.9z"/>
    <path class="fil1" d="M14.88 23.6l-0.2 -5.43 -2.45 -0.05 -0.67 5.3 -0.92 0 -0.06 2.33 1.03 0 0.07 -1.29 2.99 0.08 0 1.08 1.04 0 -0.07 -2.03 -0.78 0zm-2.28 -0.1l1.25 0.04 -0.05 -4.42 -0.66 0 -0.54 4.38z"/>
    <path class="fil1" d="M22.95 20c0,-0.07 0.07,-0.88 0.07,-0.88l-2.68 -0.12 -0.03 5.51 1.49 0c0,0 1.64,0.1 1.78,-1.26 0.14,-1.36 -0.78,-1.85 -2.28,-1.83l0.01 -1.45 1.64 0.03zm-1.64 2.42l-0.02 1.11c0,0 1.25,0.2 1.28,-0.55 0.03,-0.74 -1.41,-0.57 -1.26,-0.57z"/>
   </g>
   <path class="fil2" d="M8.54 0c-1.49,0 -2.65,1.18 -2.65,2.88 0,1.61 1.1,3.52 2.41,3.74l-0.09 0.65 0.26 0.02c-0.96,6.38 -1.28,10.48 -1.28,13.1 0,2.08 0.2,3.24 0.42,3.89 0.24,0.68 0.52,0.82 0.66,0.84 0.02,0 0.03,0 0.04,0l0 -0.16c-0.01,0 -0.01,-0 -0.02,-0 -0.1,-0.02 -0.32,-0.13 -0.53,-0.74 -0.22,-0.63 -0.41,-1.78 -0.41,-3.84 0,-2.62 0.31,-6.72 1.28,-13.1l0.23 0 -0.06 -0.67c1.31,-0.23 2.39,-2.13 2.39,-3.73 0,-1.71 -1.16,-2.88 -2.65,-2.88z"/>
   <path class="fil3" d="M8.32 25.04c-0.3,0 -2.33,-0.83 0.25,-17.85"/>
   <path class="fil1" d="M2.42 11.52c0,0 0.24,0.6 0.8,0.86 0.56,0.26 1.42,1.06 2.3,1.77 0,0 0.42,0.13 1,-0.2 0.59,-0.33 0.62,-0.29 0.62,-0.29 0,0 -0.12,-0.42 0.35,-0.48 0,0 0.13,-0.07 0.22,-0.19 0.09,-0.12 0.34,-0.06 0.37,0.12 0.03,0.18 0.38,0.3 0.31,0.49 -0.08,0.2 -0.17,0.31 -0.63,0.52 -0.45,0.22 -0.58,0.63 -1.2,1.05 -0.62,0.41 -0.92,0.56 -1.25,0.48 0,0 0.73,1.32 -1.72,6.4l-0.72 0.08c0,0 -0.42,1.95 -0.38,2.1 0.03,0.15 0.13,0.32 0.57,0.47 0.1,0.04 0.28,0.17 0.4,0.22 0.41,0.14 0.46,-0.04 0.44,0.03 -0.02,0.09 0.21,0.16 -0.54,0.17 -0.32,0.01 -0.69,-0.09 -0.96,-0.05 -0.36,0.05 -0.59,0.22 -0.59,0.22 0,0 -0.22,-0.09 -0.22,-0.39 0,-0.12 -0.08,-0.26 0.08,-0.46 0.01,-0.6 -0.19,-1.63 0.08,-2.16l-0.27 0.05c0.03,-0.88 -0.41,-5.33 0.01,-5.67 -0.2,-1.07 -1.11,-3.67 -0.5,-4.64 0.13,-0.18 0.4,-0.44 0.53,-0.68 0.49,0.09 0.9,0.18 0.9,0.18z"/>
   <path class="fil1" d="M4.17 9.46c0,0 0.02,0.23 -0.08,0.46 -0.11,0.23 -0.2,0.32 -0.18,0.43 0.02,0.11 0.07,0.21 0.12,0.28 0.06,0.07 0.13,0.22 0.04,0.32 -0.09,0.1 -0.15,0.06 -0.18,0.09l-0.01 0.01c0,0 0.04,0.2 0.03,0.23 -0,0.03 -0.03,0.05 -0.05,0.07 -0.02,0.02 -0.04,0.05 -0.1,0.03 0,0 -0.01,0.12 -0.02,0.13 -0.01,0.01 -0.14,0.09 -0.14,0.09 0,0 0.05,0.14 -0.03,0.24 -0.07,0.09 -0.19,0.12 -0.23,0.13 -0.04,0.01 -0.23,0 -0.26,0.01 -0.03,0.01 -0.14,0.06 -0.32,0.06 0,0 0.03,0.05 0.11,0.12 0.08,0.07 -0.93,0.05 -0.93,0.05l-0.98 -0.2c0,0 0.37,-0.47 0.06,-0.81 0,0 -0.98,-0.48 -0.94,-1.88 0.04,-1.4 1.72,-2.72 3.59,-0.85 0.29,0.35 0.44,0.55 0.47,0.98z"/>
   <path class="fil1" d="M3.95 8.81c0,0 -0.27,-0.85 -0.92,-0.98 0,0 0.13,-0.11 0.11,-0.32 0,0 -0.02,0.06 -0.06,0.09 0,0 0.03,-0.23 -0.06,-0.34 0,0 0.1,0.19 -0.01,0.37 0,0 -0.11,0.11 -0.19,0.05 0,0 0.19,-0.1 0.19,-0.26 0,0 -0.01,0.12 -0.15,0.2 0,0 -0.05,0.02 -0.09,0.01 0,0 0.12,-0.03 0.1,-0.13 0,0 -0.03,0.1 -0.11,0.07 0,0 0.1,-0.06 0.08,-0.19 0,0 -0.04,0.16 -0.17,0.13 -0.13,-0.02 -0.36,-0.31 -0.85,-0.16 0,0 0.07,-0.09 0.23,-0.11 0,0 -0.14,-0.03 -0.25,-0.01 0,0 0.01,-0.04 0.05,-0.05 0,0 -0.35,0.06 -0.55,0.3 -0.21,0.24 -0.25,0.18 -0.31,0.2 -0.07,0.02 -0.31,0.37 -0.44,0.42 -0.13,0.05 -0.23,0.23 -0.35,0.51 -0.12,0.28 -0.29,0.81 -0.12,1.17 0,0 -0.02,-0.12 -0,-0.18 0,0 0,0.25 0.14,0.51 0.14,0.26 0.37,-0.16 0.37,-0.16l0.74 -1.24 2.62 0.1z"/>
   <g>
    <path class="fil1" d="M1.08 7.74c0.08,-0.24 0.2,-0.34 0.41,-0.46 -0.19,0.13 -0.3,0.23 -0.36,0.47l-0.05 -0.01z"/>
   </g>
   <path class="fil3" d="M1.11 7.75c0,0 0.06,-0.3 0.38,-0.46"/>
   <g>
    <path class="fil1" d="M1.06 7.78c-0.04,-0.14 0.04,-0.26 0.15,-0.33l0.11 -0.06c-0.12,0.08 -0.28,0.2 -0.21,0.37l-0.05 0.02z"/>
   </g>
   <path class="fil3" d="M1.08 7.77c0,0 -0.1,-0.22 0.23,-0.38"/>
   <g>
    <path class="fil1" d="M0.98 7.79c-0.04,-0.14 0.04,-0.26 0.15,-0.33l0.11 -0.06c-0.12,0.08 -0.28,0.2 -0.21,0.37l-0.05 0.02z"/>
   </g>
   <path class="fil3" d="M1 7.78c0,0 -0.1,-0.22 0.23,-0.38"/>
   <g>
    <path class="fil1" d="M0.9 7.79c-0.04,-0.14 0.04,-0.26 0.15,-0.33l0.11 -0.06c-0.12,0.08 -0.28,0.2 -0.21,0.37l-0.05 0.02z"/>
   </g>
   <path class="fil3" d="M0.92 7.78c0,0 -0.1,-0.22 0.23,-0.38"/>
   <g>
    <path class="fil1" d="M0.89 7.88c-0.17,-0.16 -0.05,-0.32 0.1,-0.43 -0.12,0.1 -0.24,0.26 -0.07,0.39l-0.03 0.04z"/>
   </g>
   <path class="fil3" d="M0.9 7.86c0,0 -0.23,-0.18 0.09,-0.41"/>
   <g>
    <path class="fil1" d="M0.88 7.94c-0.17,-0.1 -0.14,-0.26 -0.04,-0.4 -0.07,0.13 -0.1,0.28 0.06,0.35l-0.02 0.05z"/>
   </g>
   <path class="fil3" d="M0.89 7.92c0,0 -0.23,-0.11 -0.05,-0.37"/>
   <g>
    <path class="fil1" d="M0.78 7.99c-0.11,-0.08 -0.07,-0.23 -0.04,-0.33 -0.01,0.07 -0.03,0.25 0.06,0.29l-0.02 0.04z"/>
   </g>
   <path class="fil3" d="M0.79 7.96c0,0 -0.12,-0.06 -0.05,-0.31"/>
   <g>
    <path class="fil1" d="M0.74 8.04c-0.13,-0.03 -0.07,-0.21 -0.05,-0.28 -0,0.02 -0.03,0.24 0.05,0.23l-0 0.05z"/>
   </g>
   <path class="fil3" d="M0.74 8.02c0,0 -0.12,-0.01 -0.05,-0.26"/>
   <g>
    <path class="fil1" d="M0.69 8.06c-0,0 -0,0.01 -0,0.01 -0.01,-0.02 -0.08,-0.05 -0.06,-0.25l0 0.07c0.02,0.15 0.13,0.14 0.09,0.2l-0.04 -0.03zm-0 0.01c0,0 0,0 0,0.01 -0,-0 -0,-0 -0,-0.01z"/>
   </g>
   <path class="fil3" d="M0.71 8.07c0.02,-0.02 -0.1,-0.04 -0.08,-0.25"/>
   <path class="fil1" d="M1.24 7.51c0,0 -0.01,0.04 0.02,0.01 0.03,-0.03 0.05,-0.02 0.05,-0.01 0,0.01 0.03,0.08 -0.01,0.09 -0.04,0.01 -0.1,0.05 -0.11,0.05 -0.01,0 -0.02,-0.02 -0.02,-0.03 0,-0.01 0.01,-0.09 0.01,-0.08 -0,0.01 -0.08,0.1 -0.08,0.09 -0,-0 0,-0.02 0,-0.02 0,0 -0.02,0.05 -0.03,0.05 -0,0 -0,-0.07 -0,-0.07 0,0 -0.07,0.07 -0.05,0.01 0.02,-0.06 0,-0.01 0,-0.01l-0.05 0.05c0,0 -0.01,0 -0.05,0.07 -0.04,0.07 0.05,0.04 0.05,0.04 0,0 0.27,0 0.28,0.01 0.01,0.01 0.12,-0.07 0.12,-0.07l0.1 -0.15c0,0 -0.03,-0.18 -0.23,-0.05z"/>
   <g>
    <path class="fil1" d="M0.96 7.86c0.08,-0.24 0.2,-0.34 0.41,-0.46 -0.19,0.13 -0.3,0.23 -0.36,0.47l-0.05 -0.01z"/>
   </g>
   <path class="fil3" d="M0.98 7.86c0,0 0.06,-0.3 0.38,-0.46"/>
   <g>
    <path class="fil1" d="M0.94 7.89c-0.04,-0.14 0.04,-0.26 0.15,-0.33l0.11 -0.06c-0.12,0.08 -0.28,0.2 -0.21,0.37l-0.05 0.02z"/>
   </g>
   <path class="fil3" d="M0.96 7.88c0,0 -0.1,-0.22 0.23,-0.38"/>
   <g>
    <path class="fil1" d="M0.85 7.9c-0.04,-0.14 0.04,-0.26 0.15,-0.33l0.11 -0.06c-0.12,0.08 -0.28,0.2 -0.21,0.37l-0.05 0.02z"/>
   </g>
   <path class="fil3" d="M0.88 7.89c0,0 -0.1,-0.22 0.23,-0.38"/>
   <g>
    <path class="fil1" d="M0.77 7.9c-0.04,-0.14 0.04,-0.26 0.15,-0.33l0.11 -0.06c-0.12,0.08 -0.28,0.2 -0.21,0.37l-0.05 0.02z"/>
   </g>
   <path class="fil3" d="M0.8 7.89c0,0 -0.1,-0.22 0.23,-0.38"/>
   <path class="fil4" d="M8.54 0c-1.49,0 -2.65,1.18 -2.65,2.88 0,1.61 1.1,3.52 2.41,3.74l-0.09 0.65 0.26 0.02c0.11,-1.31 0.02,0.49 0.16,0l0.23 0 -0.06 -0.67c1.31,-0.23 2.39,-2.13 2.39,-3.73 0,-1.71 -1.16,-2.88 -2.65,-2.88z"/>
   <g>
    <path class="fil1" d="M0.76 8c-0.17,-0.16 -0.05,-0.32 0.1,-0.43 -0.12,0.1 -0.24,0.26 -0.07,0.39l-0.03 0.04z"/>
   </g>
   <path class="fil3" d="M0.78 7.98c0,0 -0.23,-0.18 0.09,-0.41"/>
   <g>
    <path class="fil1" d="M0.76 8.05c-0.17,-0.1 -0.14,-0.26 -0.04,-0.4 -0.07,0.13 -0.1,0.28 0.06,0.35l-0.02 0.05z"/>
   </g>
   <path class="fil3" d="M0.77 8.03c0,0 -0.23,-0.11 -0.05,-0.37"/>
   <g>
    <path class="fil1" d="M0.66 8.1c-0.11,-0.08 -0.07,-0.23 -0.04,-0.33 -0.01,0.07 -0.03,0.25 0.06,0.29l-0.02 0.04z"/>
   </g>
   <path class="fil3" d="M0.67 8.08c0,0 -0.12,-0.06 -0.05,-0.31"/>
   <g>
    <path class="fil1" d="M0.62 8.16c-0.13,-0.03 -0.07,-0.21 -0.05,-0.28 -0,0.02 -0.03,0.24 0.05,0.23l-0 0.05z"/>
   </g>
   <path class="fil3" d="M0.62 8.13c0,0 -0.12,-0.01 -0.05,-0.26"/>
   <g>
    <path class="fil1" d="M0.57 8.17c-0,0 -0,0.01 -0,0.01 -0.01,-0.02 -0.08,-0.05 -0.06,-0.25l0 0.07c0.02,0.15 0.13,0.14 0.09,0.2l-0.04 -0.03zm-0 0.01c0,0 0,0 0,0.01 -0,-0 -0,-0 -0,-0.01z"/>
   </g>
   <path class="fil3" d="M0.59 8.19c0.02,-0.02 -0.1,-0.04 -0.08,-0.25"/>
   <path class="fil1" d="M1.11 7.63c0,0 -0.01,0.04 0.02,0.01 0.03,-0.03 0.05,-0.02 0.05,-0.01 0,0.01 0.03,0.08 -0.01,0.09 -0.04,0.01 -0.1,0.05 -0.11,0.05 -0.01,0 -0.02,-0.02 -0.02,-0.03 0,-0.01 0.01,-0.09 0.01,-0.08 -0,0.01 -0.08,0.1 -0.08,0.09 -0,-0 0,-0.02 0,-0.02 0,0 -0.02,0.05 -0.03,0.05 -0,0 -0,-0.07 -0,-0.07 0,0 -0.07,0.07 -0.05,0.01 0.02,-0.06 0,-0.01 0,-0.01l-0.05 0.05c0,0 -0.01,0 -0.05,0.07 -0.04,0.07 0.05,0.04 0.05,0.04 0,0 0.27,0 0.28,0.01 0.01,0.01 0.12,-0.07 0.12,-0.07l0.1 -0.15c0,0 -0.03,-0.18 -0.23,-0.05z"/>
   <g>
    <path class="fil1" d="M0.86 7.91c0.01,-0.25 0.11,-0.38 0.28,-0.54 -0.15,0.17 -0.24,0.3 -0.23,0.54l-0.05 0z"/>
   </g>
   <path class="fil3" d="M0.89 7.91c0,0 -0.02,-0.3 0.26,-0.54"/>
   <g>
    <path class="fil1" d="M0.85 7.95c-0.08,-0.12 -0.03,-0.26 0.06,-0.36l0.09 -0.08c-0.09,0.11 -0.22,0.27 -0.11,0.41l-0.04 0.03z"/>
   </g>
   <path class="fil3" d="M0.87 7.93c0,0 -0.15,-0.19 0.13,-0.43"/>
   <g>
    <path class="fil1" d="M0.77 7.98c-0.08,-0.12 -0.03,-0.26 0.06,-0.36l0.09 -0.08c-0.09,0.11 -0.22,0.27 -0.11,0.41l-0.04 0.03z"/>
   </g>
   <path class="fil3" d="M0.79 7.96c0,0 -0.15,-0.19 0.13,-0.43"/>
   <g>
    <path class="fil1" d="M0.69 8c-0.08,-0.12 -0.03,-0.26 0.06,-0.36l0.09 -0.08c-0.09,0.11 -0.22,0.27 -0.11,0.41l-0.04 0.03z"/>
   </g>
   <path class="fil3" d="M0.71 7.98c0,0 -0.15,-0.19 0.13,-0.43"/>
   <g>
    <path class="fil1" d="M0.71 8.09c-0.21,-0.12 -0.13,-0.3 -0.01,-0.44 -0.09,0.13 -0.17,0.31 0.03,0.39l-0.02 0.05z"/>
   </g>
   <path class="fil3" d="M0.72 8.07c0,0 -0.27,-0.12 -0.02,-0.42"/>
   <g>
    <path class="fil1" d="M0.71 8.15c-0.19,-0.06 -0.2,-0.21 -0.14,-0.37 -0.03,0.14 -0.03,0.3 0.15,0.32l-0.01 0.05z"/>
   </g>
   <path class="fil3" d="M0.72 8.12c0,0 -0.25,-0.04 -0.14,-0.35"/>
   <g>
    <path class="fil1" d="M0.63 8.22c-0.12,-0.05 -0.12,-0.21 -0.12,-0.31 0.01,0.07 0.03,0.25 0.13,0.26l-0.01 0.05z"/>
   </g>
   <path class="fil3" d="M0.63 8.19c0,0 -0.13,-0.03 -0.13,-0.29"/>
   <g>
    <path class="fil1" d="M0.6 8.28c-0.13,0 -0.12,-0.18 -0.12,-0.26 0,0.02 0.03,0.24 0.11,0.21l0.01 0.05z"/>
   </g>
   <path class="fil3" d="M0.6 8.26c0,0 -0.12,0.02 -0.11,-0.24"/>
   <g>
    <path class="fil1" d="M0.56 8.31c-0,0 -0,0.01 -0,0.01 -0.02,-0.02 -0.09,-0.03 -0.12,-0.23l0.02 0.07c0.06,0.14 0.16,0.11 0.14,0.17l-0.05 -0.02zm-0 0.01c0,0 0,0 0,0.01 -0,-0 -0,-0 -0,-0.01z"/>
   </g>
   <path class="fil3" d="M0.58 8.32c0.01,-0.02 -0.11,-0.02 -0.14,-0.22"/>
   <path class="fil1" d="M0.95 7.64c0,0 0,0.04 0.02,0 0.02,-0.04 0.04,-0.03 0.05,-0.02 0,0.01 0.05,0.07 0.02,0.09 -0.03,0.02 -0.09,0.07 -0.09,0.07 -0.01,0 -0.03,-0.02 -0.03,-0.02 -0,-0.01 -0.01,-0.09 -0.01,-0.08 0,0.01 -0.05,0.12 -0.06,0.11 -0,-0 -0,-0.02 -0,-0.02 0,0 -0.01,0.05 -0.01,0.06 -0,0 -0.02,-0.07 -0.02,-0.07 0,0 -0.05,0.08 -0.04,0.03 0,-0.06 -0,-0.01 -0,-0.01l-0.03 0.06c0,0 -0,0.01 -0.03,0.08 -0.03,0.08 0.06,0.03 0.06,0.03 0,0 0.27,-0.07 0.28,-0.06 0.01,0.01 0.1,-0.09 0.1,-0.09l0.06 -0.17c0,0 -0.08,-0.17 -0.24,0.01z"/>
   <g>
    <path class="fil1" d="M0.59 8.32c-0.22,0.13 -0.29,0.26 -0.36,0.5 0.08,-0.21 0.16,-0.35 0.38,-0.45l-0.02 -0.05z"/>
   </g>
   <path class="fil3" d="M0.6 8.34c0,0 -0.28,0.12 -0.37,0.47"/>
   <g>
    <path class="fil1" d="M0.62 8.29c-0.14,-0.01 -0.25,0.09 -0.3,0.21l-0.03 0.12c0.05,-0.13 0.14,-0.32 0.32,-0.28l0.01 -0.05z"/>
   </g>
   <path class="fil3" d="M0.62 8.31c0,0 -0.24,-0.05 -0.33,0.31"/>
   <g>
    <path class="fil1" d="M0.61 8.21c-0.14,-0.01 -0.25,0.09 -0.3,0.21l-0.03 0.12c0.05,-0.13 0.14,-0.32 0.32,-0.28l0.01 -0.05z"/>
   </g>
   <path class="fil3" d="M0.61 8.23c0,0 -0.24,-0.05 -0.33,0.31"/>
   <g>
    <path class="fil1" d="M0.6 8.13c-0.14,-0.01 -0.25,0.09 -0.3,0.21l-0.03 0.12c0.05,-0.13 0.14,-0.32 0.32,-0.28l0.01 -0.05z"/>
   </g>
   <path class="fil3" d="M0.59 8.15c0,0 -0.24,-0.05 -0.33,0.31"/>
   <g>
    <path class="fil1" d="M0.69 8.1c-0.2,-0.14 -0.32,0.02 -0.4,0.19 0.08,-0.14 0.2,-0.29 0.36,-0.15l0.03 -0.04z"/>
   </g>
   <path class="fil3" d="M0.67 8.12c0,0 -0.23,-0.19 -0.38,0.17"/>
   <g>
    <path class="fil1" d="M0.74 8.08c-0.14,-0.15 -0.28,-0.08 -0.4,0.04 0.11,-0.09 0.25,-0.16 0.36,-0.01l0.04 -0.03z"/>
   </g>
   <path class="fil3" d="M0.72 8.09c0,0 -0.15,-0.21 -0.38,0.03"/>
   <g>
    <path class="fil1" d="M0.76 7.97c-0.1,-0.09 -0.24,-0.02 -0.33,0.03 0.07,-0.02 0.23,-0.08 0.29,0l0.04 -0.03z"/>
   </g>
   <path class="fil3" d="M0.74 7.99c0,0 -0.09,-0.1 -0.31,0.02"/>
   <g>
    <path class="fil1" d="M0.81 7.92c-0.06,-0.12 -0.22,-0.03 -0.29,0.01 0.02,-0.01 0.23,-0.08 0.24,0l0.05 -0.01z"/>
   </g>
   <path class="fil3" d="M0.78 7.93c0,0 -0.03,-0.11 -0.26,0"/>
   <g>
    <path class="fil1" d="M0.81 7.87c0,-0 0.01,-0.01 0.01,-0.01 -0.02,-0.01 -0.06,-0.07 -0.25,-0l0.07 -0.01c0.15,-0.01 0.17,0.1 0.21,0.05l-0.04 -0.03zm0.01 -0.01c0,-0 0,0 0.01,0 -0,0 -0,0 -0.01,-0z"/>
   </g>
   <path class="fil3" d="M0.83 7.88c-0.02,0.02 -0.06,-0.09 -0.26,-0.02"/>
   <path class="fil1" d="M0.4 8.52c0,0 0.04,-0.02 0.01,0.02 -0.03,0.04 -0.01,0.05 0,0.05 0.01,-0 0.08,0.02 0.08,-0.02 0,-0.04 0.02,-0.11 0.02,-0.12 -0,-0.01 -0.03,-0.02 -0.03,-0.01 -0,0 -0.09,0.03 -0.08,0.03 0.01,-0 0.08,-0.1 0.08,-0.1 -0,-0 -0.02,0.01 -0.02,0.01 0,0 0.04,-0.03 0.05,-0.04 0,-0 -0.07,0.01 -0.07,0.01 0,0 0.05,-0.08 0,-0.05 -0.05,0.03 -0.01,0 -0.01,0l0.04 -0.06c0,0 0,-0.01 0.06,-0.06 0.06,-0.06 0.05,0.04 0.05,0.04 0,0 0.06,0.27 0.07,0.27 0.01,0.01 -0.04,0.13 -0.04,0.13l-0.13 0.13c0,0 -0.18,0.01 -0.1,-0.22z"/>
   <g>
    <path class="fil1" d="M3.67 8.55c0.24,0.14 0.33,0.29 0.4,0.55 -0.09,-0.24 -0.18,-0.39 -0.42,-0.5l0.02 -0.05z"/>
   </g>
   <path class="fil3" d="M3.66 8.58c0,0 0.31,0.13 0.41,0.53"/>
   <g>
    <path class="fil1" d="M3.64 8.52c0.16,-0.02 0.28,0.1 0.33,0.24l0.04 0.13c-0.06,-0.15 -0.16,-0.36 -0.36,-0.31l-0.01 -0.06z"/>
   </g>
   <path class="fil3" d="M3.65 8.55c0,0 0.26,-0.05 0.36,0.34"/>
   <g>
    <path class="fil1" d="M3.65 8.43c0.16,-0.02 0.28,0.1 0.33,0.24l0.04 0.13c-0.06,-0.15 -0.16,-0.36 -0.36,-0.31l-0.01 -0.06z"/>
   </g>
   <path class="fil3" d="M3.65 8.46c0,0 0.26,-0.05 0.36,0.34"/>
   <g>
    <path class="fil1" d="M3.48 8.34c0.3,0.17 0.41,0.37 0.5,0.69 -0.12,-0.3 -0.23,-0.48 -0.53,-0.62l0.03 -0.07z"/>
   </g>
   <path class="fil3" d="M3.47 8.37c0,0 0.39,0.16 0.51,0.66"/>
   <g>
    <path class="fil1" d="M3.44 8.3c0.2,-0.02 0.34,0.13 0.41,0.3l0.05 0.16c-0.07,-0.18 -0.19,-0.44 -0.45,-0.39l-0.01 -0.07z"/>
   </g>
   <path class="fil3" d="M3.45 8.33c0,0 0.33,-0.07 0.45,0.43"/>
   <g>
    <path class="fil1" d="M3.44 8.11c0.2,0 0.33,0.17 0.37,0.34l0.03 0.17c-0.05,-0.19 -0.14,-0.46 -0.4,-0.44l-0.01 -0.07z"/>
   </g>
   <path class="fil3" d="M3.44 8.14c0,0 0.33,-0.03 0.4,0.48"/>
   <path class="fil1" d="M1.64 24.35c0,0 0,-0.04 0.3,0.15 0.3,0.2 0.61,-0.15 0.63,-0.15 0.03,0 0.26,0.22 0.62,0.41 0,0 0.66,-0.06 0.74,0.02 0.09,0.08 0.13,0.21 0.13,0.21 0,0 0.06,0.01 0.08,0.08 0.02,0.07 -0.85,0.33 -1.35,0.22 -0.5,-0.11 -0.43,-0.11 -0.46,-0.04 -0.03,0.06 -0.02,0.08 -0.02,0.08l-0.83 -0.04 0 -0.3 0.05 -0c0,0 -0.08,-0.48 0.11,-0.64z"/>
   <path class="fil2" d="M9.25 0.1c0.6,0.56 0.89,1.37 0.89,2.21 0,1.82 -1.39,4.03 -2.94,3.73 1.98,1.88 3.99,-0.98 3.99,-3.14 0,-1.45 -0.82,-2.48 -1.94,-2.79z"/>
   <path class="fil2" d="M8.24 7.37c-0.11,0 -0.18,-0.1 -0.16,-0.2l0.13 -0.52c0.04,-0.15 0.17,-0.25 0.32,-0.25 0.15,0 0.28,0.1 0.32,0.25l0.13 0.52c0.03,0.1 -0.05,0.2 -0.16,0.2l-0.6 0z"/>
  </g>
  <path class="fil5" d="M1.92 28.41l-0.79 0 0 0.34 0.29 0c0.21,0 0.37,0.05 0.5,0.15 0.12,0.1 0.18,0.24 0.18,0.41 0,0.17 -0.06,0.31 -0.18,0.42 -0.12,0.1 -0.28,0.16 -0.49,0.16l-0.67 0 0 -1.78 1.16 0 0 0.3zm-0.79 0.64l0 0.55 0.29 0c0.09,0 0.17,-0.03 0.22,-0.08 0.06,-0.05 0.08,-0.12 0.08,-0.21 0,-0.08 -0.03,-0.14 -0.08,-0.19 -0.05,-0.05 -0.13,-0.07 -0.22,-0.07l-0.3 0z"/>
  <path id="1" class="fil5" d="M3.92 28.12l0 1.78 -0.37 0 0 -1.48 -0.47 0 -0.03 0.63c-0.01,0.21 -0.04,0.38 -0.08,0.5 -0.04,0.12 -0.1,0.21 -0.18,0.27 -0.08,0.06 -0.19,0.08 -0.33,0.09l-0.1 0 0 -0.29 0.06 -0.01c0.09,-0.01 0.16,-0.07 0.2,-0.16 0.04,-0.09 0.06,-0.26 0.07,-0.5l0.03 -0.81 1.19 0z"/>
  <path id="2" class="fil5" d="M5.38 29.53l-0.64 0 -0.12 0.36 -0.39 0 0.66 -1.78 0.34 0 0.66 1.78 -0.39 0 -0.12 -0.36zm-0.54 -0.3l0.44 0 -0.22 -0.67 -0.22 0.67z"/>
  <polygon id="3" class="fil5" points="7.37,28.41 6.57,28.41 6.57,29.89 6.21,29.89 6.21,28.12 7.37,28.12 "/>
  <path id="4" class="fil5" d="M9.2 29.04c0,0.17 -0.03,0.33 -0.09,0.46 -0.06,0.13 -0.15,0.23 -0.27,0.31 -0.12,0.07 -0.25,0.11 -0.4,0.11 -0.15,0 -0.28,-0.04 -0.39,-0.11 -0.12,-0.07 -0.21,-0.17 -0.27,-0.3 -0.06,-0.13 -0.1,-0.28 -0.1,-0.45l0 -0.09c0,-0.17 0.03,-0.33 0.09,-0.46 0.06,-0.13 0.15,-0.23 0.27,-0.31 0.12,-0.07 0.25,-0.11 0.39,-0.11 0.15,0 0.28,0.04 0.39,0.11 0.11,0.07 0.2,0.17 0.27,0.31 0.06,0.13 0.09,0.29 0.09,0.46l0 0.08zm-0.37 -0.08c0,-0.19 -0.03,-0.33 -0.1,-0.43 -0.07,-0.1 -0.16,-0.15 -0.29,-0.15 -0.12,0 -0.22,0.05 -0.28,0.14 -0.07,0.1 -0.1,0.24 -0.1,0.42l0 0.09c0,0.18 0.03,0.32 0.1,0.42 0.07,0.1 0.16,0.15 0.29,0.15 0.12,0 0.22,-0.05 0.28,-0.14 0.07,-0.1 0.1,-0.24 0.1,-0.42l0 -0.09z"/>
  <polygon id="5" class="fil5" points="10.94,28.41 10.4,28.41 10.4,29.89 10.03,29.89 10.03,28.41 9.5,28.41 9.5,28.12 10.94,28.12 "/>
  <path id="6" class="fil5" d="M11.29 29.89l0 -1.78 0.62 0c0.22,0 0.38,0.04 0.49,0.12 0.11,0.08 0.17,0.2 0.17,0.36 0,0.09 -0.02,0.16 -0.07,0.23 -0.04,0.07 -0.11,0.11 -0.19,0.15 0.09,0.02 0.16,0.07 0.22,0.14 0.05,0.07 0.08,0.15 0.08,0.25 0,0.17 -0.05,0.3 -0.16,0.39 -0.11,0.09 -0.26,0.13 -0.47,0.13l-0.69 0zm0.37 -0.77l0 0.48 0.31 0c0.09,0 0.15,-0.02 0.2,-0.06 0.05,-0.04 0.07,-0.1 0.07,-0.17 0,-0.16 -0.08,-0.24 -0.25,-0.25l-0.34 0zm0 -0.26l0.27 0c0.18,-0 0.28,-0.08 0.28,-0.22 0,-0.08 -0.02,-0.14 -0.07,-0.17 -0.05,-0.04 -0.12,-0.05 -0.22,-0.05l-0.26 0 0 0.45z"/>
  <path id="7" class="fil5" d="M14.49 29.04c0,0.17 -0.03,0.33 -0.09,0.46 -0.06,0.13 -0.15,0.23 -0.27,0.31 -0.12,0.07 -0.25,0.11 -0.4,0.11 -0.15,0 -0.28,-0.04 -0.39,-0.11 -0.12,-0.07 -0.21,-0.17 -0.27,-0.3 -0.06,-0.13 -0.1,-0.28 -0.1,-0.45l0 -0.09c0,-0.17 0.03,-0.33 0.09,-0.46 0.06,-0.13 0.15,-0.23 0.27,-0.31 0.12,-0.07 0.25,-0.11 0.39,-0.11 0.15,0 0.28,0.04 0.39,0.11 0.11,0.07 0.2,0.17 0.27,0.31 0.06,0.13 0.09,0.29 0.09,0.46l0 0.08zm-0.37 -0.08c0,-0.19 -0.03,-0.33 -0.1,-0.43 -0.07,-0.1 -0.16,-0.15 -0.29,-0.15 -0.12,0 -0.22,0.05 -0.28,0.14 -0.07,0.1 -0.1,0.24 -0.1,0.42l0 0.09c0,0.18 0.03,0.32 0.1,0.42 0.07,0.1 0.16,0.15 0.29,0.15 0.12,0 0.22,-0.05 0.28,-0.14 0.07,-0.1 0.1,-0.24 0.1,-0.42l0 -0.09z"/>
  <path id="8" class="fil5" d="M15.27 29.27l0 0.62 -0.37 0 0 -1.78 0.69 0c0.13,0 0.25,0.02 0.35,0.07 0.1,0.05 0.18,0.12 0.23,0.21 0.05,0.09 0.08,0.19 0.08,0.31 0,0.17 -0.06,0.31 -0.18,0.41 -0.12,0.1 -0.28,0.15 -0.49,0.15l-0.32 0zm0 -0.3l0.33 0c0.1,0 0.17,-0.02 0.22,-0.07 0.05,-0.05 0.08,-0.11 0.08,-0.19 0,-0.09 -0.03,-0.16 -0.08,-0.21 -0.05,-0.05 -0.12,-0.08 -0.21,-0.08l-0.34 0 0 0.56z"/>
  <polygon id="9" class="fil5" points="17.72,28.12 18.09,28.12 18.09,29.89 17.72,29.89 17.72,28.71 17.01,29.89 16.64,29.89 16.64,28.12 17.01,28.12 17.01,29.3 "/>
  <polygon id="10" class="fil5" points="19.88,28.41 19.34,28.41 19.34,29.89 18.97,29.89 18.97,28.41 18.44,28.41 18.44,28.12 19.88,28.12 "/>
  <polygon id="11" class="fil5" points="21.3,29.12 20.6,29.12 20.6,29.6 21.43,29.6 21.43,29.89 20.24,29.89 20.24,28.12 21.42,28.12 21.42,28.41 20.6,28.41 20.6,28.84 21.3,28.84 "/>
  <path id="12" class="fil5" d="M23.23 28.12l0 1.78 -0.37 0 0 -1.48 -0.47 0 -0.03 0.63c-0.01,0.21 -0.04,0.38 -0.08,0.5 -0.04,0.12 -0.1,0.21 -0.18,0.27 -0.08,0.06 -0.19,0.08 -0.33,0.09l-0.1 0 0 -0.29 0.06 -0.01c0.09,-0.01 0.16,-0.07 0.2,-0.16 0.04,-0.09 0.06,-0.26 0.07,-0.5l0.03 -0.81 1.19 0z"/>
  <path id="13" class="fil5" d="M24.06 28.76l0.29 0c0.21,0 0.37,0.05 0.5,0.15 0.12,0.1 0.18,0.24 0.18,0.41 0,0.17 -0.06,0.31 -0.18,0.42 -0.12,0.1 -0.28,0.16 -0.49,0.16l-0.67 0 0 -1.78 0.37 0 0 0.64zm0 0.29l0 0.55 0.29 0c0.09,0 0.17,-0.03 0.22,-0.08 0.06,-0.05 0.08,-0.12 0.08,-0.21 0,-0.08 -0.03,-0.14 -0.08,-0.19 -0.05,-0.05 -0.13,-0.07 -0.22,-0.07l-0.3 0z"/>
  <polygon id="14" class="fil5" points="26.84,29.89 26.48,29.89 26.48,29.13 25.76,29.13 25.76,29.89 25.4,29.89 25.4,28.12 25.76,28.12 25.76,28.84 26.48,28.84 26.48,28.12 26.84,28.12 "/>
  <path id="15" class="fil5" d="M27.68 28.76l0.29 0c0.21,0 0.37,0.05 0.5,0.15 0.12,0.1 0.18,0.24 0.18,0.41 0,0.17 -0.06,0.31 -0.18,0.42 -0.12,0.1 -0.28,0.16 -0.49,0.16l-0.67 0 0 -1.78 0.37 0 0 0.64zm1.48 1.14l-0.37 0 0 -1.78 0.37 0 0 1.78zm-1.48 -0.84l0 0.55 0.29 0c0.09,0 0.17,-0.03 0.22,-0.08 0.06,-0.05 0.08,-0.12 0.08,-0.21 0,-0.08 -0.03,-0.14 -0.08,-0.19 -0.05,-0.05 -0.13,-0.07 -0.22,-0.07l-0.3 0z"/>
  <path id="16" class="fil5" d="M30.69 28.12l0.37 0 0 1.78 -0.37 0 0 -1.18 -0.71 1.18 -0.37 0 0 -1.78 0.37 0 0 1.18 0.71 -1.18zm0.07 -0.46c0,0.11 -0.04,0.19 -0.12,0.26 -0.08,0.07 -0.18,0.1 -0.31,0.1 -0.13,0 -0.23,-0.03 -0.31,-0.1 -0.08,-0.07 -0.12,-0.15 -0.12,-0.26l0.25 0c0,0.05 0.01,0.09 0.05,0.12 0.03,0.03 0.07,0.04 0.13,0.04 0.05,0 0.09,-0.01 0.12,-0.04 0.03,-0.03 0.04,-0.07 0.04,-0.12l0.25 0z"/>
  <path id="17" class="fil5" d="M13.2 31.57l0.02 0c0.14,0 0.26,0.03 0.38,0.09 0.11,0.06 0.2,0.15 0.26,0.26 0.06,0.11 0.09,0.24 0.09,0.39 0,0.21 -0.07,0.39 -0.2,0.52 -0.14,0.13 -0.32,0.2 -0.55,0.2l0 0.23 -0.35 0 0 -0.23 -0.02 0c-0.14,0 -0.27,-0.03 -0.38,-0.09 -0.11,-0.06 -0.2,-0.15 -0.26,-0.26 -0.06,-0.11 -0.09,-0.23 -0.09,-0.38 0,-0.14 0.03,-0.27 0.09,-0.38 0.06,-0.11 0.15,-0.2 0.26,-0.26 0.11,-0.06 0.24,-0.09 0.37,-0.1l0.03 0 0 -0.23 0.35 0 0 0.23zm-0.38 0.3c-0.12,0 -0.22,0.04 -0.29,0.11 -0.07,0.08 -0.1,0.18 -0.1,0.32 0,0.13 0.03,0.23 0.1,0.31 0.07,0.07 0.17,0.11 0.29,0.11l0.02 0 0 -0.85 -0.02 0zm0.38 0l0 0.85 0.02 0c0.12,0 0.21,-0.04 0.28,-0.11 0.07,-0.07 0.1,-0.18 0.1,-0.31 0,-0.14 -0.03,-0.24 -0.1,-0.32 -0.07,-0.08 -0.16,-0.12 -0.29,-0.12l-0.02 0z"/>
  <path id="18" class="fil5" d="M15.8 32.34c0,0.17 -0.03,0.33 -0.09,0.46 -0.06,0.13 -0.15,0.23 -0.27,0.31 -0.12,0.07 -0.25,0.11 -0.4,0.11 -0.15,0 -0.28,-0.04 -0.39,-0.11 -0.12,-0.07 -0.21,-0.17 -0.27,-0.3 -0.06,-0.13 -0.1,-0.28 -0.1,-0.45l0 -0.09c0,-0.17 0.03,-0.33 0.09,-0.46 0.06,-0.13 0.15,-0.23 0.27,-0.31 0.12,-0.07 0.25,-0.11 0.39,-0.11 0.15,0 0.28,0.04 0.39,0.11 0.11,0.07 0.2,0.17 0.27,0.31 0.06,0.13 0.09,0.29 0.09,0.46l0 0.08zm-0.37 -0.08c0,-0.19 -0.03,-0.33 -0.1,-0.43 -0.07,-0.1 -0.16,-0.15 -0.29,-0.15 -0.12,0 -0.22,0.05 -0.28,0.14 -0.07,0.1 -0.1,0.24 -0.1,0.42l0 0.09c0,0.18 0.03,0.32 0.1,0.42 0.07,0.1 0.16,0.15 0.29,0.15 0.12,0 0.22,-0.05 0.28,-0.14 0.07,-0.1 0.1,-0.24 0.1,-0.42l0 -0.09z"/>
  <polygon id="19" class="fil5" points="17.65,33.19 17.29,33.19 17.29,32.43 16.57,32.43 16.57,33.19 16.21,33.19 16.21,31.41 16.57,31.41 16.57,32.13 17.29,32.13 17.29,31.41 17.65,31.41 "/>
  <path id="20" class="fil5" d="M19.76 33.62l-0.34 0 0 -0.44 -1.07 0 0 0.44 -0.35 0 -0.02 -0.73 0.13 0c0.07,-0.06 0.13,-0.15 0.17,-0.27 0.04,-0.12 0.07,-0.26 0.08,-0.43l0.05 -0.78 1.16 0 0 1.48 0.21 0 -0.03 0.73zm-1.22 -0.73l0.68 0 0 -1.18 -0.45 0 -0.03 0.47c-0.02,0.31 -0.09,0.55 -0.2,0.72z"/>
 </g>
</svg>
