<?xml version="1.0" ?><!DOCTYPE svg  PUBLIC '-//W3C//DTD SVG 1.1//EN'  'http://www.w3.org/Graphics/SVG/1.1/DTD/svg11.dtd'><svg height="512px" style="enable-background:new 0 0 512 512;" version="1.1" viewBox="0 0 512 512" width="512px" xml:space="preserve" xmlns="http://www.w3.org/2000/svg" xmlns:xlink="http://www.w3.org/1999/xlink"><g id="B_-_113_x2C__Wallet_x2C__Cash_x2C__credit_card_x2C__dollar_x2C__finance_x2C__money"><g><path d="M464.645,323.06h-0.1H410.34c-5.434,0-10.478,2.279-14.063,5.916    c-3.689,3.637-5.92,8.631-5.92,14.158s2.23,10.521,5.92,14.158c3.585,3.636,8.629,5.916,14.063,5.916h54.205h0.1h6.886V323.06    H464.645z M418.97,338.431c-1.263-1.164-2.914-1.892-4.755-1.892c-1.842,0-3.486,0.728-4.65,1.892    c-1.164,1.212-1.94,2.859-1.94,4.703c0,1.745,0.677,3.346,1.743,4.51l0.197,0.193c1.164,1.163,2.809,1.939,4.65,1.939    c1.841,0,3.492-0.776,4.755-1.939c1.164-1.212,1.94-2.861,1.94-4.703C420.91,341.29,420.134,339.643,418.97,338.431z     M414.215,328.83c3.979,0,7.563,1.6,10.089,4.219c2.618,2.568,4.263,6.157,4.263,10.085s-1.645,7.515-4.263,10.134    c-2.525,2.569-6.11,4.17-10.089,4.17c-3.974,0-7.466-1.601-10.084-4.17l-0.289-0.291c-2.428-2.569-3.881-6.062-3.881-9.843    c0-3.928,1.553-7.517,4.17-10.134C406.749,330.43,410.241,328.83,414.215,328.83z M460.672,434.049H81.099v29.529h379.573V434.049    z M81.099,426.388h379.573v-55.52H410.34c-7.563,0-14.549-3.103-19.594-8.146l-0.191-0.242l-0.197-0.242l-0.289-0.242    l-0.191-0.243l-0.196-0.243l-0.29-0.242l-0.197-0.242l-0.191-0.242l-0.196-0.291l-0.19-0.242l-0.197-0.291l-0.29-0.242    l-0.19-0.291l-0.099-0.243l-0.29-0.291l-0.197-0.291l-0.189-0.242l-0.1-0.29l-0.191-0.291l-0.196-0.291l0,0l-0.191-0.291    l-0.196-0.291l-0.1-0.243l-0.191-0.339l-0.098-0.291l-0.191-0.291l0,0l-0.196-0.291l-0.099-0.291l-0.191-0.34l-0.098-0.291    l-0.1-0.29l-0.191-0.339l-0.098-0.291l-0.191-0.291l-0.099-0.34l-0.099-0.34l-0.098-0.29l-0.093-0.34l-0.099-0.291l-0.19-0.34l0,0    l-0.099-0.34l0,0l-0.1-0.339l-0.099-0.29l0,0l-0.091-0.34l0,0v-0.34l-0.1-0.339l0,0l-0.099-0.34l0,0l-0.099-0.34v-0.338l0,0    l-0.092-0.34l0,0l-0.099-0.34v-0.339l0,0l-0.099-0.34l0,0v-0.34l0,0l-0.1-0.339v-0.389v-0.339l-0.091-0.34l0,0v-0.34l0,0v-0.387    l0,0v-0.34l0,0v-0.339l0,0l-0.099-0.34l0,0v-0.388l0,0v-0.339l0,0l0.099-0.34v-0.048v-0.341l0,0v-0.34l0,0v-0.388v-0.34l0,0    l0.091-0.338l0,0v-0.34v-0.34l0,0l0.1-0.339v-0.34v-0.049l0.099-0.338l0,0v-0.34l0.099-0.34l0,0l0.092-0.339l0,0v-0.34l0.099-0.34    l0,0l0.099-0.339l0,0l0.1-0.291v-0.34v-0.049l0.091-0.291l0.099-0.339l0.1-0.34l0.099-0.339l0.19-0.291l0.099-0.339l0,0    l0.093-0.34l0.098-0.291l0.099-0.34l0.099-0.29l0,0l0.191-0.339l0.098-0.291l0,0l0.191-0.341l0.1-0.291l0.098-0.291l0,0    l0.191-0.339l0.099-0.291l0.196-0.291l0.191-0.291l0.098-0.291l0,0l0.191-0.291l0.1-0.291l0.196-0.29l0.191-0.291l0.196-0.291    l0.191-0.291l0.1-0.291l0.189-0.242l0.197-0.291l0.29-0.291l0.099-0.242l0.19-0.291l0.29-0.243l0.197-0.291l0.19-0.242    l0.196-0.242l0.191-0.29l0.197-0.243l0.29-0.242l0.196-0.243l0.191-0.242l0.289-0.242l0.197-0.242l0.191-0.243    c5.045-5.042,12.03-8.146,19.594-8.146h50.332V205.087h-18.523H368.35h-21.337H224.533l0,0h-0.099h-33.65h-0.099l0,0h-10.958    h-0.099h-0.098h-29.382h-0.099l0,0H81.782c-12.221,0-23.376-4.509-31.907-11.928l-0.099-0.048L49,192.432l-0.092-0.097    l-0.197-0.146l-0.29-0.242l0,0l-0.289-0.291l-0.099-0.097l-0.099-0.146l-0.776-0.678l-0.098-0.146l0,0l-0.092-0.097l-0.099-0.146    h-0.099l-0.099-0.097l-0.388-0.437v-0.048l-0.19-0.146l-0.099-0.097l0,0l-0.677-0.776v-0.049l-0.099-0.048l-0.092-0.146    l-0.098-0.097l0,0l-0.099-0.146l-0.191-0.097l-0.098-0.146l-0.099-0.146v-0.049l-0.099-0.048l-0.093-0.146l-0.098-0.048v-0.097    l-0.099-0.096l-0.099-0.097v-0.049l-0.191-0.146l-0.098-0.097l0,0l-0.099-0.146l-0.092-0.146l0,0l-0.099-0.097l-0.098-0.146    v-0.048l-0.099-0.097l-0.093-0.146l-0.099-0.097l0,0l-0.098-0.146l-0.099-0.097v-0.049l-0.092-0.146l-0.099-0.097v-0.048    l-0.099-0.097l-0.098-0.146l-0.092-0.048v-0.097l-0.099-0.097l-0.099-0.097l-0.091-0.048l-0.099-0.146l-0.099-0.146l0,0    l-0.099-0.146v-0.097l-0.092-0.048v-0.097l-0.099-0.146l-0.099-0.048v-0.097l-0.099-0.146l-0.091-0.097v-0.049l-0.099-0.096    l-0.099-0.146l0,0l-0.099-0.146l-0.091-0.146h-0.099v-0.146l-0.099-0.146l-0.099-0.049v-0.097l-0.092-0.146l-0.099-0.097v-0.048    v245.836c0,9.697,3.973,18.57,10.372,24.971c5.92,5.867,13.873,9.746,22.6,10.327v-33.166v-0.193V228.799    c0-2.086,1.744-3.831,3.782-3.831c2.131,0,3.875,1.745,3.875,3.831V426.388z M135.988,407.914c1.362,0,2.914-0.971,3.393-2.183    c1.263-2.569-0.677-5.527-3.393-5.527h-7.755c-1.454,0-2.908,0.97-3.394,2.134c-1.263,2.569,0.677,5.576,3.394,5.576H135.988z     M166.632,407.914c1.46,0,3.013-0.971,3.493-2.183c1.263-2.569-0.678-5.527-3.493-5.527h-7.656c-1.454,0-3.006,0.97-3.493,2.134    c-1.263,2.569,0.679,5.576,3.493,5.576H166.632z M197.375,407.914c1.454,0,2.914-0.971,3.394-2.183    c1.362-2.569-0.677-5.527-3.394-5.527h-7.656c-1.46,0-3.013,0.97-3.493,2.134c-1.263,2.569,0.678,5.576,3.493,5.576H197.375z     M228.019,407.914c1.454,0,3.006-0.971,3.493-2.183c1.263-2.569-0.677-5.527-3.493-5.527h-7.656c-1.459,0-2.914,0.97-3.4,2.134    c-1.354,2.569,0.684,5.576,3.4,5.576H228.019z M258.762,407.914c1.454,0,3.006-0.971,3.493-2.183    c1.263-2.569-0.677-5.527-3.493-5.527H251.1c-1.453,0-3.006,0.97-3.486,2.134c-1.263,2.569,0.677,5.576,3.486,5.576H258.762z     M289.506,407.914c1.354,0,2.906-0.971,3.393-2.183c1.264-2.569-0.677-5.527-3.393-5.527h-7.762c-1.355,0-2.907,0.97-3.395,2.134    c-1.256,2.569,0.684,5.576,3.395,5.576H289.506z M320.15,407.914c1.453,0,3.006-0.971,3.492-2.183    c1.256-2.569-0.684-5.527-3.492-5.527h-7.663c-1.454,0-3.006,0.97-3.394,2.134c-1.355,2.569,0.585,5.576,3.394,5.576H320.15z     M350.893,407.914c1.455,0,3.006-0.971,3.395-2.183c1.354-2.569-0.586-5.527-3.395-5.527h-7.662c-1.454,0-3.006,0.97-3.493,2.134    c-1.263,2.569,0.679,5.576,3.493,5.576H350.893z M381.537,407.914c1.553,0,3.006-0.971,3.486-2.183    c1.264-2.569-0.678-5.527-3.486-5.527h-7.662c-1.453,0-2.908,0.97-3.395,2.134c-1.264,2.569,0.678,5.576,3.395,5.576H381.537z     M412.273,407.914c1.461,0,3.006-0.971,3.493-2.183c1.263-2.569-0.677-5.527-3.493-5.527h-7.656c-1.453,0-2.914,0.97-3.492,2.134    c-1.263,2.569,0.776,5.576,3.492,5.576H412.273z M443.017,407.914c1.454,0,2.913-0.971,3.493-2.183    c1.263-2.569-0.776-5.527-3.493-5.527h-7.663c-1.453,0-3.006,0.97-3.485,2.134c-1.263,2.569,0.677,5.576,3.485,5.576H443.017z     M97.588,400.204c-1.453,0-3.005,0.97-3.492,2.134c-1.263,2.569,0.677,5.576,3.492,5.576h7.663c1.453,0,2.907-0.971,3.395-2.183    c1.255-2.569-0.586-5.527-3.395-5.527H97.588z M398.605,135.265h39.662v-20.414h-59.834l18.811,18.813    C397.731,134.149,398.219,134.683,398.605,135.265z M356.227,197.426h12.123h69.918v-54.5h-36.465    c0.099,0.728,0.099,1.407,0.099,2.085c0,4.024-1.454,8.049-4.46,11.153L356.227,197.426z M341.968,89.201L233.741,197.426h111.62    l46.647-46.597c1.453-1.601,2.229-3.685,2.229-5.818c0-2.134-0.776-4.315-2.428-5.916L366.6,113.881l-0.098-0.097l-0.093-0.048    v-0.096l-0.099-0.048L341.968,89.201z M222.882,197.426L336.541,83.77l-11.445-11.394l-125.103,125.05H222.882z M171.485,186.42    c0.48,1.26,1.165,2.424,2.132,3.394l7.564,7.612h7.951l130.53-130.48l-11.636-11.589c-1.65-1.649-3.781-2.473-5.913-2.473    c-2.138,0-4.368,0.824-5.92,2.473l-6.11,6.061l-52.271,52.222l-0.091,0.096v0.048l-64.104,64.102l0,0l-0.099,0.097l0,0    l-0.091,0.048l0,0l-0.099,0.097l0,0v0.097l0,0l-0.099,0.049l0,0l-0.099,0.097l-0.091,0.097v0.048l-0.099,0.097l0,0l-0.099,0.097    l0,0v0.097l-0.099,0.048l-0.092,0.194l0,0l-0.099,0.048v0.048l-0.099,0.049l0,0v0.097l-0.099,0.194l0,0l-0.092,0.097l-0.098,0.146    l0,0v0.097l0,0l-0.099,0.194l-0.099,0.097l0,0v0.097l0,0l-0.092,0.097l0,0v0.097l-0.098,0.048v0.049v0.048v0.048v0.097l0,0    l-0.099,0.097l0,0v0.048l0,0l-0.099,0.097l0,0v0.097v0.049v0.048v0.048l-0.093,0.049v0.048v0.048l0,0v0.097l0,0v0.097v0.048    l-0.098,0.096l0,0v0.097l0,0v0.048l0,0v0.146l0,0l-0.099,0.097l0,0v0.097l0,0v0.097l0,0v0.097l0,0v0.097l0,0l-0.099,0.097l0,0    v0.097l0,0v0.097l0,0v0.097l0,0v0.097l0,0v0.097l0,0v0.097l0,0v0.097l0,0v0.097v0.049v0.097l0,0l-0.092,0.097l0,0v0.096l0,0v0.097    l0,0v0.097l0,0v0.097l0,0v0.097l0,0v0.097l0,0l0.092,0.097v0.097v0.146l0,0v0.048v0.146v0.097v0.097l0,0v0.097l0,0v0.097v0.097    l0.099,0.097v0.194l0,0v0.096l0,0l0.099,0.388l0,0L171.485,186.42z M187.391,114.851H81.782c-11.346,0-21.725,4.655-29.19,12.123    c-7.466,7.466-12.122,17.794-12.122,29.142v0.338v0.194v0.146v0.34v0.048v0.291v0.243v0.048v0.339l0.099,0.146v0.193v0.291v0.048    v0.291v0.243v0.048l0.092,0.339v0.146v0.195v0.29l0,0l0.099,0.339v0.194v0.146v0.291l0.099,0.097v0.243v0.242v0.049l0.099,0.338    v0.146v0.146l0.091,0.34l0,0v0.291l0.099,0.242v0.097v0.291l0.099,0.097v0.242l0.099,0.29l0,0    c0.677,3.444,1.742,6.547,3.295,9.698l0.098,0.291l0,0l0.191,0.292l0.099,0.146v0.097l0.19,0.291v0.048l0.099,0.194l0.197,0.243    v0.048l0.092,0.29l0.099,0.097l0.099,0.194l0.099,0.243l0.19,0.291l0.099,0.146l0.092,0.146l0.198,0.291l0,0l0.099,0.243    l0.092,0.193l0.099,0.097l0.198,0.243v0.097l0.19,0.194c1.263,1.988,2.618,3.733,4.27,5.527l0.099,0.146l0.092,0.048l0.486,0.486    l0.099,0.146l0.099,0.097l0.19,0.194l0.099,0.097l0.191,0.146l0.197,0.193v0.049l0.191,0.194l0.098,0.097l0.198,0.146l0.191,0.194    l0,0l0.289,0.243l0.099,0.097l0.098,0.097l0.191,0.194v0.049l0.289,0.194l0.198,0.194l0.289,0.193v0.048l0.198,0.194l0.19,0.146    l0.099,0.049l0.19,0.194l0.296,0.194l0.19,0.194l0,0l0.29,0.194l0.099,0.097l0.198,0.097l0.19,0.194l0.291,0.194l0.098,0.097    l0.198,0.097l0.19,0.194l0,0l0.29,0.194l0.197,0.097l0.092,0.097l0.198,0.146l0.098,0.049l0.191,0.146    c6.597,4.364,14.451,6.933,22.889,6.933h59.06l-6.598-6.642c-3.104-3.153-4.749-7.273-4.749-11.396    c0.091-4.024,1.552-8,4.558-11.104l25.31-25.359H79.257c-2.131,0-3.874-1.697-3.874-3.831c0-2.132,1.743-3.83,3.874-3.83h87.763    L187.391,114.851z M199.513,113.542c-0.099,0.145-0.198,0.242-0.296,0.387l-27.343,27.348c-0.295,0.388-0.684,0.728-1.072,0.97    l-31.322,31.372c-1.552,1.601-2.328,3.686-2.328,5.77c0.099,2.183,0.875,4.315,2.526,5.965l12.122,12.072h18.522l-2.138-2.182    l-0.19-0.145l-0.099-0.146v-0.048l-0.19-0.097l0,0l-0.099-0.194l-0.099-0.146l-0.19-0.146l-0.099-0.146l0,0l-0.198-0.194    l-0.092-0.146l-0.197-0.291l0,0c-0.289-0.387-0.579-0.775-0.868-1.163l0,0l-0.388-0.679v-0.048l-0.099-0.146l0,0l-0.099-0.193l0,0    l-0.098-0.146l0,0l-0.29-0.533v-0.049l-0.29-0.679l0,0v-0.194l0,0l-0.289-0.533v-0.194l0,0l-0.198-0.388l0,0v-0.146v-0.049    l-0.099-0.146l0,0v-0.194l0,0v-0.194l0,0l-0.092-0.388l0,0l-0.099-0.193l0,0v-0.194l0,0l-0.099-0.194l0,0v-0.146v-0.048v-0.146    v-0.049l-0.099-0.146l0,0v-0.194v-0.048v-0.146v-0.049l-0.091-0.146l0,0v-0.194l0,0v-0.193l0,0v-0.194l0,0v-0.194l0,0    l-0.099-0.194l0,0v-0.194l0,0v-0.195l0,0v-0.194l0,0v-0.194l0,0v-0.194l0,0v-0.194l0,0v-0.193l0,0v-0.194l0,0v-0.194l0,0v-0.194    l0,0l0.099-0.194l0,0v-0.194l0,0v-0.194l0,0v-0.194l0,0v-0.194l0,0l0.091-0.194l0,0v-0.387l0,0l0.099-0.194v-0.194l0,0v-0.146l0,0    l0.099-0.194v-0.048v-0.146l0.19-0.582l0,0v-0.194l0,0v-0.194l0.099-0.194l0,0l0.198-0.534l0,0v-0.194l0,0l0.091-0.194    l0.099-0.194l0,0l0.099-0.34l0,0l0.099-0.193l0.092-0.194l0.098-0.339l0,0l0.099-0.194l0.099-0.146l0,0l0.19-0.388l0,0    l0.099-0.146l0,0l0.099-0.194l0,0l0.092-0.146l0,0l0.098-0.193l0,0l0.099-0.146l0,0l0.099-0.194l0,0l0.388-0.485l0.093-0.194    l0.099-0.146l0,0l0.098-0.194l0,0l0.191-0.146l0,0l0.099-0.146l0,0l0.098-0.193l0,0l0.092-0.146l0,0l0.198-0.146l0,0l0.099-0.146    l0,0l0.091-0.146l0,0l0.198-0.146l0,0l0.099-0.194l0,0l0.092-0.146h0.099l0.099-0.146l0,0l0.19-0.146l0,0l64.005-64.101    l0.099-0.049l0.099-0.048l49.555-49.603l-7.953-7.953c-1.65-1.502-3.684-2.278-5.82-2.278c-2.131,0-4.361,0.824-5.913,2.424    L199.513,113.542z M327.615,64.035l0.1,0.146L327.615,64.035z" style="fill-rule:evenodd;clip-rule:evenodd;"/></g></g><g id="Layer_1"/></svg>