<?xml version="1.0" encoding="UTF-8"?>
<!DOCTYPE svg PUBLIC "-//W3C//DTD SVG 1.1//EN" "http://www.w3.org/Graphics/SVG/1.1/DTD/svg11.dtd">
<!-- Creator: CorelDRAW 2018 (64-Bit) -->
<svg xmlns="http://www.w3.org/2000/svg" xml:space="preserve" width="207.631mm" height="15.7919mm" version="1.1" style="shape-rendering:geometricPrecision; text-rendering:geometricPrecision; image-rendering:optimizeQuality; fill-rule:evenodd; clip-rule:evenodd"
viewBox="0 0 6030.86 458.69"
 xmlns:xlink="http://www.w3.org/1999/xlink">
 <defs>
  <style type="text/css">
   <![CDATA[
    .fil7 {fill:#00A0E3}
    .fil8 {fill:#254287}
    .fil9 {fill:#283774}
    .fil10 {fill:#33CCCC}
    .fil2 {fill:#E84748}
    .fil5 {fill:#EB001B}
    .fil6 {fill:#F79E1B}
    .fil1 {fill:#FEFEFE}
    .fil4 {fill:#FF5F00}
    .fil11 {fill:white}
    .fil3 {fill:#F7A707;fill-rule:nonzero}
    .fil0 {fill:#FEFEFE;fill-rule:nonzero}
   ]]>
  </style>
 </defs>
 <g id="Слой_x0020_1">
  <metadata id="CorelCorpID_0Corel-Layer"/>
  <g id="_1794522396304">
   <path class="fil0" d="M183.68 148.2l131.01 0 -4.45 32.39 -84.09 91.15 57.96 -0.35c0.92,13.47 7.64,26.29 17.2,38.81l-144.96 0 4.61 -28.94 85.63 -91.21 -69.1 -0.72 6.19 -41.09 0 -0.03z"/>
   <path class="fil0" d="M458.7 288.27c-8.99,7.92 -18.53,14.15 -29.46,18.34 -10.88,4.19 -24.22,6.3 -39.98,6.3 -19.16,0 -34.34,-2.56 -45.67,-7.66 -11.28,-5.13 -20.24,-14.14 -26.94,-26.99 -6.7,-12.86 -8.4,-29.38 -5.1,-49.43 4.4,-26.77 17.67,-46.66 35.53,-61.04 17.87,-14.38 38.82,-22.29 67.16,-22.29 22.15,0 38.57,6.26 49.9,14.53 2.96,2.16 5.68,4.48 8.04,7.15l-25.48 36.16c-9.63,-6.49 -15.94,-12.27 -33.1,-14.24 -14.11,-1.62 -24.52,1.74 -33.55,8.84 -9.02,7.1 -15.72,16.92 -17.94,30.14 -1.66,9.9 -0.8,18.06 2.57,24.4 3.38,6.35 7.9,10.45 13.6,12.97 5.72,2.53 13.39,4.14 23.07,4.14 7.96,0 14.7,-2.85 20.19,-4.91 4.4,-1.65 15.45,-8.56 20.64,-12.05l16.52 35.66 -0.01 -0.02z"/>
   <path class="fil0" d="M566.26 288.54l-53.44 0 -9.73 21.65 -46.85 0 78.39 -161.98 50.23 0 32.1 161.98 -47.7 0 -3.01 -21.65 0.01 0zm-4.49 -36.15l-8.49 -62.18 -25.45 62.18 33.94 0z"/>
   <path class="fil0" d="M629.28 310.19l22.96 -161.98 78.11 0c77.72,0 59.16,78.05 20.03,97.49 8.09,18.12 21.48,48.92 26.24,64.49l-38.57 0c-26.35,0 -26.31,-47.1 -34.08,-51.07l-18 0 -9.65 51.07 -47.03 0 0 0zm62.83 -90.02c12.7,0 14.32,1.61 26.79,-1.14 3.18,-0.7 5.97,-2.34 8.31,-5.09 2.35,-2.76 3.81,-5.89 4.3,-9.42 0.74,-5.25 -0.25,-9.27 -2.95,-12.07 -5.73,-5.95 -23.01,-5.3 -31.77,-5.3l-4.68 33.03 -0.01 0z"/>
   <path class="fil0" d="M815.53 146.77l74.34 0c75.67,0 83.4,99.48 29.02,142.81 -14.95,11.91 -35.17,20.61 -56.41,20.61l-71.46 0 24.51 -163.42zm42.98 38.45l-13.38 84 12.28 0c24.4,0 39.31,-12.79 43.88,-41.53 4.06,-25.48 -6.94,-42.47 -30.28,-42.47l-12.51 0 0.01 -0z"/>
   <path class="fil1" d="M54.39 150.29l-35.76 0c-10.24,0 -18.63,8.11 -18.63,18.02l0 126.85c0,9.91 8.39,18.02 18.63,18.02l58.49 0c-18.85,-11.95 -29.84,-18.28 -34.41,-34.76 -5.23,-18.83 -1.55,-42.91 2.59,-68.34 3.21,-19.73 6.1,-40.28 9.1,-59.8l0 0.01z"/>
   <path class="fil2" d="M76.84 149.92l83.17 0 -18.76 141.99 -48.9 0c-18.85,0 -32.22,-15.42 -29.73,-34.27l14.24 -107.73 -0.01 0z"/>
  </g>
  <g id="_1794522401040">
   <polygon class="fil0" points="2910.08,341.11 2948.08,118.16 3008.85,118.16 2970.83,341.11 "/>
   <path class="fil0" d="M3191.24 123.64c-12.04,-4.51 -30.9,-9.37 -54.47,-9.37 -60.05,0 -102.35,30.24 -102.71,73.57 -0.34,32.04 30.2,49.91 53.25,60.58 23.65,10.92 31.61,17.9 31.5,27.66 -0.15,14.95 -18.89,21.77 -36.35,21.77 -24.33,0 -37.25,-3.38 -57.21,-11.7l-7.83 -3.54 -8.53 49.91c14.2,6.22 40.44,11.61 67.69,11.89 63.88,0 105.36,-29.89 105.82,-76.18 0.23,-25.36 -15.95,-44.67 -51.02,-60.58 -21.24,-10.32 -34.26,-17.2 -34.12,-27.64 0,-9.27 11.01,-19.17 34.8,-19.17 19.88,-0.31 34.27,4.03 45.49,8.54l5.45 2.57 8.23 -48.32 0 0z"/>
   <path class="fil0" d="M3347.08 118.37l-46.96 0c-14.54,0 -25.44,3.97 -31.83,18.49l-90.25 204.32 63.81 0c0,0 10.43,-27.47 12.79,-33.51 6.97,0 68.96,0.1 77.83,0.1 1.82,7.8 7.4,33.41 7.4,33.41l56.39 0 -49.18 -222.82 0 0zm-74.94 143.71c5.02,-12.84 24.22,-62.32 24.22,-62.32 -0.35,0.6 4.98,-12.91 8.05,-21.28l4.11 19.22c0,0 11.64,53.22 14.06,64.38l-50.44 0 -0 0z"/>
   <path class="fil0" d="M2859.11 118.32l-59.5 152.04 -6.34 -30.9c-11.08,-35.62 -45.59,-74.21 -84.17,-93.53l54.4 194.99 64.29 -0.08 95.68 -222.53 -64.37 0 0.01 0.01z"/>
   <path class="fil3" d="M2744.42 118.18l-97.99 0 -0.78 4.64c76.25,18.45 126.69,63.06 147.63,116.64l-21.31 -102.46c-3.68,-14.12 -14.34,-18.34 -27.54,-18.82l-0.01 0z"/>
  </g>
  <g id="_1794522402800">
   <g>
    <path class="fil1" d="M3884.75 457.67l0 -30.44c0,-11.67 -7.11,-19.28 -19.28,-19.28 -6.09,0 -12.68,2.03 -17.25,8.63 -3.56,-5.58 -8.63,-8.63 -16.23,-8.63 -5.07,0 -10.14,1.52 -14.21,7.11l0 -6.09 -10.65 0 0 48.71 10.65 0 0 -26.9c0,-8.63 4.57,-12.68 11.67,-12.68 7.11,0 10.65,4.56 10.65,12.68l0 26.9 10.65 0 0 -26.9c0,-8.63 5.07,-12.68 11.67,-12.68 7.11,0 10.65,4.56 10.65,12.68l0 26.9 11.67 0 0 0 0 -0.01zm157.8 -48.71l-17.25 0 0 -14.72 -10.65 0 0 14.72 -9.64 0 0 9.64 9.64 0 0 22.32c0,11.16 4.56,17.76 16.75,17.76 4.56,0 9.64,-1.52 13.19,-3.56l-3.04 -9.13c-3.04,2.03 -6.6,2.54 -9.13,2.54 -5.07,0 -7.1,-3.04 -7.1,-8.12l0 -21.82 17.25 0 0 -9.64 0 0 -0 0zm90.32 -1.02c-6.09,0 -10.14,3.04 -12.68,7.11l0 -6.09 -10.65 0 0 48.71 10.65 0 0 -27.41c0,-8.12 3.56,-12.68 10.14,-12.68 2.03,0 4.56,0.51 6.6,1.02l3.04 -10.14c-2.03,-0.51 -5.07,-0.51 -7.11,-0.51l0 0 0 0 0 -0.01zm-136.48 5.07c-5.07,-3.56 -12.18,-5.07 -19.79,-5.07 -12.18,0 -20.3,6.09 -20.3,15.73 0,8.12 6.09,12.69 16.75,14.21l5.07 0.51c5.58,1.02 8.63,2.54 8.63,5.07 0,3.56 -4.06,6.09 -11.16,6.09 -7.11,0 -12.68,-2.54 -16.23,-5.07l-5.07 8.12c5.58,4.05 13.19,6.09 20.81,6.09 14.21,0 22.32,-6.6 22.32,-15.73 0,-8.63 -6.6,-13.19 -16.75,-14.72l-5.07 -0.51c-4.56,-0.51 -8.12,-1.52 -8.12,-4.56 0,-3.56 3.56,-5.58 9.13,-5.58 6.09,0 12.18,2.54 15.23,4.06l4.56 -8.63 0 0 -0.01 -0.01zm283.13 -5.07c-6.09,0 -10.14,3.04 -12.68,7.11l0 -6.09 -10.65 0 0 48.71 10.65 0 0 -27.41c0,-8.12 3.56,-12.68 10.14,-12.68 2.03,0 4.56,0.51 6.6,1.02l3.04 -10.14c-2.03,-0.51 -5.07,-0.51 -7.11,-0.51l0 0 0 0 0 -0.01zm-135.98 25.37c0,14.72 10.14,25.37 25.87,25.37 7.11,0 12.18,-1.52 17.25,-5.58l-5.07 -8.63c-4.06,3.04 -8.12,4.56 -12.68,4.56 -8.63,0 -14.72,-6.09 -14.72,-15.73 0,-9.13 6.09,-15.23 14.72,-15.73 4.56,0 8.63,1.52 12.68,4.57l5.07 -8.63c-5.07,-4.06 -10.14,-5.58 -17.25,-5.58 -15.73,0 -25.87,10.65 -25.87,25.37l0 0 0 0 0 0.01zm98.44 0l0 -24.35 -10.65 0 0 6.09c-3.56,-4.56 -8.63,-7.11 -15.22,-7.11 -13.7,0 -24.35,10.65 -24.35,25.37 0,14.72 10.65,25.37 24.35,25.37 7.1,0 12.18,-2.54 15.22,-7.11l0 6.09 10.65 0 0 -24.35zm-39.07 0c0,-8.63 5.58,-15.73 14.71,-15.73 8.63,0 14.72,6.6 14.72,15.73 0,8.63 -6.09,15.73 -14.72,15.73 -9.13,-0.51 -14.71,-7.11 -14.71,-15.73l0 0zm-127.35 -25.37c-14.21,0 -24.35,10.14 -24.35,25.37 0,15.22 10.14,25.37 24.86,25.37 7.11,0 14.21,-2.03 19.79,-6.6l-5.07 -7.61c-4.05,3.04 -9.13,5.07 -14.21,5.07 -6.6,0 -13.19,-3.04 -14.72,-11.67l36.02 0 0 -4.06c0.51,-15.73 -8.63,-25.88 -22.32,-25.88l0 0 0 0 0 0.01zm0 9.14c6.6,0 11.16,4.05 12.18,11.67l-25.37 0c1.02,-6.59 5.58,-11.67 13.19,-11.67l0 0 -0 0zm264.35 16.23l0 -43.63 -10.65 0 0 25.37c-3.56,-4.56 -8.63,-7.11 -15.22,-7.11 -13.7,0 -24.35,10.65 -24.35,25.37 0,14.72 10.65,25.37 24.35,25.37 7.1,0 12.18,-2.54 15.22,-7.11l0 6.09 10.65 0 0 -24.35 0 0zm-39.07 0c0,-8.63 5.58,-15.73 14.72,-15.73 8.63,0 14.72,6.6 14.72,15.73 0,8.63 -6.09,15.73 -14.72,15.73 -9.13,-0.51 -14.72,-7.11 -14.72,-15.73l0 0zm-356.19 0l0 -24.35 -10.65 0 0 6.09c-3.56,-4.56 -8.63,-7.11 -15.23,-7.11 -13.7,0 -24.35,10.65 -24.35,25.37 0,14.72 10.65,25.37 24.35,25.37 7.1,0 12.18,-2.54 15.23,-7.11l0 6.09 10.65 0 0 -24.35zm-39.58 0c0,-8.63 5.58,-15.73 14.72,-15.73 8.63,0 14.72,6.6 14.72,15.73 0,8.63 -6.09,15.73 -14.72,15.73 -9.13,-0.51 -14.72,-7.11 -14.72,-15.73z"/>
    <rect class="fil4" x="3992.82" y="39.07" width="159.83" height="287.18"/>
    <path class="fil5" d="M4002.98 182.67c0,-58.35 27.4,-110.11 69.51,-143.59 -30.95,-24.35 -70.02,-39.07 -112.64,-39.07 -100.97,0 -182.66,81.69 -182.66,182.66 0,100.97 81.69,182.66 182.66,182.66 42.62,0 81.69,-14.72 112.64,-39.07 -42.11,-32.98 -69.51,-85.25 -69.51,-143.59l0 0.01z"/>
    <path class="fil6" d="M4368.29 182.67c0,100.97 -81.69,182.66 -182.66,182.66 -42.62,0 -81.69,-14.72 -112.64,-39.07 42.62,-33.49 69.51,-85.25 69.51,-143.59 0,-58.35 -27.4,-110.11 -69.51,-143.59 30.95,-24.35 70.02,-39.07 112.64,-39.07 100.97,0 182.66,82.2 182.66,182.66l0 0.01z"/>
   </g>
  </g>
  <g id="_1794522406960">
   <g>
    <path class="fil7" d="M4861.03 147.17l87.59 0c47.03,0 64.73,23.8 61.99,58.83 -4.51,57.74 -39.42,89.67 -85.73,89.67l-23.38 0c-6.34,0 -10.62,4.19 -12.34,15.6l-10.03 66.2c-0.65,4.3 -2.92,6.83 -6.31,7.13l-54.92 0c-5.17,0 -7.01,-3.95 -5.66,-12.52l33.54 -212.36c1.35,-8.51 6,-12.57 15.25,-12.57l-0 0.01z"/>
    <path class="fil1" d="M5241.27 143.24c29.55,0 56.81,16.03 53.08,55.99 -4.42,47.37 -29.96,73.75 -70.1,73.86l-35.03 0c-5.05,0 -7.48,4.1 -8.8,12.56l-6.76 43.11c-1.02,6.51 -4.36,9.73 -9.3,9.73l-32.62 0c-5.2,0 -7.01,-3.33 -5.86,-10.76l26.97 -172.82c1.33,-8.5 4.58,-11.66 10.34,-11.66l78.09 0 -0.01 0.01zm-53.14 92.51l0 0 26.57 0.01c16.62,-0.63 27.66,-12.13 28.77,-32.89 0.69,-12.82 -7.97,-21.99 -21.76,-21.93l-25.01 0.12 -8.57 54.7 -0 -0.01zm194.9 89.48l0 0c2.98,-2.7 6.02,-4.12 5.58,-0.78l-1.06 8.01c-0.55,4.18 1.11,6.41 5,6.41l28.98 0c4.87,0 7.26,-1.97 8.46,-9.52l17.86 -112.09c0.9,-5.63 -0.46,-8.4 -4.75,-8.4l-31.86 0c-2.88,0 -4.27,1.62 -5.02,6l-1.18 6.9c-0.62,3.6 -2.27,4.22 -3.79,0.6 -5.41,-12.81 -19.2,-18.54 -38.53,-18.15 -44.71,0.92 -74.84,34.86 -78.06,78.35 -2.49,33.65 21.62,60.07 53.4,60.07 23.06,0 33.37,-6.87 44.99,-17.41l-0.01 0.01zm-24.25 -17.21l0 0c-19.24,0 -32.65,-15.34 -29.86,-34.17 2.8,-18.81 20.79,-34.16 40.02,-34.16 19.24,0 32.65,15.35 29.85,34.16 -2.8,18.82 -20.77,34.17 -40.01,34.17zm145.83 -99.51l0 0 -29.28 0c-6.07,0 -8.53,4.44 -6.6,10.08l36.49 106.85 -35.95 50.82c-3,4.24 -0.69,8.12 3.54,8.12l33.03 0c4.93,0 7.34,-1.26 9.82,-4.82l112.21 -160.97c3.45,-4.96 1.82,-10.15 -3.85,-10.16l-31.23 -0.03c-5.36,-0.01 -7.51,2.11 -10.59,6.58l-46.8 67.91 -20.83 -68.02c-1.28,-4.19 -4.35,-6.36 -9.98,-6.36l0.02 0.01z"/>
    <path class="fil1" d="M5744.65 143.24c29.55,0 56.83,16.03 53.08,55.99 -4.42,47.37 -29.96,73.75 -70.1,73.86l-35.03 0c-5.05,0 -7.48,4.1 -8.8,12.56l-6.76 43.11c-1.02,6.51 -4.35,9.73 -9.3,9.73l-32.62 0c-5.2,0 -7.02,-3.33 -5.86,-10.76l26.97 -172.82c1.32,-8.5 4.58,-11.66 10.34,-11.66l78.08 0 0 0.01zm-53.14 92.51l0 0 26.57 0.01c16.61,-0.63 27.65,-12.13 28.77,-32.89 0.68,-12.82 -7.97,-21.99 -21.76,-21.93l-25.01 0.12 -8.57 54.7 -0 -0.01zm194.9 89.48l0 0c2.98,-2.7 6.02,-4.12 5.58,-0.78l-1.06 8.01c-0.55,4.18 1.11,6.41 5,6.41l28.98 0c4.87,0 7.26,-1.97 8.46,-9.52l17.86 -112.09c0.89,-5.63 -0.46,-8.4 -4.75,-8.4l-31.87 0c-2.87,0 -4.27,1.62 -5.02,6l-1.19 6.9c-0.61,3.6 -2.27,4.22 -3.79,0.6 -5.42,-12.81 -19.2,-18.54 -38.54,-18.15 -44.7,0.92 -74.84,34.86 -78.06,78.35 -2.49,33.65 21.62,60.07 53.4,60.07 23.06,0 33.37,-6.87 44.98,-17.41l0.02 0.01zm-24.25 -17.21l0 0c-19.24,0 -32.65,-15.34 -29.86,-34.17 2.8,-18.81 20.77,-34.16 40.01,-34.16 19.24,0 32.65,15.35 29.86,34.16 -2.8,18.82 -20.77,34.17 -40.01,34.17zm133.68 31.06l0 0 -33.45 0c-2.66,0 -4.51,-2.08 -4.1,-4.63l29.41 -186.18c0.4,-2.54 2.91,-4.63 5.56,-4.63l33.45 0c2.66,0 4.5,2.08 4.1,4.63l-29.41 186.18c-0.4,2.54 -2.9,4.63 -5.56,4.63l0.01 0z"/>
    <path class="fil8" d="M4806.28 74.08l87.68 0c24.69,0 53.98,0.8 73.57,18.08 13.09,11.55 19.95,29.94 18.37,49.67 -5.37,66.95 -45.42,104.45 -99.12,104.45l-43.24 0c-7.36,0 -12.25,4.88 -14.31,18.09l-12.07 76.76c-0.78,4.98 -2.94,7.92 -6.88,8.26l-54.01 0c-6,0 -8.12,-4.59 -6.56,-14.51l38.89 -246.24c1.56,-9.87 6.95,-14.56 17.69,-14.56l-0.01 -0.01z"/>
    <path class="fil9" d="M4830.48 256.64l15.31 -96.91c1.35,-8.51 6,-12.57 15.25,-12.57l87.59 0c14.5,0 26.22,2.26 35.4,6.44 -8.8,59.58 -47.34,92.69 -97.8,92.69l-43.24 0c-5.69,0 -9.94,2.91 -12.5,10.35l0 0z"/>
   </g>
  </g>
  <g id="_1794522410224">
   <g>
    <path class="fil10" d="M2259.48 212.58c6.6,9.42 7.27,24.29 0.26,35.79 -6.25,10.28 -43.74,49.74 -55.93,62.42 -10.57,11.02 -24.84,22.05 -38.89,22.05l-294.04 0c-39.74,0 -42.14,-13.43 -42.14,-43.8l0 -123.2c0,-31.02 9.18,-39.99 36.32,-39.99l299.86 0c14.06,0 26.54,7.15 40.89,21.7 12.18,12.35 48.6,57.77 53.66,65.03l0 0.01z"/>
    <g>
     <g>
      <path class="fil11" d="M1895.4 173.49c0,-0.87 0,0.05 0,-0.81 0,-3.97 -0.34,-7.88 -6.84,-7.88l-24.57 0c-5.71,0 -6.07,3.15 -6.07,8.04l0 32.55c11.96,-17.05 25.23,-24.97 37.49,-31.91l-0.01 0z"/>
      <path class="fil11" d="M2060.26 291.14l0 -1.75 0.02 0 0 -78.37c0,-32.86 -14.5,-49.29 -43.48,-49.29 -8.3,0 -15.9,2.07 -22.8,6.22 -6.9,4.14 -13.53,9.94 -19.88,17.38 -3.12,-8.08 -7.84,-14.03 -14.14,-17.86 -6.3,-3.82 -14.47,-5.73 -24.5,-5.73 -11.6,0 -25.1,4.05 -34.66,11.89 -2.14,2.13 -42.92,34.14 -42.92,67.01 0,18.02 0,37.15 0,37.15 0,0 0,12.72 0,13.03 0,1.59 -0.78,7.65 6.03,7.65l25.58 0c7.95,0 7.18,-5.19 7.18,-7.33 0,-0.52 0,-13.66 0,-13.66l0 -67.5c4.31,-5.71 13.14,-19.82 27.47,-19.82 5.5,0 9.46,1.86 11.88,5.57 2.43,3.71 3.65,9.94 3.65,18.67l0 63.37 -0.03 0c0,0 0,12.72 0,13.03 0,1.59 -0.78,7.65 6.03,7.65l25.26 0c7.95,0 7.18,-5.2 7.18,-7.33l0 -1.75 0.03 0 0 -79.39c4.63,-5.71 13.84,-19.82 27.46,-19.82 5.61,0 9.64,1.86 12.13,5.57 2.47,3.71 3.71,9.94 3.71,18.67l0 63.37 -0.03 0c0,0 0,12.72 0,13.03 0,1.59 -0.77,7.65 6.03,7.65l25.58 0c7.97,0 7.19,-5.2 7.19,-7.33l0.01 0.02z"/>
     </g>
     <g>
      <path class="fil11" d="M2201.14 259.28c-9.1,24.4 -30.89,38.04 -57.89,38.04 -39.12,0 -64.94,-26.57 -64.94,-66.42 0,-39.37 26.81,-67.91 63.72,-67.91 36.5,0 61,25.35 62.56,66.19 0.2,5.22 -1.32,9.83 -7.87,9.83 -4.36,0 -82.98,0 -82.98,0 0.49,21.89 11.09,33.71 29.77,33.71 11.4,0 18.15,-4.9 24.04,-14.51 2.56,-4.18 7.8,-3.95 7.8,-3.95 0,0 17.88,0 21.37,0 3.49,0 5.03,3.39 4.42,5.01l0 0zm-59.11 -70.95c-15.5,0 -26.33,10.83 -28.3,28.55l55.6 0c-1.48,-15.5 -9.85,-28.55 -27.31,-28.55l0.01 0z"/>
     </g>
    </g>
   </g>
   <path class="fil1" d="M1487.31 120.88c-3.53,-5.48 -7.7,-9.92 -12.52,-13.34 -4.81,-3.41 -10.23,-6.12 -16.26,-8.14 -6.02,-2.01 -12.64,-3.37 -19.84,-4.11 -7.19,-0.73 -14.93,-1.1 -23.21,-1.1 0,0 -61.81,0 -67.91,0 -6.11,0 -12.51,4 -12.51,11.55l0 109.79c8.6,18.3 25.36,37.72 44.41,47l0 -21.78c0,-11.49 8.67,-14.06 12.27,-14.06 3.58,0 20.08,0 20.08,0 27.66,0 48.76,-5.79 63.32,-17.37 14.55,-11.57 21.83,-28.75 21.83,-51.54 0,-6.94 -0.76,-13.46 -2.28,-19.55 -1.53,-6.09 -4,-11.88 -7.41,-17.37l0.01 0.01zm-39.57 56.38c-2.5,4.21 -5.85,7.34 -10.05,9.41 -4.21,2.07 -9.05,3.35 -14.53,3.83 -5.48,0.49 -11.15,0.73 -17,0.73 0,0 -14.41,0 -19.08,0 -4.67,0 -7.6,-3.78 -7.6,-9.38l0 -44.89c0,-5.03 3.29,-7.15 7.23,-7.15 3.95,0 19.44,0 19.44,0 6.33,0 12.27,0.18 17.82,0.55 5.55,0.35 10.35,1.53 14.44,3.48 4.08,1.95 7.28,4.94 9.61,8.95 2.31,4.01 3.47,9.68 3.47,16.99 -0.01,7.43 -1.26,13.25 -3.76,17.45l0 0.01zm-68.26 92.36c-20.95,-8.35 -34.99,-18.31 -44.41,-28.17 0,29.97 0,53 0,53 0,0 -0.78,8.65 7.66,8.65l29.63 0c8.13,0 7.13,-8.65 7.13,-8.65 0,0 0.01,-12.02 0.01,-24.82l-0.01 0zm419.85 -117.68l-26.59 0c-5.41,0 -8.96,2.27 -11.11,8.19 -2.15,5.93 -30.33,84.18 -30.33,84.18 0,0 -26.96,-76.64 -29.08,-82.57 -2.11,-5.93 -5.61,-9.8 -11.88,-9.8l-24.43 0c-8.62,0 -8.62,6.74 -7.55,9.42 0.87,2.16 34.32,93.59 47.07,128.42 3.01,8.22 4.19,10.69 4.28,13.74 0.1,3.06 -3.01,9.44 -5.16,13.11 -1.06,1.81 -2.2,3.34 -3.38,4.73 24.99,-7.45 53.78,-34.52 68.66,-63.83 14.72,-40.86 34.14,-94.82 34.98,-97.59 1.35,-4.46 1.34,-8.02 -5.48,-8.02l-0.01 0.03zm-117.41 177.22c-2.31,-0.05 -4.6,-0.19 -6.91,-0.49 -2.81,-0.37 -8.05,0.15 -8.05,4.73l0 20.47c0,7.81 3.75,8.33 5.81,8.8 5.43,1.21 11.72,1.82 18.87,1.82 8.4,0 15.71,-1.53 21.92,-4.57 6.22,-3.04 11.7,-7.27 16.45,-12.7 4.75,-5.42 8.98,-11.87 12.7,-19.36 3.71,-7.48 7.28,-15.75 10.68,-24.76 0,0 1.47,-4.07 3.87,-10.75 -7.33,7.38 -41.89,40.06 -75.36,36.82l0.01 -0.01zm-39.92 -152.92c-1.59,-3.65 -3.53,-6.78 -5.84,-9.41 -2.32,-2.61 -5.05,-4.96 -8.23,-7.04 -3.41,-2.2 -6.88,-3.99 -10.41,-5.4 -3.53,-1.39 -7.34,-2.54 -11.42,-3.47 -4.08,-0.92 -8.56,-1.56 -13.43,-1.92 -4.88,-0.37 -10.37,-0.55 -16.45,-0.55 -40.28,0 -63.21,12.69 -68.81,38.08 -1.82,7.88 6,8.34 6,8.34 0,0 18.31,0 24.77,0 6.47,0 6.19,-2.07 9.33,-7.92 1.16,-3.22 3.11,-5.87 5.86,-7.99 4.75,-3.65 11.88,-5.48 21.38,-5.48 9.15,0 15.78,1.77 19.92,5.29 4.14,3.53 6.58,8.9 7.31,16.08 0,8.34 -2.61,13.9 -12.72,13.9 -24.66,-0.89 -51.15,1.89 -66.08,10.42 -14.93,8.53 -23.36,25.21 -23.36,43.12 0,7.3 1.31,13.71 3.93,19.18 2.61,5.48 6.27,10.08 10.97,13.79 4.69,3.72 10.26,6.49 16.72,8.32 6.45,1.82 13.53,2.75 21.19,2.75 10.72,0 20.2,-1.34 28.42,-4.03 8.22,-2.68 20.95,-11.51 22.57,-12.79l0 4.71c0,4.66 1.42,8.82 7,8.82l28.82 0c5.83,0 7.13,-4.16 7.13,-9.27 0,-5.11 0,-88.49 0,-88.49 0,-6.2 -0.37,-11.7 -1.1,-16.45 -0.74,-4.76 -1.9,-8.96 -3.48,-12.62l0 0.02zm-39.29 86.77c0,0 -7.44,15.41 -34,15.41 -7.3,0 -13.25,-1.64 -17.82,-4.93 -4.57,-3.29 -6.86,-8.41 -6.86,-15.35 0,-9.02 3.72,-15.39 11.15,-19.11 7.43,-3.71 22.3,-5.83 33.45,-5.57 11.14,0.26 14.07,7.28 14.07,12.12 0,1.79 0,17.42 0,17.42l-0 0z"/>
  </g>
 </g>
</svg>
