<?xml version="1.0" encoding="UTF-8"?>
<!DOCTYPE svg PUBLIC "-//W3C//DTD SVG 1.1//EN" "http://www.w3.org/Graphics/SVG/1.1/DTD/svg11.dtd">
<!-- Creator: CorelDRAW 2018 (64-Bit) -->
<svg xmlns="http://www.w3.org/2000/svg" xml:space="preserve" width="63.5mm" height="25.4mm" version="1.1" style="shape-rendering:geometricPrecision; text-rendering:geometricPrecision; image-rendering:optimizeQuality; fill-rule:evenodd; clip-rule:evenodd"
viewBox="0 0 150.69 60.27"
 xmlns:xlink="http://www.w3.org/1999/xlink">
 <defs>
  <style type="text/css">
   <![CDATA[
    .fil3 {fill:none}
    .fil1 {fill:white}
    .fil0 {fill:#AE4A84;fill-rule:nonzero}
    .fil4 {fill:#C7C7C7;fill-rule:nonzero}
    .fil5 {fill:#C7C7C7;fill-rule:nonzero}
    .fil2 {fill:white;fill-rule:nonzero}
   ]]>
  </style>
   <clipPath id="id0">
    <path d="M-0 0l150.69 0 0 60.27 -150.69 0 0 -60.27z"/>
   </clipPath>
 </defs>
 <g id="Слой_x0020_1">
  <metadata id="CorelCorpID_0Corel-Layer"/>
  <g>
  </g>
  <g style="clip-path:url(#id0)">
   <g>
    <g id="_629080976">
     <path class="fil0" d="M62.43 0.68c-2.62,0 -4.65,2.06 -4.65,5.05 0,2.83 1.92,6.18 4.23,6.55l-0.16 1.13 0.46 0.03c-1.69,11.18 -2.24,18.36 -2.24,22.96 0,3.64 0.34,5.68 0.74,6.82 0.42,1.19 0.92,1.44 1.15,1.47 0.03,0 0.05,0.01 0.07,0.01l0 -0.28c-0.01,0 -0.02,-0 -0.03,-0 -0.18,-0.03 -0.56,-0.24 -0.93,-1.29 -0.39,-1.11 -0.73,-3.12 -0.73,-6.73 0,-4.59 0.55,-11.77 2.24,-22.96l0.4 0 -0.1 -1.17c2.29,-0.41 4.18,-3.73 4.18,-6.54 0,-2.99 -2.03,-5.05 -4.65,-5.05z"/>
     <polygon class="fil1" points="65.98,29.41 67.77,29.39 68.44,20.14 71.33,20.14 71.41,28.41 73.26,28.41 73.26,18.41 66.73,17.99 "/>
     <path class="fil1" d="M74.7 31.24l1.71 -0.06 0 -1.87c0,0 2.05,0.15 3.09,-1.39 1.44,-2.13 1,-6.75 -0.85,-7.74 -0.59,-0.32 -1.38,-0.33 -2.23,-0.32l0 -0.37 -1.77 0 0.04 11.75zm1.71 -9.49l0.04 5.59c0,0 1.89,0.35 2.09,-2.26 0.2,-2.6 -0.71,-3.82 -2.13,-3.33z"/>
     <path class="fil1" d="M83.89 29.38c1.19,0.11 2.35,-0.34 2.89,-1.91 0.34,-0.99 0.52,-2.7 0.26,-4.29 0.39,-0.15 0.8,-0.34 1.22,-0.58l-0.82 -1.44c-0.3,0.17 -0.58,0.31 -0.85,0.42 -0.2,-0.47 -0.46,-0.89 -0.79,-1.23 -0.61,-0.63 -1.21,-0.72 -1.77,-0.72 -1.64,0.01 -2.71,2.03 -2.68,4.57 0.02,2.47 0.27,4.96 2.54,5.18zm-0.22 -7.52c0.31,0.08 0.72,0.15 1.24,0.12 -0.18,-0.38 -0.41,-0.6 -0.65,-0.6 -0.21,0 -0.42,0.17 -0.59,0.48zm1.65 1.74c-0.86,0.09 -1.58,-0.02 -2.1,-0.16 -0.15,1.01 -0.2,2.3 0.06,3.23 0.2,0.75 0.63,1.12 0.98,1.12 0.62,0 1.12,-1.43 1.12,-3.2 0,-0.34 -0.02,-0.68 -0.05,-0.99z"/>
     <path class="fil1" d="M78.24 43.61c1.19,0.11 2.35,-0.34 2.89,-1.91 0.34,-0.99 0.52,-2.7 0.26,-4.29 0.39,-0.15 0.8,-0.34 1.22,-0.58l-0.82 -1.44c-0.3,0.17 -0.58,0.31 -0.85,0.42 -0.2,-0.47 -0.46,-0.89 -0.79,-1.23 -0.61,-0.63 -1.21,-0.72 -1.77,-0.72 -1.64,0.01 -2.71,2.03 -2.68,4.57 0.02,2.47 0.27,4.96 2.54,5.18zm-0.22 -7.52c0.31,0.08 0.72,0.15 1.24,0.12 -0.18,-0.38 -0.41,-0.6 -0.65,-0.6 -0.21,0 -0.42,0.17 -0.59,0.48zm1.65 1.74c-0.86,0.09 -1.58,-0.02 -2.1,-0.16 -0.15,1.01 -0.2,2.3 0.06,3.23 0.2,0.75 0.63,1.12 0.98,1.12 0.62,0 1.12,-1.43 1.12,-3.2 0,-0.34 -0.02,-0.68 -0.05,-0.99z"/>
     <path class="fil1" d="M98.84 43.61c1.19,0.11 2.35,-0.34 2.89,-1.91 0.34,-0.99 0.52,-2.7 0.26,-4.29 0.39,-0.15 0.8,-0.34 1.22,-0.58l-0.82 -1.44c-0.3,0.17 -0.58,0.31 -0.85,0.42 -0.2,-0.47 -0.46,-0.89 -0.79,-1.23 -0.61,-0.63 -1.21,-0.72 -1.77,-0.72 -1.64,0.01 -2.71,2.03 -2.68,4.57 0.02,2.47 0.27,4.96 2.54,5.18zm-0.22 -7.52c0.31,0.08 0.72,0.15 1.24,0.12 -0.18,-0.38 -0.41,-0.6 -0.65,-0.6 -0.22,0 -0.42,0.17 -0.59,0.48zm1.65 1.74c-0.86,0.09 -1.58,-0.02 -2.1,-0.16 -0.15,1.01 -0.2,2.3 0.06,3.23 0.2,0.75 0.63,1.12 0.98,1.12 0.62,0 1.12,-1.43 1.12,-3.2 0,-0.34 -0.02,-0.68 -0.05,-0.99z"/>
     <path class="fil1" d="M89.7 45.51l1.71 -0.06 0 -1.87c0,0 2.05,0.15 3.09,-1.39 1.44,-2.13 1,-6.75 -0.85,-7.74 -0.59,-0.32 -1.38,-0.33 -2.23,-0.32l0 -0.37 -1.77 0 0.04 11.75zm1.71 -9.49l0.04 5.59c0,0 1.89,0.35 2.09,-2.26 0.2,-2.6 -0.71,-3.82 -2.13,-3.33z"/>
     <path class="fil1" d="M73.54 42.03l-0.35 -9.51 -4.29 -0.08 -1.18 9.29 -1.61 0 -0.1 4.09 1.81 0 0.12 -2.26 5.24 0.14 0 1.89 1.83 0 -0.12 -3.56 -1.36 0zm-3.99 -0.18l2.19 0.07 -0.09 -7.74 -1.15 0 -0.95 7.67z"/>
     <path class="fil1" d="M87.69 35.73c0,-0.12 0.12,-1.54 0.12,-1.54l-4.69 -0.2 -0.06 9.66 2.61 0c0,0 2.87,0.18 3.11,-2.2 0.24,-2.39 -1.36,-3.24 -4,-3.21l0.02 -2.55 2.88 0.05zm-2.87 4.23l-0.04 1.95c0,0 2.19,0.35 2.25,-0.96 0.06,-1.3 -2.48,-1 -2.2,-1z"/>
     <path class="fil2" d="M62.43 0.68c-2.62,0 -4.65,2.06 -4.65,5.05 0,2.83 1.92,6.18 4.23,6.55l-0.16 1.13 0.46 0.03c-1.69,11.18 -2.24,18.36 -2.24,22.96 0,3.64 0.34,5.68 0.74,6.82 0.42,1.19 0.92,1.44 1.15,1.47 0.03,0 0.05,0.01 0.07,0.01l0 -0.28c-0.01,0 -0.02,-0 -0.03,-0 -0.18,-0.03 -0.56,-0.24 -0.93,-1.29 -0.39,-1.11 -0.73,-3.12 -0.73,-6.73 0,-4.59 0.55,-11.77 2.24,-22.96l0.4 0 -0.1 -1.17c2.29,-0.41 4.18,-3.73 4.18,-6.54 0,-2.99 -2.03,-5.05 -4.65,-5.05z"/>
     <path class="fil1" d="M51.71 20.86c0,0 0.42,1.05 1.4,1.5 0.99,0.45 2.48,1.87 4.03,3.1 0,0 0.73,0.22 1.76,-0.36 1.03,-0.58 1.08,-0.5 1.08,-0.5 0,0 -0.2,-0.73 0.61,-0.84 0,0 0.22,-0.12 0.39,-0.33 0.16,-0.2 0.59,-0.1 0.65,0.21 0.06,0.32 0.67,0.52 0.54,0.87 -0.13,0.35 -0.31,0.54 -1.1,0.92 -0.79,0.38 -1.02,1.11 -2.1,1.84 -1.08,0.72 -1.61,0.98 -2.2,0.84 0,0 1.29,2.32 -3.02,11.22l-1.26 0.14c0,0 -0.73,3.41 -0.67,3.68 0.06,0.26 0.22,0.57 1,0.83 0.18,0.06 0.49,0.3 0.71,0.38 0.72,0.24 0.8,-0.07 0.77,0.05 -0.03,0.15 0.36,0.28 -0.94,0.3 -0.56,0.01 -1.21,-0.16 -1.69,-0.1 -0.64,0.08 -1.03,0.39 -1.03,0.39 0,0 -0.39,-0.15 -0.38,-0.69 0,-0.21 -0.14,-0.46 0.14,-0.81 0.02,-1.04 -0.34,-2.86 0.13,-3.79l-0.48 0.08c0.05,-1.55 -0.72,-9.33 0.02,-9.93 -0.34,-1.87 -1.94,-6.42 -0.87,-8.12 0.23,-0.32 0.7,-0.78 0.93,-1.19 0.85,0.17 1.58,0.32 1.58,0.32z"/>
     <path class="fil1" d="M54.77 17.25c0,0 0.04,0.4 -0.15,0.81 -0.19,0.41 -0.35,0.56 -0.32,0.76 0.04,0.2 0.12,0.37 0.21,0.5 0.1,0.13 0.23,0.39 0.07,0.56 -0.16,0.17 -0.27,0.1 -0.31,0.15l-0.02 0.02c0,0 0.06,0.34 0.06,0.4 -0,0.06 -0.05,0.09 -0.08,0.13 -0.04,0.04 -0.07,0.08 -0.17,0.06 0,0 -0.01,0.21 -0.03,0.22 -0.02,0.01 -0.24,0.16 -0.24,0.16 0,0 0.08,0.25 -0.05,0.41 -0.13,0.16 -0.33,0.21 -0.4,0.23 -0.07,0.02 -0.4,0 -0.45,0.02 -0.06,0.02 -0.25,0.11 -0.55,0.1 0,0 0.05,0.08 0.19,0.2 0.14,0.12 -1.63,0.09 -1.63,0.09l-1.71 -0.34c0,0 0.64,-0.83 0.11,-1.42 0,0 -1.72,-0.84 -1.64,-3.3 0.07,-2.45 3.02,-4.77 6.28,-1.49 0.5,0.61 0.78,0.96 0.83,1.72z"/>
     <path class="fil1" d="M54.39 16.12c0,0 -0.48,-1.49 -1.62,-1.71 0,0 0.23,-0.2 0.2,-0.56 0,0 -0.03,0.1 -0.11,0.16 0,0 0.05,-0.41 -0.1,-0.59 0,0 0.17,0.34 -0.02,0.65 0,0 -0.19,0.19 -0.34,0.09 0,0 0.34,-0.17 0.34,-0.46 0,0 -0.02,0.21 -0.27,0.35 0,0 -0.08,0.03 -0.16,0.02 0,0 0.2,-0.06 0.18,-0.23 0,0 -0.05,0.18 -0.2,0.12 0,0 0.17,-0.11 0.13,-0.34 0,0 -0.08,0.28 -0.31,0.24 -0.23,-0.04 -0.64,-0.55 -1.48,-0.28 0,0 0.12,-0.15 0.4,-0.19 0,0 -0.25,-0.06 -0.43,-0.03 0,0 0.01,-0.06 0.09,-0.09 0,0 -0.61,0.11 -0.97,0.53 -0.36,0.42 -0.43,0.32 -0.55,0.35 -0.12,0.03 -0.55,0.65 -0.77,0.73 -0.22,0.08 -0.41,0.4 -0.61,0.89 -0.2,0.49 -0.5,1.42 -0.21,2.05 0,0 -0.04,-0.21 -0,-0.31 0,0 0,0.44 0.25,0.89 0.25,0.45 0.65,-0.27 0.65,-0.27l1.3 -2.18 4.6 0.18z"/>
     <g>
      <path class="fil1" d="M49.36 14.25c0.14,-0.42 0.35,-0.6 0.72,-0.8 -0.34,0.22 -0.53,0.41 -0.63,0.82l-0.09 -0.02z"/>
     </g>
     <path class="fil3" d="M49.41 14.26c0,0 0.1,-0.52 0.67,-0.81"/>
     <g>
      <path class="fil1" d="M49.33 14.31c-0.08,-0.24 0.06,-0.46 0.26,-0.59l0.19 -0.1c-0.2,0.14 -0.5,0.36 -0.37,0.65l-0.08 0.04z"/>
     </g>
     <path class="fil3" d="M49.37 14.29c0,0 -0.17,-0.39 0.41,-0.67"/>
     <g>
      <path class="fil1" d="M49.18 14.33c-0.08,-0.24 0.06,-0.46 0.26,-0.59l0.19 -0.1c-0.2,0.14 -0.5,0.36 -0.37,0.65l-0.08 0.04z"/>
     </g>
     <path class="fil3" d="M49.22 14.31c0,0 -0.17,-0.39 0.41,-0.67"/>
     <g>
      <path class="fil1" d="M49.04 14.33c-0.08,-0.24 0.06,-0.46 0.26,-0.59l0.19 -0.1c-0.2,0.14 -0.5,0.36 -0.37,0.65l-0.08 0.04z"/>
     </g>
     <path class="fil3" d="M49.08 14.31c0,0 -0.17,-0.39 0.41,-0.67"/>
     <g>
      <path class="fil1" d="M49.02 14.49c-0.31,-0.29 -0.09,-0.56 0.18,-0.75 -0.21,0.18 -0.42,0.45 -0.13,0.68l-0.05 0.07z"/>
     </g>
     <path class="fil3" d="M49.05 14.46c0,0 -0.41,-0.32 0.15,-0.72"/>
     <g>
      <path class="fil1" d="M49.01 14.59c-0.3,-0.18 -0.24,-0.45 -0.07,-0.7 -0.12,0.22 -0.18,0.49 0.11,0.61l-0.04 0.08z"/>
     </g>
     <path class="fil3" d="M49.03 14.55c0,0 -0.41,-0.19 -0.09,-0.65"/>
     <g>
      <path class="fil1" d="M48.84 14.67c-0.19,-0.13 -0.12,-0.41 -0.07,-0.58 -0.02,0.13 -0.05,0.43 0.11,0.5l-0.04 0.08z"/>
     </g>
     <path class="fil3" d="M48.86 14.63c0,0 -0.21,-0.11 -0.09,-0.54"/>
     <g>
      <path class="fil1" d="M48.76 14.77c-0.22,-0.05 -0.12,-0.36 -0.08,-0.5 -0,0.03 -0.06,0.42 0.09,0.41l-0.01 0.09z"/>
     </g>
     <path class="fil3" d="M48.77 14.72c0,0 -0.21,-0.02 -0.09,-0.45"/>
     <g>
      <path class="fil1" d="M48.68 14.8c-0,0.01 -0.01,0.02 -0.01,0.02 -0.02,-0.04 -0.14,-0.08 -0.1,-0.44l0.01 0.12c0.04,0.26 0.23,0.25 0.16,0.35l-0.07 -0.06zm-0.01 0.02c0,0 0,0.01 0,0.01 -0,-0 -0,-0.01 -0,-0.01z"/>
     </g>
     <path class="fil3" d="M48.71 14.82c0.03,-0.03 -0.17,-0.08 -0.14,-0.44"/>
     <path class="fil1" d="M49.63 13.84c0,0 -0.02,0.08 0.04,0.01 0.05,-0.06 0.08,-0.03 0.09,-0.01 0,0.02 0.06,0.13 -0.01,0.15 -0.07,0.02 -0.18,0.08 -0.19,0.08 -0.01,0 -0.04,-0.04 -0.04,-0.05 0,-0.01 0.02,-0.16 0.02,-0.15 -0,0.01 -0.14,0.17 -0.14,0.17 -0.01,-0.01 0.01,-0.04 0.01,-0.04 0,0 -0.04,0.09 -0.05,0.09 -0.01,0.01 -0,-0.13 -0,-0.13 0,0 -0.12,0.12 -0.09,0.02 0.03,-0.1 0,-0.02 0,-0.02l-0.09 0.09c0,0 -0.01,0.01 -0.09,0.13 -0.08,0.12 0.08,0.08 0.08,0.08 0,0 0.48,0 0.49,0.02 0.02,0.01 0.21,-0.12 0.21,-0.12l0.17 -0.27c0,0 -0.05,-0.32 -0.41,-0.08z"/>
     <g>
      <path class="fil1" d="M49.15 14.45c0.14,-0.42 0.35,-0.6 0.72,-0.8 -0.34,0.22 -0.53,0.41 -0.63,0.82l-0.09 -0.02z"/>
     </g>
     <path class="fil3" d="M49.19 14.46c0,0 0.1,-0.52 0.67,-0.81"/>
     <g>
      <path class="fil1" d="M49.11 14.51c-0.08,-0.24 0.06,-0.46 0.26,-0.59l0.19 -0.1c-0.2,0.14 -0.5,0.36 -0.37,0.65l-0.08 0.04z"/>
     </g>
     <path class="fil3" d="M49.15 14.49c0,0 -0.17,-0.39 0.41,-0.67"/>
     <g>
      <path class="fil1" d="M48.97 14.53c-0.08,-0.24 0.06,-0.46 0.26,-0.59l0.19 -0.1c-0.2,0.14 -0.5,0.36 -0.37,0.65l-0.08 0.04z"/>
     </g>
     <path class="fil3" d="M49.01 14.51c0,0 -0.17,-0.39 0.41,-0.67"/>
     <g>
      <path class="fil1" d="M48.83 14.53c-0.08,-0.24 0.06,-0.46 0.26,-0.59l0.19 -0.1c-0.2,0.14 -0.5,0.36 -0.37,0.65l-0.08 0.04z"/>
     </g>
     <path class="fil3" d="M48.87 14.51c0,0 -0.17,-0.39 0.41,-0.67"/>
     <path class="fil2" d="M62.43 0.68c-2.62,0 -4.65,2.06 -4.65,5.05 0,2.83 1.92,6.18 4.23,6.55l-0.16 1.13 0.46 0.03c0.19,-2.3 0.03,0.87 0.28,0l0.4 0 -0.1 -1.17c2.29,-0.41 4.18,-3.73 4.18,-6.54 0,-2.99 -2.03,-5.05 -4.65,-5.05z"/>
     <g>
      <path class="fil1" d="M48.81 14.7c-0.31,-0.29 -0.09,-0.56 0.18,-0.75 -0.21,0.18 -0.42,0.45 -0.13,0.68l-0.05 0.07z"/>
     </g>
     <path class="fil3" d="M48.84 14.66c0,0 -0.41,-0.32 0.15,-0.72"/>
     <g>
      <path class="fil1" d="M48.79 14.79c-0.3,-0.18 -0.24,-0.45 -0.07,-0.7 -0.12,0.22 -0.18,0.49 0.11,0.61l-0.04 0.08z"/>
     </g>
     <path class="fil3" d="M48.81 14.75c0,0 -0.41,-0.19 -0.09,-0.65"/>
     <g>
      <path class="fil1" d="M48.62 14.87c-0.19,-0.13 -0.12,-0.41 -0.07,-0.58 -0.02,0.13 -0.05,0.43 0.11,0.5l-0.04 0.08z"/>
     </g>
     <path class="fil3" d="M48.64 14.83c0,0 -0.21,-0.11 -0.09,-0.54"/>
     <g>
      <path class="fil1" d="M48.55 14.97c-0.22,-0.05 -0.12,-0.36 -0.08,-0.5 -0,0.03 -0.06,0.42 0.09,0.41l-0.01 0.09z"/>
     </g>
     <path class="fil3" d="M48.55 14.92c0,0 -0.21,-0.02 -0.09,-0.45"/>
     <g>
      <path class="fil1" d="M48.46 15c-0,0.01 -0.01,0.02 -0.01,0.02 -0.02,-0.04 -0.14,-0.08 -0.1,-0.44l0.01 0.12c0.04,0.26 0.23,0.25 0.16,0.35l-0.07 -0.06zm-0.01 0.02c0,0 0,0.01 0,0.01 -0,-0 -0,-0.01 -0,-0.01z"/>
     </g>
     <path class="fil3" d="M48.5 15.03c0.03,-0.03 -0.17,-0.08 -0.14,-0.44"/>
     <path class="fil1" d="M49.42 14.04c0,0 -0.02,0.08 0.04,0.01 0.05,-0.06 0.08,-0.03 0.09,-0.01 0,0.02 0.06,0.13 -0.01,0.15 -0.07,0.02 -0.18,0.08 -0.19,0.08 -0.01,0 -0.04,-0.04 -0.04,-0.05 0,-0.01 0.02,-0.16 0.02,-0.15 -0,0.01 -0.14,0.17 -0.14,0.17 -0.01,-0.01 0,-0.04 0,-0.04 0,0 -0.04,0.09 -0.05,0.09 -0.01,0.01 -0,-0.13 -0,-0.13 0,0 -0.12,0.12 -0.09,0.02 0.03,-0.1 0,-0.02 0,-0.02l-0.09 0.09c0,0 -0.01,0.01 -0.09,0.13 -0.08,0.12 0.08,0.08 0.08,0.08 0,0 0.48,0 0.49,0.02 0.02,0.01 0.21,-0.12 0.21,-0.12l0.17 -0.27c0,0 -0.05,-0.32 -0.41,-0.08z"/>
     <g>
      <path class="fil1" d="M48.98 14.53c0.03,-0.44 0.19,-0.66 0.5,-0.95 -0.27,0.3 -0.42,0.53 -0.41,0.95l-0.09 0.01z"/>
     </g>
     <path class="fil3" d="M49.02 14.53c0,0 -0.04,-0.53 0.45,-0.95"/>
     <g>
      <path class="fil1" d="M48.96 14.6c-0.13,-0.21 -0.05,-0.46 0.1,-0.63l0.16 -0.15c-0.16,0.19 -0.39,0.47 -0.19,0.72l-0.07 0.05z"/>
     </g>
     <path class="fil3" d="M48.99 14.58c0,0 -0.26,-0.33 0.23,-0.75"/>
     <g>
      <path class="fil1" d="M48.82 14.66c-0.13,-0.21 -0.05,-0.46 0.1,-0.63l0.16 -0.15c-0.16,0.19 -0.39,0.47 -0.19,0.72l-0.07 0.05z"/>
     </g>
     <path class="fil3" d="M48.85 14.63c0,0 -0.26,-0.33 0.23,-0.75"/>
     <g>
      <path class="fil1" d="M48.68 14.69c-0.13,-0.21 -0.05,-0.46 0.1,-0.63l0.16 -0.15c-0.16,0.19 -0.39,0.47 -0.19,0.72l-0.07 0.05z"/>
     </g>
     <path class="fil3" d="M48.72 14.66c0,0 -0.26,-0.33 0.23,-0.75"/>
     <g>
      <path class="fil1" d="M48.71 14.86c-0.37,-0.2 -0.23,-0.52 -0.01,-0.77 -0.16,0.23 -0.3,0.54 0.05,0.69l-0.03 0.08z"/>
     </g>
     <path class="fil3" d="M48.72 14.82c0,0 -0.48,-0.2 -0.03,-0.73"/>
     <g>
      <path class="fil1" d="M48.72 14.96c-0.34,-0.1 -0.34,-0.38 -0.24,-0.66 -0.06,0.25 -0.05,0.52 0.26,0.57l-0.02 0.09z"/>
     </g>
     <path class="fil3" d="M48.72 14.91c0,0 -0.44,-0.08 -0.25,-0.61"/>
     <g>
      <path class="fil1" d="M48.57 15.08c-0.22,-0.08 -0.22,-0.36 -0.21,-0.55 0.02,0.13 0.06,0.43 0.23,0.46l-0.02 0.09z"/>
     </g>
     <path class="fil3" d="M48.58 15.03c0,0 -0.23,-0.05 -0.22,-0.5"/>
     <g>
      <path class="fil1" d="M48.52 15.19c-0.23,0.01 -0.21,-0.32 -0.21,-0.46 0,0.03 0.05,0.42 0.19,0.37l0.01 0.09z"/>
     </g>
     <path class="fil3" d="M48.52 15.14c0,0 -0.21,0.03 -0.2,-0.42"/>
     <g>
      <path class="fil1" d="M48.45 15.24c-0,0.01 -0,0.02 0,0.02 -0.03,-0.03 -0.16,-0.05 -0.2,-0.4l0.04 0.12c0.1,0.24 0.28,0.19 0.25,0.29l-0.08 -0.04zm0 0.02c0,0 0,0.01 0.01,0.01 -0,-0 -0,-0.01 -0.01,-0.01z"/>
     </g>
     <path class="fil3" d="M48.49 15.26c0.02,-0.04 -0.19,-0.03 -0.24,-0.39"/>
     <path class="fil1" d="M49.14 14.07c0,0 0,0.08 0.04,0 0.04,-0.07 0.07,-0.05 0.08,-0.03 0.01,0.02 0.09,0.12 0.03,0.15 -0.06,0.04 -0.15,0.12 -0.16,0.13 -0.01,0.01 -0.05,-0.03 -0.05,-0.04 -0,-0.01 -0.02,-0.16 -0.02,-0.15 0,0.01 -0.09,0.2 -0.1,0.2 -0.01,-0.01 -0,-0.04 -0,-0.04 0,0 -0.02,0.09 -0.02,0.1 -0,0.01 -0.04,-0.12 -0.04,-0.12 0,0 -0.09,0.15 -0.08,0.05 0.01,-0.1 -0,-0.02 -0,-0.02l-0.06 0.11c0,0 -0.01,0.01 -0.05,0.14 -0.04,0.13 0.1,0.06 0.1,0.06 0,0 0.47,-0.11 0.48,-0.1 0.02,0.01 0.17,-0.16 0.17,-0.16l0.1 -0.3c0,0 -0.13,-0.29 -0.42,0.02z"/>
     <g>
      <path class="fil1" d="M48.5 15.25c-0.38,0.22 -0.51,0.46 -0.63,0.87 0.15,-0.38 0.29,-0.61 0.67,-0.79l-0.03 -0.08z"/>
     </g>
     <path class="fil3" d="M48.52 15.29c0,0 -0.49,0.21 -0.65,0.83"/>
     <g>
      <path class="fil1" d="M48.56 15.2c-0.25,-0.02 -0.43,0.16 -0.52,0.37l-0.06 0.21c0.09,-0.23 0.24,-0.56 0.56,-0.49l0.02 -0.09z"/>
     </g>
     <path class="fil3" d="M48.55 15.25c0,0 -0.41,-0.08 -0.57,0.54"/>
     <g>
      <path class="fil1" d="M48.54 15.06c-0.25,-0.02 -0.43,0.16 -0.52,0.38l-0.06 0.21c0.09,-0.23 0.24,-0.56 0.56,-0.49l0.02 -0.09z"/>
     </g>
     <path class="fil3" d="M48.53 15.1c0,0 -0.41,-0.08 -0.57,0.54"/>
     <g>
      <path class="fil1" d="M48.51 14.92c-0.25,-0.02 -0.43,0.16 -0.52,0.37l-0.06 0.21c0.09,-0.23 0.24,-0.56 0.56,-0.49l0.02 -0.09z"/>
     </g>
     <path class="fil3" d="M48.5 14.96c0,0 -0.41,-0.08 -0.57,0.54"/>
     <g>
      <path class="fil1" d="M48.67 14.87c-0.35,-0.24 -0.57,0.03 -0.7,0.33 0.13,-0.24 0.35,-0.51 0.64,-0.27l0.06 -0.07z"/>
     </g>
     <path class="fil3" d="M48.64 14.9c0,0 -0.39,-0.33 -0.67,0.3"/>
     <g>
      <path class="fil1" d="M48.76 14.83c-0.24,-0.26 -0.49,-0.14 -0.69,0.08 0.19,-0.16 0.44,-0.28 0.62,-0.02l0.07 -0.05z"/>
     </g>
     <path class="fil3" d="M48.73 14.86c0,0 -0.27,-0.36 -0.66,0.05"/>
     <g>
      <path class="fil1" d="M48.81 14.65c-0.17,-0.16 -0.42,-0.03 -0.58,0.06 0.12,-0.04 0.41,-0.14 0.52,0l0.07 -0.06z"/>
     </g>
     <path class="fil3" d="M48.77 14.68c0,0 -0.15,-0.18 -0.55,0.03"/>
     <g>
      <path class="fil1" d="M48.89 14.56c-0.1,-0.21 -0.38,-0.05 -0.5,0.02 0.03,-0.01 0.4,-0.14 0.42,0l0.08 -0.03z"/>
     </g>
     <path class="fil3" d="M48.84 14.57c0,0 -0.06,-0.2 -0.46,0.01"/>
     <g>
      <path class="fil1" d="M48.9 14.47c0.01,-0.01 0.01,-0.01 0.02,-0.01 -0.04,-0.01 -0.11,-0.12 -0.45,-0l0.12 -0.02c0.26,-0.02 0.29,0.17 0.37,0.09l-0.07 -0.06zm0.02 -0.01c0,-0 0.01,0 0.01,0 -0,0 -0.01,0 -0.01,-0z"/>
     </g>
     <path class="fil3" d="M48.93 14.49c-0.03,0.03 -0.11,-0.15 -0.46,-0.04"/>
     <path class="fil1" d="M48.16 15.6c0,0 0.07,-0.03 0.02,0.03 -0.05,0.07 -0.01,0.09 0.01,0.09 0.02,-0 0.14,0.03 0.15,-0.04 0,-0.07 0.04,-0.19 0.04,-0.2 -0,-0.01 -0.04,-0.03 -0.05,-0.03 -0.01,0 -0.15,0.05 -0.14,0.05 0.01,-0 0.14,-0.17 0.13,-0.17 -0.01,-0 -0.04,0.01 -0.04,0.01 0,0 0.08,-0.06 0.08,-0.06 0,-0.01 -0.12,0.02 -0.12,0.02 0,0 0.09,-0.14 0.01,-0.09 -0.09,0.05 -0.02,0 -0.02,0l0.07 -0.1c0,0 0,-0.01 0.11,-0.11 0.1,-0.1 0.09,0.06 0.09,0.06 0,0 0.11,0.47 0.12,0.48 0.02,0.01 -0.07,0.23 -0.07,0.23l-0.23 0.22c0,0 -0.32,0.01 -0.17,-0.38z"/>
     <g>
      <path class="fil1" d="M53.91 15.67c0.43,0.25 0.57,0.52 0.7,0.97 -0.16,-0.42 -0.32,-0.68 -0.74,-0.88l0.04 -0.09z"/>
     </g>
     <path class="fil3" d="M53.89 15.71c0,0 0.55,0.23 0.72,0.92"/>
     <g>
      <path class="fil1" d="M53.85 15.61c0.28,-0.03 0.48,0.18 0.58,0.42l0.07 0.23c-0.1,-0.26 -0.27,-0.62 -0.63,-0.55l-0.02 -0.1z"/>
     </g>
     <path class="fil3" d="M53.86 15.66c0,0 0.46,-0.09 0.64,0.6"/>
     <g>
      <path class="fil1" d="M53.86 15.45c0.28,-0.03 0.48,0.18 0.58,0.42l0.07 0.23c-0.1,-0.26 -0.27,-0.62 -0.63,-0.55l-0.02 -0.1z"/>
     </g>
     <path class="fil3" d="M53.87 15.5c0,0 0.46,-0.09 0.64,0.6"/>
     <g>
      <path class="fil1" d="M53.57 15.29c0.53,0.31 0.71,0.64 0.88,1.21 -0.2,-0.52 -0.4,-0.84 -0.93,-1.1l0.05 -0.11z"/>
     </g>
     <path class="fil3" d="M53.55 15.34c0,0 0.68,0.29 0.9,1.15"/>
     <g>
      <path class="fil1" d="M53.5 15.22c0.35,-0.03 0.6,0.22 0.72,0.52l0.08 0.29c-0.13,-0.32 -0.34,-0.78 -0.78,-0.69l-0.02 -0.12z"/>
     </g>
     <path class="fil3" d="M53.51 15.28c0,0 0.57,-0.12 0.79,0.75"/>
     <g>
      <path class="fil1" d="M53.49 14.89c0.35,0.01 0.57,0.29 0.66,0.6l0.05 0.3c-0.09,-0.33 -0.24,-0.81 -0.69,-0.78l-0.01 -0.12z"/>
     </g>
     <path class="fil3" d="M53.5 14.95c0,0 0.58,-0.05 0.7,0.84"/>
     <path class="fil1" d="M50.34 43.35c0,0 0.01,-0.07 0.52,0.27 0.52,0.34 1.06,-0.26 1.11,-0.26 0.05,0 0.46,0.38 1.08,0.71 0,0 1.15,-0.1 1.3,0.04 0.15,0.13 0.22,0.36 0.22,0.36 0,0 0.11,0.01 0.14,0.14 0.03,0.13 -1.49,0.58 -2.36,0.38 -0.87,-0.19 -0.76,-0.19 -0.8,-0.08 -0.04,0.11 -0.04,0.15 -0.04,0.15l-1.46 -0.06 0 -0.52 0.09 -0.01c0,0 -0.14,-0.84 0.2,-1.12z"/>
     <path class="fil4" d="M63.68 0.85c1.06,0.98 1.56,2.39 1.56,3.86 0,3.18 -2.44,7.06 -5.15,6.53 3.48,3.29 7,-1.72 7,-5.51 0,-2.54 -1.44,-4.35 -3.4,-4.89z"/>
     <path class="fil5" d="M61.91 13.6c-0.19,0 -0.32,-0.18 -0.28,-0.36l0.23 -0.92c0.07,-0.26 0.3,-0.44 0.57,-0.44 0.27,0 0.5,0.18 0.57,0.44l0.23 0.92c0.05,0.18 -0.09,0.36 -0.28,0.36l-1.05 0z"/>
     <path class="fil2" d="M50.84 50.46l-1.39 0 0 0.6 0.5 0c0.37,0 0.66,0.09 0.87,0.27 0.21,0.18 0.32,0.42 0.32,0.72 0,0.3 -0.11,0.55 -0.32,0.73 -0.21,0.18 -0.5,0.28 -0.85,0.28l-1.17 0 0 -3.11 2.04 0 0 0.52zm-1.39 1.12l0 0.96 0.51 0c0.16,0 0.29,-0.05 0.39,-0.14 0.1,-0.09 0.15,-0.21 0.15,-0.36 0,-0.14 -0.05,-0.25 -0.14,-0.33 -0.09,-0.08 -0.22,-0.12 -0.38,-0.13l-0.53 0zm4.88 -1.64l0 3.11 -0.64 0 0 -2.59 -0.83 0 -0.05 1.1c-0.02,0.37 -0.07,0.66 -0.14,0.87 -0.07,0.21 -0.18,0.37 -0.32,0.47 -0.14,0.1 -0.33,0.15 -0.57,0.15l-0.17 0 0 -0.52 0.11 -0.01c0.16,-0.02 0.28,-0.11 0.35,-0.28 0.07,-0.16 0.11,-0.46 0.13,-0.88l0.05 -1.43 2.09 0zm2.57 2.47l-1.12 0 -0.21 0.64 -0.68 0 1.16 -3.11 0.59 0 1.17 3.11 -0.68 0 -0.22 -0.64zm-0.95 -0.52l0.78 0 -0.39 -1.17 -0.39 1.17zm4.43 -1.43l-1.4 0 0 2.59 -0.64 0 0 -3.11 2.04 0 0 0.52zm3.2 1.11c0,0.31 -0.05,0.57 -0.16,0.81 -0.11,0.23 -0.26,0.41 -0.46,0.53 -0.2,0.13 -0.43,0.19 -0.69,0.19 -0.26,0 -0.49,-0.06 -0.69,-0.19 -0.2,-0.12 -0.36,-0.3 -0.47,-0.53 -0.11,-0.23 -0.17,-0.49 -0.17,-0.79l0 -0.15c0,-0.31 0.05,-0.58 0.17,-0.81 0.11,-0.23 0.27,-0.41 0.47,-0.54 0.2,-0.12 0.43,-0.19 0.69,-0.19 0.26,0 0.49,0.06 0.69,0.19 0.2,0.12 0.36,0.3 0.47,0.54 0.11,0.23 0.17,0.5 0.17,0.81l0 0.14zm-0.65 -0.14c0,-0.33 -0.06,-0.57 -0.18,-0.75 -0.12,-0.17 -0.28,-0.25 -0.5,-0.25 -0.21,0 -0.38,0.08 -0.5,0.25 -0.12,0.17 -0.18,0.41 -0.18,0.74l0 0.15c0,0.32 0.06,0.57 0.18,0.74 0.12,0.18 0.28,0.26 0.5,0.26 0.22,0 0.38,-0.08 0.5,-0.25 0.12,-0.17 0.17,-0.42 0.18,-0.74l0 -0.15zm3.71 -0.96l-0.95 0 0 2.59 -0.64 0 0 -2.59 -0.94 0 0 -0.52 2.54 0 0 0.52zm0.62 2.59l0 -3.11 1.09 0c0.38,0 0.66,0.07 0.86,0.22 0.2,0.14 0.29,0.36 0.29,0.64 0,0.15 -0.04,0.29 -0.12,0.4 -0.08,0.12 -0.19,0.2 -0.33,0.26 0.16,0.04 0.29,0.12 0.38,0.24 0.09,0.12 0.14,0.27 0.14,0.44 0,0.3 -0.1,0.53 -0.29,0.68 -0.19,0.15 -0.46,0.23 -0.82,0.23l-1.21 0zm0.64 -1.35l0 0.84 0.55 0c0.15,0 0.27,-0.04 0.35,-0.11 0.08,-0.07 0.13,-0.17 0.13,-0.3 0,-0.28 -0.15,-0.43 -0.44,-0.43l-0.59 0zm0 -0.46l0.47 0c0.32,-0.01 0.49,-0.13 0.49,-0.39 0,-0.14 -0.04,-0.24 -0.12,-0.3 -0.08,-0.06 -0.21,-0.09 -0.39,-0.09l-0.45 0 0 0.78zm4.96 0.32c0,0.31 -0.05,0.57 -0.16,0.81 -0.11,0.23 -0.26,0.41 -0.46,0.53 -0.2,0.13 -0.43,0.19 -0.69,0.19 -0.26,0 -0.49,-0.06 -0.69,-0.19 -0.2,-0.12 -0.36,-0.3 -0.47,-0.53 -0.11,-0.23 -0.17,-0.49 -0.17,-0.79l0 -0.15c0,-0.31 0.05,-0.58 0.17,-0.81 0.11,-0.23 0.27,-0.41 0.47,-0.54 0.2,-0.12 0.43,-0.19 0.69,-0.19 0.26,0 0.49,0.06 0.69,0.19 0.2,0.12 0.36,0.3 0.47,0.54 0.11,0.23 0.17,0.5 0.17,0.81l0 0.14zm-0.65 -0.14c0,-0.33 -0.06,-0.57 -0.18,-0.75 -0.12,-0.17 -0.28,-0.25 -0.5,-0.25 -0.22,0 -0.38,0.08 -0.5,0.25 -0.12,0.17 -0.18,0.41 -0.18,0.74l0 0.15c0,0.32 0.06,0.57 0.18,0.74 0.12,0.18 0.28,0.26 0.5,0.26 0.22,0 0.38,-0.08 0.5,-0.25 0.12,-0.17 0.17,-0.42 0.18,-0.74l0 -0.15zm2.01 0.53l0 1.09 -0.64 0 0 -3.11 1.21 0c0.23,0 0.44,0.04 0.62,0.13 0.18,0.09 0.31,0.21 0.41,0.36 0.1,0.16 0.14,0.34 0.14,0.54 0,0.3 -0.1,0.55 -0.31,0.72 -0.21,0.18 -0.5,0.26 -0.87,0.26l-0.56 0zm0 -0.52l0.57 0c0.17,0 0.3,-0.04 0.39,-0.12 0.09,-0.08 0.13,-0.19 0.13,-0.34 0,-0.15 -0.05,-0.28 -0.14,-0.37 -0.09,-0.09 -0.21,-0.14 -0.37,-0.15l-0.59 0 0 0.98zm4.3 -1.5l0.64 0 0 3.11 -0.64 0 0 -2.07 -1.25 2.07 -0.64 0 0 -3.11 0.64 0 0 2.07 1.25 -2.07zm3.79 0.52l-0.95 0 0 2.59 -0.64 0 0 -2.59 -0.94 0 0 -0.52 2.54 0 0 0.52zm2.49 1.24l-1.23 0 0 0.84 1.44 0 0 0.52 -2.09 0 0 -3.11 2.08 0 0 0.52 -1.44 0 0 0.74 1.23 0 0 0.5zm3.37 -1.76l0 3.11 -0.64 0 0 -2.59 -0.83 0 -0.05 1.1c-0.02,0.37 -0.07,0.66 -0.14,0.87 -0.07,0.21 -0.18,0.37 -0.32,0.47 -0.14,0.1 -0.33,0.15 -0.57,0.15l-0.17 0 0 -0.52 0.11 -0.01c0.16,-0.02 0.28,-0.11 0.35,-0.28 0.07,-0.16 0.11,-0.46 0.13,-0.88l0.05 -1.43 2.09 0zm1.45 1.12l0.5 0c0.37,0 0.66,0.09 0.87,0.27 0.21,0.18 0.32,0.42 0.32,0.72 0,0.3 -0.11,0.55 -0.32,0.73 -0.21,0.18 -0.5,0.28 -0.85,0.28l-1.17 0 0 -3.11 0.64 0 0 1.12zm0 0.52l0 0.96 0.51 0c0.16,0 0.29,-0.05 0.39,-0.14 0.1,-0.09 0.15,-0.21 0.15,-0.36 0,-0.14 -0.05,-0.25 -0.14,-0.33 -0.09,-0.08 -0.22,-0.12 -0.38,-0.13l-0.53 0zm4.88 1.48l-0.64 0 0 -1.34 -1.25 0 0 1.34 -0.64 0 0 -3.11 0.64 0 0 1.26 1.25 0 0 -1.26 0.64 0 0 3.11zm1.46 -1.99l0.5 0c0.37,0 0.66,0.09 0.87,0.27 0.21,0.18 0.32,0.42 0.32,0.72 0,0.3 -0.11,0.55 -0.32,0.73 -0.21,0.18 -0.5,0.28 -0.85,0.28l-1.17 0 0 -3.11 0.65 0 0 1.12zm2.6 1.99l-0.64 0 0 -3.11 0.64 0 0 3.11zm-2.6 -1.48l0 0.96 0.51 0c0.16,0 0.29,-0.05 0.39,-0.14 0.1,-0.09 0.15,-0.21 0.15,-0.36 0,-0.14 -0.05,-0.25 -0.14,-0.33 -0.09,-0.08 -0.22,-0.12 -0.38,-0.13l-0.53 0zm5.28 -1.64l0.64 0 0 3.11 -0.64 0 0 -2.07 -1.25 2.07 -0.64 0 0 -3.11 0.64 0 0 2.07 1.25 -2.07zm0.12 -0.81c0,0.19 -0.07,0.34 -0.2,0.46 -0.14,0.12 -0.32,0.17 -0.54,0.17 -0.22,0 -0.4,-0.06 -0.54,-0.17 -0.14,-0.11 -0.2,-0.27 -0.2,-0.46l0.44 0c0,0.09 0.03,0.16 0.08,0.21 0.05,0.05 0.13,0.07 0.22,0.07 0.09,0 0.17,-0.02 0.22,-0.07 0.05,-0.05 0.08,-0.12 0.08,-0.21l0.44 0zm-30.77 6.87l0.04 0c0.24,0 0.46,0.05 0.66,0.16 0.2,0.11 0.35,0.26 0.46,0.46 0.11,0.2 0.16,0.42 0.16,0.67 0,0.37 -0.12,0.68 -0.36,0.91 -0.24,0.24 -0.56,0.35 -0.97,0.35l0 0.4 -0.62 0 0 -0.4 -0.04 0c-0.25,0 -0.47,-0.05 -0.67,-0.16 -0.2,-0.11 -0.35,-0.25 -0.46,-0.45 -0.11,-0.19 -0.16,-0.41 -0.16,-0.66 0,-0.25 0.05,-0.47 0.16,-0.67 0.11,-0.2 0.26,-0.35 0.46,-0.46 0.19,-0.11 0.41,-0.17 0.65,-0.17l0.06 0 0 -0.41 0.62 0 0 0.41zm-0.66 0.53c-0.21,0 -0.38,0.07 -0.5,0.2 -0.12,0.13 -0.18,0.32 -0.18,0.56 0,0.23 0.06,0.41 0.18,0.53 0.12,0.13 0.29,0.19 0.51,0.19l0.03 0 0 -1.49 -0.04 0zm0.66 0l0 1.49 0.04 0c0.21,0 0.37,-0.07 0.5,-0.2 0.12,-0.13 0.18,-0.31 0.18,-0.54 0,-0.24 -0.06,-0.42 -0.18,-0.56 -0.12,-0.14 -0.29,-0.2 -0.51,-0.2l-0.03 0zm4.55 0.81c0,0.31 -0.05,0.57 -0.16,0.81 -0.11,0.23 -0.26,0.41 -0.46,0.53 -0.2,0.13 -0.43,0.19 -0.69,0.19 -0.26,0 -0.49,-0.06 -0.69,-0.19 -0.2,-0.12 -0.36,-0.3 -0.47,-0.53 -0.11,-0.23 -0.17,-0.49 -0.17,-0.79l0 -0.15c0,-0.31 0.05,-0.58 0.17,-0.81 0.11,-0.23 0.27,-0.41 0.47,-0.54 0.2,-0.12 0.43,-0.19 0.69,-0.19 0.26,0 0.49,0.06 0.69,0.19 0.2,0.12 0.36,0.3 0.47,0.54 0.11,0.23 0.17,0.5 0.17,0.81l0 0.14zm-0.65 -0.14c0,-0.33 -0.06,-0.57 -0.18,-0.74 -0.12,-0.17 -0.28,-0.25 -0.5,-0.25 -0.21,0 -0.38,0.08 -0.5,0.25 -0.12,0.17 -0.18,0.41 -0.18,0.74l0 0.15c0,0.32 0.06,0.57 0.18,0.74 0.12,0.18 0.28,0.26 0.5,0.26 0.22,0 0.38,-0.08 0.5,-0.25 0.12,-0.17 0.17,-0.42 0.18,-0.74l0 -0.15zm3.9 1.63l-0.64 0 0 -1.34 -1.25 0 0 1.34 -0.64 0 0 -3.11 0.64 0 0 1.26 1.25 0 0 -1.26 0.64 0 0 3.11zm3.7 0.77l-0.59 0 0 -0.77 -1.88 0 0 0.76 -0.61 0 -0.03 -1.28 0.24 0c0.13,-0.11 0.22,-0.26 0.29,-0.46 0.07,-0.2 0.12,-0.46 0.14,-0.76l0.09 -1.37 2.04 0 0 2.6 0.36 0 -0.05 1.28zm-2.14 -1.28l1.19 0 0 -2.08 -0.79 0 -0.05 0.82c-0.04,0.55 -0.16,0.97 -0.34,1.26z"/>
    </g>
   </g>
  </g>
  <polygon class="fil3" points="-0,0 150.69,0 150.69,60.27 -0,60.27 "/>
 </g>
</svg>
