<?xml version="1.0" encoding="UTF-8"?>
<!DOCTYPE svg PUBLIC "-//W3C//DTD SVG 1.1//EN" "http://www.w3.org/Graphics/SVG/1.1/DTD/svg11.dtd">
<!-- Creator: CorelDRAW 2018 (64-Bit) -->
<svg xmlns="http://www.w3.org/2000/svg" xml:space="preserve" width="74.3153mm" height="32.9237mm" version="1.1" style="shape-rendering:geometricPrecision; text-rendering:geometricPrecision; image-rendering:optimizeQuality; fill-rule:evenodd; clip-rule:evenodd"
viewBox="0 0 259.15 114.81"
 xmlns:xlink="http://www.w3.org/1999/xlink">
 <defs>
  <style type="text/css">
   <![CDATA[
    .fil0 {fill:#FEFEFE;fill-rule:nonzero}
    .fil1 {fill:#E31E24;fill-rule:nonzero}
   ]]>
  </style>
 </defs>
 <g id="Слой_x0020_1">
  <metadata id="CorelCorpID_0Corel-Layer"/>
  <polygon class="fil0" points="6.83,84.05 15.58,107.3 24.31,84.05 31.12,84.05 31.12,114.38 25.87,114.38 25.87,104.39 26.4,91.01 17.44,114.38 13.66,114.38 4.73,91.03 5.25,104.39 5.25,114.38 -0,114.38 -0,84.05 "/>
  <path id="1" class="fil0" d="M49.12 114.38c-0.23,-0.43 -0.42,-1.12 -0.58,-2.1 -1.61,1.68 -3.58,2.52 -5.92,2.52 -2.27,0 -4.11,-0.65 -5.55,-1.94 -1.43,-1.29 -2.14,-2.89 -2.14,-4.8 0,-2.4 0.89,-4.25 2.67,-5.54 1.78,-1.29 4.34,-1.93 7.66,-1.93l3.1 0 0 -1.48c0,-1.17 -0.33,-2.1 -0.97,-2.8 -0.65,-0.7 -1.65,-1.05 -2.98,-1.05 -1.15,0 -2.1,0.29 -2.84,0.87 -0.73,0.58 -1.1,1.31 -1.1,2.2l-5.06 0c0,-1.24 0.41,-2.39 1.23,-3.46 0.82,-1.07 1.93,-1.92 3.34,-2.52 1.41,-0.61 2.99,-0.92 4.72,-0.92 2.64,0 4.74,0.66 6.31,1.99 1.57,1.32 2.37,3.19 2.42,5.59l0 10.17c0,2.03 0.28,3.64 0.85,4.85l0 0.36 -5.16 0zm-5.57 -3.63c1,0 1.94,-0.24 2.82,-0.73 0.88,-0.48 1.55,-1.14 1.99,-1.96l0 -4.26 -2.73 0c-1.87,0 -3.28,0.33 -4.22,0.98 -0.95,0.65 -1.42,1.58 -1.42,2.78 0,0.97 0.33,1.75 0.97,2.33 0.65,0.58 1.51,0.87 2.59,0.87z"/>
  <path id="2" class="fil0" d="M69.34 96.46c-0.67,-0.11 -1.36,-0.16 -2.06,-0.16 -2.32,0 -3.88,0.89 -4.69,2.67l0 15.42 -5.06 0 0 -22.53 4.83 0 0.13 2.51c1.22,-1.96 2.92,-2.94 5.08,-2.94 0.72,0 1.32,0.1 1.79,0.29l-0.02 4.74z"/>
  <path id="3" class="fil0" d="M70.36 102.91c0,-2.21 0.44,-4.2 1.32,-5.97 0.87,-1.77 2.1,-3.13 3.69,-4.08 1.58,-0.95 3.4,-1.43 5.45,-1.43 3.04,0 5.51,0.98 7.41,2.94 1.89,1.96 2.92,4.56 3.07,7.79l0.02 1.19c0,2.23 -0.43,4.21 -1.28,5.96 -0.86,1.75 -2.08,3.11 -3.67,4.07 -1.59,0.96 -3.43,1.44 -5.51,1.44 -3.18,0 -5.72,-1.06 -7.64,-3.18 -1.91,-2.12 -2.87,-4.94 -2.87,-8.47l0 -0.25zm5.06 0.43c0,2.32 0.48,4.13 1.44,5.45 0.95,1.32 2.29,1.97 4,1.97 1.71,0 3.04,-0.67 3.99,-2 0.95,-1.34 1.43,-3.29 1.43,-5.86 0,-2.28 -0.49,-4.08 -1.47,-5.42 -0.97,-1.33 -2.3,-2 -3.99,-2 -1.65,0 -2.97,0.65 -3.93,1.97 -0.97,1.32 -1.46,3.27 -1.46,5.89z"/>
  <polygon id="4" class="fil0" points="101.73,104.72 99.48,107.03 99.48,114.38 94.42,114.38 94.42,82.38 99.48,82.38 99.48,100.85 101.06,98.87 107.29,91.86 113.37,91.86 105,101.24 114.27,114.38 108.42,114.38 "/>
  <path id="5" class="fil0" d="M132.35 114.38c-0.23,-0.43 -0.42,-1.12 -0.58,-2.1 -1.61,1.68 -3.58,2.52 -5.92,2.52 -2.27,0 -4.11,-0.65 -5.55,-1.94 -1.43,-1.29 -2.14,-2.89 -2.14,-4.8 0,-2.4 0.89,-4.25 2.67,-5.54 1.78,-1.29 4.34,-1.93 7.66,-1.93l3.1 0 0 -1.48c0,-1.17 -0.33,-2.1 -0.97,-2.8 -0.65,-0.7 -1.65,-1.05 -2.98,-1.05 -1.15,0 -2.1,0.29 -2.84,0.87 -0.73,0.58 -1.1,1.31 -1.1,2.2l-5.06 0c0,-1.24 0.41,-2.39 1.23,-3.46 0.82,-1.07 1.93,-1.92 3.34,-2.52 1.41,-0.61 2.99,-0.92 4.72,-0.92 2.64,0 4.74,0.66 6.31,1.99 1.57,1.32 2.37,3.19 2.42,5.59l0 10.17c0,2.03 0.28,3.64 0.85,4.85l0 0.36 -5.16 0zm-5.57 -3.63c1,0 1.94,-0.24 2.82,-0.73 0.88,-0.48 1.55,-1.14 1.99,-1.96l0 -4.26 -2.73 0c-1.87,0 -3.28,0.33 -4.22,0.98 -0.95,0.65 -1.42,1.58 -1.42,2.78 0,0.97 0.33,1.75 0.97,2.33 0.65,0.58 1.51,0.87 2.59,0.87z"/>
  <path id="6" class="fil0" d="M145.46 91.86l0.14 2.6c1.67,-2.01 3.85,-3.02 6.56,-3.02 4.69,0 7.08,2.69 7.17,8.06l0 14.89 -5.06 0 0 -14.61c0,-1.43 -0.31,-2.49 -0.92,-3.18 -0.62,-0.69 -1.63,-1.03 -3.03,-1.03 -2.05,0 -3.56,0.92 -4.57,2.77l0 16.04 -5.06 0 0 -22.53 4.77 0z"/>
  <path id="7" class="fil0" d="M162.33 102.96c0,-3.48 0.8,-6.26 2.42,-8.37 1.61,-2.1 3.77,-3.16 6.48,-3.16 2.39,0 4.32,0.83 5.8,2.5l0 -11.55 5.06 0 0 32 -4.59 0 -0.25 -2.33c-1.51,1.83 -3.53,2.75 -6.07,2.75 -2.64,0 -4.77,-1.06 -6.41,-3.19 -1.63,-2.13 -2.45,-5.02 -2.45,-8.67zm5.06 0.43c0,2.29 0.44,4.07 1.32,5.36 0.88,1.29 2.13,1.93 3.76,1.93 2.07,0 3.58,-0.92 4.54,-2.77l0 -9.62c-0.93,-1.81 -2.43,-2.71 -4.5,-2.71 -1.64,0 -2.9,0.65 -3.79,1.95 -0.89,1.3 -1.34,3.25 -1.34,5.87z"/>
  <polygon id="8" class="fil1" points="202.55,110.16 216.31,110.16 216.31,114.38 197.28,114.38 197.28,84.05 202.55,84.05 "/>
  <path id="9" class="fil1" d="M228.6 114.81c-3.21,0 -5.81,-1.01 -7.8,-3.03 -1.99,-2.03 -2.99,-4.71 -2.99,-8.08l0 -0.63c0,-2.25 0.43,-4.26 1.31,-6.03 0.87,-1.77 2.08,-3.15 3.65,-4.14 1.56,-0.99 3.31,-1.48 5.25,-1.48 3.07,0 5.44,0.98 7.11,2.94 1.68,1.96 2.51,4.74 2.51,8.32l0 2.05 -14.73 0c0.16,1.86 0.77,3.32 1.86,4.39 1.09,1.08 2.47,1.62 4.12,1.62 2.32,0 4.21,-0.93 5.67,-2.8l2.73 2.6c-0.9,1.35 -2.11,2.4 -3.62,3.14 -1.51,0.75 -3.19,1.12 -5.07,1.12zm-0.6 -19.33c-1.39,0 -2.51,0.49 -3.36,1.46 -0.85,0.97 -1.4,2.34 -1.64,4.08l9.64 0 0 -0.38c-0.11,-1.7 -0.56,-2.99 -1.35,-3.86 -0.79,-0.87 -1.89,-1.31 -3.29,-1.31z"/>
  <path id="10" class="fil1" d="M239.39 102.96c0,-3.48 0.8,-6.26 2.42,-8.37 1.61,-2.1 3.77,-3.16 6.48,-3.16 2.39,0 4.32,0.83 5.8,2.5l0 -11.55 5.06 0 0 32 -4.59 0 -0.25 -2.33c-1.51,1.83 -3.53,2.75 -6.07,2.75 -2.64,0 -4.77,-1.06 -6.41,-3.19 -1.63,-2.13 -2.45,-5.02 -2.45,-8.67zm5.06 0.43c0,2.29 0.44,4.07 1.32,5.36 0.88,1.29 2.13,1.93 3.76,1.93 2.07,0 3.58,-0.92 4.54,-2.77l0 -9.62c-0.93,-1.81 -2.43,-2.71 -4.5,-2.71 -1.64,0 -2.9,0.65 -3.79,1.95 -0.89,1.3 -1.34,3.25 -1.34,5.87z"/>
  <path class="fil1" d="M161.86 67.65l-58.83 0c-2.42,0 -4.62,-0.99 -6.22,-2.59l-0.01 -0.01c-1.6,-1.6 -2.59,-3.8 -2.59,-6.22l0 -50.01c0,-2.43 0.99,-4.63 2.59,-6.23 1.6,-1.6 3.8,-2.59 6.23,-2.59l50.01 0c2.43,0 4.63,0.99 6.23,2.59 1.6,1.6 2.59,3.8 2.59,6.23l0 37.14 0 3.33 0 3.04 -21.09 0 0 -2.86 0 -3.5 0 -24.27 -9.55 0 0 30.64 -6.37 0 0 -30.64 -9.55 0 0 30.62 -6.37 0 0 -30.62 0 -3.5 0 -2.86 38.19 0 0 2.86 0 3.5 0 24.27 8.36 0 0 -37.14c0,-0.67 -0.28,-1.28 -0.72,-1.73 -0.45,-0.45 -1.06,-0.72 -1.73,-0.72l-50.01 0c-0.67,0 -1.28,0.28 -1.73,0.72 -0.45,0.45 -0.72,1.06 -0.72,1.73l0 50.01c0,0.68 0.28,1.29 0.72,1.74 0.44,0.44 1.06,0.72 1.74,0.72l58.83 0 0 6.37z"/>
 </g>
</svg>
