<?xml version="1.0" encoding="UTF-8"?>
<!DOCTYPE svg PUBLIC "-//W3C//DTD SVG 1.1//EN" "http://www.w3.org/Graphics/SVG/1.1/DTD/svg11.dtd">
<!-- Creator: CorelDRAW 2018 (64-Bit) -->
<svg xmlns="http://www.w3.org/2000/svg" xml:space="preserve" width="15px" height="14.5px" version="1.1" style="shape-rendering:geometricPrecision; text-rendering:geometricPrecision; image-rendering:optimizeQuality; fill-rule:evenodd; clip-rule:evenodd"
viewBox="0 0 0.51 0.51"
 xmlns:xlink="http://www.w3.org/1999/xlink">
 <defs>
  <style type="text/css">
   <![CDATA[
    .fil0 {fill:white}
   ]]>
  </style>
 </defs>
 <g id="Слой_x0020_1">
  <metadata id="CorelCorpID_0Corel-Layer"/>
  <g id="_1708997185200">
   <path class="fil0" d="M0.37 0l-0.23 0c-0.08,0 -0.14,0.06 -0.14,0.14l0 0.23c0,0.08 0.06,0.14 0.14,0.14l0.23 0c0.08,0 0.14,-0.06 0.14,-0.14l0 -0.23c0,-0.08 -0.06,-0.14 -0.14,-0.14zm-0.12 0.4c-0.08,0 -0.14,-0.06 -0.14,-0.14 0,-0.08 0.06,-0.14 0.14,-0.14 0.08,0 0.14,0.06 0.14,0.14 0,0.08 -0.06,0.14 -0.14,0.14zm0.14 -0.25c-0.02,0 -0.04,-0.02 -0.04,-0.04 0,-0.02 0.02,-0.04 0.04,-0.04 0.02,0 0.04,0.02 0.04,0.04 0,0.02 -0.02,0.04 -0.04,0.04zm0 0z"/>
   <path class="fil0" d="M0.26 0.15c-0.06,0 -0.11,0.05 -0.11,0.11 0,0.06 0.05,0.11 0.11,0.11 0.06,0 0.11,-0.05 0.11,-0.11 0,-0.06 -0.05,-0.11 -0.11,-0.11zm0 0z"/>
   <path class="fil0" d="M0.4 0.1c-0.01,0 -0.01,0.01 -0.01,0.01 0,0.01 0.01,0.01 0.01,0.01 0.01,0 0.01,-0.01 0.01,-0.01 0,-0.01 -0.01,-0.01 -0.01,-0.01zm0 0z"/>
  </g>
 </g>
</svg>
