<?xml version="1.0" encoding="UTF-8"?>
<!DOCTYPE svg PUBLIC "-//W3C//DTD SVG 1.1//EN" "http://www.w3.org/Graphics/SVG/1.1/DTD/svg11.dtd">
<!-- Creator: CorelDRAW 2018 (64-Bit) -->
<svg xmlns="http://www.w3.org/2000/svg" xml:space="preserve" width="38mm" height="50mm" version="1.1" style="shape-rendering:geometricPrecision; text-rendering:geometricPrecision; image-rendering:optimizeQuality; fill-rule:evenodd; clip-rule:evenodd"
viewBox="0 0 795.2 1046.32"
 xmlns:xlink="http://www.w3.org/1999/xlink">
 <defs>
  <style type="text/css">
   <![CDATA[
    .fil0 {fill:none}
    .fil1 {fill:#FEFEFE}
   ]]>
  </style>
 </defs>
 <g id="Слой_x0020_1">
  <metadata id="CorelCorpID_0Corel-Layer"/>
  <rect class="fil0" x="0" y="-0" width="795.2" height="1046.32"/>
  <path class="fil1" d="M5.5 306.16l341.66 0c9.3,0 18.06,3.2 26.47,7.1 10.3,4.78 19.5,11.3 27.42,19.81 8.4,9 13.87,19.21 19.42,30.04 54.54,106.29 109.07,212.56 163.61,318.85l0 179.49 0.23 0c0.11,32.87 -9.3,56.4 -31.98,66.91 -5.74,2.66 -11.08,4.21 -17.34,4.21l-23.5 0 0 17.81 220.13 0 0 -17.81 -25.52 0c-6.44,0 -13.29,-2.89 -18.86,-6 -20.14,-11.26 -28.55,-34.01 -28.46,-65.12l0 -194.75 130.94 -263.33 0 579.43 -555.74 0 -26.06 0c-6.94,0 -15.17,-3.88 -20.9,-7.57 -18.26,-11.73 -25.96,-33.82 -25.86,-63.56l0 -220.1c116.5,36.06 239.66,7.88 267.33,-109.07 7.4,-31.27 7.4,-64.17 1.5,-95.69 -20.22,-108.01 -107.54,-151.54 -268.83,-144.13 -51.89,0 -103.81,0 -155.7,0 0,5.85 0,11.68 0,17.53 59.19,-1.33 73.05,21.5 74,81.46l0 469.98c0.09,30.24 -7.86,52.58 -26.8,64.15 -6.33,3.86 -13.87,6.97 -21.34,6.97l-24.69 0 -1.19 0 0 -676.62 0.04 0.01zm556.9 0l143.74 0c11.55,0 22.83,0.03 33.83,4.27 18.82,7.25 29.77,24.09 25.34,53.99 -1.91,12.88 -5.82,23.87 -11.56,35.37 -37.49,75.32 -75,150.63 -112.49,225.93 -38.43,-77.38 -76.86,-154.74 -115.29,-232.12 -7.32,-14.71 -14.48,-27.96 -14.95,-44.92 -0.44,-16.07 6.18,-27.8 19.84,-35.18 10.05,-5.43 20.33,-7.35 31.52,-7.35l0.01 0.01zm-401.2 358.97l0 -223.46 0 -51.42c82.9,-20.64 142.75,-0.78 167.64,80.52 11.01,35.95 13.09,71.69 4.82,108.48 -19.01,84.53 -86.65,108.6 -172.46,85.87l0 0.01z"/>
 </g>
</svg>
